<?xml version="1.0" encoding="utf-8"?>
<!-- Generator: Adobe Illustrator 16.0.0, SVG Export Plug-In . SVG Version: 6.00 Build 0)  -->
<!DOCTYPE svg PUBLIC "-//W3C//DTD SVG 1.1//EN" "http://www.w3.org/Graphics/SVG/1.1/DTD/svg11.dtd">
<svg version="1.1" id="Layer_1" xmlns="http://www.w3.org/2000/svg" xmlns:xlink="http://www.w3.org/1999/xlink" x="0px" y="0px"
	 width="130px" height="100px" viewBox="0 0 130 100" enable-background="new 0 0 130 100" xml:space="preserve">
<g>
	<g>
		<polygon fill="#FFFFFF" points="53.573,56.734 45.302,62.742 55.372,70.061 58.53,60.34 		"/>
		<polygon fill="#FFFFFF" points="56.86,71.145 65.131,77.152 73.395,71.145 65.131,65.135 		"/>
		<polygon fill="#FFFFFF" points="61.04,52.578 30.717,30.544 37.795,45.272 47.85,52.578 		"/>
		<polygon fill="#FFFFFF" points="64.211,42.861 21.848,12.083 28.925,26.813 61.688,50.619 		"/>
		<polygon fill="#FFFFFF" points="27.854,0 22.86,10.392 38.208,21.542 		"/>
		<polygon fill="#FFFFFF" points="71.727,60.34 74.889,70.061 84.955,62.742 76.684,56.734 		"/>
		<polygon fill="#FFFFFF" points="82.404,52.578 92.461,45.272 99.537,30.544 69.221,52.578 		"/>
		<polygon fill="#FFFFFF" points="66.051,42.861 68.564,50.619 101.328,26.813 108.408,12.083 		"/>
		<polygon fill="#FFFFFF" points="102.402,0 92.049,21.542 107.396,10.392 		"/>
		<path fill="#FFFFFF" d="M60.538,58.186c0-2.536,2.057-4.596,4.595-4.596c2.534,0,4.594,2.06,4.594,4.596
			c0,2.537-2.061,4.599-4.594,4.599C62.594,62.781,60.538,60.723,60.538,58.186z"/>
	</g>
	<g>
		<path fill="#FFFFFF" d="M0.419,90.355h3.324v5.288c0,0.58,0.053,1.005,0.265,1.357c0.422,0.729,1.266,0.924,1.938,0.924
			c0.873,0,1.373-0.303,1.599-0.518c0.567-0.527,0.579-1.369,0.579-1.818v-5.233h3.325v4.877c0,1.098-0.025,2.245-0.541,3.039
			C9.891,99.854,7.438,100,5.96,100c-2.071,0-3.247-0.295-3.946-0.713c-1.449-0.713-1.595-2.189-1.595-2.941V90.355z"/>
		<path fill="#FFFFFF" d="M12.044,97.242h3.033v2.426h-3.033V97.242z"/>
		<path fill="#FFFFFF" d="M21.188,92.756c0,0.131,0.039,0.25,0.105,0.33c0.225,0.287,1.16,0.502,1.675,0.604
			c0.634,0.147,1.28,0.266,1.914,0.411c0.409,0.078,0.806,0.171,1.2,0.328c1.24,0.463,1.636,1.388,1.636,2.23
			c0,0.619-0.211,1.188-0.487,1.596c-0.777,1.174-2.349,1.688-4.854,1.688c-0.938,0-2.797-0.076-3.892-1.054
			c-0.808-0.719-0.926-1.571-0.979-1.993l3.285-0.093c0.119,0.604,0.738,1.068,2.061,1.068c0.342,0,0.83-0.041,1.16-0.229
			c0.225-0.129,0.461-0.396,0.461-0.711c0-0.438-0.354-0.616-0.619-0.711c-0.41-0.133-2.506-0.502-2.971-0.608
			c-0.367-0.076-0.711-0.168-1.066-0.287c-0.355-0.133-1.848-0.658-1.848-2.363c0-0.697,0.29-1.342,0.75-1.822
			c1.043-1.077,2.918-1.186,3.946-1.186c1.134,0,2.256,0.156,2.836,0.354c1.741,0.556,1.966,1.861,2.06,2.359l-3.271,0.188
			c-0.081-0.308-0.237-0.855-1.637-0.855C22.219,92.004,21.188,92.066,21.188,92.756z"/>
		<path fill="#FFFFFF" d="M28.364,97.242h3.033v2.426h-3.033V97.242z"/>
		<path fill="#FFFFFF" d="M41.75,96.094h-2.163l1.066-3.151L41.75,96.094z M34.729,99.668h3.654l0.502-1.518h3.562l0.501,1.518
			h3.628l-4.037-9.312H38.74L34.729,99.668z"/>
		<path fill="#FFFFFF" d="M51.153,90.355v9.311h-3.34v-9.311H51.153z"/>
		<path fill="#FFFFFF" d="M56.971,92.465h2.771c0.249,0,0.592,0.027,0.854,0.264c0.174,0.158,0.239,0.384,0.239,0.599
			c0,0.828-0.845,0.842-1.358,0.842h-2.508v-1.703L56.971,92.465L56.971,92.465z M53.633,99.668h3.338v-3.393h1.781l1.913,3.393
			h3.692l-2.336-3.721c0.396-0.105,1.029-0.236,1.561-0.869c0.382-0.461,0.59-1.107,0.59-1.771c0-0.938-0.421-1.848-1.092-2.362
			c-0.778-0.566-1.783-0.578-2.602-0.593h-6.847L53.633,99.668L53.633,99.668z"/>
		<path fill="#FFFFFF" d="M69.484,90.355h9.129v2.096H72.82v1.783h5.318v2.084H72.82v3.352h-3.336V90.355L69.484,90.355z"/>
		<path fill="#FFFFFF" d="M86.088,92.084c2.283,0.025,2.732,1.896,2.732,2.914c0,0.936-0.354,2.146-1.385,2.664
			c-0.41,0.213-0.886,0.266-1.351,0.266c-2.021,0-2.799-1.492-2.799-2.93C83.291,93.719,83.994,92.057,86.088,92.084z
			 M85.893,90.012c-1.649,0.027-3.865,0.328-5.172,2.177c-0.598,0.846-0.859,1.872-0.859,2.915c0,1.068,0.252,1.968,0.886,2.81
			c0.688,0.938,2.021,2.088,5.269,2.088c1.688,0,3.19-0.234,4.459-1.24c0.446-0.344,0.815-0.766,1.104-1.254
			c0.465-0.766,0.678-1.66,0.678-2.531c0-1.6-0.754-3.551-2.891-4.42C88.295,90.113,87.055,89.996,85.893,90.012z"/>
		<path fill="#FFFFFF" d="M97.449,92.465h2.771c0.25,0,0.594,0.027,0.854,0.264c0.172,0.158,0.233,0.384,0.233,0.599
			c0,0.828-0.842,0.842-1.354,0.842h-2.514v-1.703L97.449,92.465L97.449,92.465z M94.111,99.668h3.338v-3.393h1.781l1.912,3.393
			h3.694l-2.334-3.721c0.396-0.105,1.026-0.236,1.556-0.869c0.385-0.461,0.594-1.107,0.594-1.771c0-0.938-0.422-1.848-1.096-2.362
			c-0.777-0.566-1.781-0.578-2.601-0.593h-6.849v9.312h0.002v0.003H94.111z"/>
		<path fill="#FFFFFF" d="M109.691,95.01c0,1.414,0.832,2.877,2.746,2.877c0.729,0,1.397-0.225,1.887-0.621
			c0.438-0.354,0.566-0.657,0.674-0.936l3.182,0.33c-0.104,0.344-0.225,0.688-0.531,1.16c-1.092,1.688-3.229,2.162-5.272,2.162
			c-0.91,0-1.812-0.076-2.666-0.341c-1.912-0.6-3.494-2.062-3.494-4.618c0-1.812,0.945-5.066,6.255-5.066
			c4.521,0,5.235,2.059,5.538,2.943l-3.088,0.555c-0.131-0.268-0.287-0.621-0.774-0.938c-0.504-0.315-1.125-0.426-1.601-0.426
			C111.039,92.096,109.691,93.033,109.691,95.01z"/>
		<path fill="#FFFFFF" d="M129.451,90.355v2.096h-6.479v1.52h5.989v2.109h-6.004v1.479h6.621v2.111h-9.942v-9.313L129.451,90.355
			L129.451,90.355z"/>
	</g>
</g>
</svg>
