<?xml version="1.0" encoding="utf-8"?>
<!-- Generator: Adobe Illustrator 16.0.0, SVG Export Plug-In . SVG Version: 6.00 Build 0)  -->
<!DOCTYPE svg PUBLIC "-//W3C//DTD SVG 1.1//EN" "http://www.w3.org/Graphics/SVG/1.1/DTD/svg11.dtd">
<svg version="1.1" xmlns="http://www.w3.org/2000/svg" xmlns:xlink="http://www.w3.org/1999/xlink" x="0px" y="0px" width="220px"
	 height="220px" viewBox="0 0 220 220" enable-background="new 0 0 220 220" xml:space="preserve">
<g id="empower">
</g>
<g id="connect">
</g>
<g id="amplify">
	<g>
		<path fill-rule="evenodd" clip-rule="evenodd" fill="#2FC872" d="M188,108c0,15.807-4.916,29.044-12.998,41.333
			C161.059,170.533,137.271,186,110,186c-16.154,0-31.549-6.59-43.998-15c-9.863-6.663-18.656-13.364-23.681-24.197
			C37.002,135.333,32,122.126,32,108c0-17.989,8.986-32.753,16.321-47.752C53.334,49.997,64.601,43.486,75.1,38.226
			C85.601,32.963,97.454,30,110,30c22.801,0,41.711,12.808,57.668,26.666C180.335,67.666,188,87.723,188,108z"/>
		<path fill-rule="evenodd" clip-rule="evenodd" fill="#2E2230" d="M126.016,32.119c0.824,0.6,1.658,1.193,2.418,1.869
			c0.639,0.564,1.206,1.215,1.752,1.873c0.699,0.844,1.305,1.77,2.025,2.594c0.715,0.816,1.383,1.699,2.389,2.219
			c0.174,0.088,0.292,0.305,0.408,0.48c0.295,0.447,0.557,0.918,0.863,1.355c0.688,0.984,1.462,1.918,2.077,2.945
			c0.786,1.312,1.497,2.674,2.144,4.061c0.313,0.674,0.663,1.322,1.002,1.979c0.154,0.301,0.158,0.674,0.291,0.99
			c0.299,0.713,0.701,1.389,0.941,2.119c0.302,0.91,0.392,1.896,0.741,2.785c0.412,1.047,0.347,2.205,0.862,3.223
			c0.16,0.312,0.109,0.73,0.156,1.102c0.08,0.637,0.158,1.273,0.246,1.912c0.025,0.184,0.072,0.363,0.113,0.547
			c0.084,0.361,0.172,0.725,0.256,1.088c0.041,0.178,0.079,0.355,0.117,0.533c0.053,0.258,0.156,0.52,0.146,0.773
			c-0.033,0.912,0.082,1.795,0.209,2.701c0.163,1.156,0.379,2.336,0.221,3.527c-0.055,0.424-0.072,0.859-0.041,1.285
			c0.071,0.934,0.186,1.865,0.277,2.797c0.012,0.105,0.014,0.217-0.004,0.32c-0.096,0.545,0.008,1.049,0.17,1.58
			c0.248,0.812,0.234,1.664,0.106,2.512c-0.04,0.268,0.142,0.578,0.071,0.828c-0.143,0.51-0.047,1.008-0.039,1.51
			c0.009,0.533,0.076,1.066,0.1,1.602c0.018,0.371,0.072,0.758-0.003,1.115c-0.253,1.184,0.003,2.355,0.019,3.531
			c0.004,0.35-0.033,0.703,0.004,1.047c0.069,0.611,0.107,1.242,0.296,1.82c0.235,0.721,0.263,1.439,0.147,2.148
			c-0.124,0.756-0.102,1.492-0.074,2.246c0.043,1.178,0.28,2.334,0.334,3.506c0.008,0.184-0.037,0.367-0.051,0.551
			c-0.01,0.152-0.045,0.318-0.006,0.461c0.182,0.672,0.403,1.332,0.57,2.006c0.076,0.309,0.078,0.641,0.079,0.961
			c0.001,0.268,0.087,0.463,0.344,0.637c0.327-0.357,0.708-0.658,1.007-0.98c0.511-0.553,1.15-0.686,1.781-0.814
			c0.941-0.197,1.809,0.123,2.566,0.688c0.558,0.416-0.431,0.906,0.274,1.113c0.213,0.061,0.386,0.354,0.517,0.574
			c0.105,0.18,0.148,0.408,0.168,0.619c0.1,1.15,0.637,2.15,1.057,3.191c0.061,0.148,0.129,0.293,0.177,0.445
			c0.473,1.514,0.714,3.051,0.464,4.637c-0.045,0.285-0.107,0.566-0.176,0.848c-0.404,1.705-0.406,3.463-0.662,5.188
			c-0.104,0.707-0.066,1.439-0.326,2.125c-0.23,0.613-0.232,1.291-0.533,1.889c-0.066,0.131-0.021,0.316-0.031,0.477
			c-0.012,0.199,0.104,0.418-0.172,0.564c-0.086,0.047-0.107,0.291-0.093,0.438c0.109,1.088-0.019,2.115-0.446,3.146
			c-0.323,0.779-0.436,1.646-0.646,2.475c-0.021,0.086-0.055,0.225-0.11,0.24c-0.237,0.062-0.253,0.211-0.269,0.424
			c-0.014,0.199-0.099,0.412-0.207,0.584c-0.165,0.254-0.327,0.465-0.179,0.811c0.053,0.121-0.141,0.346-0.216,0.525
			c-0.356,0.861-0.721,1.721-1.062,2.588c-0.194,0.492-0.409,0.973-0.503,1.512c-0.078,0.457-0.311,0.885-0.59,1.301
			c-0.24,0.361-0.272,0.889-0.545,1.291c-0.181,0.264-0.352,0.541-0.488,0.828c-0.121,0.26-0.195,0.541-0.28,0.814
			c-0.087,0.277-0.093,0.607-0.256,0.828c-0.55,0.75-0.764,1.645-1.155,2.461c-0.255,0.533-0.544,1.047-0.815,1.57
			c-0.38,0.732-0.711,1.494-1.149,2.189c-0.355,0.561-0.84,1.039-1.262,1.559c-0.2,0.248-0.389,0.506-0.586,0.756
			c-0.168,0.213-0.326,0.434-0.512,0.627c-0.633,0.656-1.26,1.314-1.918,1.943c-0.348,0.33-0.745,0.615-1.139,0.895
			c-1.322,0.936-2.652,1.844-4.137,2.525c-0.803,0.369-0.072,0.812-0.941,1.057c-0.604,0.17-1.115,0.639-1.704,0.883
			c-0.775,0.322-1.466,0.885-2.401,0.805c-0.254-0.023-0.609,0.215-0.787,0.438c-0.237,0.299-0.508,0.439-0.85,0.559
			c-0.553,0.195-1.099,0.426-1.616,0.699c-0.388,0.205-0.753,0.426-1.208,0.359c-0.343-0.051-0.598,0.1-0.892,0.262
			c-0.885,0.49-1.819,0.859-2.835,1.027c-0.426,0.07-0.807,0.379-1.227,0.52c-0.502,0.168-1.023,0.279-1.537,0.408
			c-0.154,0.039-0.329,0.027-0.468,0.098c-0.644,0.322-1.343,0.371-2.039,0.434c-0.451,0.041-0.911,0.045-1.351,0.141
			c-0.197,0.041-0.447,0.238-0.508,0.42c-0.115,0.348-0.133,0.732-0.15,1.105c-0.019,0.402,0.004,0.809,0.02,1.211
			c0.008,0.213-0.033,0.477,0.072,0.633c0.569,0.85,0.283,1.781,0.262,2.67c-0.021,0.895-0.014,1.742,0.273,2.617
			c0.201,0.609,0.183,1.32,0.135,1.979c-0.084,1.131-0.117,2.242,0.067,3.375c0.118,0.727,0.096,1.479,0.216,2.219
			c0.081,0.508,0.279,0.807,0.795,0.834c0.75,0.041,1.51,0.143,2.25,0.072c1.268-0.121,2.523-0.072,3.785,0.012
			c0.429,0.027,0.869-0.01,1.285,0.072c1.173,0.23,2.348-0.033,3.521,0.061c0.468,0.035,0.948-0.146,1.427-0.201
			c1.361-0.154,2.722-0.312,4.086-0.432c0.559-0.049,1.105-0.082,1.662-0.205c0.943-0.205,1.918-0.27,2.883-0.367
			c0.613-0.062,1.23-0.076,1.846-0.109c0.48-0.027,0.835,0.129,0.986,0.633c0.061,0.203,0.215,0.377,0.277,0.578
			c0.203,0.678,0.61,1.191,1.201,1.566c0.792,0.502,1.137,1.342,1.555,2.111c0.492,0.906,0.768-1.061,0.932-0.051
			c0.189,1.158-0.121,2.244-1.004,3.008c-0.697,0.602-1.635,0.82-2.57,0.832c-0.805,0.012-1.61-0.082-2.414-0.062
			c-0.805,0.02-1.611,0.098-2.41,0.197c-1.035,0.125-2.061,0.328-3.096,0.439c-1.125,0.121-2.258,0.168-3.387,0.266
			c-0.562,0.049-1.121,0.137-1.682,0.205c-0.322,0.037-0.648,0.125-0.965,0.094c-1.17-0.113-2.301,0.199-3.452,0.273
			c-0.108,0.008-0.216,0.027-0.322,0.025c-1.691-0.012-3.38,0.021-5.071,0.08c-1.42,0.047-2.84,0.033-4.26,0.084
			c-0.693,0.025-1.385,0.133-2.075,0.211c-0.502,0.057-1.001,0.164-1.504,0.189c-1.845,0.098-3.642,0.635-5.505,0.574
			c-0.805-0.025-1.613-0.035-2.416,0.021c-1.148,0.084-2.314-0.162-3.446,0.146c-0.427,0.115-0.835-0.326-1.245,0.006
			c-0.891-0.232-1.824,0.127-2.718-0.234c-0.406-0.164-0.879-0.281-1.315,0.014c-0.039,0.029-0.101,0.039-0.151,0.035
			c-0.694-0.041-1.388-0.094-2.081-0.129c-1.281-0.064-2.568-0.219-3.841-0.145c-0.852,0.051-1.698-0.092-2.546,0.047
			c-0.824,0.135-1.658,0.201-2.488,0.295c-0.875,0.1-1.748,0.23-2.627,0.287c-0.558,0.035-1.139,0.035-1.681-0.082
			c-0.815-0.174-1.536-0.885-1.704-1.916c-0.166-1.018-0.141-2.021-0.043-3.039c0.046-0.48,0.02-0.967,0.021-1.449
			c0.002-0.744,1.835-1.805,2.327-2.199c0.056-0.045,0.152-0.051,0.229-0.051c0.475-0.006,0.949-0.002,1.423-0.002
			c0.051-0.154,3.433-0.002,5.022,0.002c0.746,0,1.492,0.078,2.279,0.123c-0.018-0.09,1.512,0.129,2.172,0.016
			c0.385-0.064,0.729-0.078,1.104-0.002c0.663,0.137,1.298-0.02,1.915-0.262c0.068-0.027,0.146-0.062,0.212-0.051
			c1.048,0.195,2.07,0.041,3.096-0.178c0.284-0.062,0.589-0.062,0.881-0.039c0.469,0.035,1.078-0.055,1.54-0.217
			c0.217-0.074,0.486-0.119,0.701-0.062c1.022,0.26,2.03,0.045,3.044-0.037c0.769-0.064,1.538-0.105,2.41-0.164
			c0.011-0.23,0.06-0.461,0.024-0.678c-0.055-0.316-0.18-0.621-0.259-0.932c-0.124-0.496-0.225-0.971-0.063-1.504
			c0.118-0.396,0.094-0.869,0.012-1.285c-0.299-1.52-0.246-3.043-0.193-4.576c0.035-1.045-0.035-2.094-0.095-3.141
			c-0.069-1.209-0.192-2.416-0.267-3.625c-0.033-0.564-0.01-1.133-0.004-1.699c0.008-0.717-0.006-0.691-0.666-0.846
			c-0.639-0.15-3.341-0.088-4.225-0.139c-0.483-0.027-0.963-0.117-1.441-0.197c-0.764-0.125-3.836-0.76-4.294-0.9
			c-0.87-0.273-1.733-0.561-2.603-0.834c-0.453-0.145-0.912-0.27-1.367-0.412c-0.176-0.055-4.619-4.408-5.406-5.059
			c-1.406-1.164-2.794-2.348-4.184-3.529c-0.35-0.297-0.684-0.611-1.018-0.926c-1.512-1.418-3.02-2.838-4.529-4.26
			c-0.079-0.072-0.158-0.146-0.232-0.225c-0.409-0.432-0.926-0.666-1.383-0.963c-0.573-0.371-1.057-0.881-1.566-1.346
			c-0.255-0.232-0.52-0.467-0.717-0.744c-0.496-0.701-1.235-2.568-1.316-2.645c-0.906-0.824-1.189-2.029-1.853-3.006
			c-0.779-1.145-1.213-2.428-1.503-3.791c-0.193-0.908-0.664-1.756-0.95-2.65c-0.201-0.629-0.287-1.293-0.444-1.939
			c-0.125-0.518-0.242-1.043-0.428-1.541c-0.717-1.918-1.166-3.908-1.521-5.912c-0.167-0.943-0.123-1.926-0.153-2.893
			c-0.026-0.863-0.111-1.711-0.389-2.533c-0.043-0.127-0.145-0.273-0.112-0.379c0.143-0.449,0.184-0.795-0.238-1.193
			c-0.229-0.215-0.205-0.752-0.21-1.146c-0.012-0.924-0.028-1.854,0.059-2.773c0.104-1.125,0.228-2.262,0.51-3.35
			c0.146-0.561,0.645-1.031,1.004-1.529c0.106-0.148,0.295-0.238,0.414-0.383c0.43-0.531,0.88-1.018,1.654-0.943
			c1.191-0.807,2.371,0.4,2.891,1.127c0.517,0.721,1.006,1.469,1.24,2.342c0.141,0.529,0.36,1.012,0.706,1.441
			c0.132,0.162,0.233,0.373,0.271,0.578c0.12,0.629,0.192,1.266,0.302,1.896c0.079,0.447,0.156,0.902,0.295,1.334
			c0.186,0.59,0.387,1.154,0.361,1.803c-0.018,0.402,0.215,0.814,0.333,1.225c0.231,0.799,0.431,1.609,0.7,2.395
			c0.211,0.607,0.49,1.193,0.771,1.773c0.508,1.047,0.803,2.162,1.088,3.281c0.104,0.412,0.292,0.803,0.445,1.201
			c0.058,0.15,0.164,0.293,0.182,0.443c0.107,0.932,0.521,1.75,0.895,2.588c0.82,1.84,1.668,3.666,2.635,5.438
			c0.839,1.531,1.712,3.047,2.511,4.6c0.455,0.885,0.819,1.818,1.483,2.574c0.385,0.438,1.024,1.559,1.031,1.711
			c0.008,0.199,0.131,0.402,0.23,0.59c0.611,1.158,1.654,1.881,2.676,2.621c0.214,0.154,0.477,0.24,0.713,0.367
			c0.211,0.113,0.461,0.199,0.615,0.369c0.915,1.01,2.104,1.67,3.137,2.527c0.365,0.305,2.646,1.219,2.99,1.596
			c0.197,0.213,0.41,0.424,0.652,0.578c0.338,0.213,3.795,1.115,4.845,1.072c0.3-0.012,0.564-0.014,0.856,0.068
			c0.41,0.117,0.842,0.184,1.266,0.211c1.318,0.084,2.625,0.021,3.922-0.285c0.568-0.133,1.174-0.129,1.764-0.158
			c1.527-0.076,3.057-0.143,4.587-0.201c1.448-0.057,2.897-0.094,4.346-0.152c0.4-0.018,0.812-0.029,1.195-0.131
			c0.96-0.252,1.915-0.135,2.882-0.084c0.574,0.027,1.184-0.033,1.73-0.207c0.709-0.227,1.367-0.615,2.056-0.912
			c1.509-0.65,2.787-1.725,4.367-2.262c0.899-0.307,1.708-0.875,2.575-1.287c0.318-0.152,0.568-0.451,1.013-0.387
			c0.207,0.031,0.462-0.225,0.687-0.365c0.586-0.369,1.18-0.707,1.847-0.932c0.45-0.15,0.904-0.398,1.248-0.719
			c0.802-0.748,1.722-1.381,2.337-2.326c0.201-0.311,0.501-0.561,0.776-0.816c1.11-1.037,2.001-2.238,2.772-3.541
			c0.342-0.576,0.715-1.135,1.114-1.67c0.72-0.967,1.077-2.104,1.582-3.172c0.839-1.773,1.125-3.705,1.651-5.566
			c0.468-1.658,0.952-3.314,1.372-4.984c0.345-1.379,0.686-2.76,0.817-4.186c0.062-0.666,0.268-1.314,0.381-1.977
			c0.197-1.141,0.307-2.289,0.215-3.449c-0.033-0.402-0.025-0.807-0.005-1.207c0.014-0.283-0.024-0.527-0.261-0.762
			c-0.277,0.287-0.055,0.594-0.111,0.859c-0.325,1.533-0.275,3.096-0.352,4.648c-0.006,0.107,0.008,0.229-0.039,0.314
			c-0.586,1.072-0.598,2.271-0.777,3.484c-0.508,0.248-0.638,0.719-0.74,1.285c-0.158,0.889-0.43,1.766-0.736,2.615
			c-0.409,1.131-0.897,2.232-1.355,3.344c-0.244,0.59-0.629,1.053-1.184,1.389c-0.188,0.113-0.336,0.314-0.473,0.496
			c-0.221,0.295-0.406,0.615-0.626,0.912c-0.694,0.939-1.396,1.877-2.1,2.811c-0.291,0.385-0.558,0.801-0.903,1.129
			c-0.622,0.59-1.296,1.125-1.945,1.686c-0.141,0.119-0.297,0.234-0.4,0.383c-0.9,1.285-2.066,2.322-3.22,3.354
			c-1.404,1.26-2.933,2.365-4.641,3.193c-0.433,0.209-0.897,0.352-1.341,0.539c-0.193,0.078-0.389,0.17-0.557,0.293
			c-0.781,0.568-1.59,1.152-2.514,1.371c-0.993,0.238-1.82,0.812-2.771,1.094c-0.739,0.219-1.505,0.35-2.259,0.521
			c-0.363,0.08-0.725,0.174-1.092,0.238c-0.337,0.057-0.68,0.074-1.019,0.121c-0.21,0.029-0.456,0.023-0.613,0.137
			c-0.622,0.443-1.353,0.506-2.062,0.641c-1.668,0.324-3.342,0.582-5.051,0.391c-0.535-0.061-1.078-0.082-1.604-0.188
			c-0.929-0.186-1.858-0.268-2.804-0.271c-1.093-0.006-2.188-0.045-3.277-0.133c-0.498-0.039-1.017-0.156-1.469-0.365
			c-0.805-0.369-1.656-0.418-2.506-0.527c-0.346-0.043-0.696-0.062-1.036-0.135c-0.548-0.115-1.095-0.246-1.63-0.406
			c-0.798-0.242-1.588-0.506-2.374-0.783c-0.249-0.086-0.487-0.225-0.708-0.371c-0.823-0.549-1.619-1.139-2.457-1.66
			c-0.568-0.354-1.197-0.607-1.784-0.936c-0.372-0.207-0.761-0.418-1.066-0.707c-0.977-0.928-1.882-1.932-2.886-2.826
			c-0.602-0.535-0.906-1.221-1.322-1.861c-0.33-0.508-0.749-0.965-1.036-1.508c-0.163-0.307-0.385-0.607-0.45-0.938
			c-0.287-1.449-1.051-2.697-1.658-4.01c-0.689-1.486-1.495-2.922-2.15-4.422c-0.514-1.174-0.875-2.416-1.336-3.719
			c-0.75-0.371-0.902-4.875-1.241-6.193c-0.101-0.393-0.246-0.777-0.303-1.176c-0.159-1.111-0.329-2.217-0.285-3.355
			c0.022-0.574-0.076-1.162,0.011-1.74c0.166-1.107-0.189-2.232,0.079-3.322c0.19-0.779-0.005-1.531,0.001-2.295
			c0.016-2.285,0.102-4.58-0.062-6.855c-0.156-2.182-0.166-4.359-0.203-6.537c-0.029-1.689,0.124-3.379,0.141-5.07
			c0.016-1.641-0.02-3.281-0.07-4.922c-0.064-2.117-0.166-4.234-0.258-6.354c-0.033-0.779-0.114-1.559-0.122-2.34
			c-0.017-1.746-0.024-3.492,0.015-5.234c0.011-0.479-0.088-0.846-0.371-1.039c0.053-0.635,0.092-1.156,0.142-1.68
			c0.056-0.586,0.124-1.172,0.185-1.754c0.023-0.215,0.066-0.432,0.057-0.645c-0.064-1.594,0.045-3.166,0.43-4.721
			c0.121-0.492,0.095-1.021,0.191-1.521c0.234-1.215,0.594-2.412,0.729-3.633c0.153-1.391,0.821-2.604,1.14-3.936
			c0.324-1.365,0.924-2.662,1.365-4.004c0.205-0.621,1.562-2.516,1.99-3.072c1.044-1.359,1.8-2.934,3.131-4.086
			c0.498-0.434,0.85-1.041,1.25-1.58c0.946-1.281,2.012-2.43,3.387-3.27c0.572-0.35,1.084-0.809,1.672-1.127
			c1.039-0.562,2.107-1.078,3.182-1.572c0.733-0.338,1.447-0.668,2.057-1.234c0.646-0.6,1.41-1.053,2.229-1.42
			c0.608-0.273,1.165-0.67,1.712-1.061c0.498-0.355,1.053-0.477,1.61-0.371c0.763,0.145,1.489-0.088,2.234-0.094
			c0.849-0.008,1.71-0.088,2.495-0.488c0.068-0.035,0.166-0.061,0.234-0.039c1.062,0.32,2.048-0.312,3.093-0.254
			c0.182,0.01,0.376-0.184,0.567-0.285c0.637,0.176,1.271,0.43,1.951,0.17c0.707,0.311,1.488,0.041,2.191,0.258
			c0.797,0.244,1.59,0.375,2.422,0.357c0.312-0.006,0.629,0.092,0.939,0.16c0.881,0.193,1.725,0.506,2.564,0.832
			c0.789,0.307,1.576,0.615,2.352,0.951C120.594,29.496,125.787,31.953,126.016,32.119z M94.062,57.756
			c0.146,0.373,0.27,0.76,0.369,1.148c0.15,0.592,0.283,1.189,0.396,1.787c0.028,0.15-0.027,0.32-0.07,0.475
			c-0.093,0.309-0.152,0.643-0.315,0.91c-0.327,0.535-0.38,1.252-1.038,1.572c-0.729,0.352-1.447,0.699-2.29,0.711
			c-0.913,0.016-1.829,0.051-2.739,0.133c-1.332,0.119-4.877,0.396-6.225,0.141c-0.473-0.09-0.638,0.082-0.635,0.582
			c0.002,0.375,0.06,2.234,0.094,2.609c0.072,0.768,0.129,0.84,0.875,0.814c0.644-0.021,3.508-0.139,4.15-0.148
			c1.508-0.018,3.015-0.002,4.521,0.016c1.348,0.014,2.631,0.287,3.699,1.166c0.487,0.4,1.057,0.752,1.275,1.455
			c-0.102,0.201-0.221,0.438-0.273,0.543c0.072,0.477,0.186,0.822,0.164,1.158c-0.047,0.695-0.113,1.398-0.273,2.072
			c-0.133,0.564-1.508,1.068-1.82,1.209c-0.404,0.184-0.865,0.25-1.258,0.449c-0.453,0.229-0.92,0.291-1.405,0.311
			c-1.585,0.062-3.171,0.137-4.757,0.176c-0.665,0.016-3.561,0.053-4.217-0.17c-0.285-0.1-0.612-0.072-0.885-0.1
			c-0.1,0.871-0.234,0.156-0.26,0.93c-0.022,0.74,0.057,2.971,0.115,3.711c0.027,0.365,0.275,0.613,0.609,0.674
			c0.686,0.123,3.608,0.283,4.295,0.256c1.111-0.039,2.189,0.096,3.281,0.27c1.188,0.189,2.393,0.275,3.592,0.393
			c0.318,0.031,0.643-0.008,0.96,0.027c0.56,0.055,1.134,0.014,1.657,0.291c0.613,0.324,1.231,0.648,1.864,0.932
			c0.437,0.195,0.796,0.445,0.947,0.893c-0.044,0.369-0.04,0.736-0.046,1.102c-0.005,0.27-0.008,0.537-0.037,0.803
			c-0.035,0.316-0.085,0.631-0.152,0.939c-0.066,0.314-0.151,0.625-0.247,0.932c-0.048,0.152-0.222,0.309-0.194,0.434
			c0.139,0.627-0.297,1.057-0.499,1.561c-0.076,0.188-0.214,0.377-0.372,0.506c-0.861,0.701-1.975,0.941-2.896,1.537
			c-0.061,0.041-0.156,0.031-0.237,0.033c-1.012,0.045-2.025,0.15-3.034,0.115c-1.117-0.043-2.229-0.232-3.345-0.326
			c-0.874-0.074-3.975-0.119-4.853-0.145c-0.508-0.014-0.766,0.162-0.844,0.57c-0.101,0.525-0.166,1.061-0.206,1.596
			c-0.048,0.633,0.005,1.266,0.038,1.902c0.053,0.986,0.267,1.977,0.082,2.973c-0.015,0.076-0.012,0.17,0.016,0.24
			c0.379,0.965-0.006,1.961,0.129,2.941c0.1,0.727-0.02,1.479,0.047,2.211c0.04,0.459,0.195,0.891-0.082,1.328
			c-0.06,0.096-0.054,0.283-0.001,0.389c0.173,0.348,0.091,0.656-0.015,1.008c-0.096,0.32-0.068,0.682-0.06,1.025
			c0.013,0.479,0.104,0.961,0.08,1.438c-0.046,0.965-0.147,1.926-0.221,2.889c-0.013,0.174-0.001,0.35-0.001,0.5
			c0.751-0.084,3.713-0.023,4.332-0.266c0.998-0.391,1.93-0.285,2.906-0.047c0.252,0.061,0.541,0.062,0.797,0.014
			c0.941-0.182,1.869-0.484,2.846-0.207c0.068,0.02,0.168-0.008,0.232-0.047c0.384-0.248,0.773-0.107,1.174-0.057
			c0.34,0.045,0.691,0.016,1.037,0.006c0.267-0.01,0.533-0.059,0.799-0.053c0.984,0.02,1.967-0.086,2.944,0.209
			c0.397,0.121,0.817,0.135,1.224,0.32c0.349,0.16,0.797,0.402,1.197-0.002c0.057-0.059,0.218-0.066,0.307-0.033
			c1.057,0.4,2.166,0.17,3.248,0.246c1.43,0.102,2.869,0.031,4.307,0.041c0.537,0.004,1.106,0.152,1.602,0.016
			c1.031-0.281,2.089-0.17,3.121-0.346c0.313-0.053,0.641-0.029,0.961-0.033c0.858-0.008,1.719,0.033,2.574-0.025
			c1.23-0.084,2.453-0.301,3.684-0.346c1.422-0.055,2.842-0.102,4.252-0.297c0.718-0.102,1.463-0.082,2.153-0.271
			c0.999-0.271,1.995-0.428,3.028-0.395c0.24,0.006,0.496,0.01,0.722-0.062c1.439-0.443,2.929-0.5,4.414-0.605
			c0.46-0.033,0.618-0.178,0.796-0.646c0.235-0.617,0.092-1.223,0.004-1.83c-0.123-0.854-0.348-1.703-0.354-2.557
			c-0.01-1.342-0.143-2.682,0.005-4.031c0.14-1.273,0.07-2.572,0.229-3.844c0.193-1.551,0.189-3.107,0.257-4.66
			c0.011-0.256-0.039-0.539-0.147-0.768c-0.224-0.477-0.504-0.926-0.838-1.52c-0.35-0.021-0.85-0.064-1.349-0.078
			c-0.507-0.016-1.022,0.051-1.522-0.016c-0.615-0.08-1.224-0.236-1.837-0.059c-0.577,0.168-1.208-0.357-1.757,0.148
			c-0.037,0.033-0.154-0.016-0.232-0.029c-1.26-0.213-2.559-0.131-3.793-0.531c-0.154-0.051-0.359,0.01-0.528,0.061
			c-0.908,0.273-1.739,0.242-2.407-0.545c-0.062-0.072-0.175-0.104-0.267-0.148c-0.367-0.174-1.339-1.121-1.546-1.451
			c-0.439-0.705-0.567-1.51-0.75-2.293c-0.215-0.914-0.061-1.76,0.553-2.504c0.152-0.186,0.249-0.416,0.389-0.613
			c0.572-0.805,1.346-1.307,2.323-1.465c0.422-0.07,0.851-0.094,1.276-0.15c0.373-0.049,4.166,0.49,4.824,0.354
			c1.367-0.281,2.728-0.611,4.143-0.58c0.178,0.004,0.383-0.15,0.533-0.279c0.229-0.197,0.453-0.266,0.739-0.154
			c0.196,0.072,0.403,0.117,0.623,0.182c0.373-0.49,0.866-0.623,1.468-0.477c-0.041-0.613-0.117-1.855-0.098-2.348
			c0.027-0.684-0.113-0.984-0.777-1.221c-0.377-0.135-0.83-0.119-1.152-0.322c-0.533-0.332-1.097-0.395-1.657-0.311
			c-1.233,0.188-2.435-0.064-3.651-0.145c-0.667-0.045-1.344-0.084-2.008-0.031c-1.178,0.098-2.344-0.07-3.516-0.109
			c-0.289-0.008-0.571-0.264-0.859-0.4c-0.047-0.021-0.102-0.037-0.154-0.037c-1.021-0.016-1.67-0.586-2.104-1.443
			c-0.56-1.105-0.821-2.277-0.601-3.51c0.096-0.543,0.402-0.941,0.893-1.277c1.434-0.98,3.066-1.26,4.721-1.498
			c0.899-0.129,1.814-0.172,2.705-0.338c1.46-0.271,5.137-0.469,6.627-0.268c0.764,0.102,0.852,0.021,1.094-0.695
			c0.043-0.129,0.026-0.289-0.001-0.426c-0.063-0.311-0.306-0.691-0.2-0.91c0.328-0.674,0.084-1.355,0.24-2.061
			c-0.535-0.027-0.995-0.086-1.404-0.359c-0.111-0.072-0.31-0.018-0.467-0.023c-0.428-0.016-0.855-0.039-1.282-0.043
			c-0.531-0.008-3.286-0.01-3.817,0.004c-0.371,0.01-0.744,0.049-1.115,0.078c-0.447,0.035-0.91,0.018-1.343,0.121
			c-1.074,0.256-2.161,0.396-3.252,0.562c-1.405,0.211-2.388-0.344-3.269-1.273c-0.744-0.787-1.062-1.803-1.393-2.801
			c-0.207-0.627-0.502-1.25-0.377-1.949c0.043-0.234,0.086-0.475,0.089-0.711c0.007-0.568,0.216-1.064,0.593-1.457
			c1.049-1.092,2.289-1.025,3.863-0.764c0.838,0.139,1.677,0.184,2.521,0.219c0.525,0.021,1.05,0.154,1.568,0.262
			c0.602,0.125,1.211-0.904,1.811-0.678c0.081,0.031,0.203-0.045,0.307-0.068c0.598-0.15,1.194-0.295,1.79-0.449
			c0.177-0.047,0.348-0.119,0.546-0.188c-0.047-0.432-1.664-3.797-1.695-3.908c-0.268-0.953-0.557-1.898-0.832-2.85
			c-0.088-0.309-0.146-0.623-0.23-0.932c-0.334-1.213-0.686-2.418-1.551-3.389c-0.055-0.059-0.162-0.117-0.16-0.172
			c0.02-0.566-0.44-0.643-0.799-0.871c-0.432-0.275-0.979-0.436-1.17-1.021c-0.046-0.139-0.289-0.221-0.451-0.311
			c-0.344-0.195-0.693-0.375-1.038-0.564c-0.093-0.051-0.168-0.16-0.263-0.176c-0.949-0.158-1.729-0.766-2.658-0.984
			c-0.679-0.158-1.33-0.439-2.01-0.594c-0.672-0.15-1.365-0.201-2.047-0.312c-0.152-0.025-0.287-0.15-0.44-0.186
			c-0.511-0.117-1.044-0.346-1.532-0.275c-0.492,0.07-5.144-0.188-5.543-0.174c-0.408,0.014-1.146-0.07-1.223,0.07
			c-0.621,0-1.227,0.012-1.832-0.002c-0.854-0.021-1.71-0.1-2.562-0.082c-1.109,0.027-2.109,0.477-3.096,0.938
			c-0.334,0.154-0.738,0.271-0.957,0.533c-0.311,0.369-0.689,0.545-1.097,0.73c-0.184,0.084-0.331,0.256-0.483,0.4
			c-0.287,0.273-0.546,0.582-0.854,0.83c-0.479,0.391-1.066,0.676-1.462,1.129c-0.38,0.438-1.231,0.346-1.249,1.148
			c-0.002,0.025-0.09,0.053-0.14,0.07c-0.524,0.186-0.782,0.623-1.065,1.059c-0.168,0.26-0.412,0.471-0.621,0.707
			c-0.139,0.156-0.275,0.318-0.41,0.482c-0.151,0.184-0.264,0.42-0.451,0.549c-1.091,0.762-1.926,1.787-2.775,2.777
			c-0.414,0.48-3.931,4.365-4.016,4.717c-0.061,0.252-0.128,0.521-0.265,0.736c-0.583,0.92-0.563,1.91-0.45,2.975
			c0.365,0,0.686-0.025,1,0.004c1.133,0.107,4.473,0.08,5.563-0.277c0.636-0.209,1.227-0.098,1.781,0.244 M85.803,124.221
			c0.129,0.414,0.184,0.762,0.336,1.059c0.674,1.314,1.451,9.252,2.043,10.602c0.549,1.25,1.498,1.967,2.654,2.537
			c0.477,0.234,0.9,0.576,1.371,0.826c0.592,0.314,1.202,0.598,1.814,0.869c0.463,0.207,0.943,0.375,1.414,0.559
			c0.223,0.088,0.439,0.186,0.666,0.262c0.706,0.232,1.414,0.461,2.124,0.686c0.278,0.088,0.565,0.146,0.837,0.248
			c0.77,0.291,1.58,0.219,2.373,0.312c0.799,0.094,1.59,0.264,2.39,0.361c2.133,0.26,4.273,0.391,6.424,0.346
			c0.188-0.004,0.376-0.018,0.562-0.043c1.117-0.16,2.215-0.461,3.359-0.426c0.262,0.008,0.537-0.066,0.789-0.15
			c1.195-0.396,2.471-0.557,3.58-1.205c0.067-0.039,0.156-0.041,0.235-0.059c0.845-0.191,1.677-0.441,2.372-0.963
			c1.523-1.146,3.09-2.252,4.5-3.527c1.895-1.713,3.645-10.254,5.479-12.031c0.72-0.699,0.854-1.629,1.213-2.5
			c-0.438-0.23-0.833-0.225-1.237-0.186c-0.455,0.041-0.914,0.123-1.367,0.1c-1.338-0.066-2.658-0.326-4.013-0.227
			c-1.016,0.074-2.042-0.02-3.062,0.027c-1.412,0.064-2.822,0.193-4.234,0.285c-0.373,0.025-0.75-0.002-1.121,0.035
			c-0.984,0.098-1.963,0.244-2.947,0.32c-1.125,0.086-2.254,0.113-3.381,0.174c-0.723,0.039-1.445,0.08-2.168,0.135
			c-1.338,0.104-2.678,0.195-4.012,0.336c-1.387,0.15-2.77,0.328-4.147,0.543c-1.563,0.242-3.114,0.549-4.712,0.512
			c-0.941-0.021-1.891,0.018-2.826,0.127c-1.381,0.156-2.745,0.039-4.105-0.131C87.949,123.9,86.938,124.098,85.803,124.221z
			 M142.808,73.873c0.024-0.096,0.005-0.236-0.054-0.311c-0.252-0.324,0.17-0.443,0.191-0.594c-0.175-0.428-0.318-0.777-0.477-1.164
			c-0.054,0.301-0.023,0.605-0.158,0.791c-0.337,0.469-0.582,0.922-0.439,1.523c0.026,0.111-0.129,0.266-0.194,0.389
			c0.681,0.572,0.718,0.764,0.501,1.561c-0.117,0.434-0.254,0.908-0.191,1.336c0.139,0.988,0.135,1.969,0.116,2.959
			c-0.004,0.213,0.013,0.428,0.03,0.641c0.036,0.449,0.084,0.896,0.121,1.344c0.027,0.316,0.043,0.637,0.07,0.951
			c0.029,0.342,0.16,0.709,0.076,1.02c-0.131,0.484,0.082,0.916,0.076,1.387c0.297-0.225,0.42-0.492,0.435-0.828
			c0.075-1.629-0.169-3.252-0.012-4.889c0.079-0.818-0.079-1.66-0.124-2.492 M142.912,86.359c-0.346,0.256-0.123,0.447,0,0.654
			C142.912,86.797,142.912,86.578,142.912,86.359z M142.972,87.736c-0.075,0.006-0.149,0.008-0.226,0.012
			c0.039,0.174,0.076,0.35,0.113,0.525c0.047-0.008,0.094-0.016,0.141-0.021C142.99,88.08,142.982,87.908,142.972,87.736z
			 M100.602,29.756c-0.041,0.059-0.08,0.117-0.12,0.174c0.046,0.01,0.099,0.033,0.138,0.021c0.041-0.014,0.07-0.062,0.104-0.094
			C100.689,29.828,100.654,29.799,100.602,29.756z"/>
	</g>
</g>
</svg>
