<?xml version="1.0" encoding="utf-8"?>
<!-- Generator: Adobe Illustrator 16.0.0, SVG Export Plug-In . SVG Version: 6.00 Build 0)  -->
<!DOCTYPE svg PUBLIC "-//W3C//DTD SVG 1.1//EN" "http://www.w3.org/Graphics/SVG/1.1/DTD/svg11.dtd">
<svg version="1.1" xmlns="http://www.w3.org/2000/svg" xmlns:xlink="http://www.w3.org/1999/xlink" x="0px" y="0px" width="288px"
	 height="288px" viewBox="0 0 288 288" enable-background="new 0 0 288 288" xml:space="preserve">
<g id="empower">
</g>
<g id="connect">
</g>
<g id="amplify">
	<g>
		<g id="tower">
			<path fill="#2FC872" d="M173.438,237.085c-0.746,0-1.471-0.334-1.955-0.94c-6.79-8.504-16.271-13.188-26.693-13.188
				c-10.426,0-20.205,4.803-26.829,13.179c-0.483,0.611-1.211,0.949-1.961,0.949c-0.264,0-0.53-0.042-0.79-0.128l-6-2
				c-1.295-0.432-2.005-1.823-1.593-3.125l30.015-94.955c-6.583-2.588-11.131-9.06-11.131-16.292c0-9.649,7.851-17.5,17.5-17.5
				s17.5,7.851,17.5,17.5c0,6.854-4.083,13.067-10.188,15.89l30.071,95.358c0.404,1.28-0.275,2.65-1.538,3.104l-5.562,2
				C174.007,237.038,173.721,237.085,173.438,237.085z"/>
			<path fill="#2E2230" d="M144,105.585c8.283,0,15,6.716,15,15c0,6.818-4.554,12.564-10.782,14.388L179,232.585l-5.562,2
				c-7.617-9.54-18.168-14.128-28.647-14.128c-10.76,0-21.444,4.84-28.79,14.128l-6-2l30.774-97.357
				c-6.732-1.477-11.774-7.468-11.774-14.643C129,112.301,135.716,105.585,144,105.585 M144,100.585c-11.028,0-20,8.972-20,20
				c0,7.458,4.231,14.209,10.586,17.63l-29.354,92.864c-0.823,2.604,0.596,5.387,3.187,6.25l6,2c0.519,0.173,1.052,0.257,1.58,0.257
				c1.5,0,2.956-0.677,3.922-1.899c6.146-7.772,15.21-12.229,24.868-12.229c9.647,0,18.434,4.35,24.74,12.248
				c0.968,1.212,2.417,1.881,3.908,1.881c0.565,0,1.137-0.096,1.69-0.295l5.562-2c2.526-0.908,3.885-3.649,3.077-6.209
				l-29.448-93.381c5.875-3.565,9.68-10.042,9.68-17.115C164,109.558,155.028,100.585,144,100.585L144,100.585z"/>
		</g>
		<g id="waves">
			<path fill="#2E2230" d="M123.474,151.748c-0.505,0-1.014-0.152-1.455-0.469c-9.874-7.083-15.769-18.558-15.769-30.693
				c0-20.815,16.935-37.75,37.75-37.75s37.75,16.935,37.75,37.75c0,11.908-5.719,23.254-15.298,30.352
				c-1.108,0.821-2.675,0.59-3.497-0.521c-0.822-1.109-0.589-2.675,0.521-3.497c8.312-6.159,13.274-16.003,13.274-26.334
				c0-18.059-14.691-32.75-32.75-32.75s-32.75,14.691-32.75,32.75c0,10.529,5.115,20.484,13.683,26.631
				c1.122,0.805,1.379,2.367,0.574,3.488C125.019,151.385,124.252,151.748,123.474,151.748z"/>
			<path fill="#2E2230" d="M116.326,167.897c-0.45,0-0.906-0.122-1.317-0.377C98.723,157.4,89,139.924,89,120.773
				c0-30.327,24.673-55,55-55s55,24.673,55,55c0,18.86-9.498,36.195-25.407,46.369c-1.162,0.745-2.708,0.403-3.453-0.759
				c-0.743-1.164-0.403-2.709,0.76-3.453C185.364,153.679,194,137.919,194,120.773c0-27.57-22.43-50-50-50s-50,22.43-50,50
				c0,17.411,8.84,33.299,23.648,42.5c1.173,0.729,1.533,2.271,0.804,3.443C117.979,167.479,117.162,167.897,116.326,167.897z"/>
			<path fill="#2E2230" d="M109.285,184.215c-0.421,0-0.848-0.106-1.239-0.331C85.503,170.987,71.5,146.858,71.5,120.914
				c0-39.977,32.523-72.5,72.5-72.5s72.5,32.523,72.5,72.5c0,25.649-13.765,49.64-35.924,62.611
				c-1.188,0.696-2.723,0.298-3.42-0.895c-0.698-1.192-0.297-2.723,0.895-3.421c20.632-12.077,33.449-34.415,33.449-58.295
				c0-37.22-30.28-67.5-67.5-67.5s-67.5,30.28-67.5,67.5c0,24.156,13.039,46.622,34.029,58.63c1.198,0.686,1.614,2.213,0.928,3.412
				C110.996,183.763,110.152,184.215,109.285,184.215z"/>
		</g>
	</g>
</g>
</svg>
