<?xml version="1.0" encoding="utf-8"?>
<!-- Generator: Adobe Illustrator 16.0.0, SVG Export Plug-In . SVG Version: 6.00 Build 0)  -->
<!DOCTYPE svg PUBLIC "-//W3C//DTD SVG 1.1//EN" "http://www.w3.org/Graphics/SVG/1.1/DTD/svg11.dtd">
<svg version="1.1" id="Layer_1" xmlns="http://www.w3.org/2000/svg" xmlns:xlink="http://www.w3.org/1999/xlink" x="0px" y="0px"
	 width="64px" height="64px" viewBox="0 0 64 64" enable-background="new 0 0 64 64" xml:space="preserve">
<g>
	<g>
		<path fill="#2E2230" d="M42.809,58.092c-0.734,0-1.461-0.109-2.158-0.328L5.739,46.893c-1.785-0.557-3.273-1.844-4.082-3.529
			c-0.226-0.475-0.397-0.981-0.509-1.508c-0.278-1.308-0.167-2.65,0.321-3.887L9.375,18.62c0.109-0.218,0.754-1.406,2.023-2.251
			c0.506-0.336,14.489-9.262,15.084-9.642c0.828-0.534,1.787-0.818,2.77-0.818c0.318,0,0.639,0.03,0.953,0.09
			c0.057,0.011,4.822,0.96,10.326,1.88c5.584,0.931,11.35,1.862,11.35,1.862c0.098,0.019,0.166,0.036,0.235,0.054
			c1.045,0.272,1.866,0.924,2.342,1.844l8.076,20.279c0.737,1.943,0.597,4.1-0.388,5.922c-0.205,0.376-0.418,0.703-0.655,1.004
			L48.579,55.297C47.203,57.047,45.046,58.092,42.809,58.092z"/>
		<path fill="#FFFFFF" d="M29.252,6.908c0.255,0,0.511,0.024,0.767,0.072c0,0,4.763,0.951,10.347,1.884
			c5.587,0.932,11.354,1.863,11.354,1.863c0.057,0.011,0.112,0.027,0.17,0.042c0.74,0.192,1.34,0.67,1.678,1.328l7.988,20.067
			l0.045,0.116c0.639,1.68,0.498,3.544-0.334,5.086c-0.164,0.299-0.348,0.587-0.562,0.858L47.792,54.68
			c-1.213,1.543-3.076,2.412-4.983,2.412c-0.621,0-1.248-0.092-1.858-0.283L6.037,45.938c-1.522-0.475-2.789-1.569-3.478-3.008
			c-0.196-0.41-0.339-0.843-0.433-1.281c-0.233-1.098-0.145-2.254,0.273-3.312L10.3,18.998c0,0,0.56-1.07,1.652-1.798
			c0.503-0.334,15.068-9.631,15.068-9.631C27.692,7.135,28.464,6.908,29.252,6.908 M29.252,4.908c-1.176,0-2.323,0.339-3.317,0.981
			c-1.483,0.947-14.585,9.311-15.09,9.646c-1.478,0.985-2.235,2.381-2.317,2.537l-0.043,0.083l-0.036,0.087L0.548,37.579
			c-0.569,1.44-0.696,2.983-0.378,4.483c0.128,0.604,0.325,1.185,0.584,1.729c0.93,1.939,2.638,3.417,4.688,4.055l34.912,10.872
			c0.791,0.248,1.617,0.374,2.453,0.374c2.543,0,4.993-1.188,6.558-3.176l12.915-16.457c0.27-0.342,0.514-0.714,0.744-1.136
			c1.125-2.087,1.287-4.546,0.447-6.755L63.42,31.44l-7.993-20.083l-0.036-0.09l-0.045-0.086c-0.598-1.159-1.674-2.015-2.951-2.347
			c-0.113-0.03-0.205-0.053-0.295-0.07L52.07,8.758l-0.029-0.005c-0.002,0-5.766-0.931-11.346-1.861
			C35.21,5.975,30.458,5.028,30.411,5.019C30.016,4.944,29.633,4.908,29.252,4.908L29.252,4.908z"/>
	</g>
	<path fill="#FFFFFF" d="M7.045,42.693c-0.631-0.196-1.137-0.635-1.422-1.229c-0.286-0.597-0.309-1.267-0.073-1.862l6.781-16.597
		c2.925,2.276,8.18,3.919,10.801,4.638c5.221,1.434,14.196,2.599,16.718,2.021l2.418,23.98C42.165,53.624,7.045,42.693,7.045,42.693
		z"/>
	<path fill="#FFFFFF" d="M40.973,25.118c-0.617,0.791-1.543,1.278-2.541,1.34c-2.687,0.161-7.875-0.299-14.399-2.09
		c-6.269-1.722-9.055-3.501-10.021-4.383l14.854-9.563c0.157-0.102,0.345-0.14,0.552-0.101c0,0,3.696,0.755,8.86,1.627
		c5.168,0.872,11.531,1.894,11.531,1.894L40.973,25.118z"/>
	<g>
		<path fill="#B11478" d="M25.972,15.412c0,0,4.59,1.32,7.25,1.869c2.659,0.548,7.451,1.349,7.451,1.349l2.743-3.227
			c0,0-4.675-0.743-7.394-1.171c-2.719-0.428-6.208-1.155-6.208-1.155L25.972,15.412z"/>
		<path fill="#B11478" d="M19.927,19.625c0,0,4.269,1.362,7.646,2.254c3.377,0.891,9.03,1.783,9.03,1.783l2.877-3.195
			c0,0-5.549-0.843-8.61-1.562c-3.335-0.783-6.999-1.776-6.999-1.776L19.927,19.625z"/>
	</g>
	<g>
		<path fill="#2E2230" d="M17.159,42.322l-2.338-0.737c-0.109-0.035-0.144-0.081-0.176-0.179l-0.419-1.75
			c-0.032-0.1-0.068-0.125-0.196-0.167l-2.43-0.767c-0.128-0.039-0.167-0.035-0.208,0.041l-0.629,1.418
			c-0.043,0.076-0.082,0.1-0.172,0.068l-2.32-0.73c-0.166-0.052-0.234-0.158-0.171-0.283l4.267-9.49
			c0.042-0.075,0.081-0.099,0.191-0.064l1.639,0.516c0.092,0.029,0.146,0.081,0.177,0.181l2.985,11.773
			C17.404,42.311,17.343,42.38,17.159,42.322 M13.196,33.701l-0.074-0.021c-0.064,0.44-0.952,3.04-0.952,3.04
			c-0.043,0.093,0.024,0.218,0.208,0.277l1.123,0.354c0.165,0.053,0.245-0.031,0.216-0.146
			C13.717,37.205,13.206,34.166,13.196,33.701"/>
		<path fill="#2E2230" d="M26.472,45.255l-1.877-0.593c-0.074-0.021-0.164-0.104-0.196-0.186c0,0-2.974-6.959-3.035-7.189
			l-0.075-0.005c0.018,0.644-0.254,6.083-0.254,6.083c-0.007,0.121-0.066,0.156-0.195,0.115l-2.171-0.684
			c-0.11-0.036-0.182-0.111-0.174-0.232l0.641-10.633c0.007-0.122,0.084-0.151,0.195-0.116l1.913,0.603
			c0.091,0.029,0.163,0.087,0.196,0.168c0,0,2.986,7.085,3.03,7.279l0.076,0.006c0.004-0.711,0.276-6.148,0.276-6.148
			c0.006-0.123,0.046-0.162,0.175-0.123l2.136,0.674c0.111,0.035,0.181,0.108,0.173,0.231l-0.641,10.634
			C26.659,45.261,26.6,45.295,26.472,45.255"/>
		<path fill="#2E2230" d="M34.094,42.594l-0.287,4.795C33.8,47.51,33.76,47.552,33.63,47.51l-2.19-0.689
			c-0.128-0.04-0.181-0.108-0.174-0.231l0.29-4.795l-3.076-6.83c-0.083-0.168-0.003-0.269,0.163-0.215l2.521,0.794
			c0.11,0.034,0.182,0.093,0.231,0.196l1.421,3.485c0.082,0.205,0.267,0.262,0.369,0.116l1.816-2.464
			c0.062-0.07,0.139-0.082,0.229-0.053l2.506,0.785c0.183,0.061,0.23,0.182,0.131,0.31L34.094,42.594z"/>
	</g>
</g>
</svg>
