<?xml version="1.0" encoding="utf-8"?>
<!-- Generator: Adobe Illustrator 16.0.0, SVG Export Plug-In . SVG Version: 6.00 Build 0)  -->
<!DOCTYPE svg PUBLIC "-//W3C//DTD SVG 1.1//EN" "http://www.w3.org/Graphics/SVG/1.1/DTD/svg11.dtd">
<svg version="1.1" id="Layer_1" xmlns="http://www.w3.org/2000/svg" xmlns:xlink="http://www.w3.org/1999/xlink" x="0px" y="0px"
	 width="760px" height="400px" viewBox="0 0 760 400" enable-background="new 0 0 760 400" xml:space="preserve">
<g>
	<path fill-rule="evenodd" clip-rule="evenodd" fill="#FFFFFF" d="M77.042,281.557c-3.568-0.385-6.692,1.376-10.056,1.224
		c-0.193-0.531-0.514-0.976-0.485-1.397c0.494-7.324,1.315-14.611,2.408-22.134c3.33-0.768,6.561-1.512,9.708-2.237
		c1.165-3.942,3.509-32.385,3.028-37.052c-3.488-0.322-6.765,1.412-10.488,1.386c-0.137-0.49-0.506-1.086-0.416-1.602
		c1.018-5.822,2.099-11.634,3.191-17.442c0.084-0.449,0.384-0.857,0.744-1.629c4.645-0.952,9.471-1.978,14.312-2.926
		c19.13-3.749,38.262-7.488,57.401-11.189c2.507-0.485,5.05-0.866,7.594-1.047c1.732-0.123,3.525,0.02,5.239,0.332
		c6.413,1.17,9.79,4.879,10.233,11.418c0.183,2.696-0.008,5.434-0.214,8.139c-0.85,11.157-1.759,22.311-2.668,33.463
		c-0.806,9.879-1.657,19.753-2.455,29.632c-0.489,6.056-0.897,12.117-1.376,18.173c-0.15,1.893-0.414,3.775-0.651,5.902
		c-9.982,2.195-19.812,4.058-29.888,5.924c-0.711-4.979,0.236-9.538,0.556-14.114c0.321-4.6,0.629-9.198,0.922-13.502
		c-0.346-0.427-0.422-0.584-0.547-0.658c-0.13-0.077-0.317-0.126-0.462-0.099c-6.743,1.287-13.484,2.575-20.221,3.892
		c-0.769,0.149-1.506,0.461-2.472,0.765c-1.303,5.312-0.967,10.78-1.616,16.13c-0.634,5.231-0.82,10.517-1.23,15.775
		c-0.422,5.409-0.878,10.816-1.329,16.345c-3.361,1.885-7.102,1.908-10.626,2.699c-3.429,0.771-6.877,1.467-10.337,2.081
		c-3.558,0.632-7.033,1.9-11.072,1.738c0.122-5.484,0.686-10.688,1.069-15.897c0.398-5.42,1.076-10.826,1.294-16.252
		C76.339,292.168,77.5,286.979,77.042,281.557z M135.591,245.566c0.979-11.792,1.947-23.382,2.891-34.973
		c0.048-0.598-0.109-1.211-0.209-2.205c-4.164,0.195-7.984,1.29-11.828,2.05c-3.864,0.763-7.846,1.12-11.854,2.708
		c-0.528,6.219-1.235,12.394-1.525,18.589c-0.287,6.126-1.668,12.227-0.932,18.652C120.125,248.781,127.806,247.503,135.591,245.566
		z"/>
	<path fill-rule="evenodd" clip-rule="evenodd" fill="#FFFFFF" d="M257.919,293.279c-10.758,2.151-20.902,4.219-31.289,6.05
		c-0.905-4.313,0.378-8.225,0.471-12.166c0.098-4.15,0.599-8.292,0.927-12.437c0.314-3.986,0.633-7.972,0.949-11.957
		c0.327-4.146,0.652-8.29,0.979-12.436c0.315-3.985,0.635-7.971,0.95-11.956c0.327-4.146,0.649-8.291,0.977-12.437
		c0.315-3.985,0.636-7.971,0.95-11.956c0.328-4.145,0.751-8.285,0.948-12.437c0.188-3.965,1.111-7.895,0.758-12.159
		c-2.71-0.694-5.097,0.493-7.524,0.859c-2.683,0.404-5.325,1.08-7.99,1.61c-2.487,0.494-5.03,0.761-7.464,1.795
		c-0.179,0.679-0.436,1.277-0.483,1.891c-1.714,22.001-3.411,44.003-5.084,66.008c-0.033,0.434,0.246,0.891,0.418,1.467
		c4.995,0.08,9.651-2.089,14.854-2.172c0.553,3.3-0.029,6.438-0.292,9.572c-0.266,3.176-0.607,6.345-0.924,9.607
		c-0.997,0.383-1.845,0.852-2.752,1.034c-7.836,1.576-15.664,3.209-23.536,4.582c-2.805,0.49-5.75,0.607-8.591,0.381
		c-7.09-0.562-11.012-4.614-11.661-11.677c-0.117-1.269-0.113-2.563-0.017-3.835c0.664-8.771,1.357-17.539,2.059-26.307
		c0.816-10.202,1.659-20.402,2.473-30.605c0.395-4.941,0.663-9.895,1.142-14.829c0.907-9.336,5.563-16.155,13.986-20.366
		c3.603-1.801,7.408-2.966,11.346-3.753c13.48-2.693,26.959-5.395,40.436-8.105c3.635-0.731,7.298-0.965,10.979-0.568
		c6.419,0.691,10.388,4.376,10.754,10.808c0.28,4.921-0.153,9.9-0.506,14.837c-0.777,10.846-1.699,21.682-2.574,32.521
		c-0.824,10.202-1.685,20.4-2.493,30.604c-0.795,10.044-1.529,20.093-2.322,30.137C258.557,287.579,258.228,290.262,257.919,293.279
		z"/>
	<path fill-rule="evenodd" clip-rule="evenodd" fill="#FFFFFF" d="M455.156,234.013c-9.935,2.118-19.754,3.999-29.968,5.918
		c0.002-9.731,1.653-18.868,1.622-28.392c-4.302,0.07-8.074,1.361-11.931,2.016c-3.916,0.665-7.785,1.611-11.836,2.47
		c-0.805,9.5-1.585,18.712-2.354,27.79c-3.3,1.497-26.978,6.38-31.465,6.549c-0.097-0.126-0.207-0.246-0.289-0.382
		c-0.079-0.131-0.191-0.283-0.183-0.419c0.271-4.307,0.512-8.615,0.848-12.916c2.5-32.023,5.02-64.045,7.533-96.075
		c1.169-0.417,2.035-0.855,2.953-1.033c21.337-4.14,42.678-8.267,64.025-12.353c3.33-0.637,6.67-0.568,9.984,0.333
		c4.641,1.263,7.429,4.247,8.291,8.93c0.345,1.872,0.539,3.827,0.416,5.718c-0.507,7.818-1.142,15.629-1.766,23.44
		c-0.816,10.2-1.67,20.397-2.501,30.597c-0.974,11.953-1.938,23.907-2.918,35.859C455.581,232.528,455.406,232.982,455.156,234.013z
		 M431.261,149.896c-5.161,0.357-19.944,3.396-23.206,4.736c-0.109,0.409-0.303,0.855-0.34,1.314
		c-0.908,11.125-1.811,22.25-2.672,33.378c-0.055,0.708,0.225,1.441,0.391,2.407c7.921-1.511,15.562-2.874,23.15-4.73
		c0.254-1.355,0.557-2.429,0.642-3.519c0.829-10.651,1.627-21.305,2.407-31.959C431.665,151.082,431.435,150.622,431.261,149.896z"
		/>
	<path fill-rule="evenodd" clip-rule="evenodd" fill="#FFFFFF" d="M272.494,161.558c0.737-0.338,1.289-0.726,1.894-0.848
		c11.749-2.379,23.504-4.731,35.262-7.064c0.604-0.12,1.251-0.015,2.162-0.015c0.065,1.02,0.231,1.931,0.164,2.823
		c-1.291,17.224-2.62,34.445-3.917,51.668c-0.769,10.207-1.509,20.415-2.23,30.626c-0.099,1.4-0.014,2.814-0.014,4.21
		c4.339,0.005,18.635-2.82,22.842-4.517c2.569-29.768,4.616-59.72,7.179-89.458c4.028-1.653,27.94-6.401,31.769-6.336
		c0.061,0.583,0.219,1.199,0.174,1.799c-0.992,13.237-2.016,26.471-3.012,39.708c-0.769,10.207-1.51,20.416-2.256,30.624
		c-0.408,5.583-0.789,11.168-1.214,16.75c-0.098,1.273-0.323,2.538-0.503,3.805c-1.006,7.082-4.631,12.482-10.541,16.417
		c-4.055,2.699-8.555,4.377-13.272,5.352c-14.246,2.944-28.501,5.852-42.796,8.544c-3.254,0.613-6.708,0.61-10.027,0.348
		c-5.804-0.46-9.441-3.771-10.487-9.488c-0.482-2.633-0.456-5.419-0.26-8.105c1.176-16.109,2.46-32.211,3.725-48.313
		c0.425-5.421,0.908-10.836,1.338-16.257c0.073-0.921,0.01-1.854,0.01-3.156c-2.459,0.309-4.607,0.578-6.945,0.871
		c-0.971-3.438-0.144-6.737,0.042-10.011C271.771,168.196,272.182,164.871,272.494,161.558z"/>
	<path fill-rule="evenodd" clip-rule="evenodd" fill="#FFFFFF" d="M505.477,114.588c0.1,6.062-0.832,11.265-1.079,16.499
		c-0.248,5.268-0.854,10.519-1.286,15.779c-0.444,5.419-0.88,10.84-1.298,16.262c-0.405,5.262-0.774,10.527-1.176,15.79
		c-0.397,5.218-1.158,10.421-0.943,15.964c6.853-0.451,13.056-2.734,19.711-3.311c0.694,2.744-0.175,5.079-0.247,7.417
		c-0.079,2.557-0.291,5.111-0.484,7.663c-0.182,2.392-0.401,4.781-0.628,7.169c-0.223,2.359,0.027,4.792-0.886,6.944
		c-3.79,1.488-28.904,6.867-48.858,10.475c-0.898,0.162-1.836,0.113-2.999,0.176c-0.074-1.151-0.207-2.078-0.183-3.002
		c0.24-9.179,8.072-103.439,8.937-107.312c4.888-1.556,10.116-2.204,15.248-3.262C494.457,116.774,499.62,115.762,505.477,114.588z"
		/>
	<path fill-rule="evenodd" clip-rule="evenodd" fill="#FFFFFF" d="M534.282,129.613c-2.308,0.187-4.164,0.337-6.021,0.487
		c-0.112-3.793,1.995-15.773,3.618-20.568c10.688-2.525,21.693-4.38,32.601-6.687c1.065-0.225,2.187-0.181,3.17-0.254
		c0.219,0.298,0.325,0.42,0.404,0.558c0.076,0.132,0.184,0.287,0.173,0.423c-2.752,35.668-5.511,71.335-8.285,107.002
		c-0.048,0.624-0.271,1.234-0.494,2.204c-5.053,1.64-10.428,2.284-15.69,3.377c-5.128,1.065-10.244,2.232-15.745,2.988
		c-0.083-1.44-0.27-2.521-0.188-3.581c1.216-15.604,2.463-31.207,3.713-46.809c0.906-11.303,1.844-22.604,2.728-33.909
		C534.388,133.279,534.282,131.696,534.282,129.613z"/>
	<path fill-rule="evenodd" clip-rule="evenodd" fill="#FFFFFF" d="M651.84,113.042c5.521-11.536,11.032-23.076,16.521-34.627
		c0.667-1.405,1.618-2.745,1.572-4.318c-1.178-1.309-2.52-0.846-3.698-0.613c-7.206,1.426-14.377,3.043-21.602,4.361
		c-2.35,0.429-3.746,1.501-4.558,3.633c-0.397,1.043-0.953,2.024-1.407,3.047c-3.046,6.868-6.078,13.741-9.127,20.608
		c-1.945,4.383-3.879,8.772-5.896,13.123c-0.432,0.932-0.688,2.234-2.25,2.177c-1.324-0.846-1.454-2.367-1.896-3.675
		c-1.945-5.752-3.824-11.528-5.736-17.292c-0.402-1.212-0.79-2.434-1.287-3.608c-0.407-0.964-1.246-1.443-2.297-1.419
		c-0.796,0.019-1.604,0.059-2.382,0.213c-7.835,1.551-15.671,3.097-23.489,4.728c-1.189,0.248-2.29,0.919-3.469,1.41
		c-0.226,5.944-1.907,11.542-0.749,17.532c1.496-0.165,2.734-0.362,3.979-0.422c1.239-0.06,2.484,0.02,3.822,0.04
		c0.836,1.987,1.618,3.729,2.31,5.506c3.127,8.044,6.184,16.116,9.368,24.137c0.892,2.247,0.945,4.25-0.246,6.408
		c-1.234,2.234-2.201,4.615-3.313,6.918c-10.501,21.736-21.015,43.465-31.496,65.211c-0.67,1.391-1.746,2.692-1.43,4.688
		c0.755,0.047,1.547,0.255,2.271,0.115c7.998-1.534,15.979-3.151,23.979-4.676c2.074-0.396,3.486-1.421,4.291-3.375
		c0.485-1.181,1.11-2.304,1.646-3.465c6.026-13.063,12.046-26.131,18.069-39.197c1.138-2.468,2.24-4.954,3.454-7.383
		c0.317-0.636,0.991-1.093,1.521-1.652c1.767,1.106,1.893,2.838,2.383,4.29c2.045,6.055,3.973,12.15,5.947,18.229
		c0.439,1.354,0.711,2.806,2.399,3.881c1.1-0.106,2.534-0.137,3.926-0.399c4.709-0.885,9.405-1.843,14.103-2.792
		c2.661-0.538,5.299-1.215,7.978-1.641c2.085-0.332,3.061-1.528,3.385-3.455c0.132-0.787,0.222-1.582,0.297-2.376
		c0.301-3.181,0.609-6.36,0.866-9.545c0.062-0.776-0.058-1.567-0.097-2.409c-1.871-1.227-3.251-0.419-4.623-0.195
		c-1.628,0.267-2.823-0.217-3.553-1.726c-0.348-0.72-0.712-1.433-1.03-2.166c-3.57-8.208-7.06-16.453-10.737-24.613
		c-1.287-2.858-1.256-5.322,0.18-8.168C643.916,129.81,647.838,121.406,651.84,113.042z"/>
	<path fill-rule="evenodd" clip-rule="evenodd" fill="#FFFFFF" d="M377.655,298.54c-3.481,0.027-4.968,1.208-5.176,4.213
		c-0.066,0.949-0.118,1.899-0.189,3.074c0.041,0.727-0.004,1.694,0.185,2.615c0.116,0.566,0.469,1.224,0.923,1.556
		c1.627,1.188,4.964,0.136,5.624-1.813c0.877-2.587,1.055-5.285,0.665-7.986C379.533,299.138,378.693,298.531,377.655,298.54z"/>
	<path fill-rule="evenodd" clip-rule="evenodd" fill="#FFFFFF" d="M432.137,288.04c-3.493,0.032-4.893,1.385-5.051,4.882
		c-0.007,0.159-0.001,0.318-0.001,1.061c0.029,0.209-0.049,1.091,0.298,1.748c0.326,0.617,1.079,1.38,1.684,1.417
		c3.539,0.212,5.173-1.093,5.416-3.905c0.081-0.949,0.131-1.91,0.079-2.858C434.478,288.848,433.58,288.027,432.137,288.04z"/>
	<path fill-rule="evenodd" clip-rule="evenodd" fill="#FFFFFF" d="M749.238,10.931c-45.292,8.946-90.58,17.913-135.864,26.897
		c-1.24,0.246-2.44,0.696-3.859,1.11c-1.112,2.436-2.311,4.864-3.332,7.364c-0.807,1.972-2.084,3.143-4.236,3.357
		c-0.79,0.079-1.559,0.342-2.343,0.499c-5.796,1.155-11.597,2.29-17.39,3.459c-16.6,3.349-33.194,6.726-49.796,10.064
		c-19.895,4-39.797,7.96-59.692,11.959c-15.196,3.055-30.377,6.183-45.58,9.201c-10.496,2.084-21.031,3.979-31.528,6.06
		c-21.629,4.286-43.244,8.644-64.866,12.963c-20.214,4.038-40.431,8.067-60.646,12.097c-23.197,4.625-46.379,9.321-69.597,13.835
		c-10.902,2.119-21.443,5.134-31.156,10.669c-0.944,0.538-2.074,1.11-3.101,1.079c-4.474-0.135-9.014-0.098-13.384-0.912
		c-2.478-0.462-4.709-0.363-7.03,0.097c-8.779,1.741-17.544,3.557-26.322,5.305c-26.336,5.245-52.68,10.455-79.008,15.742
		c-1.659,0.333-3.548,0.279-5.042,1.882c-2.284,12.552-4.598,25.286-6.917,38.02c-2.721,14.938-5.444,29.875-8.172,44.812
		c-1.666,9.119-3.37,18.23-4.992,27.356c-0.24,1.349-0.775,2.82,0.425,4.239c0.873-0.114,1.807-0.285,2.748-0.346
		c0.886-0.058,1.779,0.002,2.975,0.013c0,1.1,0.075,1.877-0.012,2.636c-0.764,6.671-1.582,13.335-2.336,20.007
		c-1.615,14.296-3.202,28.594-4.801,42.892c-1.6,14.296-3.21,28.591-4.777,42.891c-0.095,0.867,0.152,1.771,0.263,2.897
		c2.048-0.316,3.787-0.516,5.496-0.86c16.758-3.381,33.515-6.763,50.264-10.188c20.975-4.29,41.943-8.614,62.911-12.938
		c17.995-3.711,35.98-7.469,53.979-11.155c19.407-3.976,38.821-7.917,58.242-11.825c13.154-2.647,26.323-5.226,39.495-7.786
		c1.028-0.2,2.129-0.026,3.382-0.026c0.164,0.921,0.431,1.687,0.413,2.446c-0.095,3.997-0.241,7.993-0.41,11.988
		c-0.229,5.432-0.524,10.86-0.719,16.292c-0.032,0.903,0.299,1.82,0.558,3.262c4.345-0.782,8.104-1.419,11.846-2.14
		c15.998-3.078,31.987-6.2,47.987-9.27c14.745-2.827,29.498-5.608,44.248-8.405c8.789-1.666,17.577-3.329,26.368-4.981
		c13.184-2.478,26.369-4.94,39.553-7.416c10.988-2.064,21.978-4.126,32.963-6.21c6.904-1.31,13.804-2.644,20.699-3.998
		c2.077-0.408,3.865-1.285,5.325-2.961c2.94-3.377,5.966-6.687,9.084-9.9c2.016-2.077,2.89-4.362,2.935-7.294
		c0.09-5.91,0.521-11.816,0.868-17.722c0.152-2.579,0.843-3.328,3.335-3.965c0.463-0.118,0.949-0.138,1.42-0.23
		c12.221-2.426,24.438-4.869,36.663-7.281c16.923-3.339,33.869-6.564,50.768-10.023c6.755-1.382,5.624-0.032,8.656-6.68
		c2.058-4.51,4.199-8.982,6.188-13.521c0.973-2.219,2.307-3.785,4.859-4.028c0.629-0.061,1.232-0.34,1.859-0.464
		c15.045-2.979,30.094-5.94,45.138-8.931c4.388-0.872,8.753-1.863,13.145-2.715c1.65-0.32,2.549-1.156,2.726-2.825
		c0.27-2.541,0.621-5.073,0.852-7.617c0.506-5.57,0.94-11.146,1.435-16.717c0.465-5.25,0.993-10.496,1.446-15.748
		c0.454-5.253,0.832-10.514,1.278-15.768c0.323-3.82,0.692-7.637,1.062-11.453c0.494-5.087,1.026-10.171,1.511-15.26
		c0.574-6.043,1.12-12.09,1.664-18.137c0.197-2.193,0.667-4.406-0.254-6.911c-2.101,0.253-4.108,0.542-6.127,0.72
		c-1.193,0.105-2.636,1.014-3.518-0.405c-0.793-1.275,0.359-2.41,0.762-3.577c0.206-0.601,0.54-1.158,0.817-1.734
		c8.388-17.434,16.775-34.868,25.162-52.303c7.555-15.705,15.114-31.406,22.65-47.119c0.604-1.258,1.048-2.592,1.562-3.882
		C749.807,11.154,749.49,10.881,749.238,10.931z M333.875,306.083c-0.365,4.188-3.91,5.937-7.48,3.562
		c-1.371-0.911-2.553-1.126-4.003-0.66c-1.155,0.372-1.961,1.128-2.192,2.312c-0.213,1.087-0.367,2.211-0.341,3.313
		c0.052,2.213,1.082,3.068,3.382,2.975c0.478-0.02,0.952-0.104,1.148-0.126c0.437-0.062,0.594-0.096,0.753-0.105
		c2.474-0.152,3.516,0.344,3.854,1.831c0.633,2.788-0.173,4.668-2.47,5.443c-1.356,0.458-2.772,0.752-4.174,1.064
		c-2.176,0.483-3.246,1.873-3.432,4.03c-0.041,0.477-0.088,0.955-0.094,1.433c-0.018,1.304-0.005,2.68,1.395,3.299
		c1.457,0.643,2.835,0.086,4.017-0.808c0.485-0.367,0.782-0.996,1.13-1.528c0.879-1.351,2.254-1.696,3.716-1.844
		c1.751-0.177,2.768,0.618,2.997,2.301c0.021,0.158,0.038,0.317,0.041,0.477c0.182,7.621-0.686,7.585-6.557,8.735
		c-3.604,0.706-7.211,1.396-10.824,2.054c-1.095,0.2-2.212,0.356-3.322,0.383c-1.214,0.028-2.119-0.825-2.291-2.02
		c-0.23-1.608-0.269-3.27,0.659-4.643c1.325-1.961,1.612-4.156,1.759-6.381c0.358-5.416,0.668-10.836,0.883-16.259
		c0.049-1.236-0.311-2.503-0.584-3.732c-0.171-0.767-0.699-1.474-0.782-2.238c-0.467-4.315,0.404-5.871,4.26-6.577
		c4.711-0.863,9.409-1.798,14.119-2.666c0.777-0.143,1.593-0.186,2.379-0.125c1.043,0.079,1.892,0.644,1.984,1.729
		C333.941,302.896,334.013,304.506,333.875,306.083z M359.622,301.284c-0.418,3.942-3.807,5.618-7.284,3.71
		c-0.814-0.446-1.645-1.097-2.51-1.175c-3.32-0.298-5.033,1.345-5.182,4.751c-0.027,0.636-0.007,1.282,0.074,1.912
		c0.188,1.46,1.102,2.396,2.534,2.35c1.591-0.052,3.176-0.312,4.759-0.51c1.678-0.211,3.143,0.21,4.477,1.266
		c1.336,1.057,2.232,2.35,2.134,4.078c-0.234,4.147-0.197,8.358-0.96,12.414c-0.651,3.467-3.249,5.871-6.729,6.809
		c-2.771,0.746-5.63,1.254-8.481,1.574c-4.478,0.502-7.583-3.504-6.203-7.789c0.756-2.347,4.567-3.584,6.862-1.839
		c1.651,1.257,3.112,1.335,4.884,0.854c1.544-0.419,2.513-1.364,2.777-2.946c0.289-1.731,0.588-3.475-0.462-5.743
		c-1.329,0-2.577-0.068-3.813,0.019c-1.271,0.09-2.531,0.467-3.799,0.48c-3.047,0.034-5.665-2.227-5.682-5.283
		c-0.022-3.825,0.201-7.676,0.663-11.474c0.493-4.043,3.181-6.471,6.88-7.818c0.893-0.325,1.863-0.477,2.812-0.594
		c2.682-0.328,5.383-0.475,7.961-1.436c0.717-0.268,1.585-0.255,2.368-0.188c1.048,0.09,1.851,0.715,1.921,1.801
		C359.727,298.094,359.789,299.708,359.622,301.284z M387.54,296.433c-0.384,4.289-0.445,8.61-0.925,12.887
		c-0.48,4.277-3.416,6.68-7.202,8.101c-1.479,0.556-3.097,0.748-4.652,1.101c-2.51,0.569-3.775,1.954-3.081,5.442
		c0.151,0.761,0.796,1.433,0.903,2.189c0.197,1.397,0.321,2.842,0.186,4.238c-0.131,1.351-1.021,2.346-2.399,2.688
		c-2.608,0.646-5.2,1.505-8.008,1.094c-1.41-2.233-1.062-4.482,0.018-6.421c1.065-1.912,1.406-3.863,1.536-5.937
		c0.287-4.617,0.602-9.233,0.823-13.854c0.129-2.696,0.274-5.373-0.922-7.99c-0.486-1.063-0.248-2.5-0.19-3.76
		c0.081-1.792,1.036-2.964,2.816-3.401c0.154-0.037,0.303-0.109,0.459-0.133c4.548-0.688,9.079-1.438,13.554-2.541
		C383.794,289.313,387.928,292.087,387.54,296.433z M413.631,299.152c0.041,0.003,0.081,0.006,0.121,0.008
		c-0.376,6.052-0.718,12.105-1.139,18.153c-0.343,4.931-3.184,8.244-8.045,9.359c-2.643,0.605-5.339,0.97-7.987,1.552
		c-3.329,0.73-7.287-1.912-6.977-5.873c0.074-0.952-0.006-1.915,0.045-2.87c0.396-7.489,0.837-14.976,1.199-22.466
		c0.153-3.164,1.06-5.915,3.504-8.09c1.225-1.091,2.527-1.962,4.129-2.285c2.972-0.601,5.938-1.269,8.938-1.672
		c3.998-0.538,6.825,2.031,6.742,6.065C414.106,293.743,413.816,296.446,413.631,299.152z M442.257,287.14
		c-0.155,1.752-0.393,3.501-0.447,5.255c-0.107,3.449-0.705,6.639-3.438,9.125c-1.574,1.433-1.78,3.285-1.07,5.295
		c0.744,2.105,1.346,4.194,3.105,5.833c1.753,1.632,1.326,3.814,0.576,5.817c-0.194,0.52-0.828,0.997-1.372,1.236
		c-0.865,0.381-1.812,0.644-2.749,0.778c-2.128,0.307-3.179-0.279-4.066-2.46c-0.902-2.218-1.585-4.524-2.409-6.775
		c-0.493-1.346-1.018-2.687-1.651-3.968c-0.154-0.312-0.816-0.566-1.203-0.517c-0.388,0.049-0.952,0.451-1.043,0.803
		c-0.611,2.354-0.744,4.722,0.173,7.053c0.291,0.736,0.687,1.466,0.801,2.232c0.524,3.534-0.752,5.439-4.21,6.282
		c-1.394,0.34-2.821,0.595-4.249,0.735c-2.225,0.22-3.317-0.894-2.951-3.17c0.224-1.384,0.88-2.694,1.308-4.049
		c0.38-1.201,0.937-2.399,1.03-3.629c0.424-5.578,0.737-11.165,1.036-16.752c0.12-2.234,0.127-4.446-0.991-6.548
		c-0.419-0.787-0.444-1.86-0.412-2.796c0.101-2.966,0.931-3.942,3.78-4.706c0.463-0.124,0.933-0.291,1.403-0.308
		c3.695-0.128,7.202-1.193,10.758-2.053c1.879-0.454,3.753-0.541,5.552,0.596C442.065,282.064,442.477,284.44,442.257,287.14z
		 M473.223,279.279c-0.37,4.144-2.952,5.719-6.967,4.301c-0.548-0.193-1.065-0.471-1.878-0.836
		c-0.293,1.229-0.637,2.115-0.698,3.021c-0.368,5.419-0.694,10.842-0.983,16.267c-0.119,2.229-0.125,4.41,0.983,6.536
		c0.546,1.048,0.511,2.478,0.482,3.728c-0.041,1.757-0.932,3.069-2.73,3.483c-1.864,0.429-3.745,0.848-5.643,1.06
		c-2.024,0.227-2.967-0.7-2.826-2.841c0.093-1.394,0.567-2.769,0.931-4.136c0.364-1.369,1.065-2.699,1.166-4.08
		c0.473-6.531,0.799-13.074,1.143-19.614c0.022-0.438-0.242-0.89-0.346-1.244c-0.913-0.53-1.202,0.142-1.668,0.565
		c-0.688,0.626-1.39,1.372-2.228,1.672c-3.451,1.239-4.75-0.19-4.703-3.091c0.008-0.479,0-0.959,0.015-1.438
		c0.135-4.637,0.708-5.379,5.395-6.33c5.324-1.081,10.669-2.058,16.009-3.06c0.782-0.146,1.583-0.238,2.377-0.256
		c1.263-0.028,2.159,0.712,2.234,1.992C473.372,276.406,473.35,277.854,473.223,279.279z M498.988,274.592
		c-0.367,4.268-3.746,5.953-7.417,3.484c-2.114-1.422-3.948-0.849-5.836-0.011c-0.62,0.274-1.121,1.138-1.371,1.841
		c-0.313,0.882-0.396,1.872-0.436,2.822c-0.132,3.137,0.812,3.984,3.999,3.631c1.11-0.123,2.205-0.385,3.315-0.506
		c3.846-0.418,6.536,1.805,6.755,5.588c0.064,1.114,0.01,2.234,0.01,3.679c-0.194,2.065-0.372,4.455-0.653,6.832
		c-0.532,4.483-3.227,7.2-7.405,8.388c-2.6,0.739-5.3,1.246-7.989,1.525c-4.636,0.48-7.697-3.284-6.27-7.623
		c0.265-0.803,1.045-1.715,1.81-2.021c1.924-0.77,3.685-1.052,5.707,0.624c2.681,2.221,6.689,0.164,7.091-3.265
		c0.019-0.158,0.033-0.317,0.042-0.477c0.2-3.395-0.157-5.626-4.854-4.549c-0.93,0.213-1.892,0.339-2.845,0.391
		c-3.558,0.192-6.339-2.168-6.276-5.644c0.07-3.826,0.269-7.678,0.817-11.459c0.524-3.614,3.182-5.767,6.336-7.23
		c0.991-0.461,2.148-0.614,3.249-0.778c2.665-0.396,5.4-0.393,7.942-1.473c0.283-0.12,0.626-0.11,0.943-0.139
		c1.979-0.177,3.137,0.647,3.325,2.546C499.103,272.031,499.097,273.325,498.988,274.592z M716.998,40.766
		c-4.927,10.405-9.906,20.786-14.871,31.174c-10.411,21.786-20.825,43.57-31.234,65.357c-0.551,1.154-1.158,2.294-1.568,3.499
		c-0.237,0.697-0.133,1.51-0.173,2.122c1.348,1.113,2.637,0.792,3.88,0.574c3.934-0.689,7.86-1.419,11.789-2.135
		c1.553-0.283,3.109-0.793,4.728,0.096c1.026,1.57,0.639,3.376,0.525,5.079c-0.352,5.262-0.831,10.516-1.282,15.771
		c-0.505,5.889-1.021,11.778-1.556,17.664c-0.508,5.57-1.057,11.136-1.569,16.706c-0.426,4.615-0.826,9.231-1.235,13.847
		c-0.07,0.796-0.097,1.597-0.199,2.389c-0.184,1.411-0.974,2.323-2.356,2.704c-0.77,0.212-1.528,0.475-2.31,0.631
		c-17.702,3.534-35.392,7.141-53.127,10.505c-3.238,0.615-5.062,2.109-6.31,5.026c-2.137,4.997-4.617,9.847-6.781,14.833
		c-1.137,2.618-2.905,3.837-5.717,4.376c-18.671,3.577-37.31,7.323-55.964,10.989c-11.286,2.219-22.58,4.397-33.873,6.58
		c-0.775,0.149-1.571,0.235-2.359,0.254c-0.812,0.019-1.485-0.882-1.213-1.677c0.413-1.203,0.886-2.395,1.436-3.542
		c2.003-4.182,4.068-8.334,6.06-12.521c0.378-0.795,0.53-1.696,0.924-3.008c-2.338,0.386-4.194,0.641-6.03,1.004
		c-10.971,2.168-21.985,4.143-32.894,6.594c-21.669,4.869-43.561,8.614-65.294,13.151c-6.568,1.371-13.156,2.663-19.764,3.83
		c-31.154,5.505-62.09,12.123-93.133,18.199c-5.804,1.136-11.607,2.318-17.572,2.239c-0.768-0.01-1.539,0.209-2.422,0.338
		c-2.043,7.229-0.899,14.743-2.628,21.772c-1.854,1.233-3.786,1.439-5.643,1.806c-20.381,4.023-40.781,7.951-61.149,12.042
		c-26.167,5.255-52.312,10.621-78.459,15.967c-22.391,4.578-44.772,9.204-67.161,13.787c-11.43,2.341-22.867,4.646-34.308,6.929
		c-1.223,0.244-2.498,0.224-4.456,0.384c0.507-12.95,2.312-25.118,3.349-37.347c1.04-12.265,2.49-24.495,3.666-36.75
		c1.172-12.216,2.59-24.411,3.524-36.917c-1.518-0.081-2.738-0.146-4.05-0.216c-0.165-0.404-0.531-0.854-0.479-1.246
		c0.402-3.006,0.812-6.015,1.357-8.997c3.737-20.444,7.503-40.883,11.277-61.319c0.288-1.556,0.709-3.086,1.092-4.724
		c1.181-0.382,2.201-0.826,3.267-1.041c23.978-4.833,47.955-9.668,71.947-14.432c6.428-1.276,12.88-2.476,19.363-3.425
		c7.334-1.075,14.678-0.971,21.89,1.04c1.614,0.45,3.02,0.578,4.51-0.551c8.875-6.728,19.105-10.168,29.909-12.252
		c12.243-2.362,24.467-4.826,36.692-7.282c40.424-8.122,80.834-16.317,121.272-24.373c25.708-5.121,51.455-10.051,77.188-15.046
		c1.564-0.304,3.159-0.498,4.749-0.623c2.684-0.211,5.418,0.02,7.724-1.922c0.665-0.56,1.801-0.599,2.739-0.788
		c26.798-5.386,53.602-10.744,80.397-16.142c20.206-4.071,40.403-8.188,60.604-12.289c6.891-1.399,13.764-2.897,20.68-4.163
		c2.149-0.394,3.464-1.347,4.234-3.324c0.638-1.637,1.492-3.19,2.112-4.833c0.828-2.192,2.39-3.159,4.649-3.577
		c6.129-1.134,12.222-2.459,18.335-3.678c23.354-4.659,46.709-9.305,70.063-13.958c1.537-0.306,3.067-1.023,4.683-0.038
		C718.917,37.787,717.724,39.234,716.998,40.766z"/>
	<path fill-rule="evenodd" clip-rule="evenodd" fill="#FFFFFF" d="M404.853,293.517c-3.139-0.883-6.242,1.168-6.555,4.366
		c-0.326,3.339-0.488,6.693-0.723,10.041c-0.096-0.001-0.191-0.002-0.288-0.003c0,3.194-0.061,6.39,0.026,9.581
		c0.043,1.609,0.945,2.333,2.452,2.309c3.735-0.059,5.121-1.269,5.69-5.002c0.12-0.789,0.208-1.586,0.25-2.383
		c0.27-5.107,0.538-10.214,0.763-15.322c0.034-0.779-0.02-1.625-0.301-2.332C405.96,294.25,405.381,293.665,404.853,293.517z"/>
</g>
</svg>
