<?xml version="1.0" encoding="utf-8"?>
<!-- Generator: Adobe Illustrator 26.0.1, SVG Export Plug-In . SVG Version: 6.00 Build 0)  -->
<svg version="1.1"
	 id="logo" inkscape:version="0.48.0 r9654" sodipodi:docname="Blizzard_Entertainment_Logo.svg" xmlns:cc="http://creativecommons.org/ns#" xmlns:dc="http://purl.org/dc/elements/1.1/" xmlns:inkscape="http://www.inkscape.org/namespaces/inkscape" xmlns:rdf="http://www.w3.org/1999/02/22-rdf-syntax-ns#" xmlns:sodipodi="http://sodipodi.sourceforge.net/DTD/sodipodi-0.dtd" xmlns:svg="http://www.w3.org/2000/svg"
	 xmlns="http://www.w3.org/2000/svg" xmlns:xlink="http://www.w3.org/1999/xlink" x="0px" y="0px" viewBox="0 0 400 240"
	 style="enable-background:new 0 0 400 240;" xml:space="preserve">
<style type="text/css">
	.st0{fill:#160919;}
	.st1{fill-rule:evenodd;clip-rule:evenodd;fill:#160919;}
</style>
<g>
	<path id="entertainment" inkscape:connector-curvature="0" class="st0" d="M10.5,207.3h10.2v2.7h-6.3v3h5.9v2.8h-5.9v3.3h6.5v2.8
		H10.5V207.3L10.5,207.3z M370.9,207.3h11.2v2.9h-3.6V222h-3.9v-11.7h-3.6V207.3z M337.7,207.3h4.9l4.3,8.8c0.1,0.3,0.3,0.7,0.5,1.2
		c0.2,0.5,0.4,1.2,0.6,1.9c-0.1-0.7-0.2-1.4-0.3-2c-0.1-0.6-0.1-1.2-0.1-1.7v-8.3h3.5V222h-4.9l-4.4-9.1c-0.2-0.4-0.4-0.9-0.6-1.4
		c-0.2-0.5-0.3-1-0.5-1.6c0.1,0.9,0.2,1.7,0.3,2.4c0.1,0.7,0.1,1.4,0.1,1.9v7.7h-3.5V207.3L337.7,207.3z M309.2,207.3h10.2v2.7h-6.3
		v3h5.9v2.8h-5.9v3.3h6.5v2.8h-10.4V207.3L309.2,207.3z M273.8,207.3h5.7l2.6,8.8c0.1,0.4,0.2,0.7,0.2,1.2c0.1,0.4,0.1,0.9,0.1,1.4
		c0-0.5,0.1-1,0.2-1.5c0.1-0.5,0.2-0.8,0.2-1.2l2.6-8.7h5.6V222h-3.5v-9.9c0-0.5,0-1,0-1.5c0-0.5,0.1-1,0.1-1.6
		c-0.1,0.4-0.2,0.9-0.3,1.3c-0.1,0.4-0.2,0.8-0.3,1.1l-3.1,10.5h-3.3l-3.1-10.3c-0.1-0.4-0.2-0.8-0.3-1.2c-0.1-0.4-0.2-0.9-0.3-1.4
		c0,0.7,0.1,1.3,0.1,1.9c0,0.6,0,1,0,1.3v9.8h-3.3V207.3L273.8,207.3z M242.1,207.3h4.9l4.3,8.8c0.1,0.3,0.3,0.7,0.5,1.2
		c0.2,0.5,0.4,1.2,0.6,1.9c-0.1-0.7-0.2-1.4-0.3-2s-0.1-1.2-0.1-1.7v-8.3h3.5V222h-4.9l-4.4-9.1c-0.2-0.4-0.4-0.9-0.6-1.4
		c-0.2-0.5-0.3-1-0.5-1.6c0.1,0.9,0.2,1.7,0.3,2.4c0.1,0.7,0.1,1.4,0.1,1.9v7.7h-3.5V207.3L242.1,207.3z M219.1,207.3h3.9V222h-3.9
		V207.3z M194.5,210.6l-1.9,5.5h3.7L194.5,210.6z M192.2,207.3h4.7l5.6,14.7h-4.2l-1-3.1h-5.7l-1.1,3.1h-3.9L192.2,207.3
		L192.2,207.3z M160.1,207.3h11.2v2.9h-3.6V222h-3.9v-11.7h-3.6V207.3z M135.3,209.9v3.8h1.4c0.8,0,1.5-0.2,1.9-0.5
		c0.4-0.3,0.6-0.8,0.6-1.4c0-0.7-0.2-1.1-0.7-1.5c-0.5-0.3-1.2-0.5-2.2-0.5H135.3L135.3,209.9z M131.5,207.3h5.8
		c1.9,0,3.4,0.3,4.3,0.9c0.9,0.6,1.4,1.6,1.4,2.9c0,1-0.2,1.7-0.7,2.3c-0.5,0.6-1.2,1-2.1,1.2c0.8,0.3,1.4,1.1,1.9,2.4c0,0,0,0,0,0
		l1.8,4.9h-4.1l-1.3-4c-0.2-0.6-0.5-1.1-0.8-1.3c-0.4-0.2-0.9-0.4-1.7-0.4h-0.6v5.7h-3.8L131.5,207.3L131.5,207.3z M102.4,207.3
		h10.2v2.7h-6.3v3h5.9v2.8h-5.9v3.3h6.5v2.8h-10.4L102.4,207.3L102.4,207.3z M72.9,207.3h11.2v2.9h-3.6V222h-3.9v-11.7h-3.6V207.3z
		 M39.6,207.3h4.9l4.3,8.8c0.1,0.3,0.3,0.7,0.5,1.2c0.2,0.5,0.4,1.2,0.6,1.9c-0.1-0.7-0.2-1.4-0.3-2c-0.1-0.6-0.1-1.2-0.1-1.7v-8.3
		h3.5V222h-4.9l-4.4-9.1c-0.2-0.4-0.4-0.9-0.6-1.4c-0.2-0.5-0.3-1-0.5-1.6c0.1,0.9,0.2,1.7,0.3,2.4c0.1,0.7,0.1,1.4,0.1,1.9v7.7
		h-3.5V207.3L39.6,207.3z"/>
	<path id="blizzard" inkscape:connector-curvature="0" class="st1" d="M108.8,162.5c0,0,0.8,3.5,2.8,2.2c2-1.3,2.8-3.3,4.7-3.3
		c2,0,10.2-1.5,12.1,0c2,1.5,2.2,0.2,3.1,0.2c1,0,3.9,0.5,3.9,0.5c2.5-0.3,2-4.3,0.2-5.4c-2.6-2.1-6.1-3.4-8.8-5.4
		c-0.3-2-0.5-4-0.8-5.9c0.7-1,1.4-2.1,2.2-3.1c0-3.3,0-6.6,0-9.9c-0.4-0.9-0.8-1.8-1.2-2.6c-0.1-2.5-0.3-5-0.4-7.5
		c-0.3-0.4-0.7-0.9-1-1.3c0-1,0-1.9,0-2.9c0.7-1,2-1.9,2.6-2.9c0.2-1.8-0.7-3.1-0.5-5c-0.5-2.3-0.5-5.2-1-7.6c0-2.9,0-5.7,0-8.6
		c1.9-0.6,2.4-1.4,2.5-2.3c0.2-1.1-0.4-2.4-0.9-5c-0.3-13.7-0.4-27.9-0.7-41.7c1-1.6,2.3-2.5,2.3-3.7c0-0.9-1-1.7-2.3-2.8
		c0-1,0-1.9,0-2.9c0,0,2.2-4.4,3.9-4.4c1.8,0,2.9-1.3,2.9-2.6c1.6-3.2-1.8-3.5-1.8-3.5c-3.7-0.1-8,0.1-11.6,0
		c-3.2-0.1-5.9-0.4-9-0.5c-1.4,0.1-2.7,0.1-4.1,0.2c-3.4,1-2.7,2.9-1.4,3.9c1.6,1,2.9,2.1,4.7,2.2c2.2,0,3.9,0.8,4.7,3
		c0.2,8.8,0.4,17.6,0.6,26.4c0.1,6.5,0.3,13,0.3,19.5c0.1,6.5,0,13,0.1,19.5c0.1,7.6,0.3,15.2,0.4,22.9c0,0-0.4,2.9-1,3.5
		c-0.6,0.7-0.4,6.4-0.4,6.4c2.2,1.9,1.7,1.6,0.2,4.2c-0.1,5.6-0.3,11.3-0.4,16.9c-0.5,1-1,2.1-1.6,3.1
		C114.4,156.3,108.8,159.7,108.8,162.5L108.8,162.5z M13.6,189.8c-2.9-0.6-3.5-2-2.4-2.8c0.6-0.5,2.3-0.5,3-0.8
		c1.1-0.5,2.2-1.2,2.9-2c1.1-1.4,0.4-4.6,1.8-7.2c1.3-11.1,1.7-25.7,0.4-30.7c-0.8-7.6,0-32.8,0-36c0.9-1.5,1.2-1.7,1.2-4.4
		c0-1.1,0.7-2.7,0-4c-1.1-1.2-0.8-6.1-0.8-8.9c-0.1-4.1,0.2-4.1,1.3-7.8c0.4-1.4,0.6-3.1,0-4.4c-0.9-2.2-2.3,0.3-2.2-4
		c0.2-10.6,0.6-21.2,0.3-31.7c0.1-0.9,1.6-1.1,1.9-2c0.4-1.1,0.5-2.5,0-3.6c-0.3-0.6-1.9,0.2-2.4-0.3c-2.9-2.8-6.7-4.6-8.4-8.3
		c-0.7-1.5,0.4-4.7,1.8-5.4c2.3-1.2,6.6,0,9.2-0.4c1.4-0.2,2.2-1,3.6-1.1c10.8-0.5,21.9-1.6,32.7-0.5c1.7,0.2,2.3,3.2,3.9,4
		c2.2,1,5.3,0.8,7,2.6c2.6,2.8,4.5,5.2,4.9,9.1c0.4,4.8,1.2,10.3,1.2,14c0,3.1-1,5.9-2.3,8.6c-1.9,3.7-4.1,7.1-6.6,10.7
		c-1.4,2.1-3.9,4-4.5,6.4c-0.6,2.5,5.7,0.7,7,2.8c1.2,2.1-1.1,4.5-0.4,6.8c0.6,2.1,4.2,2.3,4.6,4.4c1.1,5.5-1.3,11.3-0.4,16.8
		c0.3,1.8,3.1,1.8,3.4,3.6c0.3,3.8,0.2,7.9,0.2,11.9c0,4.3,0.2,8.7,0.1,12.8c-0.1,1.6-2.1,2.5-2.3,4c-0.5,4.1,0.9,8.7,0,12.8
		c-1,4.2-4.4,7.2-5.7,11.4c-1.2,3.6-0.8,8.8-2.7,11c-3.1,1-6.9,3.1-9.3,4.9c-3.5,2.6-5.8,5.6-6.9,5.7c-1.4,1.2-4.3,0.4-6,1
		c-1.6,0.6-1.7,1.9-3.4,1.7c-1.3-0.2-0.9-1.3-1.9-2.1c-0.6-0.5-1.7-0.5-2.3,0c-3.5,2.8-0.9,2.1-4.8,1.7
		C26.3,189.6,18.5,190.8,13.6,189.8L13.6,189.8z M36,173.8c0.9-1.7,1.8-3.5,2.7-5.2c-0.3-5.7-0.5-11.5-0.8-17.2
		c0.8-1.1,1.5-2.1,2.3-3.2c0-5.8,0-11.5,0-17.3c0-2.6-0.4-5.3-0.4-7.9c-2.7-2.2-1.4-2.2,0.8-4.8c0-2.5,0.6-4.6,0.6-7.1
		c-0.3-2.1-0.5-4.3-0.8-6.4c0.4-1.1,0.8-2.1,1.2-3.2c0-3.2,0.4-5.8,0.4-9c0-3,0.1-4,0.6-3.8c0.6,0.2,1.6,1.6,3.4,3.4
		c1.4,1.4,2.8,2.7,4.2,4.1c2.6,2.5,5.1,2.7,4.1,6.8c-1,3.8,1.8,4.9,1,8.7c-0.7,2.9-1.6,4.7-1.4,6.5c0.1,1.1,0.6,2.2,1.8,3.5
		c1.1,1.2,1.4,1.2,0.8,2.7c-1,2.4-1.9,3.8-2,5.2c-0.1,1.8,0.9,2.7,1.7,5.9c0.7,2.6,0.6,4.4,0,7.1c-0.8,3.1-1.6,6.3-2.4,9.4
		c-0.1,2.4-0.3,4.8-0.5,7.1c-0.3,3.6-0.7,3.7-3.3,6.3c-2.3,2.4-5.2,4.4-7.5,6.5C40.4,172.8,38.5,172.8,36,173.8L36,173.8z M42,72.7
		c2,0.1,2.8,0.3,3.4,0c0.6-0.3,0.9-0.9,1.8-2.7c1.1-2.2,2.8-5,4.2-5.2c2.4-0.4,3.6-0.7,3.6-0.7s1.2-0.2,0.8-3.3
		c-0.4-3.1-1.3-6-0.5-6.8c0.8-0.8,0.9-3.2,0.1-4.1c-0.8-0.9-1.6-1.9-0.3-3.2c1.3-1.3,2.2-3.5-0.9-3.1c-3.2,0.4-3.1-1-3.5-2
		c-0.4-0.9-3.8-0.7-5.6-0.8c-1.8,0.4-3.3,0.2-3.3,2.1c0.1,1.9-0.3,10.9-0.2,11.9C41.7,55.8,42,72.7,42,72.7L42,72.7z M142,155.2
		c-0.1,0.8-2,0.8-1.8,1.6c0.2,1.1,0.3,2.9,1.4,3c3.3,0.4,7.7-0.9,11-0.3c1.3,0.2,1.3,2.4,2.5,3c1,0,2.4,0,3.7,0
		c0.9-0.5,0.7-2.2,1.6-2.8c1.1-0.7,2.7-0.9,3.9-0.5c0.7,0.2-0.2,2,0.5,2.1c5.7-0.2,10.8,0.4,16.2,0c1.1-0.2,0-1.7,0.9-2.4
		c1-0.7,3.5,0.5,3.7-0.7c0.9-6.4-0.5-13.5,0.1-19.9c0.2-2,2.2-3.3,2.6-5.3c0.1-0.7,0.9-0.7,1-1.3c0.2-2.3,0.2-5.1-0.4-7.3
		c-0.8-0.8-3.1-1.1-3.9-0.7c-0.9,0.6-0.1,2.9-0.7,3.8c-0.3,0.5-1.3-0.5-1.6,0c-0.3,0.4,0.1,1.2,0.2,1.7c0.1,0.3,0.1,0.6-0.2,0.8
		c-1.5,0.8-3.7-1-5,0c-1.3,1,0.2,3-0.9,4.2c-1.8,2-5.6,3.2-7.4,5.2c-2.1,2.4-1.9,4.8-4.4,6.8c-1.9,1.6-5.1,1.8-7.4,2.7
		c-2.7,1.1-3.9,3.1-6.7,3.9c-0.8,0.2-1.9-1.2-1.6-2.1c2.1-6.7,4.8-13.5,7-20.2c1.4-4.3,2.1-7,3.7-11.2c1.6-4.4,3.7-9.8,6.3-13.7
		c0.5-0.8,2.2-0.3,2.5-1.1c0.7-2.2-0.6-4.7,0-6.9c0.4-1.6,2.2-3.2,3.6-4.1c1-0.6,2.5,0.2,2.9-0.8c1-2.5,0.1-5.1,0.7-7.7
		c0.4-1.8,1.6-2.8,2.4-4.5c1-2.2,0.9-4,2.1-6.2c0.9-1.7,2.8-4.1,3.4-6c0.8-2.6,0.1-3.8,0.4-6.5c0.1-0.7,1.1-1.1,1.1-1.8
		c0.4-8.6,0.8-17.3,0.3-25.9c0-0.7-1.6-0.7-1.6-1.4c0.1-2.6,0.4-5,0.2-7.3c0-0.5,0.1-0.8-0.3-0.9c-7.2-0.3-14.3-0.1-21.5-0.1
		c-5.9,0.1-11.8-0.4-17.7,0c-0.9,0.1-1.7,0.2-2.3,0.9c-0.6,0.6-0.9,2-0.8,2.8c0.2,3.8-0.1,8,0,12.6c0,0.9,1.7,0.3,2,1.1
		c0.8,2.2,0.9,4.7,0.7,7.1c-0.1,0.8-1,1.8-1,2.6c0.4,2.7,0.7,4.5,1.2,7.1c0.3,1,1.1,1.8,1.4,2.8c0.3,1.2-0.8,3.6,0.4,3.7
		c0.4,0,1.8,0.3,2.5,0c0.9-0.3-0.3-2,0-3c0.2-0.7,1.5-0.7,1.6-1.4c0.6-3.8-0.4-8.2,0.2-12c0.2-1.2,0.8-2.4,1.8-3
		c0.8-0.5,2.4,0.8,3,0c0.8-1.1,0-2.3,0.5-3.6c0.7-1.8,2-3.5,3.4-4.8c1.4-1.2,2.7-2.6,4.5-2.8c4-0.4,8.8,0,14.3-0.3
		c0.5,0,0.6,0.8,0.7,1.3c0.2,2.5,0.7,5.9,0,7.6c-0.9,2.4-3.1,5-5.2,7.5c-1.5,1.7-3,3.2-4.1,4.9c-1.4,2,0.7,4.8,0,7.1
		c-0.7,2.4-2.7,4.9-4.2,6.9c-1.2,1.6-3.1,2.5-4.3,4.2c-1.5,2.1-2.3,4.2-3.2,6.6c-0.8,2-1.3,4.1-1.6,6.2c-0.3,1.7,0.5,3.5-0.2,5
		c-0.6,1.1-1.8,0.9-2.6,1.8c-1.1,1.3-1.8,3-2.3,4.6c-0.6,1.9-0.7,3.1-1.7,4.8c-1.1,2-3.3,3.9-4.3,5.9c-1.1,2.2-1.2,4.9-1.8,7.3
		c-0.5,2.3-1,4.5-1.5,6.9c-0.6,2.9-1.2,5.8-1.1,8.7c0,0.9,1,1.5,1.4,2.3c0.4,0.7,1.2,1.3,0.9,2.1c-0.3,1-2.1,1-2.3,2.1
		c-0.1,1.1,0.1,2,0.9,2.8c0.7,0.6,2,0.4,2.5,1.1c0.5,0.8,0.4,2.1,0,3c-0.4,0.7-1.6,0.6-1.8,1.4C141.8,149.6,142.6,151.9,142,155.2
		L142,155.2z M340.8,187.7c-0.4-1.4,0.6-1.6,1.4-2.3c1-1,2.1-2.1,2.5-4.1c0.2-0.8,1-2,1.1-3.3c0.3-1.8-0.1-3.7-0.6-4.9
		c-0.7-1.5-1.7-2.3-1.3-3.8c0.1-0.9,2.3-1.1,3.9-1.8c0.9-0.4,1.6-1.2,1.9-1.9c0.4-0.9-0.9-0.8-1.5-2c-0.7-1.3-0.8-3.2-1.3-4.1
		c-0.9-1.7-2.5-3.9-2.6-5.8c-0.2-5,1.3-10.1,1.5-14.9c0.2-4.1,1.1-5,0.8-9.2c-0.2-2.1-1.3-3.6-2.4-5.7c-0.9-1.7-2.2-3.5-2.7-5.1
		c-0.8-2.9,0-6.4-0.5-9.4c-0.1-0.6-1.6-1.3-1.6-1.9c-0.4-4.1,0.1-8.4-0.2-12.5c-0.1-0.8-0.8-0.9-0.8-1.7c-0.2-2.3,0-4.5,0-6.5
		c0-1.7-0.2-3.2-0.2-5.3c0-0.8-0.6-1.3-0.7-2c-0.2-4.5,0-9.4,0-13.9c-0.1-4.8-0.4-9.1,0-13.8c0.1-0.8,1.7-0.8,1.7-1.6
		c-0.2-3.6-0.5-5.1-0.4-8.7c0-0.4,0.9-1.4,0.9-1.8c0.3-3,0.6-6.1-0.1-8.7c-0.6-1.9-2-2.5-3.6-3.7c-1.4-1.1-3-2.8-4.4-3.8
		c-1.7-1.3-2.8-2.3-4.1-4.1c-0.8-1.1,0.5-1.2,1.9-1.3c1.8-0.1,3.8,0.1,5.6,0.4c0.6,0.1,1.7,1.1,2.3,1.3c1.3,0.5,2.2-0.2,3.6,0.3
		c1,0.3,5.4,2.6,6.6,3.3c1.6,0.9,2.1,2.3,3.8,3.1c0.3,0.1,5.5,1.6,6.1,1.8c1.4,0.4,2.3-0.7,3.7-0.3c1.6,0.4,4.5,1.2,6.4,1.8
		c1,0.3,1.7,1.5,2.7,1.7c5.1,1,4.2-0.7,8.3,3.4c1.2,1.2,3.2,2.2,4.1,3.6c1.3,2,1.4,4.5,2.2,6.7c0.6,1.7,2,3.1,2.3,5
		c0.9,4.9,0,10,0.6,15c0.2,1.5,1.7,3.1,1.9,4.6c0.6,5.8,0.7,11.6,0,17.4c-0.2,2-1.9,2.8-2.2,4.7c-0.5,3.3,0.5,6.6,0.3,9.9
		c-0.1,1.6-1,3.2-1.8,4.6c-0.6,1-2,1.3-2.4,2.4c-1.2,2.8-0.9,6.6-1.4,9.6c-0.2,5.8-0.1,10.3,0.2,16c0.2,4.1,0.6,7.7,0.1,11.8
		c-0.2,1.4-1.4,2.2-1.6,3.6c-0.6,3.9-0.1,7.8-0.5,11.7c-0.1,0.7-1,1.4-1.2,2.1c-0.3,3.5-0.5,8.7-2.1,12.7c-1,2.6-3.5,5.3-5.9,6.8
		c-2.3,1.5-4.8,1.8-7.4,2.5c-1.7,0.4-3.6,0.2-5.1,1c-0.9,0.5-0.3,0.5-1.1,1.1c-0.5,0.3-1.3,0.4-1.8,0c-0.6-0.5-0.4-0.7-1.2-1.1
		c-1.1-0.5-2.6-0.5-3.8,0c-0.8,0.4-0.5,1-1.4,1.2c-1.8,0.4-4,0.8-5.9,0.8C342.1,188.3,341.1,188.8,340.8,187.7L340.8,187.7z
		 M357.9,57.1c2.6-0.1,3.1-0.3,5.3,0.9c2.4,1.3,2.8,2.1,4.3,4.4c0.7,0.7,1.5,1.4,2.2,2.1c3,2.9,4.4,7,5.7,10.9
		c0.2,4.2,1.1,11.5-1,15.3c-1,1.9-1.5,3.4-1.6,5c-0.5,4.5-1.8,3.8-3.1,7.2c-0.4,0.9-0.3,2.1-0.3,4.3c-0.1,7.8-0.2,15.7-0.3,23.5
		c-0.1,5-1,7.4-3,12c-1.2,2.2-1.8,3.6-1.8,6.1c0,3-0.6,4.3-1.8,7.1c-0.7,1.6-1.4,3.3-2.2,4.9c-0.9,2-1.6,2.7-2.2,2.4
		c-0.6-0.3-0.9-1.5-0.9-3.4c0.1-9.6,0.1-19.1,0.2-28.7c0.1-10.2,0.2-20.3,0.3-30.5c-0.1-2.2,0-2.7-1.5-4.3c-0.1-3.3-0.8-4.8-1.8-7.9
		c-1.3-2.5-1.2-4.3-1.2-7.1c-0.1-7.1-0.2-14.1-0.2-21.2C352.8,55.8,353.8,57.3,357.9,57.1L357.9,57.1z M191.1,178.8
		c-0.8-3.8-0.2-6.9,0-9.8c0.1-0.7,1.5,0,1.9-0.6c0.6-0.9,1.1-2.1,0.7-3c-0.2-0.6-0.6,0.2-1-0.3c-0.5-0.7-0.3-1.9,0.2-2.6
		c0.8-1,2.3-0.7,2.9-1.9c0.7-1.6-0.5-3.5,0-5.1c0.2-0.5,1.5,0.5,1.6,0c0.6-2.5-0.1-5.2,0.2-7.7c0.1-0.7,0.7-1,0.8-1.6
		c0.3-2.8,0.5-5.6,0-8.4c-0.3-1.7-1.7-2.9-1.9-4.7c-0.9-6.3-1.1-13.1-0.3-19.3c0.6-4.9,3.7-12.4,5.5-16.9c1.1-2.8,1.7-2,2.7-4.9
		c0.3-0.9,0.5-1.9,0.2-2.8c-0.4-1.1-1.7-2-1.5-3.1c0.2-1.4,2-1.4,2.4-2.7c0.6-1.8-0.6-4,0-5.8c0.8-2.2,3.3-3.4,4-5.6
		c0.6-2.1,0-5.5,0.5-7.6c1.2-4.2,2.6-6.8,4.6-10.7c1.2-2.3,3.2-4.2,4.2-6.5c0.9-2.3,0.8-5.3,1.2-7.2c-1.5-1.8-4.8,0.7-7-0.1
		c-1.1-0.4-1.1-2.2-2.2-2.7c-2.4-0.2-4.6-0.2-6.3,1c-2.3,1.7-2.3,3.7-3.2,6.4c-1.3,4-0.3,8.5-2,12.4c-0.7,1.5-3.3,2-4.6,3
		c-0.7,0.6-1,1.2-1.9,1.2c-0.9,0-1.6-0.3-1.9-1.2c-0.4-1.7,0.1-3.6,0-5.4c-0.1-1.4-0.8-2.8-0.5-4.2c0.2-0.7,1.8-0.4,1.9-1.2
		c0.7-8-0.3-16-0.1-23.7c0-2.7,0.8-2.3,3.4-2.3c4.5,0,11.5,0,16.7,0c9,0,18-0.4,27-0.1c1.3,0.1,3.1,0.6,3.2,1.9
		c0.2,2.7-1.6,5.3-2.9,7.7c-0.7,1.3-2.1,2.1-2.6,3.4c-0.8,2.3,0.1,5-0.8,7.2c-0.5,1.4-3.3,1.6-3.8,3c-0.7,2,0.5,4.3-0.2,6.3
		c-0.4,1-2.5,0.4-2.8,1.4c-1.2,3.3-0.5,7.1-1.4,10.5c-0.5,1.9-1.9,3.2-2.2,5.1c-0.7,5.2,0.5,10.6,0,15.9c-0.1,1.1-1.3,1.9-1.6,3
		c-0.8,2.6-1.3,5.4-2.1,7.9c-0.4,1.1-1.8,1.7-2.1,2.8c-0.4,1.7,0.7,3.6,0,5.1c-0.8,2-3.8,2.8-4.2,4.9c-1.3,5.9,0.7,12.2-0.2,18.2
		c-0.4,2.7-2.8,4.8-3.3,7.5c-0.6,3.4,0.5,7.5-0.4,10.9c-0.8,3.3-3.2,6.1-4.4,9.3c-0.3,3.1-4,6-2,8.3c2.4,0.3,6.5,0.8,9.3-0.5
		c1.3-0.6-0.2-3.3,0.9-4.2c3.5-2.7,7.5-3.6,11.4-5.6c2.2-1.1,5.1-2.2,7-3.7c1-0.8,1.1-2.6,2.3-3c0.7-0.3,0.9,1.5,1.6,1.6
		c2.6,0.4,4.9-0.7,7.4,0c1,0.3,1,1.6,1.3,2.7c0.2,0.9,0.7,1.9,0.1,2.7c-0.3,0.5-1.4-0.1-1.6,0.5c-0.4,1.1-0.3,2.4,0,3.5
		c0.2,0.9,1,1.4,1.1,2.3c0.4,4.7,0.5,9.5,0,14.2c-0.1,1-0.7,2-1.7,2.1c-6.7-0.3-13,0.2-19.7,0.2c-0.7-0.1-0.3-1.3-0.9-1.6
		c-1.7-0.7-4.9-0.8-6.7-0.4c-2.1,0.5-2.3,2.3-4.5,2.7c-3.9,0.8-8.4,0-12.3,0.6c-1.4,0.2-2.4,1.4-3.8,1.7
		C195.1,179.9,192.1,180.4,191.1,178.8L191.1,178.8z M87.1,189.7c-2.9,1-6.3,0-9.4,0.1c-1,0-2.5,0.8-3.4,0.5c-1-0.3-2.6-2.3-1.9-3.1
		c2.4-3.2,7.2-3.7,9.5-7c1.3-2,0.1-4.7,0.6-7c0.2-0.7,1.4-0.6,1.8-1.3c0.3-0.5,0.4-1.3,0-1.8c-0.9-1-1.4,1.1-1.8-2
		c-0.3-2.8-0.4-5.6-0.1-8.4c0.2-1.8,1.4-1.4,1.7-2.3c0.5-1.7-0.5-3,0-4.7c0.2-0.8,1.6-0.6,2-1.3c0.4-0.7,0.4-1.7,0-2.3
		c-0.9-1.3-3.2-1.3-3.5-2.8c-0.5-2.8-0.2-5.9-0.2-8.7c0.1-3-0.2-6,0.1-9.1c0-0.6,1.3-0.5,1.5-1.1c0.4-1,0.1-2.2,0-3.3
		c-0.1-0.9,0.2-2.7,0.1-3.6c-0.1-1.4-0.7-1.9-0.1-3.1c0.4-0.8,1.9-0.3,2-1.3c0.7-5-0.8-10.1-0.3-15.1c0.1-0.8,1.4-0.7,1.6-1.5
		c0.4-1.3,0.5-2.9-0.1-4.1c-0.3-0.6-1.6-0.6-1.6-1.2c-0.6-7.3,0.4-14.2-0.2-21.5c-0.1-0.7-1.7,0.3-1.8-2.7c0-3.1-0.3-6-0.3-8.3
		c0-1.8,3.8-1.8,3.8-3.6c-0.1-2.7,0.4-5.7-0.3-8.4c-0.2-0.9-1.3-0.7-1.7-1.6c-0.4-0.8,0-1.5,0.3-2.3c0.4-0.9,1.5-1.5,1.7-2.5
		c0.5-1.8,0.4-3.8,0-5.6c-0.1-0.6-1.2-1.2-1.5-1.7c-0.5-1-0.3-1.9-1-2.8c-0.5-0.6-1.9-0.2-2.5-0.7c-1.5-1.3-2.4-2.8-3.7-4
		c-1.2-1.1-2.8-2-3.8-3.6c-0.6-1.1,0.1-2.9,1.1-3.6c0.7-0.6,1.9-0.4,2.7,0c0.7,0.4,0.7,1.8,1.4,1.9c3.3,0.5,6.6-1,9.8-0.3
		c1.4,0.3,1.5,2.1,2.8,2.7c0.9,0.4,2.5-0.4,3.3,0.2c1.2,0.8,2.2,2.5,3.1,3.4c1.2,1.2,2.2,1.8,2.8,3.5c0.8,2.2,0.4,4.4,0.4,6.7
		c0,2,0.3,4,0.1,6.1c-0.1,0.7-1.4,0.4-1.6,1c-0.3,1.2-0.1,2.5,0.5,3.5c0.4,0.8,1.6,0.4,1.9,1.2c0.7,1.9,0.8,4.3,0.3,6.3
		c-0.2,0.7-1.6,0.3-1.7,1c-0.6,9.6-0.7,19.3,0.3,28.9c0.2,1.6,2.7,2.2,2.9,3.8c1,9.1,0.1,18.3-0.3,27.4c-0.1,1.3-0.7,2.9-1.2,3.9
		c-0.6,1.1-0.2,2.2-0.2,3.4c0,1.5-0.2,3.2,0.1,4.8c0.1,0.9,2,1.7,1.9,2.6c-0.2,2.5,0.2,3.7,0.3,6.1c0.1,1.2-2.1,1.9-2.8,2.9
		c-0.5,0.7-0.8,2-0.4,2.8c0.4,0.7,1.1,0.3,1.3,1.1c0.3,1.1,0.3,2-0.2,3c-0.4,0.6-1.7,0.6-1.8,1.3c-0.3,2,0.8,4.1,0.5,6.1
		c-0.1,0.6-1.4,0.4-1.5,1c-0.5,3,0.5,6.2,0,9.2c-0.2,1.1-2,1.7-2,2.8c0,0.6,1.5,0.2,1.8,0.8c0.5,0.9-0.7,2.8,0.3,3.1
		c3.3,1,7.3,0.7,10.6-0.2c1.9-0.5,2.7-3.1,4.6-3.3c2.3-0.2,4,1.3,6.3,1.7c3,0.5,6.3,0.6,9.3-0.2c1.7-0.5,2.8-2.3,4.6-2.6
		c7.8-1,15-0.4,22.8-0.4c7.4,0,16.9-0.4,22.4,0.2c3.1,0.1-0.3,11.2,0.9,17.1c0.2,1.3,1.3,2,2,3.2c1,1.9,1.5,2.8-1.3,2.8
		c-5.1,0-10.3,0.4-15.8,0.1c-1.1,0-1-2.1-2-2.6c-1.1-0.5-2.4,0.5-3.6,0.3c-1.7-0.4-3.7-2.1-5.5-2.3c-4.7-0.6-9.5,0.6-14.2,0
		c-1.1-0.1-1.2-2.2-2.3-2.3c-11.1-0.8-21.6,0.4-32.7-0.3c-2.4-0.1-2.6-1-4.1-1.4c-2.1-0.6-5.9-0.9-7.9,0.1
		C91,185.1,91,188.4,87.1,189.7L87.1,189.7z M220.2,146.5c-2.3-0.1-2.5-3.8-2.3-6.1c0.2-2.3,3.2-2.2,4.3-4.3
		c0.8-1.5-0.4-4.2,0.5-5.6c1-1.6,3.6-1.5,4.6-3c0.6-0.9-0.3-2.6-0.2-3.6c0.1-2.5,0.6-4.3,0.5-6.8c-0.1-1.3-0.6-3.6-0.4-4.9
		c0.3-1.7,1.4-1.3,1.9-3c0.6-2.1-0.4-4.5,0.3-6.6c0.3-0.8,2.4-0.4,2.3-1.3c-0.2-1-2.1-0.5-2.3-1.5c-0.6-3.2-0.6-6.9,0.2-10
		c0.5-1.9,2.7-3.4,3.3-5.4c0.6-2-0.7-4.3,0-6.3c0.4-1.4,2.7-1.7,3-3c0.8-3.3,0.1-7.3,0.9-10.6c0.4-1.7,1.3-3.7,2.4-4.7
		c0.7-0.6,1.3-1.1,1.6-2.1c0.4-1.4-0.6-2.6-0.4-4c0.2-1.3,1.2-2.1,1.8-3.2c0.8-1.4,1.1-3.2,1.9-4.7c1.1-2.1,2.6-3.9,3.3-6.1
		c0.6-1.7-0.7-4.4,0.1-6c1.1-2.3,3.8-2.2,4.8-4.5c0.8-1.8-0.6-4.3,0.3-6.1c0.6-1.3,2.1-1.9,3.6-2c1.1,0,2.4,0.7,2.8,1.7
		c0.7,2,0.1,4.4,0.9,6.3c1.4,3.4,3.9,5.5,5.3,8.9c0.7,1.8-0.1,4.4,0.4,6.3c0.6,2.6,1,5.2,1.9,7.7c1.1,3.1,2.6,6.2,3.5,9.3
		c0.8,2.8,1,5.9,1.6,8.7c0.4,2.1,1.3,4,2,6c0.3,0.9,1.3,0.6,1.6,1.5c0.4,1.6-0.9,3.2-0.5,4.8c0.4,1.9,2.5,3.8,2.8,5.7
		c0.5,3.1,0,6,0.1,9.2c0.1,2.9,0.4,5.5,0.7,8.3c0.2,1.7,1.2,4.1,1.2,5.3c0.2,4.6,0.4,9.1,0.4,13.6c0.1,6.7,0.1,13.8-0.3,20.5
		c0,0.8-1,1.2-1.2,1.9c-1,2.8-1.9,4.3-2.6,7.2c-0.4,1.5-0.4,3.2-1,4.6c-0.4,0.9-2.2,1.6-2.5,2.5c-0.7,2,0.2,4.1,0,6.6
		c-0.1,2.2-1,3.4-1.9,5.4c-0.6,1.4-1.6,3.5-2,5c-0.4,1.6,0.3,3.3-0.1,4.8c-0.2,0.8-1.3,1.2-1.5,2c-0.4,2.1,0.4,4.3-0.3,6.3
		c-0.4,1.1-0.6,1-1.7,1.5c-0.8,0.3-2.8,0.7-2.9-0.1c-0.5-3.5,0.5-6-0.1-9.5c-0.7-4.1-2.4-6.6-3.4-10.7c-0.5-2,0.4-5.5-0.5-7.3
		c-1.7-3.2-7.1-4.6-6.8-8.2c0.2-3.5,2.3-5.8,4.5-8.7c1.5-2,2.4-5.2,3.3-7.4c0.7-1.7,1.1-3.6,1.1-5.2c0-2.4-0.6-3.5-2.5-5
		c-3.8-3.2-10.1-6-14.8-8.4c-0.7-0.3-1.5,1-1.5,1.8c0,0.8,0.9,1.4,1,2.2c0.3,2.3-1.1,4.6-0.1,6.7c1,2.2,5.1,2.8,4.5,5.2
		c-0.4,1.6-0.8,2.1-2.1,2.9c-0.8,0.5-1.7,0.4-2.6,0.5c-2.8,0.1-5.7-0.9-8.5-0.3c-3,0.6-5.6,2-8.4,3.4
		C224,145.4,222.2,146.6,220.2,146.5L220.2,146.5z M245.2,111c0-2.2-0.1-4.4-0.1-6.6c0-1.9,0.1-3.9,0.2-5.9c0.1-1.3,1.3-2.3,1.4-3.5
		c0.3-2.1-1-4.6-0.5-6.7c0.2-0.8,2.3,0,2.8-0.7c0.2-0.2,0.5-1.5,1-2.7c0.3-0.7,1-1.3,1-1.5c0-0.4,0-3,0.3-5.4
		c0.2-1.3,0.4-2.5,0.6-2.5c0.2,0,0.4,1.1,1.1,2c0.8,1.1,1.1,2.1,1.8,3.3c0.4,0.7,0.9,1.4,1.6,1.7c0.9,0.3,2-0.1,2.8,0.2
		c0.7,0.3,0.8,1.3,1.4,1.7c0.4,0.3,1.3-0.3,1.4,0.3c0.4,2.3,0.1,5.4,0.4,7.7c0.1,0.6,1.3,0.3,1.3,0.9c0.2,4,0.3,8.1,0.3,12.1
		c0,3.6-0.1,7.1-0.3,10.7c-0.1,1-2.7,1.1-3.5,0.5c-1.4-1.1-2.4-2.4-4.3-2.8c-0.8-0.2-0.8-1.4-1.5-1.7c-1.7-0.6-3.8-0.7-5.5-0.7
		c-1.1,0-2.8,0.4-3.9,0.3C245,111.7,245.2,111.2,245.2,111L245.2,111z M299.1,41.5c0,2.3,0.3,4.8,0.3,7.3c0,3.1-0.2,5.9-0.2,9.1
		c0,3.4,0.3,7.1,0.3,10.3c0,2.7-0.5,7.8-0.3,10c0.3,2.8,0.4,3.3,4.3,3.3c1.9,0,4.4-1.9,6.3-3.9c1.3-1.3,1.1-3.6,1.6-4.6
		c0.7-1.5,2-2.8,2.2-4.5c0.3-2.2-0.5-4,1-5.4c0.6-0.6,1.1-6.8,1.1-8.2c0-2-2.1-4.9-4.5-7.5c-1.6-1.8-3.6-3.4-4.4-4.6
		c-1.5-2.2-2.7-3.2-4.5-3.6C299,38.3,299.1,38.6,299.1,41.5L299.1,41.5z M281.6,165.1c-0.6,2.4,1.3,3.4,3.5,4.9
		c2.2,1.4,4.8,3.3,7.2,5.3c4.1,3.3,6.9,9.5,9.5,15.5c1.4-1.5,0.4-8.2,1.2-12.3c0.2-0.9,1.1-1.5,1.2-2.4c0.3-3.2,0.4-6.4,0-9.5
		c-0.1-1.2-1.3-2-1.6-3.2c-0.2-0.9-0.2-1.9,0-2.8c0.2-1.1,1.1-2,1.2-3.2c0.3-3.3,0.5-6.6,0-9.9c-0.2-1.2-2.1-1.9-2-3.2
		c0.1-1,2.3-1,2.4-2c0.2-2.9-0.8-5.8-1.2-8.7c-0.8-6.6-1.3-13.2-2-19.8c-0.2-2.4-1.2-4.8-0.8-7.1c1.2-3.2,2.4-6.5,3.6-9.1
		c0.6-0.8,1.4,0.7,1.9,1.5c1.9,2.5,4.5,5.5,5.1,8.6c0.7,3.8-1.4,7.1-0.9,10.9c0.1,1.1,1.8,0.9,2.2,2c1.9,5,3.4,10.2,4.4,15.5
		c1.1,6,1.4,12.1,1.6,18.2c0.1,2.7,0,5.4-0.8,7.9c-1.1,3.6-3.3,6.5-4.5,10c-1.2,3.7-1.6,4.8,2.3,4.8c1.5,0,3.3,0.1,4.5,0.7
		c3.2,1.6,4.5,5.3,7.5,7.1c0.7,0.4,1.5,1,2.4,1.5c4.3,2.4,4.8,0.7,5.6-3c1.2-5,1.5-9.4,2.2-14.3c0.4-2.5,0.3-5,0.4-7.5
		c0.2-3.6,0.4-7.1,0.2-10.7c-0.1-1.7-0.1-3.5-1.2-4.8c-0.8-0.9-3.2,0-3.6-1.2c-0.4-1.7,2-3,2-4.8c-0.7-4.6-1.3-8.8-1.3-13.4
		c-0.1-5.4-1.2-2.7-3-4.8c-1.1-1.3-1.4-2.4-1.6-4.1c-0.5-4.9,0.2-10.3-0.5-15.1c-0.3-2.2-1.3-4.3-2.8-6c-0.5-0.6-1.5,0.3-1.8-0.4
		c-0.6-1.2,1.2-2,0.5-3.1c-1.6-2.6-5-4.6-7.6-6.3c-0.8-0.5-2.1,0.7-2.8,0c-0.7-0.7-0.6-2.7,0-3.3c4.6-0.7,6.9-2.8,9.2-5.4
		c3-3.5,4.5-7.4,6-11.8c0.7-2-0.2-4.4,0-6.5c0.4-3.9,2.5-7.5,1.8-11.4c-1-5.6-3.8-10.7-7-15.5c-1.8-2.6-4.5-5-7.4-6.3
		c-2.4-1.1-4.4-0.2-7-0.9c-3-0.9-5.3-2.5-8.3-3.1c-2.3-0.5-4.8,0.5-7.1,0c-1.5-0.3-1.7-2-3.2-2.2c-1-0.2-2.1,1.3-3.1,1.4
		c-7.1,0.6-13-0.8-20,0.2c-1.1,0.1-0.8,1.3,0.1,1.9c1.3,0.9,3.3,0.5,4.8,1.1c2.6,1.1,4.6,2.7,6.6,4.8c1.6,1.7,2.3,3.7,3.7,6.3
		c0.6,1.1,2.3-1,3.6-1.2c1.6-0.2,2.7-0.3,3.6,1c0.9,1.1-1,2.6-2,3.5c-2.1,1.9-3.6,3-5.4,4.2c-1.3,0.9-3.6,1.7-4.5,3.4
		c-2.1,3.8,0.4,8.2,1.2,12.4c0.3,1.6,0.6,3.1,1,4.6c1.2,5,0.8,9.2,1.5,14.4c0.2,1.7,1.4,3.1,1.6,4.8c0.2,2-0.1,3.4,0.2,5.4
		c0.1,0.8,0.8,1.7,1,2.5c1,3.6,1.9,8.2,2,11.9c0.4,12.3-0.3,24.3,0.3,36.6c0.1,1.1,1.7,1.6,2,2.7c0.4,1.7-0.8,3.7-1.3,5.3
		C285.8,154.3,283.1,159.3,281.6,165.1L281.6,165.1z"/>
</g>
</svg>
