<?xml version="1.0" encoding="utf-8"?>
<!-- Generator: Adobe Illustrator 26.0.1, SVG Export Plug-In . SVG Version: 6.00 Build 0)  -->
<svg version="1.1" id="Layer_1" xmlns="http://www.w3.org/2000/svg" xmlns:xlink="http://www.w3.org/1999/xlink" x="0px" y="0px"
	 viewBox="0 0 200 200" style="enable-background:new 0 0 200 200;" xml:space="preserve">
<style type="text/css">
	.st0{fill:#160919;}
</style>
<path class="st0" d="M163.4,29.6c0-0.5,0-1.5,0.5-1.5c0.7,0,1.3,1.5,1.6,2.1c3.9,12.3,2.8,27.3-2.7,44.2
	c21.8,11.7,34.4,26.8,32.1,40.9c-3,18.6-30.3,29.5-67,28.2c3.6-3.8,8.5-9.5,12.3-14.4c14.1-2.7,24.3-8.3,26.9-17.3
	c1.9-6.5-2.5-13.7-11.1-20.5c-14,29.5-37.4,55.9-59,71.1c10.5,13.4,20.2,22.6,31.4,27.8c0.4,0.2,1.3,0.7,1,1.2
	c-0.3,0.6-2,0.4-2.6,0.3c-12.6-2.8-25-11.2-37-24.5c-21,13.1-40.4,16.4-51.5,7.3c-14.6-11.9-10.4-41,9-72.1c1.5,5,4,12.1,6.4,17.8
	c-4.7,13.6-4.9,25.2,1.5,32c4.7,4.9,13.2,4.7,23.3,0.7c-18.4-26.9-29.6-60.3-32-86.7c-16.8,2.4-29.7,6.2-39.8,13.3
	c-0.4,0.3-1.3,0.8-1.5,0.3c-0.3-0.6,0.7-1.9,1.1-2.4c8.7-9.5,22.3-16.1,39.7-19.8C45,33,51.8,14.6,65.2,9.5
	c17.6-6.7,40.7,11.5,57.9,43.9c-5.1-1.2-12.4-2.6-18.6-3.4c-9.4-10.9-19.4-16.9-28.5-14.7c-6.6,1.6-10.6,9.1-12.2,19.8
	c32.5-2.6,67.1,4.4,91.1,15.5C161.3,54.9,164.4,41.8,163.4,29.6z M87.4,148.8c25.8-14.7,46.6-37.2,60.5-63.1l0,0
	C122.2,70.9,92.3,64,63,64.9l0,0C62.9,94.6,71.9,123.9,87.4,148.8L87.4,148.8z"/>
</svg>
