<?xml version="1.0" encoding="utf-8"?>
<!-- Generator: Adobe Illustrator 16.0.0, SVG Export Plug-In . SVG Version: 6.00 Build 0)  -->
<!DOCTYPE svg PUBLIC "-//W3C//DTD SVG 1.1//EN" "http://www.w3.org/Graphics/SVG/1.1/DTD/svg11.dtd">
<svg version="1.1" id="Layer_1" xmlns="http://www.w3.org/2000/svg" xmlns:xlink="http://www.w3.org/1999/xlink" x="0px" y="0px"
	 width="420px" height="120px" viewBox="0 0 420 120" enable-background="new 0 0 420 120" xml:space="preserve">
<path fill-rule="evenodd" clip-rule="evenodd" fill="#2FC872" d="M51.936,79.758c5.707-0.605,11.603-2.478,16.566-2.216
	c6.752,0.405,19.605-4.783,25.658-3.748c3.069,0.435,10.722,2.076,15.801,0.601c0.438-0.127,1.704-2.181,2.655-2.052
	c0.385,0.023,1.993,1.84,2.906,1.645c14.586-3.426,30.823-4.425,45.097-4.385c-1.768,10.748-11.644,37.342-10.947,38.849
	c12.497-1.858,24.062-9.946,34.118-14.652c10.41-4.834,19.419-5.579,29.935-8.742c12.428-3.805,20.024-8.141,32.676-8.986
	c0.452,11.168-2.587,20.517-8.146,26.59c0.349,2.102,0.35,2.604,1.195,3.661c0.347,0.879,0.699,1.758,1.13,2.639
	c6.599-1.534,10.722-5.82,16.015-8.664c16.062-8.434,33.515-15.449,49.26-23.142c8.683-4.243,19.313-4.684,25.097-11.252
	c0.303,0.021,0.643,0.022,0.945-0.041c-2.191,6.957-1.828,17.158-6.721,21.86c0.405,4.092,0.967,4.99,2.401,7.233
	c10.397-2.979,21.93-11.808,31.132-17.229c4.924,0.959,11.76-3.811,16.267-5.845c12.446-5.661,26.093-9.474,35.025-14.759
	c-1.13-9.283-30.731-11.634-40.761-11.69c-0.321-0.312-0.636-0.611-1.005-0.856c1.474-2.148,4.208-4.282,6.05-6.021
	c-0.282-2.641-0.654-3.922-1.368-5.47c-15.501,1.312-28.018,5.369-40.029,9.514c-9.115,3.193-28.081,8.682-29.028,8.719
	c1.192-4.786,7.762-15.519,7.048-17.23c-17.878,1.426-31.603,4.727-46.668,8.22c-11.661,2.628-34.003,0.77-40.42,4.918
	c-0.579,0.026-1.216,0.084-1.832,0.128c0.271-3.324,1.831-3.914,2.389-5.785c0.997-3.888,0.453-5.264,1.423-4.733
	c2.186-3.881,9.252-18.052,12.4-20.385c-0.63-3.438-1.016-3.373-2.266-5.409c-20.905,2.276-41.383,8.876-58.263,14.599
	c-11.485,3.931-20.308,3.151-31.913,7.101c-25.003,8.521-50.739,16.846-74.026,26.038c-9.029,3.445-16.323,3.059-25.488,6.573
	c-3.276,1.218-8.251,4.278-11.66,5.482c-6.2,2.271-14.371,0.002-19.196,3.37C11.968,74.775,12,75.103,10,76.418
	C10.328,79.066,38.934,81.107,51.936,79.758z"/>
</svg>
