<?xml version="1.0" encoding="utf-8"?>
<!-- Generator: Adobe Illustrator 16.0.0, SVG Export Plug-In . SVG Version: 6.00 Build 0)  -->
<!DOCTYPE svg PUBLIC "-//W3C//DTD SVG 1.1//EN" "http://www.w3.org/Graphics/SVG/1.1/DTD/svg11.dtd">
<svg version="1.1" id="Layer_1" xmlns="http://www.w3.org/2000/svg" xmlns:xlink="http://www.w3.org/1999/xlink" x="0px" y="0px"
	 width="240px" height="240px" viewBox="0 0 240 240" enable-background="new 0 0 240 240" xml:space="preserve">
<g id="crown">
	<g>
		<g>
			<path fill="#2FC872" d="M160.96,167.689l-59.717,9.369c-0.321,1.482-0.704,3.002-0.978,4.541
				c-2.899,16.406-15.321,28.119-31.952,29.434c-15.762,1.24-30.398-9.645-31.842-25.623c-0.566-6.289-0.177-12.67-0.187-19.012
				c-0.023-13.381,0.053-26.764-0.054-40.145c-0.072-9.186,0.504-18.128,5.518-26.286c4.761-7.743,11.319-13.263,19.65-16.633
				c13.666-5.534,27.735-9.699,42.193-12.729c12.143-2.545,24.358-4.199,36.715-4.544c9.937-0.277,19.895-0.077,29.831,0.234
				c15.562,0.489,30.519,12.462,35.032,27.237c4.163,13.639,8.783,27.137,13.133,40.721c2.39,7.463,5.206,14.852,6.805,22.486
				c2.499,11.947-3.684,24.01-14.387,29.914c-16.729,9.227-37.986,2.955-47.029-13.877
				C162.82,171.156,161.948,169.529,160.96,167.689"/>
			<path fill="#B11478" d="M65.868,212.24c-7.553,0-14.817-2.645-20.456-7.443c-5.802-4.939-9.37-11.791-10.046-19.287
				c-0.406-4.494-0.328-9.078-0.252-13.512c0.03-1.838,0.062-3.738,0.061-5.598c-0.008-4.701-0.004-9.48,0-14.104
				c0.007-8.533,0.016-17.357-0.054-26.033c-0.066-8.423,0.312-18.141,5.683-26.876c4.844-7.877,11.632-13.624,20.181-17.081
				c13.26-5.37,27.52-9.672,42.382-12.788c13.099-2.744,25.173-4.238,36.913-4.566c3.187-0.089,6.442-0.132,9.957-0.132
				c7.321,0,14.502,0.195,19.939,0.368c15.827,0.496,31.33,12.544,36.061,28.022c2.61,8.558,5.452,17.208,8.199,25.573
				c1.628,4.957,3.312,10.08,4.93,15.134c0.614,1.922,1.271,3.875,1.903,5.764c1.834,5.461,3.73,11.107,4.929,16.834
				c1.265,6.045,0.458,12.248-2.331,17.941c-2.694,5.498-7.171,10.176-12.605,13.174c-5.217,2.877-11.122,4.398-17.079,4.398
				c-13.204,0-25.262-7.176-31.466-18.723l-0.557-1.039c-0.579-1.08-1.169-2.18-1.803-3.359l-58.19,9.131
				c-0.051,0.229-0.104,0.457-0.156,0.686c-0.229,1.004-0.466,2.043-0.647,3.068c-3.021,17.092-15.958,29.006-32.959,30.348
				C67.56,212.207,66.708,212.24,65.868,212.24z M150.233,67.042c-3.493,0-6.729,0.043-9.896,0.131
				c-11.604,0.324-23.549,1.803-36.518,4.521c-14.733,3.088-28.866,7.352-42.004,12.672c-8.1,3.274-14.532,8.721-19.121,16.185
				c-5.062,8.234-5.417,17.58-5.354,25.695c0.069,8.686,0.062,17.514,0.054,26.053c-0.004,4.621-0.008,9.398,0,14.1
				c0.004,1.881-0.029,3.791-0.061,5.639c-0.075,4.375-0.151,8.898,0.244,13.273c0.624,6.914,3.917,13.232,9.273,17.793
				c5.236,4.459,11.989,6.914,19.016,6.914c0.783,0,1.577-0.029,2.357-0.092c15.96-1.262,28.107-12.455,30.946-28.52
				c0.191-1.08,0.435-2.145,0.669-3.176c0.108-0.473,0.215-0.941,0.315-1.406l0.161-0.744l61.247-9.611l0.373,0.695
				c0.779,1.449,1.485,2.768,2.177,4.055l0.557,1.037c5.816,10.826,17.123,17.551,29.508,17.551c5.582,0,11.117-1.426,16.006-4.123
				c5.039-2.775,9.188-7.111,11.684-12.205c2.569-5.242,3.313-10.951,2.151-16.508c-1.171-5.598-3.046-11.182-4.858-16.582
				c-0.638-1.895-1.295-3.854-1.914-5.793c-1.616-5.045-3.298-10.166-4.924-15.118c-2.751-8.376-5.597-17.038-8.216-25.617
				c-2.133-6.981-6.748-13.525-12.995-18.427c-6.308-4.946-13.769-7.797-21.009-8.024C164.683,67.239,157.524,67.042,150.233,67.042
				z"/>
		</g>
		<g>
			<path fill="#F5902C" d="M94.834,163.994c-0.039-0.502-0.076-0.977-0.088-1.455c-0.016-0.623-0.013-1.266-0.012-1.889
				c0.002-0.682,0.004-1.385-0.017-2.082c-0.041-1.422-0.093-2.865-0.144-4.262c-0.051-1.406-0.104-2.859-0.146-4.289
				c-0.033-1.191-0.057-2.404-0.078-3.58c-0.022-1.246-0.046-2.535-0.084-3.805c-0.024-0.838-0.072-1.68-0.118-2.492
				c-0.044-0.76-0.087-1.545-0.112-2.314l-0.009-0.262c-0.082-2.523-0.167-5.133-0.779-7.654c-0.252-1.037-0.978-1.633-1.989-1.633
				c-0.065,0-0.133,0.002-0.205,0.006c-1.266,0.094-1.625,1.08-1.797,1.553l-0.034,0.092c-0.11,0.299-0.222,0.6-0.332,0.896
				c-0.309,0.836-0.628,1.703-0.963,2.543c-0.323,0.814-0.657,1.629-0.991,2.441c-0.499,1.215-1.015,2.471-1.491,3.721
				c-0.312,0.812-0.571,1.639-0.823,2.436c-0.155,0.49-0.315,0.998-0.483,1.488c-0.623-1.201-1.097-2.441-1.59-3.73
				c-0.096-0.252-0.191-0.504-0.29-0.754c-0.418-1.078-1.027-2.039-1.619-2.969c-0.154-0.244-0.309-0.486-0.459-0.73
				c-0.518-0.844-2.048-1.268-2.759-1.268c-0.316,0-0.582,0.064-0.807,0.195c-1.06,0.619-1.072,1.631-1.08,2.176
				c-0.001,0.096-0.001,0.191-0.01,0.285c-0.173,1.902-0.304,3.807-0.409,5.416c-0.178,2.705-0.336,5.371-0.483,7.871
				c-0.016,0.27-0.035,0.537-0.055,0.807c-0.06,0.822-0.121,1.674-0.083,2.525c0.134,3,0.311,5.943,0.523,8.746
				c0.127,1.666,0.349,3.33,0.562,4.939l0.051,0.383c0.068,0.512,0.312,1.041,0.668,1.451c0.365,0.424,0.891,0.656,1.478,0.656
				c0.332,0,0.677-0.072,1.026-0.213c1.136-0.461,1.059-1.539,1.032-1.895c-0.003-0.041-0.006-0.082-0.007-0.125
				c-0.009-0.195-0.051-0.354-0.082-0.471c-0.007-0.027-0.015-0.055-0.021-0.082c-0.099-0.527-0.202-1.055-0.307-1.58
				c-0.244-1.236-0.496-2.514-0.679-3.771c-0.162-1.117-0.216-2.309-0.27-3.455l-0.021-0.48c-0.01-0.219,0.014-0.473,0.04-0.74
				c0.032-0.334,0.066-0.713,0.042-1.102c-0.042-0.639-0.094-1.277-0.146-1.916c-0.213-2.67-0.415-5.193-0.035-7.809
				c0.072-0.492,0.114-0.98,0.154-1.453c0.012-0.146,0.024-0.287,0.038-0.432c0.062-0.686,0.124-1.369,0.187-2.053
				c0.051-0.562,0.102-1.125,0.151-1.688c0.13,0.348,0.251,0.703,0.377,1.074c0.279,0.82,0.568,1.668,0.982,2.477
				c0.834,1.627,1.426,3.42,1.81,5.482c0.074,0.395,0.245,0.723,0.383,0.986c0.024,0.045,0.049,0.092,0.071,0.137
				c0.338,0.672,0.962,1.072,1.671,1.072c0.155,0,0.312-0.021,0.467-0.059c0.847-0.217,1.411-0.885,1.551-1.84
				c0.066-0.463,0.181-0.943,0.339-1.434c0.134-0.408,0.285-0.814,0.444-1.244c0.265-0.707,0.537-1.438,0.728-2.197
				c0.554-2.219,1.456-4.432,2.327-6.57c0.067-0.168,0.137-0.336,0.207-0.508c0.015,0.242,0.028,0.484,0.044,0.729
				c0.214,3.547,0.437,7.213,0.313,10.842c-0.021,0.648,0.002,1.285,0.025,1.902c0.015,0.393,0.029,0.764,0.032,1.141
				c0.007,0.785,0.008,1.572,0.01,2.357c0.002,1.121,0.004,2.279,0.021,3.424c0.013,0.697,0.048,1.395,0.081,2.07
				c0.027,0.549,0.057,1.115,0.071,1.67c0.004,0.145,0.01,0.293,0.017,0.439c0.021,0.562,0.043,1.096-0.058,1.572
				c-0.183,0.877-0.131,1.67,0.158,2.422c0.499,1.303,1.479,1.443,1.879,1.443c0.173,0,0.353-0.023,0.536-0.068
				c0.491-0.123,1.625-0.596,1.544-2.334C94.896,164.779,94.865,164.381,94.834,163.994z"/>
			<path fill="#F5902C" d="M135.586,159.193c-0.117-0.352-0.232-0.705-0.344-1.062c-0.098-0.312-0.196-0.627-0.297-0.938
				c-0.459-1.443-0.895-2.807-1.061-4.242c-0.287-2.486-0.889-4.9-1.79-7.18c-0.318-0.803-0.813-1.609-1.472-2.402
				c-1.109-1.34-2.623-1.939-4.354-1.707c0.217-0.426,0.438-0.855,0.656-1.271c0.207-0.395,0.414-0.793,0.617-1.189
				c0.615-1.203,1.229-2.406,1.843-3.607c0.818-1.605,1.638-3.211,2.458-4.814c0.313-0.613,0.633-1.225,0.949-1.836
				c0.311-0.594,0.618-1.188,0.923-1.781c0.709-1.383-0.289-2-0.499-2.111c-0.232-0.121-0.479-0.184-0.732-0.184
				c-0.539,0-1.047,0.285-1.429,0.801c-0.422,0.566-0.758,1.088-1.026,1.59c-1.137,2.111-2.25,4.229-3.485,6.574
				c-0.538,1.021-1.073,2.045-1.608,3.068c-0.952,1.818-1.937,3.695-2.92,5.541c-0.02-0.713-0.032-1.434-0.026-2.145
				c0.008-1.109,0.034-2.246,0.059-3.342c0.032-1.396,0.064-2.84,0.062-4.262c-0.002-1.295-0.129-2.537-0.281-3.908
				c-0.078-0.723-0.513-1.273-0.765-1.537c-0.258-0.271-0.636-0.412-1.096-0.412c-0.262,0-0.525,0.047-0.744,0.135
				c-0.69,0.279-0.87,1.102-0.908,1.344c-0.055,0.34-0.039,0.695,0.049,1.121c0.411,1.984,0.337,4.031,0.26,6.197
				c-0.037,1.035-0.076,2.105-0.056,3.164c0.021,1.164,0.005,2.359-0.011,3.518c-0.015,0.982-0.028,1.998-0.02,2.998
				c0.009,1.051,0.043,2.111,0.076,3.135c0.03,0.951,0.062,1.934,0.073,2.896c0.014,1.242,0.01,2.51,0.005,3.738
				c-0.003,1.002-0.007,2.039,0,3.059c0.007,1.152,0.754,1.955,1.817,1.955c0.137,0,0.275-0.014,0.416-0.041
				c1.079-0.209,1.702-1.107,1.588-2.287c-0.024-0.254-0.055-0.508-0.084-0.764c-0.058-0.502-0.111-0.975-0.13-1.449
				c-0.088-2.332-0.146-4.723-0.193-6.779c-0.002-0.109,0.005-0.227,0.018-0.355c0.568-0.25,0.985-0.688,1.245-1.309
				c0.097-0.23,0.247-0.477,0.407-0.736c0.08-0.131,0.159-0.26,0.233-0.391c0.368-0.637,0.646-0.781,1-0.816
				c0.362-0.035,0.714-0.094,1.052-0.15c0.255-0.043,0.494-0.082,0.731-0.109c0.065-0.012,0.128-0.016,0.186-0.016
				c0.253,0,0.312,0.078,0.34,0.111c0.136,0.174,0.277,0.348,0.419,0.521c0.374,0.455,0.728,0.885,0.94,1.33
				c0.783,1.641,1.299,3.381,1.529,5.172c0.271,2.104,0.812,4.131,1.333,6.088c0.271,1.008,0.547,2.049,0.781,3.078
				c0.188,0.812,0.931,1.383,1.807,1.383c0.227,0,0.45-0.037,0.669-0.109c0.8-0.271,1.502-1.037,1.079-2.373
				C135.782,159.791,135.684,159.492,135.586,159.193z"/>
			<path fill="#F5902C" d="M127.855,91.542c0.044,0.35,0.087,0.7,0.129,1.05c0.065,0.56,0.099,1.12,0.134,1.714
				c0.066,1.146,0.137,2.331,0.46,3.539c0.284,1.062,0.37,2.239,0.433,3.354c0.061,1.03,0.089,2.087,0.116,3.108
				c0.035,1.274,0.071,2.593,0.166,3.897c0.164,2.284,0.397,4.593,0.624,6.826c0.076,0.751,0.152,1.502,0.226,2.253
				c0.044,0.438,0.157,0.858,0.329,1.212c0.329,0.676,0.953,1.08,1.669,1.08c0.217,0,0.438-0.036,0.656-0.107
				c0.614-0.197,1.312-0.716,1.147-2.069c-0.056-0.444-0.111-0.89-0.168-1.334c-0.199-1.579-0.406-3.214-0.541-4.813
				c-0.106-1.256-0.175-2.545-0.238-3.792c-0.053-1.007-0.107-2.049-0.182-3.078c-0.133-1.812-0.312-3.785-0.554-6.032
				c-0.05-0.467-0.115-0.932-0.186-1.386c0.303,0.521,0.6,1.046,0.883,1.571c0.771,1.432,1.396,2.75,1.912,4.027
				c0.41,1.015,0.785,2.076,1.146,3.104c0.612,1.731,1.244,3.521,2.088,5.231c0.286,0.582,0.541,1.242,0.801,2.078
				c0.49,1.577,1.301,2.933,2.086,4.242c0.184,0.308,0.368,0.614,0.547,0.923c0.367,0.636,0.988,0.999,1.703,0.999
				c0.246,0,0.495-0.043,0.744-0.13c0.387-0.136,1.276-0.603,1.184-2.005c-0.021-0.312-0.032-0.625-0.044-0.938
				c-0.02-0.526-0.04-1.071-0.1-1.622c-0.103-0.951-0.201-1.902-0.303-2.854c-0.354-3.388-0.724-6.892-1.167-10.334
				c-0.203-1.583-0.304-3.214-0.399-4.791c-0.062-0.987-0.123-2.007-0.211-3.017c-0.028-0.334-0.037-0.68-0.046-1.043
				c-0.024-0.962-0.052-2.053-0.499-3.139c-0.005-0.097,0.03-0.319,0.056-0.471c0.021-0.131,0.043-0.262,0.057-0.385
				c0.075-0.629,0.188-1.58-0.409-2.491l-0.558-0.846l-0.895,0.476c-1.371,0.73-2.021,2.14-1.828,3.97
				c0.236,2.273,0.423,4.542,0.602,6.736c0.041,0.498,0.064,1.016,0.089,1.516c0.034,0.728,0.069,1.479,0.155,2.231
				c0.289,2.543,0.6,5.125,0.9,7.625c-0.243-0.583-0.467-1.163-0.66-1.754c-0.962-2.948-2.035-5.575-3.28-8.03
				c-1.216-2.397-2.403-4.469-3.632-6.33c-0.36-0.546-0.688-1.112-1.032-1.714c-0.232-0.406-0.475-0.825-0.728-1.237
				c-0.33-0.536-0.694-0.881-1.112-1.051c-0.573-0.233-1.308-0.223-1.81,0.04c-0.56,0.291-0.805,0.938-0.709,1.87
				C127.68,90.133,127.769,90.849,127.855,91.542z"/>
			<path fill="#F5902C" d="M114.131,155.283l-0.032-0.344c-0.011-0.111-0.011-0.244-0.012-0.385
				c-0.002-0.256-0.004-0.545-0.062-0.852c-0.26-1.359-0.55-2.73-0.83-4.059l-0.025-0.117c-0.021-0.105-0.026-0.158-0.027-0.184
				c0.013-0.014,0.035-0.041,0.078-0.076c0.572-0.488,0.815-1.229,0.621-1.883c-0.172-0.582-0.66-0.996-1.274-1.084
				c-0.013-0.059-0.023-0.127-0.033-0.186l-0.006-0.037c-0.12-0.703-0.242-1.406-0.365-2.109c-0.353-2.02-0.715-4.105-1.01-6.166
				c-0.373-2.604-1.06-5.121-1.723-7.557l-0.244-0.9c-0.071-0.268-0.185-0.613-0.419-0.93c-0.271-0.367-0.788-0.803-1.717-0.803
				c-0.157,0-0.318,0.012-0.497,0.037c-1.062,0.148-1.332,1.043-1.433,1.381c-0.012,0.037-0.022,0.076-0.035,0.111
				c-0.042,0.127-0.08,0.256-0.118,0.383c-0.059,0.203-0.115,0.393-0.187,0.545c-0.057,0.119-0.144,0.256-0.236,0.402
				c-0.169,0.268-0.361,0.568-0.481,0.936c-0.115,0.357-0.138,0.688-0.157,0.979c-0.013,0.184-0.024,0.354-0.059,0.477
				c-0.286,1.062-0.604,2.145-0.913,3.193c-0.633,2.15-1.288,4.375-1.719,6.619c-0.246,1.279-0.625,2.596-0.991,3.869
				c-0.125,0.436-0.251,0.871-0.372,1.309c-0.291,1.053-0.592,2.102-0.892,3.15c-0.591,2.064-1.202,4.197-1.73,6.314
				c-0.294,1.178-0.354,2.354-0.41,3.49c-0.012,0.211-0.021,0.42-0.033,0.631c-0.027,0.463,0.136,0.906,0.457,1.246
				c0.351,0.371,0.854,0.584,1.382,0.584c0.138,0,0.275-0.014,0.407-0.043c0.521-0.115,1.404-0.527,1.469-1.988
				c0.013-0.299,0.021-0.6,0.03-0.898c0.026-0.977,0.053-1.895,0.235-2.791c0.266-1.291,0.663-2.617,1.048-3.896
				c0.137-0.455,0.272-0.908,0.403-1.361c0.154-0.531,0.329-1.061,0.513-1.617c0.016-0.043,0.029-0.088,0.045-0.131
				c0.569-0.004,1.137,0.006,1.701,0.016c0.494,0.008,0.987,0.016,1.48,0.016c1.116,0,2.4-0.037,3.76-0.277
				c0.011,0.064,0.022,0.127,0.033,0.191c0.142,0.816,0.276,1.588,0.453,2.355c0.511,2.219,0.489,4.598,0.428,6.654
				c-0.008,0.289,0.055,0.594,0.182,0.881c0.355,0.811,1.117,1.336,1.942,1.336c0.231,0,0.457-0.041,0.672-0.123
				c1.301-0.49,1.153-1.82,1.097-2.32C114.377,157.947,114.252,156.594,114.131,155.283z M108.156,141.012
				c0.275,1.512,0.523,3.062,0.765,4.561c0.085,0.533,0.171,1.064,0.257,1.598c-1.085,0.182-2.242,0.268-3.576,0.268
				c-0.647,0-1.291-0.02-1.948-0.047l0.117-0.492c0.991-4.199,1.939-8.209,3.16-12.25
				C107.388,136.918,107.792,139.012,108.156,141.012z"/>
			<path fill="#F5902C" d="M169.886,154.346l-0.103-0.045c-0.43-0.191-0.834-0.375-1.196-0.584c-0.085-0.051-0.174-0.1-0.264-0.148
				c-0.171-0.096-0.456-0.25-0.516-0.326l-0.124-0.213c-0.684-1.166-1.391-2.373-1.854-3.611l-0.038-0.1
				c-0.653-1.736-1.328-3.531-2.377-5.17c-0.563-0.881-1.25-1.488-2.101-1.865c-0.312-0.141-0.613-0.311-0.938-0.5
				c0.128-0.129,0.263-0.256,0.405-0.393c0.259-0.242,0.525-0.494,0.775-0.783c1.639-1.885,2.207-4.1,2.612-6.025
				c0.151-0.721,0.195-1.494,0.13-2.301c-0.089-1.09-0.247-2.232-0.469-3.393c-0.151-0.791-0.438-1.408-0.853-1.84
				c-0.849-0.885-1.861-1.713-3.096-2.529c-0.813-0.541-1.714-0.805-2.749-0.805c-0.492,0-1.015,0.061-1.597,0.182
				c-0.358,0.076-0.719,0.137-1.102,0.197c-0.23,0.037-0.462,0.074-0.688,0.115l-0.051,0.008c-0.218,0.033-0.621,0.096-0.919,0.443
				c-0.508,0.59-1.201,1.396-1.114,2.492c0.061,0.762,0.146,1.523,0.228,2.26c0.117,1.047,0.237,2.127,0.283,3.184
				c0.115,2.689,0.22,5.561,0.131,8.449c-0.077,2.533-0.378,5.125-0.663,7.326c-0.207,1.596-0.063,3.109,0.072,4.574
				c0.084,0.898,0.164,1.746,0.168,2.611c0.004,0.898,0.717,1.631,1.589,1.631c0.104,0,0.208-0.01,0.313-0.031
				c0.651-0.131,1.252-0.701,1.509-1.197c0.225-0.436,0.296-0.967,0.218-1.625c-0.049-0.404-0.121-0.797-0.19-1.176
				c-0.104-0.564-0.203-1.098-0.213-1.617c-0.032-1.682,0.006-3.41,0.043-5.082c0.011-0.469,0.021-0.936,0.028-1.402
				c0.002-0.094,0.008-0.188,0.018-0.287c0.077,0.008,0.154,0.01,0.233,0.01c0.27,0,0.506-0.035,0.729-0.107
				c1.34-0.439,2.436-0.201,3.708,0.832c0.899,0.734,1.408,1.811,1.786,2.768c0.166,0.42,0.325,0.842,0.484,1.264
				c0.491,1.299,1,2.641,1.68,3.924c0.711,1.342,1.81,2.971,4.014,3.658c0.055,0.023,0.188,0.141,0.277,0.221
				c0.029,0.025,0.06,0.053,0.091,0.078c0.003,0.006,0.006,0.012,0.01,0.016c0.09,0.145,0.258,0.41,0.581,0.58
				c0.37,0.195,0.718,0.295,1.033,0.295c0.189,0,0.371-0.037,0.538-0.105c0.628-0.271,0.988-1.068,0.932-1.652
				C171.253,156.139,171.126,154.904,169.886,154.346z M155.174,127.781c0.022-0.221,0.046-0.465,0.071-0.609
				c0.16-0.057,0.448-0.133,0.654-0.186c1.124-0.297,1.836-0.217,2.367,0.293c0.173,0.166,0.352,0.287,0.508,0.395
				c0.045,0.031,0.091,0.062,0.133,0.092c1.08,0.779,1.587,1.574,1.694,2.662c0.195,1.98,0.303,3.627-0.235,5.324
				c-0.276,0.871-0.728,1.719-1.415,2.662c-0.92,1.26-1.963,2.115-3.189,2.611c-0.067,0.029-0.14,0.055-0.214,0.08
				c-0.008-0.859-0.017-1.719-0.023-2.578c-0.024-2.6-0.05-5.289-0.095-7.932c-0.008-0.508-0.078-0.982-0.146-1.443
				c-0.036-0.248-0.071-0.482-0.095-0.713C155.16,128.17,155.156,127.963,155.174,127.781z"/>
			<path fill="#F5902C" d="M119.907,111.496l0.034-0.006c0.298-0.028,0.596-0.062,0.894-0.092c0.551-0.061,1.076-0.116,1.596-0.148
				c0.039,0.46,0.075,0.921,0.11,1.381c0.056,0.713,0.113,1.45,0.182,2.179l0.039,0.418c0.078,0.855,0.158,1.74,0.338,2.623
				c0.371,1.816,1.647,1.957,2.03,1.957c0.132,0,0.268-0.013,0.403-0.039c1.551-0.295,1.609-1.778,1.508-2.638
				c-0.054-0.454-0.111-0.908-0.169-1.361c-0.166-1.311-0.337-2.667-0.415-3.984c-0.144-2.438-0.541-4.92-1.215-7.591
				c-0.393-1.555-0.864-3.179-1.486-5.111c-0.315-0.981-0.757-2.265-1.354-3.49l-0.094-0.188c-0.879-1.797-1.709-3.494-2.037-5.354
				c-0.259-1.455-1.156-1.862-1.865-1.947c-0.097-0.011-0.191-0.017-0.283-0.017c-1.347,0-1.82,1.134-1.977,1.507
				c-1.351,3.24-2.389,6-3.061,8.943c-0.502,2.2-0.868,4.45-1.221,6.626c-0.094,0.572-0.187,1.143-0.281,1.714
				c-0.136,0.816-0.245,1.64-0.351,2.438c-0.111,0.841-0.228,1.71-0.371,2.548c-0.142,0.816-0.318,1.653-0.49,2.463
				c-0.172,0.809-0.35,1.645-0.496,2.482c-0.186,1.065-0.255,2.144-0.306,3.071c-0.031,0.592,0.156,1.134,0.53,1.529
				c0.342,0.359,0.801,0.557,1.292,0.557c0.314,0,0.635-0.084,0.925-0.244c0.596-0.33,0.917-0.98,1.02-1.482
				c0.073-0.358,0.105-0.697,0.137-1.024c0.023-0.241,0.046-0.469,0.082-0.678c0.418-2.388,0.855-4.81,1.282-7.169
				c0.246,0.018,0.503,0.028,0.753,0.021c0.292-0.007,0.584-0.021,0.876-0.037c0.396-0.021,0.77-0.04,1.137-0.04
				c0.598,0,1.069,0.055,1.486,0.169C119.376,111.558,119.735,111.525,119.907,111.496z M120.505,107.165
				c-0.652,0.032-1.39,0.069-2.136,0.324c-0.778,0.266-1.715,0.289-2.707,0.312c-0.07,0.002-0.14,0.003-0.21,0.005
				c0.071-1.191,0.389-3.418,1.084-6.476c0.5-2.199,1.055-4.208,1.56-5.692c1.586,3.399,2.805,7.153,3.697,11.386
				C121.413,107.12,120.989,107.14,120.505,107.165z"/>
			<path fill="#F5902C" d="M97.533,121.055c0.024-0.865,0.037-1.742,0.047-2.588c0.011-0.907,0.023-1.844,0.052-2.758
				c0.034-1.043,0.081-2.106,0.126-3.135c0.051-1.159,0.104-2.356,0.139-3.542c0.093-0.019,0.179-0.038,0.258-0.057
				c0.124-0.028,0.24-0.056,0.32-0.062c1.738-0.168,3.583-0.345,5.45-0.505c0.016,0.439,0.023,0.859-0.006,1.256
				c-0.062,0.833-0.156,1.688-0.247,2.516c-0.07,0.642-0.143,1.304-0.202,1.961c-0.194,2.178-0.359,4.312-0.509,6.295
				c-0.023,0.313,0.032,0.573,0.073,0.762c0.009,0.043,0.021,0.088,0.024,0.127c0.064,1.113,0.844,1.863,1.985,1.914
				c0.037,0.002,0.073,0.002,0.108,0.002c1.087,0,1.876-0.711,2.009-1.812c0.034-0.289,0.03-0.555,0.024-0.789
				c-0.001-0.09-0.003-0.182-0.002-0.272c0.009-0.46,0.011-0.921,0.013-1.382c0.005-1.061,0.009-2.061,0.079-3.065
				c0.059-0.85,0.16-1.725,0.259-2.572c0.129-1.114,0.262-2.266,0.31-3.425c0.113-2.745,0.156-5.531,0.197-8.226
				c0.014-0.877,0.027-1.755,0.043-2.634c0.03-1.669,0.038-3.155,0.026-4.545c-0.003-0.376-0.034-0.733-0.064-1.078
				c-0.031-0.352-0.06-0.683-0.055-0.99c0.003-0.065,0.067-0.247,0.109-0.368c0.048-0.133,0.093-0.265,0.128-0.394l0.126-0.447
				l-0.203-0.418c-0.033-0.068-0.071-0.14-0.112-0.212c-0.028-0.051-0.07-0.127-0.076-0.14c-0.018-0.067-0.032-0.176-0.046-0.291
				c-0.023-0.186-0.053-0.417-0.123-0.664c-0.374-1.306-1.404-1.406-1.71-1.406c-0.303,0-0.61,0.072-0.938,0.223l-0.63,0.29
				l-0.074,0.688c-0.022,0.206-0.052,0.417-0.081,0.633c-0.07,0.519-0.15,1.105-0.157,1.708c-0.011,1.092,0.006,2.193,0.022,3.26
				c0.011,0.672,0.021,1.343,0.025,2.016c0.003,0.609-0.009,1.237-0.022,1.845c-0.006,0.286-0.012,0.572-0.016,0.858
				c-0.007,0.449-0.012,0.897-0.017,1.346c-0.013,1.036-0.024,2.108-0.06,3.155c-0.01,0.294-0.084,0.382-0.083,0.382
				c0,0-0.019,0.011-0.066,0.018c-1.086,0.135-2.173,0.272-3.26,0.411c-0.846,0.107-1.691,0.215-2.538,0.32
				c0.015-0.286,0.028-0.572,0.044-0.857c0.086-1.685,0.174-3.426,0.309-5.125c0.132-1.666,0.323-3.364,0.508-5.008
				c0.046-0.408,0.092-0.817,0.138-1.228c0.113-1.035-0.275-1.889-1.191-2.61l-1.151-0.906l-0.686,1.295
				c-0.042,0.081-0.09,0.154-0.135,0.227c-0.162,0.259-0.363,0.581-0.432,1.016c-0.056,0.354-0.11,0.709-0.168,1.062
				c-0.254,1.605-0.518,3.265-0.682,4.925c-0.16,1.61-0.26,3.243-0.358,4.821c-0.051,0.816-0.101,1.634-0.16,2.45
				c-0.051,0.707-0.109,1.414-0.168,2.121c-0.1,1.2-0.203,2.441-0.266,3.675c-0.105,2.095-0.186,4.222-0.263,6.277
				c-0.042,1.129-0.085,2.257-0.131,3.384c-0.058,1.365,0.783,2.375,2.047,2.451c0.05,0.002,0.099,0.006,0.146,0.006
				C96.974,123.236,97.5,122.109,97.533,121.055z"/>
			<path fill="#F5902C" d="M80.799,125.621c0.575,0.236,1.083,0.352,1.553,0.352c1.654,0,2.427-1.412,2.68-1.875
				c0.148-0.271,0.296-0.547,0.442-0.82c0.387-0.723,0.75-1.404,1.16-2.061c0.826-1.325,1.283-2.739,1.727-4.106
				c0.066-0.206,0.133-0.412,0.2-0.616c0.256-0.771,0.308-1.572,0.326-2.325c0.019-0.717-0.47-1.53-1.109-1.851
				c-0.235-0.118-0.481-0.178-0.731-0.178c-0.67,0-1.21,0.396-1.604,1.173c-0.442,0.872-0.667,1.752-0.886,2.604
				c-0.416,1.623-1.264,3.087-2.161,4.636c-0.243,0.422-0.494,0.855-0.736,1.291c-1.073-0.842-1.659-1.72-1.844-2.759
				c-0.524-2.95-0.645-5.364-0.377-7.6c0.182-1.527,0.357-3.058,0.533-4.587c0.129-1.117,0.257-2.235,0.39-3.354
				c0.018-0.15,0.033-0.301,0.05-0.452c0.054-0.496,0.104-0.965,0.202-1.403c0.417-1.887,0.874-3.907,1.38-5.907
				c0.34-1.341,1.01-2.646,2.174-4.236c0.194-0.265,0.651-0.443,1.137-0.443c0.413,0,0.922,0.136,1.115,0.515
				c0.136,0.27,0.275,0.536,0.415,0.804c0.676,1.298,1.314,2.523,1.561,3.879l0.01,0.05c0.136,0.755,0.341,1.896,1.433,2.694
				l0.828,0.604l0.806-0.773c0.724-0.694,1.091-1.109,0.87-2.259c-0.032-0.169-0.063-0.34-0.096-0.51
				c-0.364-1.948-0.741-3.965-2.158-5.71c-0.016-0.022-0.051-0.097-0.078-0.149c-0.055-0.11-0.122-0.248-0.213-0.391
				c-0.601-0.94-1.613-2.213-3.458-2.397c-0.354-0.035-0.68-0.052-0.997-0.052c-1.029,0-1.922,0.183-2.732,0.561
				c-0.397,0.187-1.135,0.599-1.617,1.285c-1.271,1.808-2.162,3.521-2.729,5.241c-0.289,0.877-0.555,1.838-0.812,2.938l-0.162,0.688
				c-0.294,1.239-0.6,2.522-0.794,3.826c-0.159,1.064-0.253,2.138-0.344,3.176c-0.058,0.655-0.117,1.332-0.191,1.987
				c-0.062,0.533-0.141,1.062-0.227,1.621c-0.124,0.81-0.251,1.646-0.313,2.498c-0.223,3.108-0.048,5.957,0.534,8.709
				C76.519,122.619,78.151,124.533,80.799,125.621z"/>
			<path fill="#F5902C" d="M181.729,129.555c-0.02-0.152-0.037-0.309-0.054-0.463l-0.122-1.078l-0.011,0.002
				c-0.021-0.135-0.049-0.271-0.088-0.408c-0.062-0.227-0.118-0.451-0.174-0.68c-0.212-0.863-0.452-1.848-1.105-2.707
				c-0.878-1.154-2.048-2.053-3.477-2.664c-0.643-0.271-1.238-0.404-1.826-0.404c-0.912,0-1.755,0.328-2.503,0.979
				c-0.225,0.193-0.445,0.393-0.667,0.592c-0.333,0.299-0.648,0.582-0.976,0.854c-1.282,1.066-2.132,2.383-2.521,3.912
				c-0.168,0.66-0.326,1.283-0.559,1.875c-0.915,2.311-1.013,4.637-0.288,6.908c0.265,0.826,0.615,1.773,1.426,2.531
				c0.357,0.336,0.729,0.652,1.09,0.959c0.34,0.291,0.661,0.564,0.971,0.854c0.146,0.135,0.298,0.27,0.447,0.402
				c0.486,0.438,0.946,0.85,1.27,1.305c1.172,1.65,2.006,3.533,2.479,5.592l0.021,0.088l0.034,0.082
				c0.034,0.08,0.071,0.16,0.107,0.242c0.309,0.688,0.456,1.076,0.168,1.656l-0.053,0.1l-0.026,0.125
				c-0.072,0.186-0.635,0.547-1.08,0.59c-0.229,0.021-0.427,0.033-0.603,0.033c-0.791,0-1.152-0.162-1.734-1.119
				c-0.504-0.83-2.103-3.697-2.604-4.629c-0.364-0.678-0.875-1.023-1.518-1.023c-0.214,0-0.437,0.043-0.663,0.127
				c-1.004,0.375-1.474,1.385-1.115,2.404c0.139,0.387,0.299,0.709,0.489,0.986c0.189,0.271,0.547,0.842,0.926,1.439
				c0.722,1.145,1.538,2.439,1.967,2.959c0.387,0.473,0.926,1.057,1.665,1.375c1.09,0.473,2.315,0.709,3.646,0.709
				c0.46,0,0.941-0.025,1.432-0.084c1.364-0.156,1.896-1.027,2.179-1.672c0.709-1.621,0.801-3.324,0.281-5.211
				c-0.387-1.406-0.934-2.713-1.556-4.15c-0.987-2.283-2.24-3.854-3.942-4.938c-0.716-0.457-1.312-1.016-1.771-1.664
				c-0.884-1.242-1.157-2.646-0.812-4.176c0.308-1.359,0.727-2.75,1.133-4.094l0.153-0.512c0.075-0.248,0.216-0.502,0.368-0.664
				c0.618-0.658,1.36-1.426,2.178-2.119c0.291-0.246,0.578-0.371,0.854-0.371c0.173,0,0.356,0.047,0.55,0.143
				c1.312,0.646,2.073,1.539,2.325,2.73c0.155,0.732,0.261,1.475,0.372,2.26c0.054,0.383,0.106,0.764,0.168,1.145l0.017,0.111
				c0.03,0.215,0.071,0.51,0.214,0.805l0.027,0.059c0.119,0.252,0.479,1.02,1.35,1.02c0.224,0,0.447-0.055,0.667-0.164
				c0.587-0.289,0.951-1.035,0.966-1.592C181.832,130.438,181.778,129.988,181.729,129.555z"/>
			<path fill="#F5902C" d="M152.878,117.777c2.948-0.259,5.169-1.111,6.989-2.684c1.067-0.922,1.723-2.033,2-3.395
				c0.448-2.199,0.197-4.335-0.044-6.401l-0.062-0.523c-0.136-1.194-0.884-1.907-2-1.907c-0.172,0-0.352,0.017-0.549,0.051
				c-0.65,0.113-1.297,0.248-1.923,0.379c-0.262,0.056-0.523,0.109-0.785,0.163l-1.406,0.285l0.003,0.008
				c-0.258,0.053-0.515,0.106-0.771,0.162l-0.105,0.021c-0.314,0.066-0.708,0.148-1.093,0.346c-0.532,0.27-1.056,0.957-0.979,1.71
				c0.077,0.698,0.708,1.367,1.403,1.491c0.545,0.098,1.08,0.106,1.561,0.025c0.618-0.104,1.233-0.227,1.831-0.346
				c0.361-0.072,0.731-0.146,1.102-0.215c0.154,1.342,0.229,2.746-0.057,4.092c-0.104,0.49-0.354,0.896-0.834,1.357
				c-1.021,0.977-2.297,1.32-3.989,1.699c-0.062,0.015-0.118,0.021-0.168,0.021c-0.077,0-0.194,0-0.354-0.301
				c-0.166-0.315-0.319-0.644-0.482-0.99c-0.229-0.49-0.467-0.997-0.755-1.492c-1.272-2.194-1.318-4.708-1.181-7.098
				c0.194-3.325,0.729-6.665,1.228-9.494c0.361-2.047,1.231-4.076,2.589-6.03c0.247-0.356,0.559-0.544,0.901-0.544
				c0.198,0,0.4,0.062,0.585,0.177c0.095,0.062,0.204,0.146,0.318,0.233c0.131,0.1,0.278,0.214,0.441,0.321l0.104,0.068
				c0.256,0.174,0.604,0.412,1.059,0.506c0.123,0.026,0.254,0.039,0.389,0.039c0.545,0,1.246-0.216,1.578-0.825
				c0.3-0.552,0.224-1.139,0.172-1.543c-0.063-0.514-0.394-0.83-0.534-0.966l-0.025-0.025c-0.724-0.836-1.691-1.408-2.879-1.7
				c-0.534-0.132-1.022-0.196-1.491-0.196c-1.353,0-2.485,0.541-3.369,1.608c-1.296,1.561-2.256,3.308-2.854,5.191
				c-0.695,2.193-1.229,4.622-1.627,7.426c-0.433,3.035-0.584,5.857-0.464,8.631l0.008,0.158c0.029,0.721,0.064,1.536,0.312,2.322
				c0.577,1.84,1.331,3.979,2.543,5.887c0.438,0.691,1.467,2.309,3.375,2.309C152.681,117.79,152.778,117.786,152.878,117.777z"/>
			<path fill="#F5902C" d="M139.048,128.629l2.144-0.086c1.688-0.066,3.374-0.133,5.075-0.205c0.282-0.012,0.757-0.031,1.146-0.328
				c0.238-0.18,0.798-0.674,0.832-1.354c0.031-0.693-0.488-1.293-0.992-1.506c-0.377-0.16-0.854-0.211-1.393-0.154
				c-0.322,0.035-0.635,0.09-0.936,0.143c-0.372,0.066-0.724,0.127-1.051,0.145c-1.393,0.068-2.811,0.111-4.182,0.154
				c-0.559,0.018-1.116,0.033-1.676,0.053c-0.052,0.002-0.103,0.002-0.153,0.002c-0.166,0-0.373,0-0.6,0.039
				c-0.992,0.17-1.492,0.744-1.53,1.758c-0.086,2.234-0.184,4.592-0.291,7.01c-0.102,2.277-0.217,4.855,0.251,7.379
				c0.169,0.902,0.227,1.838,0.286,2.828l0.005,0.074c0.083,1.344,0.087,2.738,0.089,4.086c0.005,2.25,0.009,4.576,0.379,6.855
				c0.242,1.488,0.98,2.123,2.472,2.123c0.059,0,0.12,0,0.181-0.002h0.029c0.067,0,0.136,0.004,0.203,0.008
				c0.076,0.004,0.152,0.008,0.232,0.01c0.16,0.002,0.32,0.004,0.48,0.004c2.229,0,4.514-0.293,6.788-0.873
				c0.456-0.117,1.167-0.578,1.317-1.238c0.134-0.58-0.073-1.271-0.511-1.689c-0.297-0.279-0.642-0.428-0.918-0.545
				c-0.079-0.033-0.155-0.066-0.229-0.105l-0.458-0.229l-0.455,0.238c-0.183,0.094-0.353,0.197-0.501,0.287
				c-0.229,0.139-0.462,0.279-0.614,0.314c-1.291,0.291-2.41,0.434-3.423,0.434c-0.336,0-0.667-0.016-0.992-0.049
				c-0.395-2.02-0.454-4.166-0.507-6.062c-0.038-1.396-0.146-2.797-0.248-4.15c-0.026-0.344-0.053-0.688-0.078-1.031
				c-0.049-0.672-0.115-1.334-0.187-2.033c0.592-0.092,1.286-0.232,2.043-0.387c1.3-0.264,2.771-0.562,3.607-0.562
				c0.187,0,0.278,0.016,0.311,0.021l0.55,0.117l0.387-0.408c0.026-0.027,0.055-0.055,0.083-0.082
				c0.108-0.104,0.257-0.246,0.384-0.441c0.543-0.85,0.416-1.467,0.216-1.834c-0.198-0.361-0.638-0.795-1.6-0.795
				c-0.045,0-0.091,0-0.137,0.004c-0.519,0.02-4.306,0.783-4.343,0.793c-0.283,0.059-0.557,0.131-0.82,0.197
				c-0.306,0.082-0.602,0.16-0.887,0.209c0.062-2.789,0.131-5.58,0.199-8.383L139.048,128.629z"/>
			<path fill="#F5902C" d="M163.475,92.345c0.105,1.333,0.215,2.712,0.299,4.065c0.219,3.56,0.389,6.78,0.52,9.844
				c0.062,1.467,0.089,2.967,0.114,4.418c0.013,0.759,0.025,1.52,0.044,2.278c0.057,2.386,1.693,2.571,2.193,2.571
				c0.354,0,0.737-0.071,1.172-0.217c1.055-0.352,1.942-0.599,2.857-0.658c0.969-0.062,1.918-0.215,2.837-0.36
				c0.37-0.061,0.74-0.119,1.111-0.172c1.084-0.156,1.774-0.982,1.72-2.056c-0.05-0.986-0.771-1.683-1.843-1.771
				c-0.328-0.027-0.652,0.023-0.892,0.064l-0.127,0.021c-1.492,0.234-2.984,0.471-4.474,0.707l-0.634,0.101
				c-0.273-2.459-0.575-8.446-0.534-10.692c0.821-0.08,1.681-0.158,2.531-0.21c1.697-0.104,2.08-1.196,2.166-1.664l0.016-0.083
				c0.074-0.385,0.229-1.185-0.322-1.854c-0.381-0.462-0.964-0.695-1.733-0.695c-0.042,0-0.084,0-0.128,0.002l-0.141,0.004
				l-0.136,0.036c-0.475,0.125-0.854,0.226-1.135,0.471l-1.375,0.215c-0.045-0.465-0.088-0.907-0.132-1.349
				c-0.03-0.305-0.062-0.607-0.095-0.91c-0.059-0.554-0.118-1.127-0.164-1.685l-0.023-0.315c-0.09-1.121-0.182-2.28-0.225-3.409
				c-0.008-0.193,0-0.311,0.007-0.379c0.069-0.029,0.198-0.072,0.426-0.126c0.343-0.082,0.639-0.126,0.906-0.136
				c0.438-0.018,0.874-0.021,1.336-0.024c0.418-0.003,0.852-0.007,1.284-0.021c0.737-0.025,1.994-0.283,2.114-1.733
				c0.07-0.838-0.345-1.84-1.722-2.14c-0.265-0.059-0.617-0.124-0.999-0.124c-0.109,0-0.217,0.005-0.32,0.016
				c-0.799,0.084-1.647,0.197-2.757,0.366c-0.893,0.137-1.758,0.297-2.411,0.422c-0.991,0.188-1.613,0.962-1.585,1.971
				c0.007,0.253,0.002,0.515-0.003,0.79c-0.008,0.404-0.016,0.823,0.015,1.259C163.308,90.239,163.393,91.309,163.475,92.345z"/>
		</g>
		<g>
			<path fill="#B11478" d="M93.557,163.133c-0.04-0.502-0.077-0.977-0.089-1.455c-0.015-0.623-0.013-1.266-0.011-1.889
				c0.002-0.682,0.004-1.385-0.016-2.084c-0.041-1.434-0.095-2.887-0.146-4.293c-0.051-1.396-0.103-2.84-0.144-4.258
				c-0.035-1.193-0.058-2.41-0.078-3.588c-0.022-1.244-0.046-2.531-0.084-3.797c-0.025-0.838-0.073-1.68-0.119-2.492
				c-0.043-0.76-0.087-1.545-0.113-2.314l-0.008-0.264c-0.082-2.523-0.167-5.131-0.779-7.65c-0.252-1.039-0.977-1.635-1.987-1.635
				c-0.066,0-0.135,0.002-0.205,0.008c-1.268,0.092-1.626,1.078-1.798,1.553l-0.033,0.092c-0.111,0.299-0.222,0.596-0.331,0.895
				c-0.311,0.838-0.629,1.703-0.964,2.545c-0.324,0.814-0.658,1.629-0.992,2.441c-0.499,1.215-1.014,2.471-1.491,3.721
				c-0.311,0.811-0.571,1.639-0.823,2.436c-0.154,0.49-0.314,0.998-0.482,1.49c-0.623-1.203-1.099-2.445-1.591-3.734
				c-0.097-0.252-0.192-0.502-0.289-0.752c-0.418-1.076-1.028-2.039-1.619-2.969c-0.155-0.244-0.31-0.486-0.459-0.73
				c-0.519-0.844-2.048-1.268-2.759-1.268c-0.317,0-0.582,0.064-0.807,0.195c-1.06,0.619-1.073,1.633-1.08,2.176
				c-0.001,0.098-0.001,0.193-0.01,0.285c-0.172,1.902-0.303,3.807-0.409,5.416c-0.163,2.479-0.311,4.938-0.482,7.871
				c-0.017,0.27-0.035,0.539-0.056,0.811c-0.059,0.82-0.121,1.672-0.083,2.521c0.134,2.986,0.311,5.932,0.524,8.748
				c0.127,1.672,0.35,3.344,0.565,4.959l0.048,0.359c0.066,0.514,0.312,1.041,0.668,1.451c0.364,0.424,0.89,0.656,1.477,0.656
				c0.332,0,0.677-0.072,1.027-0.213c1.134-0.459,1.057-1.537,1.031-1.893c-0.004-0.041-0.007-0.08-0.009-0.127
				c-0.009-0.193-0.051-0.352-0.082-0.467c-0.007-0.027-0.015-0.055-0.021-0.084c-0.099-0.527-0.203-1.055-0.308-1.58
				c-0.243-1.236-0.495-2.514-0.678-3.771c-0.162-1.117-0.216-2.307-0.269-3.455l-0.022-0.48c-0.01-0.219,0.015-0.473,0.04-0.742
				c0.032-0.334,0.067-0.711,0.042-1.1c-0.042-0.641-0.094-1.279-0.145-1.918c-0.213-2.67-0.415-5.193-0.035-7.805
				c0.072-0.492,0.114-0.979,0.154-1.449c0.013-0.145,0.024-0.291,0.039-0.438l0.178-1.971c0.053-0.59,0.105-1.18,0.16-1.768
				c0.13,0.348,0.251,0.699,0.377,1.07c0.278,0.82,0.567,1.668,0.981,2.479c0.833,1.627,1.425,3.42,1.811,5.48
				c0.073,0.396,0.246,0.727,0.384,0.988l0.07,0.135c0.411,0.818,1.264,1.232,2.139,1.016c0.846-0.213,1.411-0.885,1.549-1.838
				c0.067-0.465,0.181-0.945,0.339-1.434c0.134-0.41,0.285-0.812,0.445-1.244c0.264-0.709,0.537-1.439,0.727-2.197
				c0.556-2.221,1.456-4.434,2.327-6.572c0.069-0.168,0.139-0.336,0.207-0.506c0.016,0.24,0.029,0.482,0.044,0.727
				c0.215,3.547,0.438,7.213,0.314,10.842c-0.022,0.648,0.002,1.285,0.025,1.9c0.016,0.395,0.029,0.766,0.032,1.143
				c0.007,0.781,0.008,1.562,0.009,2.342c0.002,1.127,0.005,2.293,0.023,3.439c0.011,0.697,0.046,1.396,0.08,2.07
				c0.028,0.549,0.056,1.117,0.071,1.672c0.004,0.145,0.01,0.293,0.016,0.438c0.021,0.564,0.044,1.098-0.056,1.572
				c-0.184,0.877-0.133,1.67,0.156,2.422c0.499,1.305,1.48,1.443,1.88,1.443c0.173,0,0.353-0.023,0.535-0.068
				c0.492-0.123,1.625-0.596,1.544-2.334C93.62,163.916,93.587,163.518,93.557,163.133z"/>
			<path fill="#B11478" d="M134.31,158.338c-0.116-0.354-0.233-0.711-0.345-1.068c-0.098-0.312-0.197-0.629-0.297-0.941
				c-0.46-1.441-0.894-2.803-1.061-4.24c-0.286-2.486-0.889-4.9-1.789-7.178c-0.319-0.801-0.814-1.611-1.473-2.404
				c-1.108-1.34-2.622-1.938-4.354-1.707c0.216-0.424,0.438-0.85,0.654-1.264c0.207-0.398,0.416-0.797,0.619-1.197
				c0.632-1.234,1.263-2.471,1.893-3.705c0.802-1.572,1.604-3.145,2.408-4.717c0.308-0.598,0.617-1.195,0.929-1.793
				c0.316-0.607,0.632-1.215,0.943-1.822c0.711-1.385-0.288-2.002-0.497-2.111c-0.234-0.123-0.48-0.186-0.734-0.186
				c-0.539,0-1.047,0.285-1.429,0.803c-0.423,0.57-0.759,1.09-1.026,1.588c-1.155,2.15-2.262,4.25-3.484,6.574
				c-0.539,1.023-1.075,2.049-1.611,3.072c-0.952,1.818-1.936,3.693-2.917,5.539c-0.021-0.715-0.033-1.438-0.027-2.146
				c0.008-1.109,0.033-2.242,0.06-3.342c0.03-1.395,0.063-2.84,0.062-4.262c-0.002-1.281-0.128-2.529-0.281-3.91
				c-0.08-0.721-0.514-1.27-0.765-1.535c-0.257-0.271-0.635-0.414-1.095-0.414c-0.264,0-0.527,0.049-0.743,0.137
				c-0.692,0.275-0.873,1.102-0.911,1.346c-0.054,0.338-0.038,0.691,0.049,1.119c0.41,1.984,0.337,4.029,0.259,6.195
				c-0.036,1.035-0.074,2.105-0.055,3.164c0.021,1.166,0.004,2.363-0.012,3.521c-0.014,0.98-0.027,1.994-0.02,2.996
				c0.01,1.049,0.043,2.107,0.076,3.131c0.03,0.951,0.062,1.936,0.073,2.9c0.015,1.248,0.01,2.523,0.006,3.758
				c-0.003,1.012-0.007,2.025,0,3.039c0.007,1.15,0.754,1.955,1.817,1.955c0.136,0,0.274-0.014,0.416-0.041
				c1.08-0.211,1.703-1.107,1.588-2.287c-0.025-0.254-0.055-0.506-0.083-0.76c-0.06-0.504-0.113-0.979-0.131-1.455
				c-0.087-2.295-0.146-4.613-0.194-6.779c-0.002-0.107,0.005-0.227,0.018-0.355c0.567-0.248,0.985-0.686,1.245-1.309
				c0.098-0.229,0.248-0.477,0.408-0.736c0.079-0.129,0.158-0.26,0.233-0.389c0.367-0.639,0.645-0.783,1-0.816
				c0.361-0.037,0.714-0.096,1.054-0.15c0.254-0.041,0.493-0.082,0.729-0.111c0.064-0.008,0.127-0.012,0.184-0.012
				c0.254,0,0.315,0.078,0.34,0.107c0.137,0.178,0.279,0.352,0.422,0.523c0.373,0.453,0.727,0.881,0.938,1.326
				c0.784,1.643,1.299,3.383,1.528,5.172c0.271,2.107,0.812,4.131,1.334,6.09c0.27,1.006,0.548,2.047,0.78,3.076
				c0.188,0.814,0.932,1.383,1.809,1.383c0.226,0,0.449-0.037,0.668-0.109c1.221-0.41,1.345-1.535,1.08-2.373
				C134.505,158.93,134.407,158.633,134.31,158.338z"/>
			<path fill="#B11478" d="M126.433,90.547c0.044,0.354,0.089,0.705,0.13,1.059c0.066,0.559,0.1,1.12,0.135,1.715
				c0.066,1.146,0.137,2.331,0.46,3.539c0.284,1.061,0.369,2.237,0.433,3.354c0.061,1.03,0.089,2.087,0.116,3.109
				c0.035,1.273,0.071,2.592,0.166,3.896c0.163,2.279,0.396,4.584,0.622,6.813c0.077,0.755,0.153,1.51,0.228,2.265
				c0.043,0.438,0.156,0.857,0.329,1.213c0.328,0.676,0.952,1.079,1.669,1.079c0.216,0,0.438-0.036,0.656-0.106
				c0.614-0.198,1.312-0.718,1.146-2.071c-0.056-0.444-0.111-0.889-0.167-1.333c-0.2-1.58-0.407-3.213-0.542-4.814
				c-0.106-1.257-0.174-2.546-0.238-3.794c-0.053-1.006-0.106-2.047-0.181-3.075c-0.134-1.823-0.313-3.796-0.554-6.031
				c-0.05-0.469-0.117-0.934-0.187-1.388c0.303,0.521,0.601,1.046,0.883,1.571c0.771,1.433,1.396,2.75,1.913,4.028
				c0.409,1.015,0.784,2.077,1.146,3.103c0.611,1.732,1.244,3.522,2.086,5.232c0.284,0.576,0.547,1.255,0.802,2.079
				c0.49,1.578,1.304,2.934,2.089,4.245c0.184,0.306,0.366,0.611,0.545,0.919c0.366,0.635,0.987,0.999,1.703,0.999
				c0.245,0,0.495-0.044,0.742-0.131c0.388-0.136,1.278-0.603,1.185-2.005c-0.021-0.312-0.031-0.626-0.044-0.939
				c-0.021-0.526-0.04-1.07-0.099-1.62c-0.102-0.942-0.2-1.884-0.3-2.827c-0.355-3.396-0.726-6.91-1.171-10.361
				c-0.203-1.583-0.303-3.213-0.399-4.79c-0.062-0.986-0.123-2.008-0.21-3.018c-0.029-0.334-0.038-0.678-0.048-1.042
				c-0.022-0.963-0.051-2.052-0.499-3.139c-0.005-0.098,0.032-0.32,0.058-0.472c0.021-0.131,0.042-0.261,0.057-0.383
				c0.075-0.63,0.188-1.581-0.411-2.492l-0.557-0.846l-0.895,0.476c-1.37,0.729-2.021,2.141-1.827,3.971
				c0.234,2.263,0.421,4.537,0.601,6.735c0.041,0.498,0.065,1.016,0.089,1.516c0.034,0.727,0.069,1.479,0.155,2.231
				c0.29,2.542,0.6,5.123,0.9,7.624c-0.242-0.583-0.467-1.162-0.659-1.752c-0.962-2.948-2.035-5.574-3.28-8.029
				c-1.217-2.399-2.404-4.471-3.632-6.33c-0.36-0.546-0.688-1.113-1.032-1.713c-0.232-0.406-0.475-0.825-0.728-1.238
				c-0.331-0.538-0.695-0.882-1.113-1.051c-0.573-0.234-1.308-0.224-1.811,0.04c-0.558,0.291-0.803,0.938-0.708,1.869
				C126.257,89.145,126.347,89.858,126.433,90.547z"/>
			<path fill="#B11478" d="M112.855,154.422l-0.032-0.346c-0.011-0.111-0.011-0.244-0.013-0.383
				c-0.002-0.256-0.003-0.547-0.062-0.852c-0.258-1.354-0.546-2.719-0.825-4.037l-0.03-0.141c-0.021-0.105-0.025-0.156-0.026-0.182
				c0.012-0.016,0.035-0.039,0.078-0.076c0.57-0.488,0.814-1.23,0.621-1.883c-0.173-0.582-0.66-0.994-1.275-1.084
				c-0.012-0.061-0.023-0.129-0.033-0.186l-0.007-0.039c-0.12-0.707-0.243-1.412-0.366-2.117c-0.351-2.018-0.714-4.102-1.009-6.156
				c-0.374-2.605-1.06-5.121-1.721-7.557l-0.245-0.9c-0.072-0.268-0.185-0.613-0.418-0.932c-0.271-0.363-0.788-0.803-1.718-0.803
				c-0.156,0-0.319,0.012-0.497,0.037c-1.063,0.148-1.332,1.045-1.434,1.381c-0.011,0.037-0.021,0.076-0.035,0.113
				c-0.042,0.125-0.08,0.254-0.117,0.381c-0.06,0.203-0.115,0.395-0.188,0.547c-0.056,0.117-0.143,0.256-0.236,0.402
				c-0.169,0.266-0.36,0.568-0.48,0.934c-0.116,0.355-0.14,0.689-0.159,0.98c-0.012,0.18-0.023,0.35-0.057,0.473
				c-0.286,1.064-0.605,2.148-0.914,3.197c-0.633,2.15-1.287,4.373-1.719,6.617c-0.245,1.279-0.625,2.596-0.99,3.867
				c-0.125,0.438-0.251,0.873-0.373,1.311c-0.291,1.049-0.592,2.098-0.892,3.146c-0.592,2.064-1.203,4.201-1.73,6.318
				c-0.294,1.178-0.354,2.354-0.411,3.492c-0.011,0.209-0.021,0.42-0.033,0.629c-0.027,0.463,0.136,0.906,0.457,1.246
				c0.351,0.371,0.854,0.586,1.382,0.584c0.138,0,0.275-0.016,0.407-0.043c0.521-0.115,1.406-0.527,1.469-1.988
				c0.013-0.299,0.021-0.604,0.03-0.902c0.027-0.973,0.053-1.895,0.236-2.785c0.265-1.291,0.662-2.619,1.048-3.9
				c0.136-0.455,0.271-0.908,0.402-1.361c0.155-0.533,0.33-1.061,0.516-1.623c0.014-0.043,0.026-0.084,0.041-0.125
				c0.568-0.004,1.136,0.006,1.701,0.018c0.493,0.008,0.986,0.016,1.479,0.016c1.116,0,2.401-0.037,3.76-0.275
				c0.012,0.062,0.022,0.125,0.033,0.188c0.143,0.816,0.276,1.59,0.453,2.357c0.511,2.217,0.489,4.598,0.429,6.652
				c-0.009,0.287,0.055,0.592,0.183,0.885c0.354,0.811,1.117,1.334,1.941,1.334c0.231,0,0.457-0.041,0.672-0.123
				c1.302-0.488,1.153-1.818,1.099-2.32C113.1,157.086,112.975,155.73,112.855,154.422z M106.878,140.148
				c0.277,1.516,0.526,3.07,0.768,4.576c0.084,0.525,0.169,1.053,0.255,1.58c-1.085,0.182-2.244,0.268-3.576,0.268
				c-0.648,0-1.292-0.02-1.949-0.047l0.118-0.498c0.992-4.195,1.939-8.205,3.16-12.244
				C106.112,136.059,106.514,138.152,106.878,140.148z"/>
			<path fill="#B11478" d="M168.608,153.484l-0.104-0.047c-0.429-0.191-0.833-0.373-1.195-0.584c-0.085-0.051-0.174-0.1-0.264-0.148
				c-0.17-0.094-0.455-0.252-0.515-0.328l-0.12-0.205c-0.686-1.17-1.394-2.377-1.858-3.617l-0.038-0.104
				c-0.652-1.734-1.328-3.529-2.377-5.168c-0.563-0.879-1.251-1.488-2.1-1.865c-0.312-0.139-0.614-0.307-0.938-0.5
				c0.128-0.129,0.264-0.256,0.405-0.391c0.259-0.244,0.526-0.496,0.776-0.783c1.638-1.885,2.208-4.1,2.612-6.027
				c0.15-0.721,0.194-1.494,0.13-2.301c-0.091-1.09-0.247-2.23-0.471-3.389c-0.149-0.793-0.437-1.412-0.851-1.842
				c-0.852-0.885-1.863-1.713-3.096-2.529c-0.814-0.541-1.715-0.805-2.749-0.805c-0.492,0-1.016,0.061-1.599,0.182
				c-0.355,0.076-0.717,0.135-1.098,0.195c-0.232,0.039-0.464,0.076-0.689,0.117l-0.049,0.008c-0.219,0.033-0.625,0.096-0.923,0.443
				c-0.507,0.59-1.202,1.396-1.114,2.494c0.062,0.76,0.146,1.52,0.229,2.258c0.117,1.047,0.237,2.127,0.283,3.184
				c0.114,2.689,0.221,5.557,0.131,8.449c-0.077,2.537-0.379,5.129-0.663,7.328c-0.207,1.596-0.064,3.109,0.071,4.572
				c0.084,0.898,0.164,1.748,0.168,2.609c0.005,0.9,0.718,1.635,1.591,1.635c0.104,0,0.208-0.012,0.312-0.031
				c0.651-0.133,1.251-0.701,1.51-1.201c0.225-0.436,0.295-0.967,0.218-1.623c-0.05-0.406-0.121-0.799-0.191-1.178
				c-0.104-0.564-0.203-1.098-0.213-1.615c-0.032-1.691,0.007-3.43,0.044-5.113c0.01-0.457,0.021-0.914,0.028-1.373
				c0.002-0.092,0.008-0.188,0.016-0.285c0.078,0.006,0.156,0.008,0.235,0.008c0.268,0,0.506-0.035,0.728-0.105
				c0.427-0.143,0.822-0.207,1.208-0.207c0.833,0,1.628,0.33,2.501,1.039c0.899,0.73,1.408,1.811,1.787,2.768
				c0.166,0.424,0.326,0.848,0.487,1.27c0.49,1.297,0.997,2.637,1.676,3.916c0.711,1.346,1.811,2.975,4.015,3.658
				c0.055,0.023,0.188,0.143,0.274,0.221c0.031,0.025,0.062,0.055,0.093,0.08c0.003,0.006,0.006,0.012,0.009,0.018
				c0.092,0.143,0.259,0.408,0.582,0.578c0.37,0.193,0.719,0.295,1.034,0.295c0.189,0,0.369-0.035,0.537-0.107
				c0.621-0.266,0.989-1.082,0.932-1.65C169.976,155.277,169.851,154.041,168.608,153.484z M153.896,126.918
				c0.021-0.221,0.046-0.465,0.069-0.607c0.16-0.057,0.449-0.133,0.655-0.188c1.125-0.297,1.835-0.215,2.368,0.295
				c0.172,0.164,0.347,0.283,0.5,0.389c0.047,0.031,0.093,0.062,0.14,0.098c1.08,0.777,1.587,1.572,1.695,2.662
				c0.195,1.979,0.302,3.627-0.236,5.322c-0.275,0.873-0.727,1.721-1.415,2.664c-0.92,1.26-1.963,2.113-3.188,2.609
				c-0.068,0.029-0.142,0.055-0.216,0.08l-0.022-2.518c-0.024-2.619-0.05-5.328-0.095-7.992c-0.01-0.506-0.079-0.982-0.146-1.441
				c-0.037-0.248-0.07-0.482-0.096-0.713C153.883,127.307,153.878,127.1,153.896,126.918z"/>
			<path fill="#B11478" d="M118.495,110.558l0.033-0.006c0.297-0.027,0.595-0.06,0.893-0.092c0.551-0.06,1.076-0.116,1.597-0.147
				c0.039,0.463,0.075,0.926,0.111,1.39c0.055,0.71,0.112,1.445,0.182,2.171l0.037,0.416c0.078,0.856,0.159,1.741,0.34,2.625
				c0.369,1.816,1.646,1.957,2.028,1.957c0.132,0,0.269-0.013,0.404-0.039c1.551-0.294,1.61-1.78,1.508-2.638
				c-0.055-0.458-0.112-0.915-0.171-1.373c-0.165-1.309-0.336-2.66-0.414-3.975c-0.144-2.438-0.54-4.921-1.214-7.591
				c-0.39-1.546-0.862-3.17-1.487-5.111c-0.316-0.982-0.758-2.268-1.354-3.488l-0.092-0.188c-0.88-1.797-1.709-3.495-2.038-5.354
				c-0.259-1.455-1.156-1.862-1.865-1.948c-0.096-0.012-0.191-0.018-0.284-0.018c-1.346,0-1.818,1.134-1.975,1.507
				c-1.352,3.239-2.39,6-3.062,8.942c-0.503,2.201-0.868,4.452-1.221,6.628c-0.093,0.571-0.186,1.143-0.28,1.712
				c-0.137,0.818-0.246,1.644-0.352,2.442c-0.111,0.839-0.227,1.708-0.371,2.543c-0.141,0.818-0.319,1.655-0.491,2.465
				c-0.172,0.809-0.349,1.644-0.496,2.481c-0.185,1.062-0.255,2.142-0.306,3.072c-0.031,0.591,0.157,1.134,0.531,1.528
				c0.341,0.36,0.799,0.557,1.292,0.557c0.313,0,0.633-0.084,0.924-0.244c0.594-0.33,0.917-0.982,1.02-1.484
				c0.073-0.357,0.105-0.696,0.138-1.023c0.022-0.241,0.045-0.469,0.082-0.678c0.418-2.387,0.854-4.811,1.281-7.169
				c0.246,0.019,0.499,0.029,0.753,0.022c0.292-0.008,0.583-0.022,0.875-0.038c0.396-0.021,0.77-0.039,1.139-0.039
				c0.597,0,1.068,0.054,1.484,0.168C117.963,110.622,118.323,110.588,118.495,110.558z M119.09,106.226
				c-0.65,0.032-1.389,0.069-2.136,0.324c-0.778,0.267-1.715,0.29-2.707,0.314c-0.07,0.001-0.14,0.003-0.21,0.005
				c0.071-1.192,0.389-3.417,1.083-6.477c0.5-2.198,1.055-4.208,1.561-5.692c1.586,3.399,2.805,7.153,3.695,11.385
				C120,106.181,119.577,106.203,119.09,106.226z"/>
			<path fill="#B11478" d="M96.12,120.119c0.024-0.866,0.037-1.743,0.047-2.59c0.012-0.906,0.023-1.844,0.053-2.758
				c0.034-1.043,0.081-2.105,0.126-3.134c0.051-1.16,0.104-2.356,0.14-3.542c0.085-0.017,0.17-0.036,0.255-0.056
				c0.125-0.029,0.242-0.057,0.321-0.064c1.656-0.16,3.563-0.343,5.45-0.505c0.016,0.44,0.023,0.86-0.006,1.256
				c-0.062,0.833-0.156,1.689-0.247,2.519c-0.069,0.64-0.143,1.301-0.202,1.959c-0.201,2.251-0.37,4.444-0.509,6.294
				c-0.022,0.312,0.032,0.571,0.073,0.761c0.009,0.044,0.021,0.088,0.025,0.128c0.063,1.116,0.844,1.866,1.984,1.915
				c0.037,0.002,0.073,0.002,0.109,0.002c1.087,0,1.876-0.711,2.008-1.813c0.034-0.287,0.03-0.553,0.026-0.786
				c-0.001-0.091-0.003-0.184-0.003-0.274c0.009-0.463,0.011-0.926,0.013-1.389c0.005-1.058,0.009-2.056,0.079-3.058
				c0.059-0.85,0.16-1.725,0.258-2.57c0.129-1.115,0.262-2.268,0.31-3.427c0.113-2.745,0.156-5.531,0.197-8.227
				c0.014-0.877,0.027-1.754,0.043-2.632c0.03-1.664,0.039-3.151,0.026-4.546c-0.003-0.375-0.034-0.732-0.064-1.078
				c-0.031-0.351-0.06-0.682-0.055-0.99c0.003-0.064,0.068-0.248,0.109-0.369c0.048-0.133,0.093-0.264,0.129-0.392l0.126-0.449
				l-0.205-0.419c-0.033-0.067-0.071-0.138-0.111-0.21c-0.028-0.051-0.07-0.128-0.076-0.141c-0.018-0.068-0.032-0.177-0.046-0.291
				c-0.024-0.188-0.053-0.418-0.124-0.664c-0.374-1.307-1.403-1.407-1.71-1.407c-0.304,0-0.61,0.073-0.938,0.224l-0.63,0.289
				l-0.074,0.689c-0.022,0.206-0.052,0.417-0.081,0.632c-0.071,0.519-0.15,1.106-0.157,1.708c-0.012,1.095,0.006,2.201,0.021,3.27
				c0.012,0.669,0.021,1.338,0.025,2.007c0.004,0.608-0.009,1.236-0.021,1.845c-0.006,0.286-0.012,0.572-0.016,0.857
				c-0.007,0.45-0.012,0.9-0.017,1.351c-0.013,1.035-0.024,2.104-0.06,3.15c-0.01,0.294-0.084,0.384-0.084,0.384
				s-0.019,0.011-0.065,0.017c-1.089,0.135-2.177,0.273-3.265,0.412c-0.845,0.106-1.689,0.215-2.535,0.321
				c0.016-0.285,0.029-0.57,0.045-0.854c0.085-1.685,0.174-3.428,0.309-5.129c0.131-1.664,0.322-3.361,0.507-5.002
				c0.046-0.411,0.092-0.822,0.138-1.232c0.115-1.036-0.274-1.89-1.189-2.61l-1.15-0.906l-0.686,1.293
				c-0.043,0.081-0.091,0.155-0.135,0.227c-0.163,0.26-0.364,0.582-0.433,1.017c-0.055,0.352-0.11,0.704-0.167,1.056
				c-0.255,1.608-0.518,3.271-0.683,4.933c-0.159,1.606-0.26,3.233-0.357,4.809c-0.051,0.821-0.102,1.642-0.161,2.462
				c-0.051,0.71-0.109,1.42-0.169,2.129c-0.1,1.198-0.202,2.438-0.265,3.667c-0.105,2.104-0.186,4.238-0.263,6.302
				c-0.042,1.12-0.084,2.24-0.13,3.359c-0.058,1.367,0.783,2.375,2.047,2.453c0.05,0.002,0.099,0.004,0.146,0.004
				C95.562,122.299,96.087,121.172,96.12,120.119z M103.742,121.076L103.742,121.076v0.002V121.076z"/>
			<path fill="#B11478" d="M79.386,124.686c0.575,0.236,1.083,0.352,1.554,0.352c1.652,0,2.425-1.412,2.679-1.875
				c0.147-0.273,0.295-0.545,0.44-0.82c0.388-0.721,0.753-1.404,1.162-2.061c0.826-1.324,1.283-2.737,1.727-4.104
				c0.066-0.207,0.134-0.413,0.202-0.619c0.255-0.771,0.308-1.573,0.325-2.323c0.019-0.718-0.469-1.531-1.108-1.852
				c-0.235-0.118-0.482-0.178-0.732-0.178c-0.67,0-1.209,0.395-1.604,1.173c-0.44,0.869-0.667,1.75-0.886,2.604
				c-0.415,1.624-1.265,3.088-2.162,4.639c-0.243,0.42-0.494,0.853-0.735,1.29c-1.074-0.843-1.66-1.722-1.844-2.76
				c-0.523-2.95-0.645-5.365-0.377-7.6c0.184-1.543,0.361-3.087,0.54-4.631c0.127-1.104,0.254-2.207,0.383-3.311
				c0.018-0.15,0.034-0.302,0.05-0.452c0.054-0.496,0.104-0.965,0.202-1.403c0.418-1.888,0.875-3.91,1.38-5.908
				c0.339-1.339,1.01-2.646,2.174-4.235c0.194-0.266,0.651-0.443,1.137-0.443c0.413,0,0.923,0.135,1.114,0.514
				c0.137,0.271,0.276,0.537,0.415,0.805c0.676,1.298,1.315,2.523,1.562,3.88l0.009,0.049c0.136,0.755,0.341,1.896,1.434,2.695
				l0.828,0.604l0.807-0.775c0.723-0.692,1.09-1.107,0.869-2.258c-0.032-0.17-0.063-0.34-0.096-0.511
				c-0.365-1.949-0.742-3.964-2.158-5.709c-0.016-0.024-0.052-0.097-0.078-0.15c-0.054-0.109-0.122-0.247-0.213-0.39
				c-0.601-0.941-1.613-2.213-3.458-2.398c-0.354-0.034-0.68-0.052-0.998-0.052c-1.027,0-1.922,0.184-2.731,0.562
				c-0.397,0.185-1.135,0.598-1.618,1.285c-1.27,1.807-2.162,3.521-2.729,5.24c-0.291,0.883-0.557,1.844-0.812,2.938l-0.161,0.682
				c-0.295,1.242-0.6,2.526-0.795,3.832c-0.159,1.063-0.253,2.136-0.344,3.173c-0.058,0.655-0.117,1.333-0.191,1.989
				c-0.061,0.535-0.141,1.063-0.227,1.623c-0.124,0.809-0.251,1.645-0.312,2.497c-0.223,3.107-0.048,5.957,0.534,8.709
				C75.106,121.682,76.738,123.596,79.386,124.686z"/>
			<path fill="#B11478" d="M180.45,128.697c-0.02-0.156-0.037-0.311-0.052-0.467l-0.104-1.121l-0.035,0.008
				c-0.021-0.123-0.047-0.25-0.082-0.375c-0.062-0.225-0.118-0.451-0.174-0.678c-0.212-0.865-0.453-1.848-1.104-2.707
				c-0.878-1.156-2.049-2.053-3.478-2.664c-0.642-0.273-1.237-0.406-1.826-0.406c-0.913,0-1.755,0.328-2.504,0.978
				c-0.222,0.193-0.439,0.391-0.659,0.588c-0.336,0.301-0.652,0.586-0.982,0.859c-1.281,1.064-2.129,2.381-2.521,3.918
				c-0.167,0.656-0.324,1.277-0.558,1.867c-0.914,2.314-1.011,4.639-0.287,6.908c0.284,0.889,0.653,1.811,1.426,2.533
				c0.358,0.336,0.731,0.654,1.093,0.961c0.339,0.289,0.658,0.562,0.969,0.85c0.146,0.135,0.293,0.27,0.44,0.4
				c0.489,0.438,0.95,0.85,1.274,1.307c1.173,1.654,2.006,3.535,2.479,5.592l0.021,0.088l0.035,0.084
				c0.034,0.078,0.069,0.158,0.105,0.24c0.31,0.689,0.457,1.076,0.17,1.656l-0.053,0.1l-0.025,0.125
				c-0.073,0.188-0.636,0.551-1.081,0.592c-0.229,0.021-0.428,0.031-0.604,0.031c-0.791,0-1.152-0.162-1.733-1.119
				c-0.518-0.852-2.11-3.711-2.604-4.629c-0.364-0.678-0.875-1.02-1.516-1.02c-0.216,0-0.438,0.041-0.663,0.125
				c-1.005,0.375-1.475,1.385-1.116,2.4c0.136,0.389,0.296,0.709,0.489,0.99c0.188,0.273,0.548,0.842,0.928,1.445
				c0.721,1.141,1.536,2.434,1.964,2.953c0.389,0.475,0.929,1.057,1.664,1.377c1.09,0.469,2.316,0.707,3.646,0.707
				c0.46,0,0.941-0.027,1.434-0.084c1.362-0.156,1.896-1.029,2.177-1.672c0.71-1.619,0.802-3.324,0.283-5.211
				c-0.388-1.406-0.936-2.713-1.557-4.152c-0.985-2.281-2.238-3.852-3.942-4.936c-0.268-0.17-1.079-0.689-1.771-1.664
				c-0.884-1.242-1.156-2.648-0.812-4.176c0.306-1.355,0.725-2.742,1.13-4.084l0.156-0.52c0.075-0.248,0.217-0.504,0.368-0.666
				c0.617-0.658,1.359-1.426,2.179-2.119c0.29-0.246,0.577-0.371,0.854-0.371c0.173,0,0.358,0.047,0.552,0.143
				c1.312,0.646,2.072,1.539,2.324,2.73c0.155,0.732,0.261,1.473,0.371,2.256c0.056,0.383,0.108,0.766,0.169,1.146l0.017,0.107
				c0.029,0.219,0.072,0.516,0.215,0.809l0.027,0.057c0.117,0.252,0.478,1.021,1.35,1.021c0.223,0,0.447-0.057,0.668-0.164
				c0.584-0.287,0.949-1.033,0.965-1.594C180.555,129.574,180.501,129.129,180.45,128.697z"/>
			<path fill="#B11478" d="M151.455,116.788c2.948-0.258,5.169-1.111,6.989-2.684c1.067-0.922,1.722-2.032,2-3.395
				c0.446-2.198,0.196-4.333-0.044-6.396l-0.062-0.529c-0.137-1.193-0.885-1.905-2.001-1.905c-0.171,0-0.351,0.017-0.548,0.051
				c-0.646,0.112-1.289,0.246-1.91,0.376c-0.266,0.057-0.532,0.111-0.798,0.165l-1.354,0.274l0.003,0.009
				c-0.274,0.056-0.551,0.113-0.824,0.172l-0.105,0.022c-0.314,0.065-0.708,0.148-1.094,0.345c-0.532,0.271-1.057,0.959-0.978,1.707
				c0.075,0.699,0.706,1.369,1.402,1.494c0.547,0.098,1.083,0.106,1.562,0.025c0.617-0.104,1.232-0.227,1.829-0.346
				c0.361-0.073,0.732-0.146,1.104-0.216c0.154,1.342,0.229,2.745-0.057,4.091c-0.104,0.49-0.354,0.896-0.835,1.357
				c-1.021,0.978-2.297,1.321-3.988,1.699c-0.062,0.015-0.119,0.021-0.168,0.021c-0.078,0-0.195,0-0.354-0.301
				c-0.168-0.317-0.321-0.646-0.484-0.995c-0.229-0.488-0.465-0.992-0.752-1.486c-1.272-2.193-1.319-4.708-1.181-7.098
				c0.194-3.321,0.729-6.663,1.228-9.494c0.361-2.047,1.23-4.076,2.589-6.03c0.247-0.355,0.559-0.544,0.901-0.544
				c0.198,0,0.401,0.062,0.585,0.178c0.095,0.061,0.203,0.145,0.317,0.231c0.131,0.101,0.279,0.215,0.441,0.322l0.103,0.068
				c0.256,0.174,0.605,0.413,1.062,0.507c0.122,0.026,0.252,0.039,0.387,0.039c0.547,0,1.248-0.217,1.579-0.826
				c0.299-0.552,0.224-1.139,0.171-1.547c-0.064-0.511-0.381-0.814-0.533-0.961l-0.025-0.025c-0.724-0.836-1.691-1.408-2.879-1.701
				c-0.534-0.132-1.022-0.196-1.491-0.196c-1.353,0-2.485,0.542-3.369,1.608c-1.296,1.561-2.256,3.308-2.854,5.191
				c-0.695,2.192-1.229,4.621-1.627,7.426c-0.433,3.033-0.584,5.856-0.464,8.631l0.007,0.165c0.031,0.718,0.065,1.53,0.312,2.315
				c0.578,1.84,1.332,3.979,2.544,5.887c0.438,0.69,1.467,2.31,3.375,2.309C151.258,116.8,151.355,116.796,151.455,116.788z"/>
			<path fill="#B11478" d="M137.771,127.766l2.278-0.092c1.643-0.062,3.283-0.129,4.939-0.199c0.283-0.012,0.757-0.029,1.146-0.326
				c0.238-0.184,0.798-0.678,0.831-1.355c0.031-0.695-0.489-1.297-0.994-1.508c-0.378-0.16-0.854-0.211-1.391-0.152
				c-0.322,0.035-0.634,0.09-0.935,0.145c-0.372,0.062-0.725,0.127-1.053,0.143c-1.393,0.068-2.812,0.111-4.187,0.154
				c-0.558,0.018-1.112,0.033-1.67,0.053c-0.053,0.002-0.104,0.002-0.155,0.002c-0.166,0-0.372,0.002-0.597,0.039
				c-0.991,0.168-1.492,0.744-1.531,1.758c-0.085,2.227-0.181,4.52-0.29,7.012c-0.102,2.277-0.217,4.857,0.251,7.377
				c0.168,0.902,0.225,1.836,0.285,2.824l0.005,0.078c0.084,1.344,0.086,2.736,0.089,4.084c0.004,2.25,0.009,4.578,0.38,6.859
				c0.241,1.486,0.98,2.121,2.47,2.121c0.061,0,0.12,0,0.182-0.002h0.028c0.067,0,0.135,0.004,0.201,0.008
				c0.077,0.004,0.155,0.008,0.235,0.01c0.161,0.004,0.321,0.004,0.48,0.004c2.229,0,4.514-0.293,6.787-0.873
				c0.456-0.115,1.166-0.576,1.318-1.236c0.135-0.582-0.073-1.277-0.509-1.691c-0.297-0.281-0.644-0.428-0.92-0.547
				c-0.078-0.033-0.156-0.066-0.229-0.102l-0.458-0.23l-0.455,0.238c-0.181,0.096-0.351,0.197-0.5,0.287
				c-0.228,0.139-0.462,0.281-0.613,0.314c-1.293,0.291-2.411,0.434-3.425,0.434c-0.336,0-0.667-0.016-0.991-0.047
				c-0.396-2.021-0.454-4.168-0.507-6.064c-0.039-1.395-0.146-2.795-0.248-4.148c-0.025-0.344-0.053-0.688-0.077-1.029
				c-0.049-0.666-0.114-1.322-0.186-2.018c-0.001-0.006-0.001-0.014-0.002-0.02c0.591-0.092,1.286-0.232,2.042-0.387
				c1.3-0.264,2.773-0.562,3.609-0.562c0.185,0,0.276,0.016,0.309,0.021l0.55,0.119l0.388-0.408
				c0.025-0.027,0.055-0.055,0.083-0.082c0.107-0.104,0.258-0.248,0.385-0.445c0.543-0.848,0.416-1.465,0.215-1.834
				c-0.207-0.379-0.671-0.836-1.736-0.791c-0.517,0.021-4.305,0.785-4.342,0.793c-0.283,0.059-0.556,0.131-0.82,0.199
				c-0.306,0.082-0.602,0.16-0.887,0.209c0.062-2.766,0.13-5.533,0.198-8.312L137.771,127.766z"/>
			<path fill="#B11478" d="M162.062,91.415c0.104,1.332,0.215,2.709,0.298,4.059c0.219,3.568,0.389,6.789,0.52,9.845
				c0.063,1.47,0.089,2.974,0.114,4.429c0.013,0.755,0.025,1.511,0.044,2.267c0.057,2.387,1.694,2.571,2.194,2.571
				c0.354,0,0.736-0.07,1.172-0.216c1.053-0.353,1.94-0.599,2.856-0.658c0.968-0.062,1.917-0.214,2.835-0.361
				c0.371-0.059,0.741-0.118,1.113-0.172c1.084-0.155,1.775-0.981,1.721-2.056c-0.051-0.986-0.772-1.682-1.846-1.772
				c-0.328-0.025-0.651,0.025-0.89,0.065l-0.126,0.021c-1.477,0.232-2.95,0.466-4.422,0.698l-0.687,0.109
				c-0.273-2.459-0.575-8.446-0.534-10.693c0.824-0.08,1.687-0.158,2.531-0.209c1.696-0.102,2.08-1.195,2.166-1.664l0.016-0.083
				c0.075-0.384,0.23-1.183-0.32-1.852c-0.381-0.461-0.966-0.696-1.735-0.696c-0.041,0-0.084,0-0.128,0.002l-0.14,0.004
				l-0.136,0.036c-0.476,0.125-0.854,0.227-1.136,0.472l-1.375,0.214c-0.045-0.464-0.088-0.907-0.132-1.35
				c-0.029-0.3-0.062-0.6-0.093-0.898c-0.06-0.559-0.12-1.136-0.165-1.695l-0.023-0.298c-0.09-1.127-0.183-2.293-0.226-3.427
				c-0.007-0.193-0.001-0.312,0.007-0.381c0.07-0.027,0.199-0.071,0.426-0.125c0.343-0.081,0.639-0.126,0.906-0.136
				c0.438-0.017,0.874-0.021,1.336-0.023c0.418-0.003,0.852-0.008,1.284-0.021c0.737-0.024,1.993-0.283,2.114-1.733
				c0.07-0.838-0.346-1.84-1.722-2.14c-0.265-0.058-0.617-0.124-1-0.124c-0.107,0-0.215,0.005-0.318,0.017
				c-0.807,0.085-1.656,0.197-2.758,0.365c-0.891,0.137-1.757,0.297-2.411,0.422c-0.992,0.188-1.613,0.963-1.585,1.971
				c0.008,0.253,0.003,0.513-0.003,0.789c-0.008,0.404-0.016,0.824,0.015,1.261C161.896,89.303,161.98,90.376,162.062,91.415z"/>
		</g>
		<path fill="#F5902C" d="M31.891,118.122c29.836-15.643,57.868-36.95,83.755-58.708c-6.903-6.707-13.952-13.528-21.473-19.911
			c-3.44,0.992-2.984,3.656-4.788,6.074c-1.712-0.142-8.365-2.866-9.398-2.556C77.964,54.496,67.392,56.83,56.109,53.725
			c1.025,3.702,0.455,8.375,1.417,11.775c-4.048-0.836-15.256,2.182-19.353,1.193c6.53,15.243-3.81,20.882-17.31,16.077
			c-0.458,1.407,2.928,5.407,3.649,6.616c0.277-0.012-11.087,2.839-10.946,2.769c3.213,2.77,3.331,5.616,3.776,9.52"/>
		<path fill="#B11478" d="M126.164,66.796c-0.061-5.667-17.125-25.633-21.257-29.185c-5.191-4.484-3.552-7.258-8.911-9.853
			c-0.743,0.541-1.485,1.081-2.228,1.621c0.542,6.419,0.771,13.101,1.39,19.622c-0.393,0.284-0.764,0.554-1.113,0.812
			c-3.453-3.009-13.678-9.251-17.863-6.77c0.371,5.533,1.41,10.771,2.845,16.855c-1.261,0.35-0.626,0.267-1.534,0.232
			C72.301,58.55,66.72,52.141,60.73,56c0.467,3.415,3.149,12.123,1.592,15.18c-4.633-1.985-14.682-6.341-19.956-2.625
			c0.754,3.331,3.351,15.729,2.117,18.238c-3.599-2.773-17.276-6.914-21.76-3.932c0.204,0.67,0.42,1.397,0.653,2.109
			c0.267,3.183,6.224,8.717,5.11,11.736c-0.136-0.188-0.272-0.372-0.421-0.577c-6.062,1.511-7.808-5.955-14.707-1.308
			c-0.035,0.341-0.102,0.642-0.137,0.981c6.973,9.4,10.622,18.005,15.991,27.848c0.5-0.047,1.013-0.168,1.55-0.211
			c6.854,0.053,12.786-8.779,18.211-11.594c21.151-10.894,42.343-30.522,60.229-35.286
			C113.638,75.414,126.442,70.949,126.164,66.796z M112.942,68.7c0.37-0.272,0.763-0.558,1.113-0.812
			C113.58,69.18,114.178,69.313,112.942,68.7z M118.128,64.039c-0.186,0.134-0.372,0.271-0.557,0.406
			c-5.868-1.217-20.124,10.396-27.567,14.082c-13.789,6.922-26.072,18.645-40.218,25.036c-5.045,2.256-12.045,10.097-17.396,12.669
			c-0.824-1.133-1.667-2.287-2.478-3.399c-0.338-2.847-5.907-8.413-7.033-12.039c0.371-0.27,0.742-0.542,1.113-0.811
			c4.118,1.321,8.221,2.625,12.339,3.946c0.72-1.091,0.446-0.513,0.713-1.402c0.998-1.358,0.816-1.479,1.386-2.775
			c-3.188-2.126-6.688-7.494-7.995-12.188c6.584,0.03,14.404,8.214,21.202,4.335c-0.739-5.044-5.055-15.342-2.385-19.776
			c4.813,2.236,14.581,8.023,20.074,5.126c-0.759-5.156-2.299-10.691-2.966-15.852c0.372-0.271,0.743-0.541,1.135-0.825
			c3.209,2.804,13.882,9.099,17.821,6.798c0.247-0.874,0.014-0.328,0.728-1.382c-2.773-5.804-3.339-11.038-4.377-16.622
			c0.393-0.285,0.742-0.541,1.134-0.826c3.086,2.766,14.398,10.458,18.105,8.356c-0.772-5.651-3.009-13.832-0.998-19.084
			c1.771,2.435,3.543,4.864,5.331,7.317C108.917,46.583,115.146,59.554,118.128,64.039z"/>
	</g>
</g>
</svg>
