<?xml version="1.0" encoding="utf-8"?>
<!-- Generator: Adobe Illustrator 16.0.0, SVG Export Plug-In . SVG Version: 6.00 Build 0)  -->
<!DOCTYPE svg PUBLIC "-//W3C//DTD SVG 1.1//EN" "http://www.w3.org/Graphics/SVG/1.1/DTD/svg11.dtd">
<svg version="1.1" id="Layer_1" xmlns="http://www.w3.org/2000/svg" xmlns:xlink="http://www.w3.org/1999/xlink" x="0px" y="0px"
	 width="160px" height="116px" viewBox="0 0 160 116" enable-background="new 0 0 160 116" xml:space="preserve">
<g>
	<g>
		<path fill-rule="evenodd" clip-rule="evenodd" fill="#F5902C" d="M7.149,41.693C46.669,64.96,91.445,82.068,135.2,96.375
			c2.797-12.8,5.621-25.851,7.601-39.133c-3.618-3.267-6.372-0.823-10.463-1.174c-1.067-2.081-2.694-11.731-3.797-12.704
			c-14.722,5.902-25.014-4.644-29.529-19.924c-3.544,3.847-9.358,6.543-12.599,10.098c-1.941-5.281-13.482-16.074-15.282-21.521
			c-12.936,18.5-26.884,10.594-31.026-8.469c-1.956,0.48-4.149,7.27-5.028,8.974C35.29,12.833,23.83,1.739,24.013,1.851
			c-0.894,5.706-4.103,7.889-8.296,11.207"/>
	</g>
	<g>
		<path fill-rule="evenodd" clip-rule="evenodd" fill="#B11478" d="M135.905,113.567c6.51-4.141,17.34-38.217,18.479-45.546
			c1.456-9.225,5.841-9.318,4.992-17.382c-1.158-0.469-2.318-0.939-3.475-1.409c-7.032,5.238-14.594,10.3-21.691,15.7
			c-0.611-0.248-1.189-0.484-1.736-0.703c0.998-6.154,0.873-22.463-5.004-25.52c-6.132,4.403-11.441,9.367-17.449,15.396
			c-1.31-1.206-0.758-0.532-1.371-1.606c-1.899-7.138,1.502-18.195-7.264-22.353c-3.613,2.993-11.756,12.351-16.41,12.745
			c-1.031-6.784-3.212-21.531-11.299-24.962c-3.31,3.265-15.782,15.173-19.57,15.548c0.625-6.152-4.415-24.942-11.084-27.984
			c-0.627,0.717-1.315,1.489-1.971,2.271c-3.487,2.594-5.609,13.457-9.9,14.339c0.118-0.29,0.233-0.581,0.365-0.901
			c-6.101-5.922,1.278-13.305-9.051-17.946c-0.42,0.205-0.815,0.345-1.234,0.549C15.37,18.618,8.042,29.019,0.517,42.298
			c0.415,0.545,0.923,1.051,1.359,1.641c4.86,7.963,19.334,8.479,26.487,12.732c27.791,16.633,65.712,27.037,84.068,44.299
			C116.944,105.272,131.304,116.87,135.905,113.567z M133.323,102.293c-0.289-0.118-0.58-0.237-0.871-0.353
			c-2.807-7.658-26.477-15.803-36.084-21.763C78.458,69.204,56.08,63.421,38.527,51.655c-6.232-4.216-20.328-6.678-27.146-11.017
			c0.718-1.769,1.448-3.571,2.153-5.308c3.048-2.436,5.484-12.873,8.87-16.78c0.577,0.235,1.158,0.47,1.736,0.704
			c1.43,5.712,2.87,11.392,4.3,17.104c1.778,0.049,0.913,0.148,2.134-0.183c2.288,0.179,2.295-0.118,4.205-0.392
			c0.167-5.215,3.86-13.117,8.352-18c4.694,7.635,0.849,22.558,10.216,27.633c5.301-4.48,14.109-16.865,21.156-16.963
			c0.873,7.171,1.196,22.623,8.492,26.894c5.418-4.581,10.713-10.337,16.201-14.816c0.58,0.235,1.158,0.47,1.77,0.72
			c-0.938,5.725-0.55,22.589,4.939,25.492c1.188-0.344,0.389-0.22,2.121-0.152c4.717-7.376,10.366-11.789,16.078-17
			c0.61,0.248,1.157,0.47,1.768,0.719c-0.98,5.557-1.75,24.16,3.344,26.938c5.98-4.951,13.832-13.414,21.35-14.861
			c-1.541,3.797-3.079,7.591-4.633,11.42C146.892,79.103,136.366,95.622,133.323,102.293z"/>
	</g>
</g>
</svg>
