<?xml version="1.0" encoding="utf-8"?>
<!-- Generator: Adobe Illustrator 16.0.0, SVG Export Plug-In . SVG Version: 6.00 Build 0)  -->
<!DOCTYPE svg PUBLIC "-//W3C//DTD SVG 1.1//EN" "http://www.w3.org/Graphics/SVG/1.1/DTD/svg11.dtd">
<svg version="1.1" id="Layer_1" xmlns="http://www.w3.org/2000/svg" xmlns:xlink="http://www.w3.org/1999/xlink" x="0px" y="0px"
	 width="430px" height="370px" viewBox="25 55 430 370" enable-background="new 25 55 430 370" xml:space="preserve">
<g id="crown">
	<g>
		<g>
			<path fill="#2FC872" d="M321.92,335.381l-119.435,18.736c-0.643,2.965-1.408,6.004-1.956,9.082
				c-5.798,32.812-30.643,56.237-63.904,58.869c-31.524,2.479-60.796-19.291-63.684-51.246c-1.133-12.578-0.354-25.34-0.374-38.023
				c-0.046-26.764,0.105-53.529-0.108-80.291c-0.144-18.371,1.008-36.256,11.036-52.572c9.521-15.485,22.638-26.524,39.3-33.266
				c27.331-11.068,55.469-19.398,84.385-25.457c24.286-5.092,48.717-8.397,73.432-9.09c19.873-0.553,39.789-0.152,59.66,0.469
				c31.126,0.979,61.04,24.924,70.063,54.476c8.326,27.276,17.566,54.272,26.268,81.44c4.777,14.926,10.412,29.705,13.609,44.973
				c4.996,23.894-7.367,48.021-28.771,59.828c-33.459,18.453-75.975,5.91-94.061-27.754
				C325.641,342.313,323.896,339.061,321.92,335.381"/>
			<path fill="#B11478" d="M131.735,424.482c-15.106,0-29.635-5.291-40.912-14.888c-11.604-9.877-18.74-23.582-20.092-38.574
				c-0.812-8.987-0.656-18.155-0.505-27.022c0.061-3.676,0.124-7.478,0.122-11.195c-0.016-9.401-0.008-18.961,0-28.209
				c0.015-17.065,0.032-34.713-0.107-52.065c-0.132-16.847,0.624-36.281,11.366-53.752c9.688-15.754,23.264-27.248,40.361-34.162
				c26.521-10.74,55.04-19.345,84.765-25.576c26.197-5.486,50.347-8.476,73.825-9.131c6.375-0.179,12.887-0.265,19.914-0.265
				c14.645,0,29.004,0.39,39.879,0.734c31.654,0.992,62.66,25.09,72.121,56.045c5.223,17.115,10.906,34.416,16.398,51.146
				c3.258,9.914,6.625,20.159,9.861,30.268c1.229,3.844,2.541,7.75,3.807,11.527c3.668,10.922,7.459,22.215,9.857,33.668
				c2.527,12.09,0.916,24.496-4.662,35.883c-5.389,10.996-14.344,20.352-25.211,26.348c-10.436,5.754-22.242,8.797-34.156,8.797
				c-26.41,0-50.525-14.354-62.935-37.446l-1.113-2.078c-1.157-2.16-2.338-4.359-3.604-6.717l-116.382,18.261
				c-0.102,0.457-0.208,0.914-0.312,1.371c-0.458,2.008-0.933,4.086-1.295,6.137c-6.042,34.184-31.915,58.012-65.918,60.695
				C135.12,424.416,133.416,424.482,131.735,424.482z M300.465,134.086c-6.984,0-13.457,0.086-19.791,0.262
				c-23.209,0.648-47.098,3.605-73.037,9.043c-29.466,6.176-57.731,14.703-84.008,25.344c-16.2,6.547-29.063,17.44-38.242,32.368
				c-10.124,16.47-10.834,35.16-10.708,51.392c0.139,17.371,0.124,35.026,0.108,52.104c-0.008,9.242-0.016,18.797,0,28.201
				c0.008,3.762-0.058,7.582-0.122,11.277c-0.15,8.75-0.302,17.795,0.488,26.545c1.248,13.828,7.834,26.465,18.546,35.586
				c10.472,8.918,23.978,13.828,38.032,13.828c1.565,0,3.153-0.058,4.714-0.185c31.92-2.522,56.214-24.909,61.892-57.039
				c0.382-2.159,0.87-4.291,1.338-6.352c0.216-0.947,0.431-1.883,0.63-2.812l0.322-1.488l122.495-19.224l0.746,1.392
				c1.559,2.897,2.971,5.535,4.354,8.108l1.112,2.074c11.633,21.652,34.246,35.103,59.018,35.103
				c11.164,0,22.232-2.853,32.012-8.246c10.078-5.549,18.377-14.222,23.369-24.41c5.139-10.482,6.627-21.9,4.303-33.016
				c-2.344-11.195-6.094-22.363-9.717-33.164c-1.275-3.789-2.59-7.707-3.828-11.586c-3.232-10.091-6.596-20.332-9.85-30.236
				c-5.5-16.752-11.191-34.074-16.432-51.232c-4.266-13.963-13.496-27.051-25.992-36.854c-12.611-9.892-27.536-15.594-42.016-16.047
				C329.367,134.48,315.047,134.086,300.465,134.086z"/>
		</g>
		<g>
			<path fill="#F5902C" d="M189.667,327.99c-0.078-1.004-0.152-1.955-0.176-2.91c-0.032-1.246-0.026-2.531-0.024-3.777
				c0.004-1.365,0.008-2.771-0.034-4.164c-0.082-2.844-0.186-5.729-0.287-8.524c-0.103-2.812-0.208-5.718-0.293-8.578
				c-0.065-2.381-0.113-4.808-0.155-7.16c-0.044-2.49-0.092-5.068-0.168-7.609c-0.048-1.676-0.145-3.358-0.236-4.983
				c-0.088-1.521-0.174-3.09-0.224-4.627l-0.019-0.523c-0.164-5.047-0.334-10.268-1.558-15.309
				c-0.504-2.074-1.956-3.267-3.979-3.267c-0.13,0-0.266,0.004-0.409,0.013c-2.532,0.188-3.25,2.159-3.595,3.104l-0.067,0.185
				c-0.221,0.598-0.444,1.2-0.664,1.793c-0.618,1.672-1.256,3.405-1.926,5.086c-0.646,1.627-1.314,3.258-1.982,4.881
				c-0.998,2.432-2.03,4.942-2.982,7.442c-0.624,1.623-1.142,3.277-1.646,4.871c-0.311,0.98-0.63,1.996-0.966,2.978
				c-1.246-2.402-2.194-4.883-3.181-7.461c-0.191-0.504-0.382-1.008-0.58-1.508c-0.836-2.156-2.054-4.078-3.237-5.938
				c-0.309-0.488-0.618-0.973-0.918-1.461c-1.036-1.688-4.097-2.535-5.519-2.535c-0.632,0-1.164,0.129-1.613,0.392
				c-2.12,1.237-2.145,3.262-2.16,4.352c-0.002,0.191-0.002,0.383-0.021,0.57c-0.346,3.803-0.607,7.612-0.817,10.832
				c-0.356,5.409-0.673,10.741-0.967,15.741c-0.031,0.539-0.069,1.074-0.109,1.613c-0.12,1.646-0.242,3.349-0.166,5.051
				c0.268,6,0.622,11.886,1.046,17.492c0.254,3.332,0.698,6.658,1.124,9.877l0.102,0.767c0.137,1.024,0.624,2.082,1.336,2.901
				c0.73,0.849,1.782,1.312,2.956,1.312c0.664,0,1.354-0.146,2.053-0.426c2.271-0.923,2.117-3.078,2.063-3.791
				c-0.006-0.082-0.012-0.164-0.014-0.25c-0.019-0.39-0.103-0.707-0.164-0.941c-0.015-0.055-0.03-0.109-0.042-0.164
				c-0.198-1.055-0.404-2.109-0.614-3.16c-0.488-2.473-0.992-5.026-1.358-7.541c-0.323-2.233-0.432-4.619-0.539-6.91l-0.042-0.961
				c-0.021-0.438,0.027-0.944,0.079-1.479c0.064-0.668,0.133-1.426,0.084-2.203c-0.084-1.277-0.188-2.555-0.292-3.832
				c-0.426-5.34-0.83-10.387-0.069-15.617c0.144-0.983,0.228-1.961,0.308-2.906c0.024-0.293,0.048-0.573,0.076-0.864
				c0.124-1.371,0.248-2.738,0.374-4.105c0.102-1.123,0.204-2.25,0.302-3.377c0.26,0.697,0.502,1.406,0.754,2.148
				c0.559,1.641,1.137,3.336,1.964,4.955c1.668,3.254,2.853,6.84,3.62,10.963c0.148,0.791,0.49,1.446,0.767,1.973
				c0.048,0.09,0.098,0.184,0.142,0.273c0.676,1.344,1.924,2.145,3.342,2.145c0.311,0,0.624-0.043,0.935-0.117
				c1.693-0.436,2.821-1.771,3.102-3.682c0.132-0.926,0.362-1.885,0.678-2.867c0.269-0.816,0.57-1.629,0.889-2.488
				c0.529-1.414,1.074-2.875,1.456-4.395c1.107-4.438,2.912-8.863,4.653-13.14c0.135-0.336,0.274-0.672,0.414-1.018
				c0.03,0.484,0.057,0.969,0.088,1.459c0.429,7.094,0.874,14.426,0.626,21.684c-0.042,1.298,0.005,2.57,0.051,3.806
				c0.029,0.785,0.058,1.526,0.063,2.281c0.015,1.569,0.017,3.145,0.021,4.715c0.004,2.241,0.008,4.557,0.042,6.848
				c0.025,1.396,0.096,2.789,0.162,4.141c0.054,1.099,0.113,2.229,0.142,3.341c0.008,0.289,0.02,0.586,0.034,0.877
				c0.042,1.125,0.086,2.192-0.116,3.145c-0.366,1.754-0.262,3.34,0.316,4.844c0.998,2.605,2.958,2.888,3.758,2.888
				c0.346,0,0.706-0.047,1.072-0.138c0.981-0.246,3.25-1.19,3.088-4.668C189.792,329.561,189.729,328.764,189.667,327.99z"/>
			<path fill="#F5902C" d="M271.172,318.389c-0.234-0.705-0.465-1.41-0.688-2.125c-0.194-0.623-0.394-1.254-0.594-1.875
				c-0.918-2.887-1.791-5.614-2.123-8.483c-0.572-4.974-1.776-9.802-3.58-14.359c-0.638-1.606-1.625-3.219-2.942-4.805
				c-2.218-2.681-5.246-3.879-8.709-3.414c0.434-0.853,0.877-1.711,1.312-2.543c0.414-0.789,0.827-1.586,1.233-2.377
				c1.23-2.406,2.457-4.812,3.687-7.215c1.637-3.209,3.274-6.423,4.916-9.627c0.625-1.228,1.267-2.451,1.897-3.673
				c0.621-1.188,1.236-2.377,1.846-3.562c1.419-2.766-0.577-4-0.997-4.223c-0.466-0.242-0.957-0.367-1.466-0.367
				c-1.078,0-2.094,0.569-2.854,1.602c-0.846,1.133-1.519,2.176-2.055,3.181c-2.272,4.223-4.5,8.459-6.97,13.147
				c-1.076,2.043-2.145,4.09-3.215,6.137c-1.906,3.636-3.875,7.39-5.84,11.082c-0.041-1.426-0.066-2.869-0.053-4.291
				c0.016-2.217,0.068-4.491,0.117-6.684c0.064-2.793,0.127-5.68,0.123-8.523c-0.004-2.59-0.258-5.073-0.561-7.815
				c-0.156-1.445-1.025-2.547-1.529-3.074c-0.517-0.543-1.272-0.824-2.193-0.824c-0.523,0-1.05,0.094-1.487,0.271
				c-1.38,0.559-1.74,2.205-1.816,2.688c-0.109,0.681-0.078,1.39,0.099,2.242c0.821,3.967,0.674,8.062,0.52,12.393
				c-0.074,2.07-0.152,4.212-0.112,6.328c0.042,2.328,0.011,4.72-0.021,7.037c-0.03,1.963-0.057,3.996-0.04,5.996
				c0.018,2.103,0.086,4.221,0.152,6.271c0.06,1.901,0.123,3.866,0.146,5.791c0.028,2.483,0.02,5.021,0.01,7.477
				c-0.006,2.004-0.014,4.078,0,6.117c0.015,2.305,1.508,3.91,3.634,3.91c0.274,0,0.551-0.027,0.832-0.082
				c2.157-0.418,3.403-2.213,3.178-4.572c-0.051-0.51-0.11-1.018-0.168-1.529c-0.116-1.004-0.223-1.948-0.262-2.897
				c-0.177-4.664-0.293-9.445-0.388-13.558c-0.004-0.219,0.013-0.455,0.037-0.711c1.135-0.5,1.972-1.375,2.49-2.616
				c0.193-0.462,0.494-0.955,0.812-1.474c0.16-0.262,0.32-0.52,0.467-0.781c0.736-1.274,1.291-1.562,2-1.633
				c0.725-0.069,1.428-0.188,2.104-0.299c0.512-0.088,0.988-0.164,1.463-0.219c0.131-0.023,0.256-0.031,0.373-0.031
				c0.504,0,0.623,0.154,0.681,0.221c0.271,0.349,0.555,0.697,0.836,1.043c0.75,0.91,1.457,1.771,1.881,2.66
				c1.565,3.281,2.601,6.763,3.06,10.344c0.541,4.207,1.623,8.263,2.666,12.177c0.543,2.016,1.094,4.098,1.562,6.155
				c0.375,1.623,1.86,2.767,3.612,2.767c0.453,0,0.9-0.074,1.338-0.219c1.601-0.541,3.005-2.074,2.158-4.746
				C271.563,319.584,271.367,318.986,271.172,318.389z"/>
			<path fill="#F5902C" d="M255.711,183.086c0.086,0.699,0.172,1.4,0.258,2.1c0.129,1.121,0.197,2.24,0.268,3.429
				c0.131,2.293,0.273,4.662,0.92,7.078c0.566,2.125,0.74,4.479,0.867,6.709c0.121,2.059,0.176,4.174,0.23,6.215
				c0.07,2.549,0.143,5.188,0.332,7.795c0.328,4.567,0.793,9.186,1.248,13.651c0.151,1.503,0.303,3.005,0.451,4.507
				c0.09,0.875,0.313,1.715,0.659,2.424c0.656,1.352,1.904,2.16,3.337,2.16c0.434,0,0.877-0.072,1.311-0.216
				c1.229-0.393,2.625-1.432,2.294-4.137c-0.109-0.889-0.222-1.781-0.337-2.668c-0.396-3.158-0.811-6.43-1.082-9.627
				c-0.211-2.512-0.348-5.09-0.475-7.584c-0.106-2.014-0.213-4.098-0.365-6.156c-0.266-3.623-0.623-7.569-1.106-12.063
				c-0.101-0.935-0.229-1.863-0.371-2.771c0.604,1.043,1.199,2.093,1.767,3.144c1.541,2.862,2.791,5.5,3.824,8.053
				c0.817,2.031,1.567,4.152,2.291,6.209c1.225,3.463,2.487,7.041,4.176,10.463c0.574,1.162,1.082,2.482,1.602,4.154
				c0.98,3.154,2.604,5.867,4.174,8.483c0.367,0.617,0.736,1.229,1.094,1.847c0.732,1.272,1.975,1.998,3.406,1.998
				c0.49,0,0.99-0.086,1.486-0.261c0.775-0.271,2.553-1.204,2.369-4.01c-0.041-0.623-0.064-1.25-0.088-1.875
				c-0.039-1.053-0.08-2.143-0.199-3.244c-0.207-1.901-0.402-3.805-0.605-5.709c-0.709-6.774-1.449-13.782-2.336-20.668
				c-0.406-3.166-0.607-6.428-0.797-9.582c-0.125-1.975-0.246-4.014-0.422-6.032c-0.057-0.668-0.074-1.361-0.094-2.087
				c-0.047-1.924-0.103-4.106-0.996-6.278c-0.012-0.193,0.059-0.637,0.111-0.941c0.041-0.262,0.086-0.522,0.114-0.77
				c0.147-1.258,0.375-3.16-0.819-4.982l-1.115-1.69l-1.791,0.95c-2.742,1.461-4.041,4.281-3.656,7.939
				c0.473,4.547,0.848,9.084,1.205,13.473c0.082,0.996,0.127,2.033,0.178,3.033c0.068,1.455,0.139,2.957,0.311,4.461
				c0.578,5.086,1.201,10.25,1.8,15.25c-0.484-1.166-0.935-2.326-1.318-3.508c-1.924-5.896-4.069-11.15-6.562-16.062
				c-2.432-4.793-4.805-8.938-7.264-12.659c-0.721-1.093-1.377-2.224-2.063-3.429c-0.466-0.812-0.949-1.649-1.457-2.475
				c-0.66-1.07-1.388-1.762-2.224-2.102c-1.146-0.466-2.617-0.445-3.621,0.079c-1.119,0.582-1.608,1.877-1.418,3.74
				C255.358,180.268,255.539,181.699,255.711,183.086z"/>
			<path fill="#F5902C" d="M228.261,310.568l-0.063-0.688c-0.022-0.223-0.022-0.488-0.024-0.771
				c-0.004-0.513-0.008-1.091-0.124-1.703c-0.52-2.72-1.1-5.461-1.66-8.119l-0.05-0.232c-0.042-0.211-0.052-0.315-0.054-0.369
				c0.025-0.026,0.07-0.082,0.156-0.151c1.144-0.976,1.63-2.457,1.241-3.767c-0.344-1.164-1.319-1.991-2.548-2.168
				c-0.025-0.116-0.046-0.254-0.065-0.371l-0.013-0.073c-0.239-1.406-0.483-2.812-0.729-4.22c-0.706-4.039-1.43-8.209-2.021-12.332
				c-0.745-5.207-2.119-10.241-3.445-15.112l-0.488-1.802c-0.142-0.534-0.37-1.225-0.838-1.858
				c-0.542-0.734-1.576-1.605-3.435-1.605c-0.313,0-0.636,0.023-0.993,0.074c-2.124,0.295-2.664,2.086-2.866,2.762
				c-0.024,0.074-0.044,0.152-0.07,0.222c-0.084,0.254-0.16,0.514-0.236,0.768c-0.117,0.404-0.229,0.785-0.373,1.09
				c-0.114,0.236-0.288,0.513-0.473,0.804c-0.338,0.536-0.722,1.137-0.962,1.873c-0.229,0.713-0.276,1.375-0.313,1.957
				c-0.026,0.368-0.049,0.709-0.118,0.954c-0.572,2.123-1.208,4.289-1.826,6.386c-1.267,4.301-2.576,8.75-3.438,13.237
				c-0.491,2.56-1.25,5.191-1.981,7.738c-0.25,0.871-0.502,1.742-0.744,2.617c-0.582,2.106-1.184,4.205-1.784,6.301
				c-1.182,4.129-2.404,8.396-3.46,12.629c-0.588,2.355-0.708,4.707-0.82,6.979c-0.023,0.422-0.042,0.84-0.065,1.262
				c-0.054,0.928,0.271,1.812,0.914,2.492c0.702,0.742,1.708,1.168,2.764,1.168c0.276,0,0.55-0.027,0.814-0.086
				c1.042-0.229,2.808-1.053,2.938-3.976c0.026-0.6,0.042-1.2,0.061-1.797c0.052-1.953,0.105-3.789,0.47-5.582
				c0.532-2.582,1.326-5.233,2.096-7.791c0.274-0.91,0.544-1.815,0.806-2.723c0.309-1.062,0.658-2.123,1.026-3.234
				c0.032-0.086,0.059-0.176,0.09-0.262c1.139-0.008,2.274,0.012,3.402,0.031c0.988,0.018,1.974,0.033,2.96,0.033
				c2.232,0,4.8-0.074,7.52-0.556c0.022,0.129,0.045,0.254,0.066,0.383c0.284,1.632,0.552,3.177,0.906,4.71
				c1.021,4.438,0.978,9.196,0.855,13.309c-0.016,0.578,0.11,1.188,0.364,1.762c0.71,1.623,2.234,2.672,3.884,2.672
				c0.462,0,0.914-0.082,1.345-0.246c2.602-0.979,2.306-3.639,2.193-4.639C228.752,315.896,228.502,313.19,228.261,310.568z
				 M216.311,282.025c0.551,3.024,1.047,6.125,1.53,9.123c0.17,1.065,0.342,2.127,0.515,3.194c-2.171,0.363-4.484,0.537-7.152,0.537
				c-1.294,0-2.582-0.041-3.896-0.096l0.234-0.982c1.982-8.397,3.878-16.418,6.32-24.5
				C214.775,273.838,215.583,278.025,216.311,282.025z"/>
			<path fill="#F5902C" d="M339.772,308.693l-0.207-0.091c-0.858-0.381-1.668-0.75-2.394-1.168c-0.17-0.102-0.348-0.198-0.526-0.295
				c-0.342-0.192-0.912-0.5-1.033-0.651l-0.245-0.427c-1.369-2.332-2.783-4.745-3.709-7.223l-0.076-0.199
				c-1.306-3.473-2.656-7.062-4.754-10.34c-1.125-1.764-2.5-2.977-4.203-3.729c-0.623-0.283-1.226-0.623-1.875-1
				c0.256-0.259,0.526-0.513,0.809-0.787c0.52-0.482,1.051-0.986,1.551-1.564c3.277-3.771,4.414-8.201,5.225-12.051
				c0.304-1.441,0.39-2.988,0.261-4.602c-0.179-2.181-0.494-4.466-0.938-6.787c-0.303-1.582-0.875-2.814-1.707-3.681
				c-1.697-1.77-3.721-3.426-6.191-5.059c-1.625-1.082-3.428-1.609-5.498-1.609c-0.981,0-2.028,0.123-3.192,0.365
				c-0.717,0.15-1.438,0.273-2.202,0.394c-0.462,0.073-0.927,0.147-1.378,0.229l-0.104,0.016c-0.434,0.066-1.241,0.193-1.836,0.888
				c-1.016,1.18-2.401,2.791-2.229,4.983c0.123,1.523,0.291,3.045,0.455,4.521c0.234,2.094,0.475,4.254,0.566,6.367
				c0.229,5.379,0.44,11.123,0.262,16.897c-0.152,5.066-0.756,10.25-1.324,14.652c-0.414,3.19-0.127,6.219,0.143,9.147
				c0.168,1.795,0.328,3.492,0.336,5.222c0.009,1.797,1.437,3.262,3.179,3.262c0.207,0,0.416-0.021,0.627-0.062
				c1.303-0.262,2.504-1.401,3.019-2.395c0.448-0.871,0.592-1.934,0.436-3.25c-0.098-0.809-0.24-1.594-0.381-2.352
				c-0.207-1.13-0.404-2.197-0.426-3.234c-0.062-3.363,0.012-6.82,0.086-10.164c0.022-0.938,0.043-1.871,0.057-2.805
				c0.006-0.188,0.018-0.375,0.037-0.574c0.152,0.018,0.309,0.021,0.465,0.021c0.541,0,1.012-0.069,1.459-0.215
				c2.68-0.877,4.871-0.401,7.416,1.664c1.797,1.469,2.816,3.623,3.57,5.537c0.332,0.84,0.652,1.684,0.969,2.527
				c0.982,2.598,2,5.28,3.359,7.848c1.422,2.684,3.621,5.941,8.028,7.316c0.109,0.045,0.378,0.28,0.554,0.44
				c0.059,0.051,0.121,0.105,0.184,0.156c0.006,0.012,0.012,0.022,0.02,0.031c0.18,0.291,0.517,0.819,1.162,1.16
				c0.74,0.391,1.437,0.59,2.064,0.59c0.379,0,0.742-0.072,1.078-0.209c1.254-0.543,1.977-2.138,1.863-3.306
				C342.506,312.279,342.252,309.811,339.772,308.693z M310.348,255.563c0.043-0.442,0.094-0.93,0.143-1.219
				c0.318-0.112,0.896-0.266,1.307-0.371c2.25-0.594,3.673-0.436,4.734,0.586c0.348,0.332,0.705,0.574,1.016,0.789
				c0.091,0.062,0.185,0.125,0.269,0.185c2.158,1.559,3.175,3.147,3.39,5.324c0.389,3.961,0.604,7.254-0.472,10.647
				c-0.553,1.742-1.455,3.438-2.83,5.324c-1.84,2.52-3.926,4.229-6.379,5.223c-0.133,0.058-0.278,0.109-0.428,0.16
				c-0.017-1.719-0.033-3.438-0.045-5.156c-0.05-5.201-0.103-10.578-0.191-15.864c-0.016-1.017-0.155-1.964-0.291-2.886
				c-0.071-0.496-0.143-0.965-0.188-1.426C310.319,256.342,310.312,255.928,310.348,255.563z"/>
			<path fill="#F5902C" d="M239.813,222.994l0.067-0.012c0.596-0.058,1.192-0.125,1.788-0.185c1.104-0.123,2.152-0.231,3.193-0.297
				c0.078,0.92,0.148,1.842,0.219,2.762c0.113,1.426,0.228,2.9,0.363,4.357l0.078,0.836c0.156,1.711,0.316,3.479,0.676,5.246
				c0.742,3.633,3.295,3.914,4.061,3.914c0.265,0,0.537-0.025,0.808-0.078c3.103-0.59,3.22-3.555,3.017-5.275
				c-0.109-0.908-0.224-1.815-0.338-2.723c-0.332-2.621-0.675-5.334-0.83-7.967c-0.289-4.877-1.082-9.84-2.431-15.183
				c-0.784-3.11-1.729-6.358-2.973-10.223c-0.63-1.963-1.515-4.529-2.707-6.98l-0.188-0.375c-1.758-3.594-3.418-6.987-4.074-10.709
				c-0.519-2.909-2.312-3.723-3.73-3.893c-0.193-0.023-0.382-0.035-0.565-0.035c-2.695,0-3.64,2.269-3.955,3.015
				c-2.702,6.479-4.778,12-6.122,17.887c-1.004,4.399-1.736,8.899-2.442,13.252c-0.188,1.145-0.373,2.285-0.562,3.428
				c-0.272,1.633-0.49,3.279-0.702,4.877c-0.222,1.683-0.456,3.42-0.742,5.096c-0.283,1.632-0.636,3.306-0.979,4.927
				c-0.344,1.617-0.7,3.289-0.992,4.963c-0.372,2.131-0.51,4.289-0.612,6.143c-0.062,1.185,0.312,2.269,1.061,3.06
				c0.684,0.717,1.602,1.112,2.584,1.112c0.628,0,1.27-0.168,1.85-0.487c1.192-0.66,1.834-1.959,2.04-2.963
				c0.146-0.718,0.21-1.396,0.274-2.05c0.046-0.481,0.092-0.938,0.164-1.354c0.836-4.775,1.71-9.621,2.563-14.338
				c0.492,0.035,1.006,0.055,1.506,0.041c0.584-0.015,1.168-0.041,1.752-0.074c0.792-0.041,1.541-0.08,2.275-0.08
				c1.196,0,2.138,0.111,2.972,0.34C238.751,223.117,239.47,223.053,239.813,222.994z M241.01,214.332
				c-1.304,0.063-2.779,0.139-4.271,0.647c-1.557,0.531-3.431,0.578-5.415,0.623c-0.141,0.005-0.28,0.007-0.42,0.011
				c0.142-2.381,0.777-6.836,2.168-12.951c1-4.398,2.11-8.416,3.121-11.385c3.172,6.799,5.608,14.307,7.394,22.772
				C242.826,214.242,241.977,214.281,241.01,214.332z"/>
			<path fill="#F5902C" d="M195.065,242.111c0.048-1.729,0.073-3.482,0.094-5.177c0.021-1.813,0.046-3.688,0.104-5.516
				c0.068-2.086,0.162-4.213,0.252-6.27c0.103-2.318,0.208-4.714,0.278-7.084c0.187-0.039,0.358-0.076,0.516-0.115
				c0.248-0.056,0.48-0.111,0.641-0.123c3.476-0.336,7.166-0.689,10.899-1.01c0.032,0.877,0.047,1.717-0.012,2.512
				c-0.124,1.666-0.312,3.375-0.494,5.031c-0.14,1.284-0.286,2.608-0.403,3.922c-0.389,4.356-0.719,8.625-1.019,12.59
				c-0.046,0.627,0.064,1.146,0.146,1.524c0.018,0.087,0.042,0.177,0.048,0.255c0.128,2.227,1.688,3.727,3.97,3.827
				c0.074,0.005,0.146,0.005,0.216,0.005c2.174,0,3.752-1.423,4.019-3.625c0.067-0.578,0.06-1.109,0.048-1.578
				c-0.002-0.181-0.006-0.363-0.004-0.543c0.018-0.92,0.021-1.843,0.025-2.765c0.011-2.123,0.019-4.123,0.158-6.131
				c0.118-1.699,0.32-3.449,0.519-5.145c0.258-2.228,0.523-4.531,0.619-6.851c0.227-5.489,0.312-11.062,0.395-16.451
				c0.028-1.754,0.054-3.51,0.086-5.268c0.06-3.34,0.076-6.311,0.052-9.092c-0.006-0.752-0.067-1.465-0.128-2.154
				c-0.062-0.705-0.12-1.367-0.109-1.979c0.006-0.132,0.134-0.494,0.218-0.736c0.096-0.266,0.186-0.529,0.256-0.787l0.252-0.895
				l-0.406-0.836c-0.065-0.138-0.142-0.281-0.224-0.425c-0.057-0.104-0.141-0.254-0.152-0.28c-0.036-0.134-0.063-0.353-0.092-0.582
				c-0.046-0.371-0.106-0.834-0.246-1.328c-0.748-2.611-2.808-2.812-3.42-2.812c-0.606,0-1.22,0.144-1.876,0.445l-1.26,0.58
				l-0.148,1.375c-0.044,0.412-0.104,0.834-0.162,1.268c-0.14,1.037-0.3,2.209-0.313,3.416c-0.022,2.185,0.012,4.386,0.044,6.521
				c0.021,1.344,0.042,2.686,0.05,4.031c0.006,1.219-0.018,2.475-0.044,3.69c-0.012,0.57-0.024,1.144-0.032,1.715
				c-0.014,0.898-0.023,1.795-0.034,2.691c-0.025,2.072-0.048,4.217-0.12,6.311c-0.02,0.588-0.168,0.765-0.165,0.765
				c0,0-0.038,0.022-0.133,0.037c-2.172,0.27-4.346,0.543-6.52,0.821c-1.692,0.213-3.382,0.431-5.076,0.64
				c0.03-0.572,0.056-1.144,0.088-1.714c0.172-3.37,0.349-6.852,0.618-10.25c0.264-3.331,0.646-6.729,1.016-10.016
				c0.093-0.815,0.185-1.635,0.276-2.457c0.226-2.07-0.55-3.777-2.382-5.221l-2.302-1.812l-1.372,2.591
				c-0.084,0.161-0.181,0.309-0.271,0.452c-0.324,0.519-0.726,1.162-0.864,2.033c-0.111,0.707-0.22,1.418-0.336,2.123
				c-0.508,3.211-1.035,6.529-1.363,9.851c-0.32,3.221-0.521,6.485-0.717,9.643c-0.102,1.633-0.201,3.268-0.319,4.9
				c-0.103,1.414-0.218,2.827-0.336,4.241c-0.2,2.4-0.406,4.882-0.532,7.351c-0.21,4.188-0.372,8.442-0.526,12.555
				c-0.084,2.258-0.17,4.514-0.262,6.769c-0.116,2.729,1.566,4.75,4.094,4.901c0.101,0.004,0.198,0.012,0.292,0.012
				C193.948,246.475,195,244.221,195.065,242.111z"/>
			<path fill="#F5902C" d="M161.597,251.244c1.15,0.473,2.166,0.703,3.106,0.703c3.308,0,4.854-2.824,5.36-3.75
				c0.296-0.541,0.592-1.095,0.884-1.64c0.773-1.446,1.5-2.809,2.319-4.123c1.652-2.649,2.566-5.479,3.454-8.211
				c0.133-0.412,0.267-0.823,0.4-1.231c0.512-1.543,0.616-3.146,0.652-4.65c0.037-1.434-0.94-3.061-2.219-3.701
				c-0.47-0.235-0.962-0.356-1.462-0.356c-1.34,0-2.42,0.793-3.208,2.348c-0.884,1.742-1.334,3.504-1.771,5.207
				c-0.832,3.246-2.528,6.174-4.322,9.271c-0.486,0.844-0.988,1.711-1.472,2.582c-2.146-1.685-3.318-3.439-3.688-5.519
				c-1.048-5.899-1.29-10.729-0.754-15.199c0.364-3.055,0.714-6.116,1.066-9.174c0.258-2.233,0.514-4.471,0.779-6.709
				c0.036-0.301,0.066-0.602,0.101-0.904c0.107-0.991,0.208-1.93,0.403-2.805c0.834-3.774,1.748-7.813,2.761-11.813
				c0.68-2.683,2.02-5.293,4.348-8.474c0.388-0.528,1.302-0.887,2.274-0.887c0.825,0,1.844,0.273,2.229,1.031
				c0.272,0.539,0.55,1.071,0.83,1.606c1.353,2.597,2.628,5.047,3.122,7.758l0.02,0.101c0.272,1.512,0.683,3.793,2.866,5.389
				l1.656,1.209l1.612-1.547c1.447-1.389,2.182-2.219,1.739-4.518c-0.063-0.338-0.126-0.681-0.191-1.021
				c-0.729-3.896-1.482-7.932-4.316-11.42c-0.031-0.045-0.102-0.195-0.155-0.299c-0.11-0.221-0.244-0.496-0.427-0.781
				c-1.202-1.881-3.226-4.428-6.916-4.795c-0.708-0.07-1.359-0.104-1.994-0.104c-2.058,0-3.844,0.364-5.464,1.121
				c-0.794,0.375-2.27,1.198-3.233,2.569c-2.542,3.615-4.324,7.043-5.458,10.482c-0.578,1.754-1.11,3.676-1.624,5.875l-0.324,1.377
				c-0.588,2.479-1.2,5.043-1.588,7.651c-0.318,2.128-0.506,4.275-0.688,6.353c-0.115,1.311-0.233,2.664-0.382,3.975
				c-0.124,1.064-0.282,2.123-0.454,3.242c-0.248,1.619-0.502,3.291-0.626,4.996c-0.445,6.215-0.096,11.912,1.068,17.418
				C153.038,245.24,156.3,249.068,161.597,251.244z"/>
			<path fill="#F5902C" d="M363.457,259.111c-0.039-0.304-0.074-0.617-0.107-0.927l-0.244-2.155l-0.021,0.004
				c-0.041-0.271-0.098-0.541-0.176-0.814c-0.123-0.455-0.236-0.901-0.35-1.36c-0.422-1.726-0.902-3.695-2.209-5.414
				c-1.756-2.308-4.096-4.105-6.953-5.328c-1.287-0.541-2.477-0.808-3.652-0.808c-1.824,0-3.51,0.656-5.006,1.957
				c-0.449,0.388-0.891,0.787-1.334,1.185c-0.666,0.6-1.295,1.164-1.951,1.709c-2.565,2.131-4.266,4.766-5.043,7.824
				c-0.336,1.319-0.652,2.565-1.117,3.75c-1.832,4.62-2.026,9.272-0.578,13.815c0.531,1.65,1.23,3.545,2.854,5.062
				c0.714,0.672,1.459,1.305,2.181,1.918c0.68,0.582,1.321,1.129,1.942,1.709c0.291,0.27,0.595,0.539,0.894,0.803
				c0.971,0.877,1.893,1.701,2.541,2.611c2.344,3.299,4.012,7.065,4.957,11.184l0.043,0.176l0.065,0.164
				c0.067,0.16,0.144,0.32,0.216,0.484c0.616,1.375,0.911,2.151,0.336,3.312l-0.105,0.199l-0.053,0.25
				c-0.144,0.371-1.271,1.094-2.16,1.18c-0.459,0.043-0.854,0.066-1.205,0.066c-1.582,0-2.305-0.324-3.469-2.238
				c-1.008-1.66-4.207-7.395-5.207-9.258c-0.729-1.355-1.75-2.047-3.037-2.047c-0.428,0-0.873,0.086-1.326,0.256
				c-2.008,0.75-2.947,2.77-2.23,4.807c0.277,0.773,0.598,1.418,0.979,1.974c0.377,0.541,1.094,1.684,1.854,2.877
				c1.44,2.291,3.073,4.879,3.934,5.918c0.773,0.947,1.852,2.115,3.328,2.75c2.18,0.947,4.631,1.418,7.293,1.418
				c0.92,0,1.883-0.049,2.863-0.168c2.729-0.312,3.793-2.053,4.358-3.344c1.418-3.242,1.603-6.646,0.562-10.423
				c-0.774-2.812-1.869-5.426-3.112-8.299c-1.974-4.565-4.479-7.709-7.884-9.877c-1.434-0.914-2.625-2.031-3.543-3.328
				c-1.768-2.483-2.313-5.291-1.625-8.352c0.617-2.719,1.455-5.5,2.267-8.188l0.31-1.024c0.147-0.496,0.43-1.004,0.733-1.328
				c1.235-1.314,2.722-2.853,4.354-4.236c0.582-0.492,1.156-0.742,1.709-0.742c0.347,0,0.713,0.095,1.101,0.285
				c2.625,1.293,4.146,3.078,4.649,5.461c0.312,1.463,0.521,2.949,0.744,4.521c0.107,0.766,0.211,1.526,0.336,2.289l0.035,0.223
				c0.059,0.43,0.141,1.021,0.426,1.609l0.056,0.119c0.237,0.504,0.957,2.039,2.698,2.039c0.449,0,0.896-0.109,1.336-0.328
				c1.174-0.578,1.902-2.07,1.932-3.185C363.664,260.879,363.555,259.979,363.457,259.111z"/>
			<path fill="#F5902C" d="M305.756,235.557c5.896-0.52,10.338-2.223,13.979-5.369c2.133-1.844,3.445-4.065,4-6.788
				c0.895-4.398,0.395-8.671-0.088-12.804l-0.123-1.045c-0.273-2.389-1.77-3.813-4-3.813c-0.346,0-0.705,0.032-1.1,0.102
				c-1.299,0.228-2.594,0.496-3.846,0.758c-0.523,0.111-1.047,0.22-1.57,0.326l-2.812,0.57l0.008,0.016
				c-0.518,0.105-1.031,0.213-1.543,0.324l-0.211,0.041c-0.627,0.133-1.414,0.297-2.186,0.693c-1.064,0.538-2.111,1.913-1.959,3.42
				c0.156,1.396,1.418,2.733,2.809,2.981c1.09,0.195,2.16,0.211,3.121,0.049c1.234-0.207,2.465-0.453,3.662-0.69
				c0.721-0.146,1.463-0.293,2.203-0.431c0.309,2.685,0.459,5.492-0.113,8.185c-0.209,0.979-0.709,1.791-1.668,2.715
				c-2.041,1.953-4.596,2.639-7.979,3.396c-0.125,0.03-0.236,0.043-0.336,0.043c-0.154,0-0.387,0-0.707-0.603
				c-0.332-0.631-0.639-1.289-0.965-1.979c-0.457-0.98-0.935-1.994-1.511-2.984c-2.545-4.389-2.637-9.416-2.36-14.195
				c0.387-6.649,1.457-13.33,2.455-18.987c0.721-4.095,2.463-8.152,5.178-12.062c0.494-0.711,1.117-1.088,1.803-1.088
				c0.396,0,0.799,0.125,1.17,0.354c0.189,0.125,0.406,0.293,0.637,0.467c0.262,0.199,0.555,0.428,0.881,0.643l0.209,0.135
				c0.513,0.349,1.207,0.824,2.117,1.013c0.246,0.053,0.508,0.078,0.777,0.078c1.09,0,2.492-0.433,3.156-1.65
				c0.602-1.104,0.449-2.277,0.344-3.086c-0.125-1.027-0.787-1.658-1.066-1.932l-0.051-0.05c-1.449-1.672-3.383-2.815-5.758-3.399
				c-1.068-0.265-2.045-0.394-2.982-0.394c-2.705,0-4.971,1.082-6.738,3.218c-2.592,3.12-4.512,6.614-5.709,10.381
				c-1.389,4.387-2.457,9.244-3.254,14.854c-0.864,6.068-1.168,11.713-0.926,17.262l0.017,0.316c0.059,1.441,0.127,3.07,0.622,4.643
				c1.154,3.681,2.662,7.959,5.087,11.775c0.877,1.381,2.937,4.617,6.75,4.617C305.362,235.582,305.555,235.574,305.756,235.557z"/>
			<path fill="#F5902C" d="M278.096,257.26l4.287-0.172c3.377-0.133,6.75-0.266,10.152-0.41c0.562-0.022,1.512-0.062,2.291-0.656
				c0.475-0.358,1.596-1.348,1.664-2.707c0.061-1.387-0.978-2.586-1.984-3.012c-0.754-0.319-1.709-0.422-2.787-0.309
				c-0.643,0.069-1.27,0.18-1.871,0.285c-0.744,0.133-1.447,0.254-2.102,0.291c-2.785,0.135-5.621,0.221-8.363,0.309
				c-1.119,0.035-2.232,0.064-3.353,0.105c-0.104,0.004-0.206,0.004-0.309,0.004c-0.332,0-0.746,0-1.199,0.078
				c-1.983,0.34-2.983,1.487-3.06,3.516c-0.172,4.469-0.369,9.184-0.582,14.02c-0.205,4.556-0.434,9.711,0.5,14.759
				c0.341,1.805,0.455,3.676,0.574,5.655l0.008,0.148c0.168,2.688,0.177,5.477,0.181,8.172c0.01,4.5,0.019,9.152,0.758,13.711
				c0.483,2.975,1.961,4.244,4.942,4.244c0.119,0,0.24,0,0.361-0.004h0.06c0.135,0,0.272,0.01,0.405,0.018
				c0.152,0.008,0.306,0.017,0.465,0.021c0.32,0.004,0.642,0.008,0.959,0.008c4.459,0,9.029-0.586,13.576-1.746
				c0.912-0.234,2.334-1.156,2.633-2.477c0.271-1.16-0.145-2.541-1.02-3.377c-0.594-0.56-1.285-0.857-1.836-1.091
				c-0.16-0.065-0.312-0.133-0.459-0.211l-0.916-0.457l-0.91,0.476c-0.367,0.188-0.707,0.395-1.002,0.574
				c-0.459,0.278-0.924,0.559-1.229,0.629c-2.582,0.582-4.82,0.866-6.846,0.866c-0.672,0-1.334-0.03-1.984-0.098
				c-0.791-4.039-0.908-8.332-1.014-12.123c-0.076-2.793-0.293-5.596-0.496-8.301c-0.051-0.688-0.105-1.377-0.156-2.062
				c-0.098-1.344-0.23-2.668-0.375-4.065c1.186-0.185,2.574-0.463,4.088-0.773c2.6-0.526,5.541-1.123,7.213-1.123
				c0.375,0,0.557,0.031,0.623,0.041l1.1,0.234l0.773-0.816c0.053-0.053,0.109-0.108,0.168-0.164
				c0.215-0.207,0.512-0.491,0.766-0.881c1.086-1.701,0.832-2.936,0.435-3.668c-0.396-0.723-1.277-1.59-3.199-1.59
				c-0.092,0-0.185,0-0.274,0.008c-1.037,0.039-8.611,1.564-8.687,1.586c-0.565,0.117-1.112,0.263-1.642,0.394
				c-0.612,0.164-1.202,0.319-1.772,0.418c0.125-5.578,0.263-11.16,0.397-16.767L278.096,257.26z"/>
			<path fill="#F5902C" d="M326.949,184.691c0.211,2.666,0.43,5.424,0.598,8.131c0.438,7.119,0.779,13.561,1.041,19.688
				c0.123,2.935,0.178,5.935,0.229,8.836c0.025,1.519,0.051,3.041,0.088,4.558c0.113,4.771,3.385,5.143,4.385,5.143
				c0.709,0,1.476-0.143,2.344-0.436c2.111-0.703,3.886-1.197,5.716-1.314c1.938-0.125,3.836-0.432,5.676-0.721
				c0.738-0.123,1.479-0.238,2.222-0.345c2.168-0.312,3.549-1.965,3.438-4.112c-0.101-1.972-1.543-3.365-3.687-3.541
				c-0.656-0.056-1.303,0.045-1.783,0.127l-0.254,0.043c-2.983,0.469-5.969,0.94-8.948,1.414l-1.269,0.201
				c-0.545-4.918-1.15-16.892-1.068-21.384c1.644-0.159,3.363-0.315,5.062-0.42c3.395-0.209,4.16-2.393,4.332-3.328l0.031-0.166
				c0.148-0.77,0.457-2.37-0.645-3.709c-0.763-0.924-1.927-1.389-3.465-1.389c-0.084,0-0.168,0-0.257,0.004l-0.282,0.008
				l-0.271,0.072c-0.949,0.25-1.709,0.451-2.27,0.941l-2.75,0.43c-0.091-0.93-0.177-1.813-0.265-2.697
				c-0.062-0.61-0.125-1.215-0.19-1.819c-0.117-1.107-0.234-2.254-0.328-3.371l-0.045-0.629c-0.181-2.242-0.365-4.562-0.451-6.818
				c-0.016-0.387,0-0.621,0.016-0.758c0.137-0.06,0.395-0.146,0.852-0.252c0.687-0.164,1.277-0.252,1.812-0.271
				c0.875-0.037,1.746-0.043,2.672-0.049c0.836-0.006,1.703-0.014,2.566-0.041c1.477-0.051,3.988-0.565,4.229-3.467
				c0.14-1.676-0.69-3.68-3.444-4.279c-0.531-0.119-1.234-0.248-1.998-0.248c-0.217,0-0.435,0.011-0.64,0.031
				c-1.6,0.168-3.295,0.395-5.516,0.732c-1.785,0.272-3.517,0.594-4.82,0.844c-1.983,0.375-3.228,1.924-3.172,3.94
				c0.017,0.507,0.004,1.031-0.006,1.58c-0.017,0.81-0.031,1.646,0.028,2.519C326.617,180.48,326.785,182.619,326.949,184.691z"/>
		</g>
		<g>
			<path fill="#B11478" d="M187.113,326.268c-0.08-1.004-0.154-1.952-0.179-2.909c-0.029-1.246-0.025-2.531-0.021-3.777
				c0.004-1.363,0.008-2.771-0.032-4.168c-0.082-2.869-0.189-5.773-0.292-8.586c-0.102-2.793-0.206-5.681-0.288-8.517
				c-0.069-2.387-0.116-4.819-0.155-7.176c-0.045-2.488-0.093-5.062-0.169-7.596c-0.05-1.676-0.146-3.359-0.237-4.982
				c-0.086-1.521-0.174-3.09-0.227-4.629l-0.016-0.526c-0.164-5.048-0.334-10.263-1.558-15.302c-0.505-2.077-1.954-3.27-3.975-3.27
				c-0.132,0-0.27,0.004-0.41,0.016c-2.536,0.185-3.252,2.156-3.596,3.105l-0.066,0.186c-0.222,0.599-0.443,1.191-0.661,1.789
				c-0.622,1.676-1.259,3.406-1.929,5.09c-0.647,1.629-1.315,3.259-1.983,4.884c-0.998,2.43-2.028,4.94-2.982,7.44
				c-0.622,1.623-1.142,3.277-1.646,4.873c-0.309,0.979-0.628,1.994-0.965,2.979c-1.245-2.406-2.197-4.89-3.182-7.468
				c-0.194-0.504-0.384-1.004-0.578-1.504c-0.836-2.151-2.056-4.078-3.237-5.938c-0.311-0.486-0.62-0.972-0.919-1.459
				c-1.037-1.688-4.096-2.537-5.518-2.537c-0.634,0-1.164,0.129-1.614,0.391c-2.12,1.238-2.146,3.267-2.16,4.353
				c-0.002,0.196-0.002,0.387-0.02,0.569c-0.344,3.806-0.606,7.615-0.818,10.832c-0.325,4.959-0.622,9.877-0.964,15.742
				c-0.034,0.541-0.069,1.078-0.111,1.623c-0.118,1.639-0.242,3.344-0.166,5.041c0.268,5.973,0.621,11.863,1.048,17.496
				c0.254,3.344,0.699,6.688,1.13,9.918l0.096,0.719c0.132,1.027,0.624,2.082,1.336,2.9c0.729,0.85,1.78,1.312,2.954,1.312
				c0.664,0,1.354-0.145,2.054-0.426c2.269-0.918,2.114-3.074,2.062-3.785c-0.008-0.082-0.014-0.16-0.019-0.254
				c-0.018-0.387-0.102-0.705-0.164-0.936c-0.014-0.054-0.029-0.109-0.042-0.168c-0.197-1.054-0.405-2.109-0.615-3.16
				c-0.486-2.471-0.99-5.027-1.356-7.541c-0.324-2.234-0.432-4.613-0.538-6.91l-0.044-0.961c-0.02-0.438,0.03-0.945,0.08-1.482
				c0.064-0.668,0.134-1.422,0.084-2.2c-0.084-1.281-0.188-2.558-0.29-3.836c-0.426-5.341-0.83-10.386-0.07-15.609
				c0.145-0.984,0.229-1.959,0.309-2.898c0.025-0.289,0.048-0.582,0.078-0.875l0.355-3.942c0.106-1.181,0.21-2.359,0.32-3.535
				c0.26,0.695,0.502,1.397,0.754,2.141c0.556,1.64,1.134,3.336,1.962,4.957c1.666,3.254,2.851,6.84,3.622,10.961
				c0.146,0.791,0.492,1.453,0.769,1.976l0.14,0.271c0.822,1.635,2.528,2.463,4.278,2.031c1.691-0.426,2.821-1.77,3.098-3.676
				c0.134-0.931,0.362-1.892,0.678-2.869c0.269-0.818,0.57-1.623,0.891-2.486c0.527-1.418,1.073-2.879,1.453-4.395
				c1.112-4.441,2.912-8.869,4.654-13.146c0.138-0.336,0.278-0.672,0.414-1.012c0.032,0.48,0.058,0.965,0.088,1.453
				c0.43,7.096,0.876,14.428,0.628,21.686c-0.044,1.295,0.004,2.568,0.05,3.8c0.032,0.791,0.059,1.532,0.064,2.286
				c0.014,1.562,0.016,3.123,0.018,4.685c0.005,2.254,0.011,4.586,0.047,6.877c0.021,1.395,0.092,2.793,0.159,4.141
				c0.057,1.099,0.112,2.234,0.143,3.345c0.008,0.29,0.02,0.586,0.032,0.877c0.042,1.127,0.088,2.194-0.112,3.143
				c-0.368,1.754-0.267,3.342,0.312,4.846c0.998,2.609,2.96,2.886,3.761,2.886c0.346,0,0.706-0.046,1.069-0.136
				c0.984-0.246,3.25-1.192,3.088-4.668C187.24,327.834,187.172,327.037,187.113,326.268z"/>
			<path fill="#B11478" d="M268.621,316.678c-0.234-0.707-0.468-1.422-0.691-2.137c-0.195-0.623-0.395-1.258-0.594-1.881
				c-0.92-2.883-1.789-5.605-2.121-8.48c-0.574-4.973-1.779-9.799-3.578-14.354c-0.639-1.603-1.629-3.224-2.945-4.81
				c-2.219-2.68-5.246-3.875-8.709-3.414c0.432-0.848,0.877-1.698,1.307-2.526c0.414-0.797,0.832-1.594,1.238-2.396
				c1.266-2.467,2.527-4.94,3.787-7.41c1.604-3.145,3.207-6.289,4.814-9.434c0.617-1.195,1.233-2.391,1.858-3.586
				c0.634-1.215,1.265-2.43,1.888-3.646c1.422-2.77-0.578-4.004-0.996-4.221c-0.467-0.246-0.959-0.373-1.467-0.373
				c-1.078,0-2.095,0.57-2.857,1.605c-0.848,1.141-1.52,2.182-2.053,3.178c-2.312,4.299-4.525,8.5-6.967,13.146
				c-1.078,2.048-2.152,4.099-3.224,6.146c-1.903,3.637-3.871,7.387-5.836,11.078c-0.041-1.43-0.063-2.877-0.054-4.293
				c0.019-2.217,0.066-4.482,0.119-6.685c0.062-2.789,0.127-5.68,0.125-8.522c-0.004-2.562-0.256-5.06-0.562-7.82
				c-0.159-1.44-1.027-2.539-1.529-3.07c-0.515-0.54-1.271-0.827-2.19-0.827c-0.527,0-1.054,0.1-1.485,0.274
				c-1.385,0.549-1.747,2.203-1.823,2.691c-0.108,0.676-0.076,1.383,0.098,2.237c0.821,3.968,0.674,8.06,0.519,12.39
				c-0.072,2.07-0.148,4.211-0.11,6.328c0.042,2.332,0.008,4.727-0.024,7.043c-0.027,1.959-0.054,3.987-0.04,5.992
				c0.021,2.098,0.087,4.213,0.152,6.262c0.061,1.901,0.124,3.871,0.146,5.801c0.029,2.496,0.02,5.045,0.012,7.516
				c-0.006,2.023-0.014,4.05,0,6.078c0.014,2.3,1.508,3.91,3.634,3.91c0.272,0,0.548-0.029,0.832-0.082
				c2.161-0.422,3.407-2.215,3.177-4.574c-0.052-0.508-0.108-1.012-0.168-1.521c-0.119-1.008-0.226-1.957-0.263-2.908
				c-0.172-4.592-0.291-9.227-0.387-13.559c-0.004-0.215,0.01-0.455,0.035-0.711c1.135-0.496,1.971-1.371,2.49-2.617
				c0.197-0.459,0.496-0.955,0.816-1.474c0.158-0.258,0.315-0.52,0.467-0.776c0.734-1.277,1.289-1.566,2-1.633
				c0.721-0.074,1.426-0.191,2.107-0.3c0.508-0.081,0.985-0.163,1.459-0.223c0.127-0.016,0.254-0.022,0.366-0.022
				c0.509,0,0.629,0.155,0.681,0.213c0.272,0.356,0.559,0.705,0.844,1.047c0.746,0.906,1.453,1.762,1.875,2.651
				c1.57,3.285,2.598,6.767,3.057,10.345c0.541,4.213,1.623,8.262,2.668,12.18c0.541,2.012,1.096,4.094,1.561,6.152
				c0.375,1.627,1.863,2.766,3.617,2.766c0.453,0,0.898-0.074,1.336-0.219c2.441-0.818,2.691-3.068,2.16-4.744
				C269.01,317.861,268.813,317.268,268.621,316.678z"/>
			<path fill="#B11478" d="M252.867,181.096c0.086,0.709,0.176,1.41,0.258,2.119c0.133,1.117,0.201,2.238,0.271,3.43
				c0.131,2.291,0.272,4.662,0.92,7.078c0.565,2.121,0.738,4.474,0.865,6.707c0.123,2.062,0.178,4.174,0.231,6.22
				c0.07,2.545,0.142,5.184,0.332,7.791c0.326,4.559,0.793,9.168,1.244,13.627c0.154,1.51,0.307,3.02,0.455,4.528
				c0.086,0.877,0.312,1.715,0.658,2.426c0.656,1.353,1.904,2.158,3.338,2.158c0.434,0,0.877-0.071,1.312-0.211
				c1.229-0.396,2.625-1.438,2.293-4.143c-0.113-0.89-0.224-1.777-0.336-2.666c-0.398-3.16-0.812-6.426-1.082-9.629
				c-0.213-2.515-0.349-5.093-0.478-7.588c-0.104-2.013-0.213-4.095-0.362-6.148c-0.269-3.646-0.625-7.594-1.107-12.062
				c-0.1-0.938-0.232-1.869-0.373-2.777c0.605,1.043,1.201,2.094,1.766,3.143c1.543,2.867,2.793,5.5,3.826,8.058
				c0.818,2.028,1.568,4.153,2.291,6.205c1.223,3.465,2.488,7.045,4.172,10.465c0.568,1.151,1.094,2.51,1.605,4.158
				c0.979,3.155,2.607,5.866,4.176,8.489c0.369,0.611,0.734,1.222,1.092,1.838c0.732,1.271,1.975,1.998,3.404,1.998
				c0.492,0,0.992-0.088,1.484-0.262c0.776-0.272,2.557-1.207,2.371-4.012c-0.043-0.623-0.062-1.252-0.089-1.877
				c-0.04-1.054-0.079-2.142-0.196-3.24c-0.205-1.885-0.402-3.768-0.603-5.654c-0.709-6.791-1.451-13.819-2.342-20.723
				c-0.404-3.166-0.604-6.426-0.8-9.578c-0.123-1.973-0.245-4.018-0.418-6.037c-0.059-0.668-0.077-1.354-0.098-2.084
				c-0.043-1.926-0.102-4.104-0.996-6.276c-0.012-0.197,0.062-0.642,0.115-0.945c0.041-0.262,0.084-0.521,0.113-0.767
				c0.15-1.26,0.377-3.161-0.822-4.983l-1.113-1.691l-1.789,0.953c-2.742,1.457-4.043,4.281-3.656,7.941
				c0.47,4.524,0.845,9.073,1.203,13.469c0.082,0.996,0.129,2.033,0.179,3.033c0.067,1.453,0.139,2.957,0.312,4.461
				c0.58,5.084,1.198,10.246,1.801,15.248c-0.484-1.166-0.935-2.324-1.32-3.504c-1.922-5.896-4.068-11.146-6.559-16.058
				c-2.435-4.799-4.81-8.942-7.265-12.66c-0.721-1.092-1.377-2.227-2.063-3.426c-0.465-0.812-0.949-1.649-1.457-2.477
				c-0.66-1.076-1.389-1.765-2.226-2.103c-1.146-0.469-2.614-0.448-3.623,0.08c-1.114,0.582-1.604,1.875-1.413,3.736
				C252.514,178.291,252.694,179.719,252.867,181.096z"/>
			<path fill="#B11478" d="M225.708,308.846l-0.063-0.69c-0.022-0.224-0.022-0.488-0.026-0.767
				c-0.004-0.512-0.006-1.094-0.124-1.705c-0.516-2.707-1.092-5.438-1.65-8.073l-0.06-0.281c-0.042-0.211-0.05-0.312-0.052-0.363
				c0.023-0.033,0.069-0.078,0.155-0.152c1.141-0.977,1.628-2.461,1.242-3.766c-0.346-1.164-1.319-1.988-2.55-2.17
				c-0.024-0.121-0.046-0.258-0.066-0.371l-0.014-0.078c-0.24-1.414-0.486-2.824-0.731-4.233c-0.702-4.035-1.429-8.203-2.019-12.312
				c-0.748-5.211-2.12-10.242-3.442-15.115l-0.489-1.799c-0.145-0.537-0.37-1.227-0.836-1.865c-0.542-0.727-1.576-1.604-3.437-1.604
				c-0.312,0-0.638,0.022-0.994,0.074c-2.126,0.295-2.664,2.09-2.868,2.762c-0.021,0.074-0.042,0.152-0.069,0.227
				c-0.084,0.25-0.16,0.509-0.234,0.763c-0.12,0.405-0.229,0.789-0.376,1.094c-0.112,0.234-0.286,0.512-0.472,0.805
				c-0.338,0.531-0.72,1.136-0.96,1.867c-0.232,0.711-0.28,1.379-0.318,1.961c-0.023,0.359-0.046,0.699-0.114,0.945
				c-0.571,2.127-1.21,4.295-1.827,6.395c-1.267,4.3-2.574,8.746-3.438,13.232c-0.49,2.559-1.25,5.193-1.979,7.733
				c-0.25,0.878-0.503,1.746-0.746,2.623c-0.582,2.099-1.185,4.195-1.784,6.291c-1.185,4.13-2.406,8.402-3.46,12.638
				c-0.588,2.354-0.708,4.707-0.822,6.983c-0.022,0.418-0.042,0.84-0.066,1.259c-0.054,0.926,0.272,1.811,0.914,2.491
				c0.702,0.742,1.708,1.172,2.765,1.168c0.275,0,0.55-0.032,0.813-0.086c1.042-0.229,2.812-1.055,2.938-3.977
				c0.025-0.599,0.042-1.209,0.06-1.805c0.055-1.945,0.106-3.789,0.473-5.57c0.529-2.582,1.323-5.236,2.096-7.799
				c0.271-0.91,0.542-1.816,0.804-2.724c0.311-1.065,0.66-2.121,1.032-3.246c0.028-0.086,0.052-0.168,0.082-0.25
				c1.136-0.008,2.271,0.013,3.402,0.037c0.985,0.017,1.972,0.031,2.957,0.031c2.232,0,4.803-0.074,7.521-0.551
				c0.024,0.125,0.044,0.25,0.066,0.377c0.285,1.633,0.552,3.18,0.905,4.715c1.022,4.434,0.979,9.195,0.858,13.303
				c-0.019,0.574,0.11,1.185,0.366,1.771c0.708,1.623,2.233,2.668,3.882,2.668c0.462,0,0.914-0.082,1.344-0.246
				c2.604-0.975,2.306-3.635,2.198-4.639C226.2,314.174,225.95,311.463,225.708,308.846z M213.754,280.299
				c0.554,3.031,1.052,6.139,1.536,9.15c0.168,1.051,0.338,2.106,0.51,3.16c-2.17,0.364-4.487,0.536-7.151,0.536
				c-1.297,0-2.584-0.041-3.898-0.094l0.236-0.996c1.983-8.391,3.878-16.41,6.319-24.487
				C212.223,272.119,213.027,276.307,213.754,280.299z"/>
			<path fill="#B11478" d="M337.215,306.971l-0.207-0.096c-0.857-0.381-1.666-0.744-2.391-1.168
				c-0.168-0.103-0.349-0.199-0.527-0.295c-0.34-0.188-0.91-0.504-1.031-0.656l-0.238-0.41c-1.371-2.34-2.789-4.754-3.717-7.233
				l-0.076-0.207c-1.305-3.47-2.656-7.06-4.754-10.336c-1.125-1.759-2.502-2.978-4.199-3.73c-0.625-0.277-1.229-0.613-1.875-1
				c0.254-0.258,0.527-0.512,0.809-0.781c0.521-0.487,1.052-0.991,1.552-1.565c3.276-3.771,4.418-8.201,5.228-12.056
				c0.299-1.44,0.387-2.987,0.258-4.602c-0.18-2.18-0.492-4.461-0.941-6.777c-0.297-1.586-0.875-2.823-1.701-3.686
				c-1.705-1.771-3.727-3.426-6.193-5.057c-1.627-1.082-3.43-1.611-5.496-1.611c-0.983,0-2.032,0.123-3.198,0.365
				c-0.711,0.151-1.435,0.27-2.195,0.389c-0.465,0.078-0.93,0.152-1.379,0.234l-0.099,0.016c-0.438,0.066-1.25,0.193-1.846,0.887
				c-1.014,1.181-2.404,2.793-2.229,4.988c0.125,1.52,0.293,3.039,0.457,4.516c0.234,2.095,0.477,4.254,0.566,6.369
				c0.229,5.377,0.442,11.113,0.262,16.896c-0.152,5.073-0.758,10.258-1.324,14.655c-0.414,3.193-0.129,6.22,0.141,9.146
				c0.168,1.795,0.328,3.496,0.336,5.219c0.012,1.799,1.438,3.271,3.185,3.271c0.207,0,0.414-0.025,0.623-0.062
				c1.303-0.266,2.502-1.401,3.021-2.401c0.449-0.871,0.59-1.935,0.434-3.246c-0.098-0.812-0.241-1.599-0.381-2.355
				c-0.209-1.129-0.405-2.195-0.426-3.229c-0.063-3.382,0.014-6.859,0.088-10.226c0.021-0.914,0.043-1.828,0.056-2.746
				c0.004-0.186,0.018-0.377,0.032-0.569c0.156,0.012,0.312,0.016,0.472,0.016c0.534,0,1.012-0.07,1.455-0.211
				c0.854-0.285,1.646-0.414,2.416-0.414c1.665,0,3.256,0.66,5.002,2.078c1.799,1.461,2.815,3.623,3.573,5.537
				c0.332,0.848,0.652,1.694,0.976,2.539c0.979,2.594,1.992,5.274,3.353,7.832c1.422,2.692,3.621,5.95,8.03,7.315
				c0.109,0.047,0.375,0.285,0.548,0.441c0.062,0.051,0.125,0.11,0.186,0.16c0.006,0.012,0.014,0.024,0.018,0.037
				c0.184,0.284,0.52,0.815,1.164,1.155c0.74,0.386,1.438,0.59,2.068,0.59c0.377,0,0.738-0.069,1.074-0.215
				c1.242-0.53,1.979-2.164,1.865-3.301C339.953,310.557,339.703,308.084,337.215,306.971z M307.793,253.838
				c0.041-0.441,0.09-0.93,0.137-1.215c0.32-0.113,0.898-0.266,1.311-0.375c2.25-0.594,3.67-0.43,4.736,0.59
				c0.344,0.328,0.693,0.566,1,0.777c0.094,0.062,0.186,0.125,0.279,0.196c2.16,1.554,3.174,3.144,3.391,5.324
				c0.389,3.957,0.604,7.254-0.473,10.644c-0.549,1.746-1.455,3.442-2.83,5.328c-1.84,2.52-3.926,4.227-6.375,5.219
				c-0.137,0.059-0.285,0.108-0.434,0.16l-0.043-5.037c-0.048-5.236-0.103-10.656-0.191-15.982
				c-0.021-1.014-0.156-1.965-0.291-2.883c-0.074-0.496-0.139-0.965-0.191-1.426C307.766,254.615,307.756,254.201,307.793,253.838z"
				/>
			<path fill="#B11478" d="M236.99,221.117l0.065-0.013c0.595-0.053,1.19-0.118,1.786-0.184c1.103-0.119,2.152-0.232,3.193-0.293
				c0.078,0.926,0.15,1.852,0.223,2.779c0.109,1.42,0.226,2.891,0.363,4.342l0.074,0.832c0.156,1.713,0.318,3.481,0.68,5.25
				c0.738,3.633,3.293,3.914,4.058,3.914c0.264,0,0.536-0.025,0.81-0.078c3.102-0.588,3.221-3.562,3.016-5.275
				c-0.109-0.916-0.225-1.83-0.342-2.746c-0.33-2.618-0.672-5.319-0.828-7.95c-0.289-4.875-1.08-9.843-2.428-15.183
				c-0.779-3.092-1.726-6.34-2.976-10.223c-0.634-1.963-1.517-4.535-2.707-6.975l-0.185-0.378c-1.76-3.594-3.418-6.989-4.077-10.707
				c-0.518-2.909-2.312-3.725-3.73-3.896c-0.192-0.023-0.383-0.035-0.568-0.035c-2.692,0-3.636,2.269-3.95,3.014
				c-2.704,6.478-4.779,12-6.124,17.884c-1.006,4.401-1.735,8.903-2.441,13.256c-0.187,1.143-0.372,2.287-0.561,3.424
				c-0.273,1.637-0.492,3.289-0.704,4.885c-0.222,1.679-0.454,3.416-0.741,5.086c-0.282,1.638-0.639,3.312-0.982,4.931
				c-0.343,1.618-0.698,3.289-0.992,4.963c-0.37,2.123-0.51,4.283-0.612,6.145c-0.062,1.183,0.314,2.269,1.062,3.056
				c0.682,0.721,1.598,1.114,2.584,1.114c0.626,0,1.266-0.168,1.848-0.487c1.188-0.66,1.834-1.966,2.04-2.97
				c0.146-0.713,0.21-1.393,0.276-2.045c0.044-0.481,0.09-0.938,0.164-1.356c0.836-4.773,1.708-9.621,2.562-14.338
				c0.492,0.038,0.998,0.059,1.506,0.045c0.584-0.017,1.166-0.045,1.75-0.076c0.792-0.043,1.54-0.078,2.278-0.078
				c1.194,0,2.136,0.107,2.968,0.336C235.925,221.246,236.646,221.178,236.99,221.117z M238.18,212.453
				c-1.3,0.063-2.777,0.139-4.272,0.647c-1.557,0.535-3.431,0.58-5.414,0.629c-0.141,0.003-0.28,0.007-0.42,0.011
				c0.142-2.386,0.777-6.834,2.166-12.955c1-4.396,2.109-8.416,3.122-11.383c3.172,6.797,5.61,14.305,7.391,22.77
				C240,212.363,239.153,212.408,238.18,212.453z"/>
			<path fill="#B11478" d="M192.24,240.24c0.048-1.732,0.074-3.486,0.094-5.181c0.024-1.812,0.046-3.688,0.106-5.516
				c0.067-2.088,0.161-4.211,0.252-6.27c0.102-2.32,0.208-4.712,0.279-7.084c0.17-0.033,0.34-0.072,0.511-0.111
				c0.25-0.06,0.483-0.113,0.642-0.129c3.312-0.318,7.126-0.687,10.9-1.01c0.031,0.881,0.046,1.721-0.013,2.512
				c-0.124,1.666-0.312,3.379-0.494,5.039c-0.138,1.278-0.285,2.602-0.403,3.918c-0.402,4.502-0.74,8.889-1.019,12.588
				c-0.044,0.623,0.064,1.143,0.146,1.521c0.018,0.088,0.042,0.177,0.05,0.257c0.126,2.231,1.688,3.731,3.968,3.829
				c0.074,0.005,0.146,0.005,0.218,0.005c2.175,0,3.753-1.423,4.017-3.625c0.067-0.574,0.06-1.107,0.052-1.572
				c-0.002-0.183-0.006-0.369-0.006-0.549c0.018-0.927,0.021-1.853,0.026-2.777c0.01-2.115,0.018-4.111,0.157-6.115
				c0.118-1.701,0.32-3.451,0.517-5.141c0.258-2.23,0.523-4.537,0.62-6.854c0.226-5.489,0.312-11.062,0.394-16.455
				c0.028-1.754,0.054-3.508,0.086-5.264c0.061-3.328,0.078-6.303,0.052-9.092c-0.006-0.75-0.067-1.465-0.128-2.156
				c-0.062-0.701-0.12-1.363-0.109-1.979c0.006-0.127,0.136-0.496,0.218-0.738c0.096-0.266,0.186-0.527,0.258-0.783l0.252-0.897
				l-0.41-0.839c-0.065-0.133-0.142-0.274-0.222-0.42c-0.056-0.102-0.14-0.256-0.152-0.28c-0.036-0.138-0.063-0.354-0.092-0.582
				c-0.048-0.377-0.105-0.836-0.248-1.328c-0.748-2.613-2.806-2.814-3.42-2.814c-0.607,0-1.22,0.146-1.876,0.449l-1.26,0.576
				l-0.148,1.379c-0.044,0.412-0.104,0.834-0.162,1.264c-0.142,1.039-0.3,2.213-0.313,3.416c-0.024,2.189,0.012,4.402,0.042,6.541
				c0.023,1.338,0.042,2.676,0.05,4.015c0.008,1.215-0.018,2.471-0.042,3.688c-0.012,0.572-0.024,1.146-0.032,1.715
				c-0.014,0.898-0.023,1.799-0.033,2.701c-0.026,2.07-0.049,4.209-0.12,6.301c-0.021,0.588-0.168,0.769-0.168,0.769
				s-0.038,0.021-0.131,0.033c-2.178,0.271-4.354,0.547-6.529,0.823c-1.69,0.213-3.378,0.431-5.07,0.644
				c0.032-0.57,0.058-1.142,0.09-1.709c0.17-3.369,0.349-6.855,0.618-10.258c0.262-3.328,0.645-6.722,1.014-10.005
				c0.093-0.821,0.185-1.643,0.276-2.463c0.23-2.071-0.548-3.78-2.378-5.221l-2.3-1.812l-1.372,2.586
				c-0.086,0.162-0.183,0.311-0.271,0.455c-0.325,0.52-0.728,1.163-0.865,2.032c-0.11,0.705-0.221,1.408-0.334,2.113
				c-0.511,3.215-1.036,6.541-1.366,9.865c-0.318,3.211-0.521,6.465-0.714,9.617c-0.103,1.643-0.204,3.284-0.322,4.924
				c-0.103,1.42-0.218,2.84-0.338,4.26c-0.2,2.395-0.404,4.875-0.53,7.334c-0.21,4.207-0.372,8.475-0.526,12.604
				c-0.084,2.239-0.168,4.479-0.26,6.717c-0.116,2.733,1.566,4.75,4.094,4.905c0.101,0.005,0.198,0.009,0.292,0.009
				C191.124,244.6,192.172,242.346,192.24,240.24z M207.483,242.154L207.483,242.154v0.004V242.154z"/>
			<path fill="#B11478" d="M158.771,249.373c1.149,0.473,2.166,0.705,3.107,0.705c3.304,0,4.851-2.824,5.358-3.75
				c0.294-0.547,0.59-1.09,0.88-1.642c0.775-1.44,1.506-2.807,2.324-4.12c1.651-2.648,2.565-5.476,3.454-8.209
				c0.132-0.414,0.268-0.826,0.403-1.238c0.51-1.541,0.616-3.146,0.65-4.646c0.038-1.438-0.938-3.062-2.216-3.705
				c-0.471-0.235-0.965-0.354-1.465-0.354c-1.34,0-2.418,0.789-3.207,2.346c-0.881,1.738-1.335,3.5-1.772,5.209
				c-0.83,3.248-2.53,6.176-4.324,9.277c-0.485,0.84-0.988,1.705-1.47,2.58c-2.148-1.687-3.32-3.443-3.688-5.521
				c-1.046-5.899-1.29-10.729-0.754-15.201c0.368-3.086,0.723-6.174,1.08-9.262c0.254-2.207,0.508-4.414,0.767-6.621
				c0.035-0.301,0.067-0.604,0.1-0.903c0.108-0.992,0.208-1.931,0.404-2.808c0.836-3.774,1.75-7.819,2.76-11.815
				c0.678-2.679,2.02-5.291,4.348-8.47c0.389-0.532,1.303-0.887,2.274-0.887c0.826,0,1.846,0.271,2.228,1.027
				c0.274,0.543,0.553,1.074,0.83,1.61c1.353,2.597,2.63,5.045,3.124,7.761l0.019,0.098c0.271,1.51,0.682,3.793,2.868,5.391
				l1.655,1.207l1.614-1.549c1.446-1.385,2.18-2.215,1.738-4.518c-0.064-0.34-0.126-0.681-0.192-1.021
				c-0.729-3.897-1.484-7.928-4.315-11.418c-0.032-0.047-0.104-0.192-0.156-0.301c-0.108-0.217-0.244-0.492-0.426-0.779
				c-1.202-1.881-3.227-4.426-6.916-4.795c-0.708-0.067-1.36-0.104-1.996-0.104c-2.055,0-3.845,0.369-5.462,1.125
				c-0.794,0.369-2.271,1.194-3.236,2.569c-2.54,3.613-4.324,7.041-5.458,10.479c-0.582,1.768-1.114,3.688-1.624,5.877l-0.322,1.363
				c-0.59,2.483-1.2,5.053-1.59,7.664c-0.318,2.127-0.506,4.272-0.688,6.346c-0.116,1.311-0.234,2.666-0.383,3.979
				c-0.122,1.07-0.281,2.127-0.454,3.246c-0.247,1.619-0.502,3.291-0.624,4.994c-0.445,6.215-0.096,11.914,1.068,17.418
				C150.21,243.365,153.475,247.193,158.771,249.373z"/>
			<path fill="#B11478" d="M360.9,257.396c-0.041-0.312-0.074-0.622-0.105-0.934l-0.209-2.242l-0.068,0.017
				c-0.042-0.246-0.096-0.5-0.165-0.75c-0.123-0.451-0.235-0.902-0.349-1.355c-0.424-1.729-0.905-3.697-2.209-5.414
				c-1.754-2.312-4.098-4.106-6.955-5.328c-1.282-0.547-2.475-0.812-3.649-0.812c-1.828,0-3.512,0.656-5.01,1.955
				c-0.443,0.387-0.877,0.783-1.318,1.176c-0.672,0.604-1.305,1.174-1.963,1.719c-2.562,2.129-4.26,4.763-5.041,7.836
				c-0.336,1.312-0.647,2.556-1.116,3.734c-1.828,4.627-2.023,9.277-0.574,13.815c0.567,1.777,1.305,3.621,2.852,5.066
				c0.717,0.672,1.463,1.307,2.188,1.922c0.676,0.578,1.316,1.123,1.938,1.699c0.291,0.27,0.586,0.539,0.879,0.801
				c0.979,0.875,1.899,1.699,2.55,2.613c2.346,3.309,4.012,7.07,4.959,11.184l0.041,0.177l0.067,0.168
				c0.069,0.155,0.142,0.315,0.211,0.479c0.621,1.379,0.914,2.152,0.34,3.312l-0.104,0.198l-0.051,0.25
				c-0.146,0.377-1.271,1.103-2.16,1.185c-0.459,0.043-0.857,0.062-1.209,0.062c-1.582,0-2.303-0.324-3.467-2.237
				c-1.035-1.703-4.22-7.423-5.207-9.259c-0.729-1.354-1.75-2.039-3.031-2.039c-0.435,0-0.877,0.082-1.328,0.25
				c-2.008,0.75-2.949,2.771-2.23,4.8c0.271,0.778,0.592,1.418,0.977,1.979c0.377,0.547,1.099,1.685,1.857,2.891
				c1.441,2.281,3.072,4.867,3.928,5.906c0.777,0.949,1.859,2.113,3.328,2.754c2.18,0.938,4.633,1.414,7.293,1.414
				c0.918,0,1.881-0.055,2.867-0.168c2.723-0.312,3.793-2.059,4.354-3.344c1.421-3.238,1.604-6.648,0.566-10.424
				c-0.775-2.812-1.873-5.426-3.115-8.303c-1.969-4.562-4.475-7.705-7.883-9.873c-0.535-0.341-2.158-1.377-3.543-3.328
				c-1.768-2.482-2.312-5.295-1.623-8.353c0.611-2.709,1.451-5.483,2.26-8.168l0.312-1.039c0.148-0.496,0.434-1.008,0.734-1.332
				c1.234-1.315,2.719-2.854,4.359-4.237c0.579-0.492,1.153-0.742,1.707-0.742c0.348,0,0.717,0.094,1.104,0.285
				c2.622,1.293,4.146,3.078,4.647,5.461c0.309,1.463,0.521,2.944,0.742,4.512c0.109,0.766,0.215,1.531,0.336,2.293l0.035,0.213
				c0.059,0.438,0.145,1.033,0.43,1.619l0.055,0.113c0.234,0.504,0.955,2.041,2.699,2.041c0.445,0,0.896-0.113,1.336-0.328
				c1.168-0.572,1.898-2.064,1.932-3.188C361.109,259.15,361.002,258.26,360.9,257.396z"/>
			<path fill="#B11478" d="M302.91,233.578c5.895-0.517,10.338-2.224,13.977-5.369c2.137-1.844,3.445-4.062,4-6.789
				c0.895-4.396,0.395-8.666-0.086-12.791l-0.125-1.059c-0.273-2.388-1.77-3.812-4.002-3.812c-0.342,0-0.701,0.035-1.096,0.103
				c-1.293,0.225-2.578,0.491-3.82,0.752c-0.531,0.114-1.062,0.223-1.596,0.33l-2.709,0.549l0.008,0.018
				c-0.549,0.111-1.103,0.228-1.648,0.344l-0.211,0.046c-0.629,0.129-1.416,0.295-2.188,0.688c-1.064,0.543-2.113,1.918-1.957,3.414
				c0.151,1.398,1.414,2.738,2.805,2.988c1.094,0.194,2.166,0.211,3.125,0.049c1.234-0.207,2.463-0.453,3.656-0.691
				c0.723-0.146,1.465-0.291,2.209-0.432c0.307,2.684,0.459,5.49-0.115,8.182c-0.207,0.98-0.707,1.793-1.668,2.715
				c-2.043,1.955-4.594,2.642-7.977,3.398c-0.125,0.029-0.238,0.041-0.336,0.041c-0.156,0-0.392,0-0.707-0.602
				c-0.337-0.636-0.646-1.293-0.97-1.99c-0.459-0.978-0.931-1.984-1.504-2.974c-2.545-4.385-2.64-9.416-2.363-14.194
				c0.39-6.644,1.459-13.326,2.457-18.988c0.724-4.094,2.462-8.152,5.179-12.061c0.494-0.709,1.119-1.089,1.803-1.089
				c0.395,0,0.801,0.125,1.168,0.357c0.191,0.121,0.406,0.289,0.635,0.461c0.264,0.203,0.559,0.43,0.883,0.646l0.205,0.135
				c0.512,0.35,1.211,0.826,2.125,1.016c0.242,0.051,0.504,0.078,0.773,0.078c1.094,0,2.496-0.436,3.158-1.652
				c0.598-1.104,0.446-2.278,0.342-3.094c-0.129-1.022-0.762-1.629-1.066-1.922l-0.051-0.051c-1.445-1.672-3.381-2.816-5.758-3.402
				c-1.066-0.264-2.043-0.393-2.98-0.393c-2.707,0-4.971,1.084-6.738,3.217c-2.592,3.121-4.512,6.615-5.707,10.383
				c-1.391,4.383-2.459,9.242-3.254,14.853c-0.867,6.065-1.168,11.711-0.93,17.262l0.016,0.33c0.062,1.436,0.129,3.061,0.623,4.629
				c1.156,3.682,2.664,7.959,5.088,11.774c0.875,1.38,2.935,4.619,6.75,4.617C302.516,233.602,302.711,233.594,302.91,233.578z"/>
			<path fill="#B11478" d="M275.543,255.533l4.555-0.185c3.285-0.123,6.566-0.258,9.879-0.397c0.566-0.023,1.514-0.058,2.291-0.65
				c0.477-0.369,1.596-1.356,1.662-2.711c0.062-1.391-0.977-2.594-1.988-3.016c-0.756-0.32-1.707-0.422-2.781-0.306
				c-0.645,0.07-1.27,0.181-1.871,0.291c-0.742,0.123-1.449,0.255-2.104,0.285c-2.785,0.138-5.625,0.224-8.375,0.31
				c-1.113,0.035-2.224,0.065-3.34,0.104c-0.104,0.004-0.207,0.004-0.31,0.004c-0.332,0-0.744,0.004-1.195,0.078
				c-1.979,0.336-2.981,1.488-3.061,3.517c-0.17,4.454-0.361,9.041-0.58,14.024c-0.203,4.553-0.434,9.713,0.502,14.754
				c0.336,1.804,0.451,3.672,0.57,5.646l0.01,0.155c0.168,2.688,0.172,5.474,0.178,8.169c0.008,4.5,0.019,9.155,0.76,13.719
				c0.482,2.973,1.962,4.242,4.941,4.242c0.121,0,0.238,0,0.363-0.005h0.055c0.135,0,0.271,0.009,0.402,0.017
				c0.154,0.008,0.311,0.016,0.471,0.02c0.322,0.009,0.643,0.009,0.959,0.009c4.459,0,9.029-0.587,13.574-1.746
				c0.914-0.229,2.332-1.152,2.637-2.472c0.271-1.164-0.146-2.555-1.018-3.383c-0.596-0.562-1.287-0.854-1.842-1.094
				c-0.154-0.066-0.311-0.133-0.457-0.205l-0.916-0.459l-0.908,0.477c-0.363,0.191-0.703,0.394-1,0.574
				c-0.457,0.277-0.926,0.562-1.227,0.627c-2.586,0.582-4.824,0.869-6.853,0.869c-0.672,0-1.332-0.033-1.979-0.096
				c-0.793-4.041-0.91-8.336-1.017-12.127c-0.077-2.791-0.291-5.59-0.495-8.297c-0.05-0.688-0.105-1.375-0.152-2.058
				c-0.098-1.332-0.229-2.645-0.373-4.037c-0.002-0.012-0.002-0.026-0.004-0.039c1.182-0.186,2.572-0.465,4.084-0.774
				c2.602-0.527,5.547-1.123,7.219-1.123c0.369,0,0.551,0.031,0.617,0.041l1.102,0.238l0.773-0.816
				c0.051-0.053,0.111-0.109,0.168-0.162c0.213-0.209,0.516-0.496,0.77-0.891c1.086-1.697,0.832-2.931,0.43-3.668
				c-0.414-0.758-1.342-1.672-3.473-1.582c-1.033,0.041-8.609,1.569-8.684,1.586c-0.566,0.117-1.111,0.262-1.641,0.397
				c-0.611,0.164-1.203,0.318-1.773,0.418c0.125-5.532,0.262-11.065,0.396-16.625L275.543,255.533z"/>
			<path fill="#B11478" d="M324.125,182.832c0.207,2.664,0.43,5.418,0.594,8.117c0.439,7.137,0.779,13.578,1.041,19.69
				c0.127,2.939,0.178,5.947,0.229,8.857c0.025,1.51,0.051,3.021,0.088,4.533c0.115,4.774,3.389,5.143,4.389,5.143
				c0.707,0,1.472-0.141,2.345-0.432c2.104-0.707,3.879-1.197,5.711-1.316c1.938-0.123,3.836-0.428,5.672-0.723
				c0.74-0.117,1.479-0.234,2.226-0.344c2.168-0.31,3.549-1.962,3.442-4.111c-0.104-1.973-1.545-3.363-3.692-3.545
				c-0.656-0.049-1.303,0.051-1.779,0.131l-0.254,0.041c-2.953,0.465-5.898,0.934-8.844,1.396l-1.373,0.22
				c-0.545-4.918-1.15-16.894-1.068-21.388c1.648-0.159,3.375-0.315,5.062-0.418c3.391-0.203,4.159-2.389,4.332-3.328l0.03-0.165
				c0.149-0.769,0.461-2.365-0.642-3.703c-0.762-0.922-1.93-1.394-3.469-1.394c-0.082,0-0.168,0-0.256,0.004l-0.279,0.008
				l-0.272,0.072c-0.95,0.25-1.707,0.455-2.271,0.943l-2.75,0.43c-0.09-0.93-0.176-1.813-0.265-2.701
				c-0.059-0.6-0.125-1.198-0.188-1.795c-0.118-1.119-0.237-2.272-0.327-3.391l-0.048-0.596c-0.18-2.255-0.366-4.586-0.452-6.854
				c-0.013-0.387,0-0.625,0.016-0.764c0.142-0.054,0.398-0.142,0.853-0.25c0.688-0.162,1.277-0.252,1.812-0.271
				c0.875-0.033,1.748-0.041,2.673-0.045c0.836-0.006,1.702-0.018,2.565-0.043c1.478-0.047,3.987-0.565,4.229-3.465
				c0.139-1.678-0.692-3.682-3.445-4.281c-0.528-0.115-1.233-0.248-2-0.248c-0.215,0-0.43,0.011-0.637,0.035
				c-1.613,0.17-3.311,0.394-5.516,0.729c-1.781,0.274-3.514,0.594-4.82,0.844c-1.984,0.377-3.227,1.928-3.172,3.943
				c0.016,0.506,0.008,1.024-0.004,1.577c-0.018,0.808-0.033,1.646,0.027,2.521C323.793,178.607,323.961,180.754,324.125,182.832z"
				/>
		</g>
		<path fill="#F5902C" d="M63.782,236.246c59.672-31.287,115.735-73.9,167.51-117.416c-13.806-13.414-27.905-27.057-42.947-39.822
			c-6.88,1.984-5.968,7.312-9.576,12.148c-3.424-0.285-16.729-5.732-18.796-5.111c-4.046,22.949-25.189,27.617-47.756,21.406
			c2.05,7.404,0.91,16.75,2.834,23.551c-8.096-1.672-30.512,4.363-38.706,2.387c13.061,30.484-7.62,41.765-34.62,32.152
			c-0.916,2.813,5.856,10.813,7.299,13.232c0.554-0.023-22.175,5.678-21.893,5.538c6.426,5.539,6.662,11.232,7.552,19.039"/>
		<path fill="#B11478" d="M252.328,133.594c-0.121-11.334-34.25-51.266-42.515-58.369c-10.383-8.969-7.104-14.518-17.822-19.707
			c-1.486,1.082-2.97,2.162-4.456,3.242c1.084,12.838,1.542,26.203,2.78,39.244c-0.786,0.568-1.528,1.107-2.227,1.625
			c-6.906-6.02-27.355-18.504-35.726-13.541c0.742,11.066,2.819,21.543,5.689,33.711c-2.521,0.699-1.252,0.533-3.067,0.463
			c-10.384-3.16-21.545-15.979-33.526-8.26c0.934,6.83,6.298,24.246,3.184,30.359c-9.266-3.97-29.363-12.683-39.911-5.25
			c1.508,6.662,6.701,31.459,4.233,36.477c-7.198-5.547-34.552-13.828-43.52-7.863c0.407,1.341,0.84,2.793,1.306,4.218
			c0.534,6.366,12.448,17.434,10.22,23.473c-0.271-0.377-0.544-0.744-0.842-1.154c-12.124,3.021-15.616-11.91-29.414-2.615
			c-0.069,0.683-0.204,1.283-0.273,1.962c13.945,18.801,21.243,36.01,31.981,55.696c1-0.096,2.026-0.336,3.101-0.422
			c13.708,0.105,25.571-17.559,36.422-23.188c42.302-21.789,84.685-61.045,120.458-70.574
			C227.275,150.83,252.883,141.9,252.328,133.594z M225.882,137.402c0.74-0.545,1.526-1.117,2.227-1.625
			C227.16,138.361,228.355,138.629,225.882,137.402z M236.255,128.08c-0.372,0.268-0.744,0.541-1.114,0.812
			c-11.736-2.436-40.249,20.791-55.134,28.164c-27.579,13.845-52.144,37.29-80.436,50.073c-10.09,4.512-24.09,20.193-34.792,25.338
			c-1.648-2.268-3.334-4.574-4.956-6.799c-0.676-5.693-11.814-16.826-14.066-24.078c0.742-0.539,1.484-1.084,2.227-1.621
			c8.235,2.642,16.441,5.25,24.678,7.892c1.439-2.183,0.892-1.025,1.426-2.804c1.996-2.717,1.632-2.959,2.772-5.551
			c-6.376-4.252-13.376-14.988-15.99-24.375c13.168,0.059,28.808,16.428,42.404,8.67c-1.479-10.088-10.11-30.686-4.771-39.553
			c9.626,4.473,29.162,16.047,40.148,10.252c-1.519-10.312-4.599-21.383-5.933-31.703c0.744-0.543,1.486-1.082,2.271-1.65
			c6.418,5.607,27.764,18.197,35.642,13.597c0.494-1.748,0.028-0.656,1.456-2.765c-5.546-11.609-6.678-22.076-8.755-33.244
			c0.786-0.57,1.484-1.082,2.268-1.652c6.173,5.531,28.797,20.916,36.211,16.711c-1.545-11.301-6.019-27.662-1.996-38.168
			c3.542,4.871,7.086,9.729,10.661,14.635C217.833,93.168,230.292,119.109,236.255,128.08z"/>
	</g>
</g>
</svg>
