<?xml version="1.0" encoding="utf-8"?>
<!-- Generator: Adobe Illustrator 16.0.0, SVG Export Plug-In . SVG Version: 6.00 Build 0)  -->
<!DOCTYPE svg PUBLIC "-//W3C//DTD SVG 1.1//EN" "http://www.w3.org/Graphics/SVG/1.1/DTD/svg11.dtd">
<svg version="1.1" id="Layer_1" xmlns="http://www.w3.org/2000/svg" xmlns:xlink="http://www.w3.org/1999/xlink" x="0px" y="0px"
	 width="220px" height="220px" viewBox="0 0 220 220" enable-background="new 0 0 220 220" xml:space="preserve">
<g id="empower">
</g>
<g id="connect">
	<g>
		<path fill="#B11478" d="M152.458,50.18c12.696,9.414,20.401,21.248,25.46,35.059c8.725,23.828,6.98,52.147-9.262,74.055
			c-9.623,12.976-24.086,21.416-38.256,26.408c-11.228,3.952-21.847,7.024-33.542,4.608c-12.382-2.559-25.97-6.408-37.316-14.82
			c-14.451-10.715-20.958-26.727-28.637-41.553c-5.248-10.133-3.768-23.061-1.74-34.626c2.027-11.57,6.707-22.855,14.18-32.934
			C56.926,48.062,78.477,40.5,99.113,35.936C115.494,32.312,136.17,38.102,152.458,50.18z"/>
		<g id="right_hand">
			<path fill="#2E2230" stroke="#2E2230" stroke-width="2" stroke-miterlimit="10" d="M147.789,160.072
				c-6.352,0-13.827-0.471-18.887-1.991c-3.498-0.417-7.418-2.712-10.062-5.908c-2.285-2.764-3.458-5.919-3.427-9.19
				c-4.501-4.978-5.956-11.31-4.33-18.854c-4.766-7.447-2.608-14.739-1.3-17.802c-1.772-8.392,0.071-16.964,4.256-19.563
				c3.581-2.771,9.723-2.675,15.716-2.335c0.374,0.021,0.783,0.045,1.163,0.062c0.484-1.087,1.307-2.396,2.682-3.425
				c0.258-0.193,0.551-0.335,0.862-0.417c5.118-1.341,28.521-2.73,33.199,3.562c5.642,7.821,8.057,15.021,9.819,20.276
				c1.259,3.75,2.262,6.74,3.84,8.384c2.014,0.697,11.297,0.757,18.994,0.402c1.353-0.067,2.549,1.002,2.612,2.383
				c0.063,1.38-1.003,2.549-2.382,2.611c-19.85,0.912-21.771-0.91-22.494-1.599c-2.582-2.457-3.785-6.047-5.312-10.592
				c-1.754-5.229-3.938-11.736-9.112-18.914c-1.576-2.12-18.347-3.932-27.356-1.813c-0.84,0.841-1.064,2.016-1.067,2.028
				c-0.171,0.922-0.851,1.704-1.748,1.973c-0.796,0.237-1.736,0.196-3.983,0.068c-3.268-0.185-10.076-0.572-12.43,1.343
				c-0.105,0.088-0.223,0.166-0.342,0.234c-1.7,0.968-3.698,7.402-1.861,15.013c0.137,0.567,0.07,1.165-0.188,1.688
				c-0.883,1.799-3.409,8.157,1.144,14.468c0.433,0.599,0.577,1.356,0.397,2.071c-1.69,6.729-0.533,11.974,3.537,16.027
				c0.531,0.529,0.797,1.27,0.725,2.016c-0.289,2.955,1.059,5.277,2.238,6.705c2.158,2.608,5.11,3.978,6.939,4.146
				c0.176,0.017,0.35,0.05,0.518,0.103c7.646,2.389,22.945,2.021,27.791,1.345c2.66-0.374,5.129-1.72,7.519-3.021
				c2.827-1.541,5.494-2.994,8.284-2.604c3.062,0.434,17.271,0.765,22.486,0.855c1.381,0.023,2.479,1.162,2.457,2.543
				c-0.024,1.365-1.14,2.457-2.5,2.457c-0.015,0-0.028,0-0.045,0c-0.777-0.015-19.105-0.341-23.101-0.904
				c-1.127-0.17-3.201,0.957-5.19,2.041c-2.65,1.445-5.656,3.082-9.215,3.582C156.62,159.812,152.518,160.072,147.789,160.072z"/>
			<g>
				<path fill="#2E2230" d="M112.402,107.826c-1.021,0-1.894-0.777-1.99-1.813c-0.103-1.1,0.706-2.075,1.805-2.178l16.002-1.497
					c1.11-0.107,2.075,0.706,2.178,1.805c0.104,1.1-0.705,2.075-1.805,2.178l-16.002,1.497
					C112.527,107.823,112.464,107.826,112.402,107.826z"/>
				<path fill="#2E2230" d="M128.023,157.143l-0.067-4c5.679-0.1,15.64-1.244,18.19-3.894c1.142-1.185,1.701-2.55,1.664-4.056
					c-0.049-1.95-1.062-3.644-1.785-4.377c-2.162-1.254-15.987,0.609-27.629,3.172l-0.859-3.905
					c8.012-1.765,27.072-5.526,31.025-2.366l0.121,0.105c1.392,1.31,3.045,4,3.125,7.271c0.063,2.577-0.897,4.975-2.781,6.93
					C144.498,156.727,129.697,157.113,128.023,157.143z"/>
				<path fill="#2E2230" d="M146.95,140.718l-1.425-3.737c2.566-0.979,3.351-3.313,3.555-5.101c0.361-3.163-0.905-6.793-2.832-8.138
					c-2.446-0.758-18.189,0.576-32.166,2.322l-0.496-3.969c20.798-2.6,32.516-3.173,34.841-1.707l0.003-0.002
					c3.225,2.17,5.17,7.193,4.625,11.947C152.594,136.359,150.369,139.415,146.95,140.718z"/>
				<path fill="#2E2230" d="M150.066,123.689l-2.282-3.285c3.124-2.172,2.187-11.164,1.114-14.974
					c-1.121,6.069-3.478,10.118-7.021,12.054c-4.261,2.324-8.661,0.687-9.698,0.234c-1.223-0.332-2.229-1.139-2.924-2.341
					c-0.646-1.121-3.535-7.792,3.189-29.026l3.812,1.207c-2.525,7.979-5.718,22.043-3.537,25.82c0.244,0.424,0.448,0.469,0.547,0.49
					l0.234,0.052l0.215,0.106c0.023,0.01,3.34,1.552,6.274-0.071c2.788-1.546,4.636-5.605,5.341-11.738l0.111-0.962l0.822-0.51
					c1.348-0.833,3.518-0.997,5.094,0.622c1.49,1.531,2.969,8.919,2.442,14.379C153.438,119.547,152.182,122.219,150.066,123.689z"
					/>
			</g>
		</g>
		<g id="left_hand">
			<path fill="#2E2230" stroke="#2E2230" stroke-width="2" stroke-miterlimit="10" d="M72.211,160.072
				c-4.728,0-8.831-0.262-10.848-0.545c-3.559-0.5-6.563-2.137-9.214-3.58c-1.989-1.084-4.067-2.209-5.192-2.043
				c-0.635,0.091-1.667,0.291-2.861,0.522c-8.666,1.685-17.485,3.062-21.77-0.108c-1.11-0.82-1.345-2.387-0.523-3.495
				c0.821-1.111,2.387-1.347,3.496-0.523c2.879,2.13,13.75,0.017,17.843-0.78c1.314-0.256,2.353-0.457,3.114-0.564
				c2.781-0.391,5.457,1.062,8.286,2.604c2.388,1.301,7.424,2.277,10.083,2.651c4.846,0.681,17.579,1.411,25.224-0.976
				c0.168-0.053,0.342-0.088,0.518-0.104c1.829-0.168,4.781-1.535,6.939-4.146c1.181-1.428,2.528-3.75,2.239-6.705
				c-0.073-0.745,0.193-1.484,0.725-2.014c4.071-4.056,5.228-9.298,3.536-16.027c-0.18-0.717-0.034-1.475,0.397-2.072
				c4.554-6.309,2.027-12.669,1.145-14.468c-0.257-0.523-0.323-1.12-0.187-1.688c1.835-7.612-0.162-14.047-1.861-15.014
				c-0.12-0.068-0.234-0.146-0.342-0.234c-2.353-1.915-9.159-1.527-12.431-1.343c-2.242,0.127-3.187,0.169-3.982-0.068
				c-0.921-0.275-1.602-1.054-1.753-2.002l0,0c-0.001,0-0.229-1.163-1.062-1.999c-9.012-2.119-25.781-0.307-27.378,1.843
				c-5.156,7.149-7.34,13.656-9.094,18.886c-1.525,4.544-2.729,8.134-5.31,10.59c-1.615,1.535-4.529,1.224-9.362,0.707
				c-3.471-0.371-9.935-1.062-11.311,0.222c-1.008,0.945-2.591,0.889-3.533-0.119c-0.943-1.008-0.89-2.59,0.119-3.533
				c3.044-2.846,9.252-2.182,15.257-1.541c1.983,0.214,4.645,0.5,5.649,0.373c1.526-1.662,3.071-4.468,3.75-8.289
				c0.982-5.529,4.179-12.455,9.8-20.248c4.697-6.323,23.066-5.123,28.183-3.781c0.312,0.082,5.643,0.413,5.9,0.606
				c1.374,1.028,2.196,2.338,2.681,3.425c0.379-0.018,0.789-0.041,1.163-0.062c5.991-0.341,12.133-0.438,15.716,2.335
				c4.184,2.599,6.026,11.17,4.256,19.562c1.308,3.063,3.464,10.355-1.302,17.803c1.626,7.545,0.172,13.878-4.329,18.854
				c0.031,3.271-1.141,6.428-3.427,9.19c-2.644,3.196-6.563,5.491-10.062,5.908C86.039,159.602,78.561,160.072,72.211,160.072z"/>
			<g>
				<path fill="#2E2230" d="M107.598,107.826c1.021,0,1.893-0.777,1.989-1.813c0.103-1.1-0.705-2.075-1.805-2.178l-16.002-1.497
					c-1.11-0.107-2.075,0.706-2.178,1.805c-0.103,1.1,0.705,2.075,1.805,2.178l16.002,1.497
					C107.473,107.823,107.537,107.826,107.598,107.826z"/>
				<path fill="#2E2230" d="M91.976,157.143l0.068-4c-5.679-0.1-15.639-1.244-18.19-3.894c-1.142-1.185-1.701-2.55-1.664-4.056
					c0.048-1.95,1.062-3.644,1.784-4.377c2.163-1.254,15.988,0.609,27.63,3.172l0.859-3.905c-8.012-1.765-27.073-5.526-31.025-2.366
					l-0.121,0.105c-1.392,1.31-3.045,4-3.126,7.271c-0.063,2.577,0.898,4.975,2.782,6.93
					C75.502,156.727,90.303,157.113,91.976,157.143z"/>
				<path fill="#2E2230" d="M73.05,140.718l1.424-3.737c-2.566-0.979-3.35-3.313-3.554-5.101c-0.362-3.163,0.905-6.793,2.832-8.138
					c2.446-0.758,18.19,0.576,32.166,2.322l0.496-3.969c-20.798-2.6-32.515-3.173-34.841-1.707l-0.002-0.002
					c-3.225,2.17-5.17,7.193-4.626,11.947C67.407,136.359,69.631,139.415,73.05,140.718z"/>
				<path fill="#2E2230" d="M70.076,123.746l2.283-3.285c-3.124-2.172-2.186-11.164-1.115-14.974
					c1.122,6.07,3.478,10.119,7.021,12.054c4.261,2.325,8.661,0.688,9.699,0.234c1.222-0.332,2.229-1.139,2.923-2.34
					c0.646-1.121,3.535-7.792-3.189-29.026l-3.813,1.207c2.525,7.979,5.718,22.043,3.538,25.819
					c-0.245,0.424-0.449,0.469-0.548,0.49l-0.234,0.053l-0.215,0.105c-0.023,0.01-3.34,1.553-6.274-0.07
					c-2.789-1.547-4.636-5.605-5.341-11.739l-0.111-0.962l-0.823-0.51c-1.347-0.833-3.517-0.997-5.094,0.622
					c-1.489,1.531-2.968,8.919-2.442,14.38C66.705,119.604,67.961,122.275,70.076,123.746z"/>
			</g>
		</g>
		<g>
			<path fill="#2FC872" d="M90,70.334c-4.5-8-10-17-17-23"/>
			<g>
				<path fill="#2E2230" d="M92.59,68.82c-4.831-8.539-10.074-17.032-17.469-23.607c-2.88-2.562-7.14,1.667-4.242,4.242
					c7.036,6.256,11.936,14.271,16.531,22.393C89.314,75.215,94.498,72.192,92.59,68.82L92.59,68.82z"/>
			</g>
		</g>
		<g>
			<path fill="#2FC872" d="M105.5,56.334c1-9.5-2-18.5-2-27.5"/>
			<g>
				<path fill="#2E2230" d="M108.5,56.334c0.729-9.279-1.805-18.261-2-27.5c-0.082-3.863-6.082-3.872-6,0
					c0.194,9.234,2.729,18.228,2,27.5C102.197,60.194,108.199,60.165,108.5,56.334L108.5,56.334z"/>
			</g>
		</g>
		<g>
			<path fill="#2FC872" d="M121,58.334c3.5-6,7-11.5,10-17"/>
			<g>
				<path fill="#2E2230" d="M123.591,59.848c3.324-5.672,6.826-11.24,10-17c1.868-3.391-3.313-6.417-5.182-3.028
					c-3.173,5.76-6.675,11.328-10,17C116.448,60.165,121.637,63.183,123.591,59.848L123.591,59.848z"/>
			</g>
		</g>
	</g>
</g>
<g id="amplify">
</g>
</svg>
