<?xml version="1.0" encoding="utf-8"?>
<!-- Generator: Adobe Illustrator 16.0.0, SVG Export Plug-In . SVG Version: 6.00 Build 0)  -->
<!DOCTYPE svg PUBLIC "-//W3C//DTD SVG 1.1//EN" "http://www.w3.org/Graphics/SVG/1.1/DTD/svg11.dtd">
<svg version="1.1" xmlns="http://www.w3.org/2000/svg" xmlns:xlink="http://www.w3.org/1999/xlink" x="0px" y="0px" width="288px"
	 height="288px" viewBox="0 0 288 288" enable-background="new 0 0 288 288" xml:space="preserve">
<g id="empower">
</g>
<g id="connect">
	<g id="right">
		<g id="hand">
			<path fill="#2FC872" d="M150.934,99.696c-4.107,2.338-6.271,12.633-3.878,22.556c-2.431,4.95-4.057,13.602,1.727,21.614
				c-2.949,11.741,0.772,18.824,5.327,23.361c-0.937,9.577,8.362,16.675,14.518,17.236c10.472,3.27,30.589,2.67,36.654,1.819
				c7.985-1.121,14.236-7.835,19.168-7.137s28.927,1.118,28.927,1.118c5.291-18.431,5.824-26.098,5.387-46.37
				c0,0-23.841,1.099-26.214-1.159c-6.106-5.812-5.621-19.948-17.919-37.001c-4.344-5.846-31.395-5.283-38.78-3.345
				c-2.504,1.875-2.992,4.937-2.992,4.937C170.967,97.892,156.359,95.281,150.934,99.696z"/>
			<path fill="#2E2230" d="M191.94,189.454c-5.805,0-16.559-0.331-23.814-2.529c-4.288-0.489-9.12-3.315-12.387-7.263
				c-2.858-3.456-4.295-7.406-4.191-11.491c-5.75-6.236-7.583-14.233-5.454-23.802c-6.182-9.432-3.28-18.708-1.665-22.393
				c-2.227-10.318,0.029-21.235,5.082-24.343c2.684-2.092,6.919-3.067,13.298-3.067c2.284,0,4.468,0.124,6.223,0.223
				c0.729,0.042,1.394,0.079,1.951,0.101c0.544-1.364,1.551-3.141,3.369-4.502l0.391-0.293l0.473-0.124
				c3.3-0.866,9.761-1.426,16.46-1.426c9.456,0,21.463,0.988,24.962,5.697c7.094,9.837,10.017,18.547,12.364,25.546
				c1.65,4.919,2.961,8.826,5.134,11.001c0.484,0.188,2.918,0.872,12.661,0.872c6.037,0,11.794-0.262,11.852-0.265l2.56-0.118
				l0.055,2.562c0.449,20.816-0.149,28.533-5.482,47.114l-0.529,1.843l-1.918-0.034c-0.985-0.017-24.207-0.43-29.233-1.142
				c-0.127-0.018-0.257-0.026-0.388-0.026c-1.675,0-4.075,1.308-6.616,2.693c-3.314,1.806-7.07,3.853-11.466,4.47
				C202.617,189.181,197.245,189.454,191.94,189.454z M162.809,99.566c-5.146,0-8.609,0.696-10.297,2.069l-0.342,0.234
				c-2.61,1.486-5.013,10.14-2.684,19.797l0.211,0.877l-0.397,0.811c-1.163,2.367-4.49,10.737,1.51,19.049l0.681,0.943l-0.283,1.128
				c-2.208,8.791-0.682,15.654,4.667,20.981l0.839,0.835l-0.115,1.179c-0.39,3.98,1.413,7.093,2.994,9.004
				c2.861,3.458,6.808,5.275,9.263,5.499l0.264,0.024l0.254,0.079c6.623,2.068,16.982,2.376,22.568,2.376
				c5.791,0,10.698-0.325,12.993-0.646c3.496-0.491,6.685-2.229,9.769-3.909c3.116-1.698,6.061-3.303,9.009-3.303
				c0.369,0,0.735,0.025,1.089,0.076c3.505,0.496,18.028,0.888,26.697,1.058c4.456-15.89,5.132-23.576,4.816-41.239
				c-2.296,0.077-5.857,0.172-9.517,0.172c-12.687,0-14.847-1.045-15.972-2.115c-3.153-3.002-4.659-7.488-6.564-13.167
				c-2.24-6.678-5.029-14.99-11.658-24.183c-1.296-1.744-8.413-3.651-20.928-3.651c-6.701,0-12.053,0.553-14.679,1.138
				c-1.333,1.236-1.67,3.039-1.674,3.058l-0.271,1.514l-1.478,0.465c-0.445,0.133-0.966,0.19-1.742,0.19
				c-0.798,0-1.857-0.06-3.084-0.129C167.057,99.686,164.951,99.566,162.809,99.566z"/>
		</g>
		<path id="fingers" fill="#2E2230" d="M198.104,154.85c0.527-4.614-0.931-9.579-3.527-12.706c1.654-1.891,2.677-4.674,3.028-8.336
			c0.642-6.676-1.175-15.991-2.948-17.814c-2.065-2.122-4.695-1.39-5.798-0.708l-0.822,0.51l-0.111,0.961
			c-0.916,7.97-3.357,13.264-7.061,15.31c-3.971,2.195-8.414,0.114-8.451,0.097l-0.215-0.106l-0.234-0.052
			c-0.287-0.063-0.665-0.22-1.045-0.878c-2.854-4.944,1.21-22.987,4.441-33.199l-3.812-1.207c-0.09,0.282-2.207,6.998-3.82,14.764
			c-0.442,2.128-0.8,4.105-1.076,5.944l-19.788,1.851l0.373,3.982l18.918-1.77c-0.494,5.422-0.064,9.269,1.3,11.633
			c0.814,1.41,1.992,2.35,3.419,2.73c1.169,0.516,6.612,2.614,11.876-0.262c4.716-2.576,7.726-8.253,8.958-16.886
			c0.006,0.004,0.012,0.009,0.019,0.015c1.247,2.153,3.947,16.604-0.308,20.961c-1.874-0.556-6.808-0.861-22.604,0.589
			c-10.166,0.932-20.097,2.169-20.196,2.182l0.496,3.969c18.097-2.262,38.339-3.956,41.122-2.906
			c2.631,1.769,4.377,6.647,3.894,10.876c-0.261,2.289-1.235,5.244-4.321,6.688c-8.436-1.604-29.241,2.675-36.127,4.19l0.859,3.906
			c15.196-3.344,32.989-5.704,35.507-3.933c0.984,0.97,2.408,3.298,2.474,5.975c0.051,2.059-0.711,3.919-2.262,5.53
			c-3.352,3.48-16.171,4.979-23.464,5.107l0.069,3.999c2.101-0.036,20.679-0.521,26.275-6.332c2.287-2.375,3.456-5.28,3.38-8.402
			c-0.075-3.075-1.368-5.91-2.841-7.781C196.121,161.399,197.693,158.448,198.104,154.85z"/>
	</g>
	<g id="left">
		<g id="hand_1_">
			<path fill="#2FC872" d="M137.067,99.696c4.107,2.338,6.271,12.633,3.878,22.556c2.431,4.95,4.057,13.602-1.727,21.614
				c2.949,11.741-0.772,18.824-5.327,23.361c0.937,9.577-8.362,16.675-14.518,17.236c-10.472,3.27-30.589,2.67-36.654,1.819
				c-7.985-1.121-14.236-7.835-19.168-7.137s-28.927,1.118-28.927,1.118c-5.291-18.431-5.824-26.098-5.387-46.37
				c0,0,23.841,1.099,26.214-1.159c6.106-5.812,5.621-19.948,17.919-37.001c4.344-5.846,31.395-5.283,38.78-3.345
				c2.504,1.875,2.992,4.937,2.992,4.937C117.034,97.892,131.642,95.281,137.067,99.696z"/>
			<path fill="#2E2230" d="M96.061,189.454c-5.304,0-10.677-0.273-13.688-0.695c-4.396-0.617-8.152-2.664-11.466-4.47
				c-2.542-1.385-4.942-2.693-6.617-2.693c-0.131,0-0.26,0.008-0.387,0.026c-5.026,0.712-28.248,1.125-29.234,1.142l-1.917,0.034
				l-0.529-1.843c-5.334-18.581-5.933-26.297-5.483-47.114l0.055-2.562l2.56,0.118c0.057,0.003,5.82,0.265,11.851,0.265
				c9.745,0,12.177-0.684,12.662-0.872c2.172-2.175,3.483-6.082,5.133-11.001c2.348-6.999,5.271-15.709,12.344-25.517
				c3.521-4.738,15.527-5.726,24.983-5.726c6.699,0,13.159,0.56,16.459,1.426l0.473,0.124l0.391,0.293
				c1.818,1.361,2.825,3.138,3.369,4.502c0.557-0.022,1.222-0.06,1.951-0.101c1.755-0.1,3.939-0.223,6.222-0.223
				c6.379,0,10.614,0.976,13.299,3.067c5.053,3.108,7.309,14.025,5.082,24.343c1.615,3.685,4.517,12.961-1.666,22.393
				c2.129,9.569,0.296,17.565-5.454,23.802c0.104,4.085-1.333,8.036-4.191,11.491c-3.266,3.948-8.099,6.774-12.387,7.263
				C112.62,189.123,101.866,189.454,96.061,189.454z M64.29,176.596c2.949,0,5.893,1.604,9.009,3.303
				c3.084,1.681,6.272,3.418,9.769,3.909c2.295,0.322,7.203,0.646,12.993,0.646c5.586,0,15.946-0.309,22.569-2.376l0.253-0.079
				l0.265-0.024c2.455-0.224,6.4-2.041,9.262-5.499c1.581-1.911,3.383-5.024,2.994-9.004l-0.115-1.179l0.839-0.835
				c5.348-5.328,6.875-12.191,4.667-20.981l-0.283-1.128l0.681-0.943c5.999-8.312,2.672-16.682,1.51-19.049l-0.398-0.811
				l0.212-0.877c2.328-9.657-0.074-18.311-2.685-19.797l-0.341-0.234c-1.687-1.373-5.152-2.069-10.297-2.069
				c-2.142,0-4.247,0.119-5.939,0.215c-1.227,0.069-2.286,0.129-3.084,0.129h0c-0.776,0-1.296-0.057-1.741-0.19l-1.505-0.45
				l-0.248-1.552l0,0c0,0-0.337-1.8-1.67-3.036c-2.625-0.585-7.977-1.138-14.678-1.138c-12.515,0-19.632,1.907-20.949,3.68
				c-6.608,9.164-9.397,17.476-11.638,24.154c-1.905,5.679-3.41,10.165-6.564,13.167c-1.125,1.07-3.285,2.115-15.971,2.115
				c-3.66,0-7.221-0.095-9.517-0.172c-0.316,17.664,0.36,25.35,4.816,41.239c8.669-0.169,23.192-0.562,26.697-1.058
				C63.555,176.621,63.921,176.596,64.29,176.596z"/>
		</g>
		<path id="fingers_1_" fill="#2E2230" d="M141.137,119.282l-19.786-1.851c-1.355-9.286-4.356-18.997-4.898-20.708l-3.813,1.207
			c3.233,10.209,7.297,28.25,4.442,33.198c-0.38,0.659-0.758,0.816-1.044,0.879l-0.234,0.054l-0.208,0.1
			c-0.044,0.021-4.485,2.104-8.459-0.093c-3.703-2.046-6.145-7.34-7.061-15.31l-0.11-0.961l-0.823-0.51
			c-1.101-0.683-3.732-1.414-5.798,0.708c-1.773,1.822-3.589,11.138-2.948,17.813c0.352,3.661,1.375,6.445,3.029,8.335
			c-2.597,3.127-4.055,8.092-3.527,12.706c0.411,3.599,1.983,6.549,4.425,8.494c-1.473,1.871-2.766,4.706-2.841,7.781
			c-0.076,3.122,1.092,6.028,3.38,8.402c5.597,5.812,24.175,6.296,26.275,6.332l0.068-3.999c-7.29-0.125-20.107-1.623-23.463-5.107
			c-1.551-1.611-2.312-3.472-2.262-5.53c0.065-2.677,1.49-5.005,2.474-5.975c2.52-1.771,20.31,0.589,35.507,3.933l0.859-3.906
			c-6.886-1.516-27.691-5.794-36.127-4.19c-3.086-1.444-4.06-4.398-4.322-6.688c-0.483-4.229,1.263-9.107,3.894-10.876
			c2.784-1.051,23.026,0.645,41.122,2.906l0.496-3.969c-0.099-0.013-10.031-1.25-20.197-2.182
			c-15.793-1.449-20.728-1.144-22.603-0.588c-4.259-4.36-1.551-18.833-0.305-20.967c0.005-0.004,0.01-0.008,0.015-0.013
			c1.231,8.635,4.242,14.312,8.958,16.889c5.263,2.876,10.707,0.777,11.876,0.262c1.426-0.38,2.604-1.32,3.418-2.73
			c1.477-2.56,1.698-6.861,1.283-11.634l18.935,1.771L141.137,119.282z"/>
	</g>
	<g id="action_lines">
		<g>
			<g>
				<path fill="#2E2230" d="M143.163,77c-1.381,0-2.5-1.119-2.5-2.5v-20c0-1.381,1.119-2.5,2.5-2.5s2.5,1.119,2.5,2.5v20
					C145.662,75.881,144.543,77,143.163,77z"/>
			</g>
			<g>
				<path fill="#2E2230" d="M127.712,79.071c-0.64,0-1.28-0.244-1.768-0.732l-14.142-14.142c-0.977-0.976-0.977-2.559,0-3.535
					c0.976-0.977,2.56-0.977,3.535,0l14.142,14.142c0.977,0.976,0.977,2.559,0,3.535C128.992,78.827,128.352,79.071,127.712,79.071z
					"/>
			</g>
			<g>
				<path fill="#2E2230" d="M158.289,79.071c-0.64,0-1.279-0.244-1.768-0.732c-0.977-0.976-0.977-2.559,0-3.535l14.142-14.142
					c0.977-0.977,2.559-0.977,3.535,0c0.977,0.976,0.977,2.559,0,3.535l-14.142,14.142
					C159.568,78.827,158.929,79.071,158.289,79.071z"/>
			</g>
		</g>
		<g>
			<g>
				<path fill="#2E2230" d="M143.163,223.571c-1.381,0-2.5-1.119-2.5-2.5v-20c0-1.381,1.119-2.5,2.5-2.5s2.5,1.119,2.5,2.5v20
					C145.662,222.452,144.543,223.571,143.163,223.571z"/>
			</g>
			<g>
				<path fill="#2E2230" d="M113.57,215.642c-0.64,0-1.28-0.244-1.768-0.732c-0.977-0.976-0.977-2.559,0-3.535l14.142-14.142
					c0.976-0.977,2.56-0.977,3.535,0c0.977,0.976,0.977,2.559,0,3.535l-14.142,14.142C114.85,215.398,114.21,215.642,113.57,215.642
					z"/>
			</g>
			<g>
				<path fill="#2E2230" d="M172.431,215.642c-0.64,0-1.279-0.244-1.768-0.732l-14.142-14.142c-0.977-0.976-0.977-2.559,0-3.535
					c0.977-0.977,2.559-0.977,3.535,0l14.142,14.142c0.977,0.976,0.977,2.559,0,3.535
					C173.71,215.398,173.07,215.642,172.431,215.642z"/>
			</g>
		</g>
	</g>
</g>
<g id="amplify">
</g>
</svg>
