<?xml version="1.0" encoding="utf-8"?>
<!-- Generator: Adobe Illustrator 26.0.1, SVG Export Plug-In . SVG Version: 6.00 Build 0)  -->
<svg version="1.1" id="denied" xmlns="http://www.w3.org/2000/svg" xmlns:xlink="http://www.w3.org/1999/xlink" x="0px" y="0px"
	 viewBox="0 0 440 138" style="enable-background:new 0 0 440 138;" xml:space="preserve">
<style type="text/css">
	.st0{fill:#FCE8ED;}
	.st1{fill:none;stroke:#DD1444;stroke-width:8;stroke-linecap:round;stroke-linejoin:round;stroke-miterlimit:10;}
	.st2{fill:#DD1444;stroke:#DD1444;stroke-width:1.5;stroke-linecap:round;stroke-linejoin:round;stroke-miterlimit:10;}
</style>
<path class="st0" d="M8.46,18.31c-0.84,30.49-2.78,55.12-1.1,85.54c0.48,8.69,4.53,18.9,4.31,27.06c-0.01,0.2,0.34-0.24,0.54-0.24
	c3.08,0.08,6.62-0.86,9.77-1.11c7.89-0.63,15.77-0.73,23.72-0.52c39.46,1.09,76.54-0.69,115.62-2.89
	c38.17-2.14,203.7,0.15,248.54,0.44c7.96,0.05,23.54-1.55,23.45-2.54c-0.3-3.46-0.1-17.85-0.24-21.33
	c-0.39-9.6-2.21-19.09-2.84-28.64c-1.12-16.79-1.12-34.17-2.93-50.83c-0.34-3.11,0.37-11.15-1.95-13.6
	c-1.35-1.43-11.34-1.14-13.17-0.94c-13.47,1.47-26.72,1.96-40.27,1.59c-56.2-1.55-115.05-4.99-171.04,0.37
	c-39.83,3.81-79.22-1.41-118.99,0.78C57.73,12.77,31.78,18.95,8.46,18.31"/>
<path class="st1" d="M8.46,18.31c-0.84,30.49-2.78,55.12-1.1,85.54c0.48,8.69,4.53,18.9,4.31,27.06c-0.01,0.2,0.34-0.24,0.54-0.24
	c3.08,0.08,6.62-0.86,9.77-1.11c7.89-0.63,15.77-0.73,23.72-0.52c39.46,1.09,76.54-0.69,115.62-2.89
	c38.17-2.14,203.7,0.15,248.54,0.44c7.96,0.05,23.54-1.55,23.45-2.54c-0.3-3.46-0.1-17.85-0.24-21.33
	c-0.39-9.6-2.21-19.09-2.84-28.64c-1.12-16.79-1.12-34.17-2.93-50.83c-0.34-3.11,0.37-11.15-1.95-13.6
	c-1.35-1.43-11.34-1.14-13.17-0.94c-13.47,1.47-26.72,1.96-40.27,1.59c-56.2-1.55-115.05-4.99-171.04,0.37
	c-39.83,3.81-79.22-1.41-118.99,0.78C57.73,12.77,31.78,18.95,8.46,18.31"/>
<path class="st2" d="M378.22,86.26c-2.81,3.69-7.03,3.6-11.04,3.22c-4.54-0.43-4.81-8.88-4.79-9.55c0,0-0.04-2.16,0.05-3
	c0.46-4.31,2.88-7.52,6.77-8.68c3.03-0.9,5.52,1.51,7.35,4c0.85,1.15,1.8,2.28,2.39,3.57C380.62,79.4,380.68,83.03,378.22,86.26
	L378.22,86.26z M391.61,78.08c-0.37-11.64,0.36-23.32,0.61-34.99c0.05-2.25,0.51-4.9-2.88-5.04c-7.46-0.29-8.7,0.52-9.15,4.76
	c-0.46,4.41,1.48,8.61,0.8,13.03c-0.29,1.86-0.06,3.79-1.18,5.47l-0.02,1c-5.78-4.5-12.04-2.54-17.95-0.79
	c-5.96,1.77-8.97,6.61-9.22,12.68c-0.16,3.81-0.96,7.63,0.56,11.55c3.5,9.05,9.77,12.41,19.38,10.58c2.22-0.42,4.89-1.44,7.67,1.25
	c2.34,2.27,6.76,0.63,10.82,1.14C390.77,91.4,391.82,84.84,391.61,78.08L391.61,78.08z"/>
<path class="st2" d="M333.15,74.18c-3.29,0.08-6.22-0.21-9.67-0.03c-1.86,0.1-2.64,0.87-4.26,0.5l-0.72-0.22
	c-1.59-1.46-0.94-2.35,0.54-3.53c3.03-2.42,6.38-2.96,10.1-2.76C333.03,68.35,334.18,70.2,333.15,74.18L333.15,74.18z M336.85,81.35
	l6.12,0.14c0.92-4.2,0.83-7.98-0.43-11.49c-3.21-8.92-13.86-12.55-23.27-8.6c-13.26,5.56-15.48,20-10.17,30.83
	c3.04,6.2,11.85,9.29,18.77,7.7c4.49-1.03,9.39-2.54,13.12-6.42c-1.52-2.06-2.86-3.89-4.19-5.69c-11.69,4.01-15.68,3.13-18.16-4.31
	C324.81,83.11,330.65,81.02,336.85,81.35L336.85,81.35z"/>
<path class="st2" d="M286.93,98.14c-0.79-12.75,1.36-24.23,2.3-36.87c0.1-1.31,0.65-2.27,1.62-2.39c2.44-0.29,4.81,0.35,6.95,1.6
	c1.95,1.13,0.87,3.01,0.86,4.51c-0.06,9.67-1.67,19.3-0.62,28.99c0.2,1.86-0.53,3.03-2.55,3.48
	C292.99,98.02,289.5,98.36,286.93,98.14z"/>
<path class="st2" d="M293.19,43.86c-2.81,0.47-4.82,1.67-5.15,4.88c-0.28,2.73,1.98,3.73,3.51,4.4c1.58,0.7,3.89,1.7,5.57-1.13
	c1.38-2.32,1.36-3.9-0.51-5.56c-0.89-0.79-1.95-1.4-2.94-2.08"/>
<path class="st2" d="M252.73,63.45c5.88-5.78,13.13-4.57,20.06-3.4c3.8,0.64,4.46,4.57,4.82,7.96c0.87,8.18,1.69,16.37,2.44,24.56
	c0.3,3.25-0.2,5.47-4.58,5.7c-1.67,0.09-3.73,0.04-5.99,0.94c0.19-9.25-1.01-17.85-4.83-26.07c-1.67-3.58-3.2-6.68-7.47-5.49
	c-4.22,1.18-4.67,5.13-4.17,8.78c0.86,6.36-0.32,12.68,0,19.01c0.09,1.77-0.84,3.07-2.55,2.87c-2.85-0.33-5.7,1.22-8.88-0.3
	c0.47-12,1.82-24.21-0.28-36.36c5.16-4.07,8.33-3.86,11.46,0.78"/>
<path class="st2" d="M220.38,73.2c-0.51,3.09-3.01,1.78-4.91,1.4c-0.83-0.16-3-0.06-3-0.06c-2.2-0.37-4.81,0.88-6.46-1.65
	c2.65-5.3,5.91-6.39,11.13-4.34C219.54,69.5,220.72,71.16,220.38,73.2L220.38,73.2z M231.34,79.47c-0.5-5.5-2.69-10.56-4.73-15.57
	c-1.39-3.41-9.03-5.97-12.78-4.81c-3.23,0.99-6.53,1.87-9.56,3.32c-9.23,4.43-10.92,11.08-9.54,20.74c0.47,3.3,1.85,6.21,3.36,9.06
	c4.24,7.97,21.08,10.53,26.93,3.14c0.65-0.82,1.59-1.41,2.6-2.29c-0.79-2.23-4.44-5.77-4.44-5.77s-13.59,8.82-16.73-5.97
	c-0.28-2.73,10.28,2.32,14.81,2.82c2.61,0.29,5.35-0.36,8.01-0.74C231.63,83.07,231.49,81.13,231.34,79.47L231.34,79.47z"/>
<path class="st2" d="M169.39,76.56c-4.9,7.9-14.91,11.94-24.21,9.97l-0.49-0.51c0.23-2.66,0.58-5.32,0.66-7.99
	c0.25-8.33,0.51-16.66,0.53-24.99c0.01-3.09,1.1-3.88,4.14-4.01c6.99-0.31,11.68,4.21,16.77,7.59
	C172.94,60.71,173.71,69.6,169.39,76.56L169.39,76.56z M184.35,57.4c-1.14-8.53-6.08-14.19-13.61-17.78
	c-2.51-1.2-5.35-0.25-7.97-0.74c-8.09-1.52-16.25-2.06-24.47-2.01c-5.78,0.03-7.06,1.25-7.15,6.83
	c-0.24,15.67-1.07,31.33-0.12,47.01c0.45,7.48,0.9,8.41,8.35,9.15c10.83,1.08,21.13-1.16,31.16-5.18c1.58-0.63,3.2-1.2,3.96-2.53
	C180.61,81.57,186.52,70.26,184.35,57.4L184.35,57.4z"/>
<path class="st2" d="M69.16,53.02c4.14-3.41,6.5-8.28,10.01-12.21c1.34-1.49,2.4-3.23,3.71-4.75c0.45-0.53,0.46-1.85,1.77-1.32
	c3.46,1.39,7.15-0.52,11.41,0.72C92.2,47.6,82.77,56.15,77.31,66.77c7.36,9.75,14.66,19.4,21.92,29.07c0.83,1.11,1.88,2.33,2.03,3.6
	c0.14,1.18,0.19,3.13-2.16,3.05c-6.6-0.21-12.58-0.44-16.93-7.33c-3.82-6.04-9.02-12.07-14.26-17.18
	c-6.07,6.72-12.77,14.94-18.42,22.04c-4.48-1.45-9.22,0.09-14.41-1.39c7.65-12.21,18.54-21.81,25.42-34.28
	c-0.64-4.21-1.62-5.8-4.25-8.95c-4.83-5.78-9.71-11.53-14.72-17.15c-1.04-1.16-1.37-2.22-1.11-4.06c4.04,0.09,8.19,0.27,12.33,0.23
	c1.3-0.01,1.98,0.62,2.62,1.45C60.25,42.17,64.28,46.7,69.16,53.02"/>
</svg>
