<?xml version="1.0" encoding="utf-8"?>
<!-- Generator: Adobe Illustrator 26.0.1, SVG Export Plug-In . SVG Version: 6.00 Build 0)  -->
<svg version="1.1" id="Layer_1" xmlns="http://www.w3.org/2000/svg" xmlns:xlink="http://www.w3.org/1999/xlink" x="0px" y="0px"
	 viewBox="0 0 384 560" style="enable-background:new 0 0 384 560;" xml:space="preserve">
<style type="text/css">
	.st0{fill:#3887F9;}
</style>
<path class="st0" d="M336,81h-80c0-35.3-28.7-64-64-64s-64,28.7-64,64H48c-26.5,0-48,21.5-48,48v352c0,26.5,21.5,48,48,48h288
	c26.5,0,48-21.5,48-48V129C384,102.5,362.5,81,336,81z M192,57c13.3,0,24,10.7,24,24s-10.7,24-24,24s-24-10.7-24-24S178.7,57,192,57
	z M288,361c0,4.4-3.6,8-8,8h-56v56c0,4.4-3.6,8-8,8h-48c-4.4,0-8-3.6-8-8v-56h-56c-4.4,0-8-3.6-8-8v-48c0-4.4,3.6-8,8-8h56v-56
	c0-4.4,3.6-8,8-8h48c4.4,0,8,3.6,8,8v56h56c4.4,0,8,3.6,8,8V361z M288,169c0,4.4-3.6,8-8,8H104c-4.4,0-8-3.6-8-8v-16
	c0-4.4,3.6-8,8-8h176c4.4,0,8,3.6,8,8V169z"/>
</svg>
