<?xml version="1.0" encoding="utf-8"?>
<!-- Generator: Adobe Illustrator 26.0.1, SVG Export Plug-In . SVG Version: 6.00 Build 0)  -->
<svg version="1.1" id="Layer_1" xmlns="http://www.w3.org/2000/svg" xmlns:xlink="http://www.w3.org/1999/xlink" x="0px" y="0px"
	 viewBox="0 0 160 160" style="enable-background:new 0 0 160 160;" xml:space="preserve">
<style type="text/css">
	.st0{fill-rule:evenodd;clip-rule:evenodd;fill:#160919;}
</style>
<g transform="matrix(1.1510805,0,0,1.1510666,-75.547713,-75.547537)">
	<g>
		<path class="st0" d="M135.1,202.9c-37.4,0-67.8-30.4-67.8-67.8c0-37.4,30.4-67.8,67.8-67.8c37.4,0,67.8,30.4,67.8,67.8
			C202.9,172.5,172.5,202.9,135.1,202.9L135.1,202.9z M146.6,108.9h-38.3l-5.8,9.3h38.3L146.6,108.9z M154.4,109L131,146.3h-26
			l6-9.3h15.6l5.9-9.3h-36l-5.9,9.3h8.5l-11.8,18.7h49.4l18.2-28.8l6.6,10.1h-6l-5.7,9.3h17.7l6.2,9.3h11.3L154.4,109z"/>
	</g>
</g>
</svg>
