<?xml version="1.0" encoding="utf-8"?>
<!-- Generator: Adobe Illustrator 16.0.0, SVG Export Plug-In . SVG Version: 6.00 Build 0)  -->
<!DOCTYPE svg PUBLIC "-//W3C//DTD SVG 1.1//EN" "http://www.w3.org/Graphics/SVG/1.1/DTD/svg11.dtd">
<svg version="1.1" id="Layer_1" xmlns="http://www.w3.org/2000/svg" xmlns:xlink="http://www.w3.org/1999/xlink" x="0px" y="0px"
	 width="800px" height="220px" viewBox="0 0 800 220" enable-background="new 0 0 800 220" xml:space="preserve">
<g>
	<path fill-rule="evenodd" clip-rule="evenodd" fill="#FFFFFF" d="M310.453,138.74c-10.934,0-21.558,0.034-32.18-0.011
		c-9.289-0.039-8.118,0.989-8.171-8.343c-0.051-9.164,0.054-18.328-0.047-27.49c-0.032-3.003,0.679-4.579,4.158-4.567
		c30.655,0.096,61.312,0.052,91.967,0.076c0.957,0.001,1.915,0.283,3.678,0.562c-0.549,8.894-0.812,17.679-1.685,26.402
		c-2.226,22.255-9.822,42.364-24.782,59.322c-16.149,18.307-36.996,27.608-60.814,29.838c-28.244,2.645-54.8-2.767-77.71-20.609
		c-21.662-16.87-32.879-39.688-36.3-66.545c-3.011-23.632-0.416-46.594,10.211-68.146c14.909-30.236,39.941-46.945,72.667-52.497
		c24.264-4.118,47.834-1.882,69.749,10.277c17.526,9.724,29.417,24.535,37.92,43.162c-15.768,6.77-31.287,13.433-47.053,20.202
		c-0.803-1.297-1.609-2.335-2.138-3.499c-7.598-16.707-19.963-26.95-38.791-27.51c-18.564-0.554-32.577,8.033-41.314,24.036
		c-14.3,26.192-14.26,52.725,1.778,78.171c13.39,21.245,41.309,27.747,62.42,15.548C303.877,161.42,310.197,150.873,310.453,138.74z
		"/>
	<path fill-rule="evenodd" clip-rule="evenodd" fill="#FFFFFF" d="M6.788,208.364c0-65.836,0-131.092,0-196.974
		c2.042,0,3.827,0,5.612,0c41.819,0,83.639,0.072,125.458-0.1c4.769-0.02,6.397,1.254,6.248,6.138
		c-0.33,10.819-0.268,21.659-0.018,32.483c0.093,4.038-1.321,5.105-5.178,5.084c-25.491-0.136-50.983,0.042-76.473-0.173
		c-4.696-0.039-6.069,1.467-5.872,5.992c0.318,7.317,0.306,14.667,0,21.985c-0.171,4.08,1.339,5.069,5.173,5.047
		c24.324-0.14,48.651,0.05,72.974-0.175c4.779-0.044,6.371,1.254,6.21,6.133c-0.345,10.486-0.3,20.996-0.015,31.484
		c0.121,4.449-0.976,6.007-5.768,5.956c-24.322-0.255-48.65-0.004-72.974-0.22c-4.45-0.04-5.789,1.242-5.606,5.629
		c0.326,7.817,0.266,15.663,0.02,23.486c-0.126,4.009,1.383,5.103,5.232,5.082c25.324-0.135,50.651,0.082,75.973-0.194
		c5.209-0.057,6.496,1.55,6.33,6.516c-0.36,10.817-0.191,21.656-0.065,32.484c0.039,3.351-0.98,4.729-4.567,4.722
		c-43.151-0.096-86.304-0.063-129.456-0.08C9.059,208.671,8.091,208.492,6.788,208.364z"/>
	<path fill-rule="evenodd" clip-rule="evenodd" fill="#FFFFFF" d="M575.289,208.69c-8.862,0-17.149,0-25.437,0
		c-7.827-0.001-15.656-0.09-23.48,0.044c-2.92,0.05-4.429-0.876-5.435-3.808c-3.074-8.956-6.659-17.734-9.756-26.683
		c-0.979-2.828-2.299-3.936-5.322-3.92c-20.483,0.108-40.969,0.149-61.451-0.038c-3.26-0.029-4.355,1.549-5.303,4.012
		c-3.4,8.839-6.687,17.728-10.388,26.44c-0.713,1.682-3.081,3.752-4.718,3.779c-15.815,0.271-31.639,0.148-47.459,0.116
		c-0.47-0.001-0.939-0.236-2.12-0.553c2.577-7.041,5.058-13.999,7.662-20.911c21.439-56.906,42.928-113.794,64.288-170.729
		c1.349-3.591,2.949-5.239,7.106-5.161c14.982,0.28,29.976,0.216,44.961,0.03c3.373-0.042,5.059,0.993,6.229,4.174
		c23.358,63.465,46.811,126.894,70.225,190.337C575.107,206.406,575.076,207.081,575.289,208.69z M496.018,134.787
		c-6.76-20.722-13.354-40.934-19.949-61.146c-0.392-0.007-0.784-0.014-1.175-0.02c-6.668,20.184-13.335,40.368-20.204,61.166
		C468.818,134.787,482.005,134.787,496.018,134.787z"/>
	<path fill-rule="evenodd" clip-rule="evenodd" fill="#FFFFFF" d="M790.685,199.793c-10.454-27.664-20.949-55.312-31.414-82.97
		c-12.521-33.102-25.069-66.193-37.477-99.337c-0.889-2.374-1.974-3.909-3.656-4.74c0.027-0.085,0.052-0.167,0.08-0.253
		c-0.281-0.019-0.553-0.038-0.816-0.057c-0.988-0.338-2.161-0.482-3.583-0.448c-3.108,0.075-6.218,0.116-9.327,0.143
		c-3.887,0.011-7.773,0.025-11.659,0.033c-3.886-0.008-7.772-0.022-11.659-0.033c-3.109-0.027-6.219-0.068-9.327-0.143
		c-1.422-0.035-2.595,0.109-3.583,0.448c-0.264,0.019-0.535,0.039-0.816,0.057c0.028,0.086,0.053,0.167,0.08,0.253
		c-1.683,0.831-2.768,2.366-3.656,4.74c-12.407,33.144-24.955,66.236-37.477,99.337c-10.465,27.658-20.96,55.306-31.414,82.97
		c-0.866,2.294-1.516,4.67-2.527,7.826c2.332,0.157,3.793,0.34,5.254,0.342c13.822,0.022,27.646-0.114,41.465,0.098
		c3.79,0.058,5.543-1.236,6.869-4.777c14.562-38.904,29.235-77.768,44.003-116.594c0.924-2.43,1.859-4.855,2.789-7.282
		c0.93,2.427,1.865,4.853,2.789,7.282c14.768,38.827,29.44,77.69,44.003,116.594c1.326,3.541,3.079,4.835,6.869,4.777
		c13.819-0.212,27.643-0.075,41.465-0.098c1.461-0.002,2.922-0.185,5.254-0.342C792.2,204.463,791.551,202.087,790.685,199.793z"/>
</g>
</svg>
