<?xml version="1.0" encoding="utf-8"?>
<!-- Generator: Adobe Illustrator 16.0.0, SVG Export Plug-In . SVG Version: 6.00 Build 0)  -->
<!DOCTYPE svg PUBLIC "-//W3C//DTD SVG 1.1//EN" "http://www.w3.org/Graphics/SVG/1.1/DTD/svg11.dtd">
<svg version="1.1" id="Layer_1" xmlns="http://www.w3.org/2000/svg" xmlns:xlink="http://www.w3.org/1999/xlink" x="0px" y="0px"
	 width="1000px" height="1000px" viewBox="-50 -50 1000 1000" enable-background="new -50 -50 1000 1000" xml:space="preserve">
<rect x="-50" y="-50" fill="#281938" width="1000" height="1000"/>
<g>
	<rect x="107.54" y="286.084" fill="#FFFFFF" width="89.589" height="89.588"/>
	<rect x="50" y="290.353" fill="#CEADEF" width="34.042" height="34.044"/>
	<rect x="75.185" y="216.999" fill="#FFF30D" width="54.444" height="54.444"/>
	<path fill="#FFFFFF" d="M509.502,368.794c17.527,13.295,28.104,31.229,31.729,53.791H478.68
		c-3.226-5.842-7.961-10.474-14.201-13.901c-6.248-3.423-13.599-5.139-22.062-5.139c-14.505,0-26.041,4.888-34.599,14.658
		c-8.565,9.771-12.846,22.813-12.846,39.133c0,18.536,4.582,32.588,13.752,42.155c9.162,9.566,22.608,14.353,40.338,14.353
		c10.074,0,18.937-2.417,26.596-7.252c7.652-4.834,13.697-11.981,18.13-21.455h-59.229v-42.305h108.485v58.926
		c-7.657,17.729-19.896,32.892-36.714,45.479c-16.824,12.595-38.029,18.887-63.612,18.887c-21.758,0-40.795-4.58-57.112-13.748
		c-16.316-9.164-28.858-22.006-37.623-38.529c-8.763-16.517-13.146-35.354-13.146-56.508c0-21.152,4.382-39.937,13.146-56.359
		c8.765-16.414,21.199-29.207,37.32-38.377c16.114-9.163,35.055-13.748,56.812-13.748
		C469.51,348.851,491.975,355.499,509.502,368.794"/>
	<polygon fill="#FFFFFF" points="307.949,398.106 307.949,350.664 205.98,350.664 205.98,384.054 170.15,384.054 170.15,564.611 
		307.949,564.611 307.949,517.168 229.683,517.168 229.683,478.488 298.882,478.488 298.882,433.461 229.683,433.461 
		229.683,398.106 	"/>
	<path fill="#FFFFFF" d="M700.963,516.693h54.691c0.865-1.389,1.738-2.771,2.544-4.21c9.065-16.212,13.599-34.698,13.599-55.45
		c0-20.747-4.482-39.183-13.445-55.301c-8.967-16.115-21.859-28.654-38.68-37.621c-16.824-8.963-36.52-13.449-59.079-13.449h-85.217
		V564.61h85.217c14.698,0,28.149-1.979,40.37-5.914V516.693z M655.154,511.427h-20.246V402.639h20.246
		c17.527,0,31.322,4.789,41.396,14.355c10.07,9.569,15.108,22.917,15.108,40.039c0,17.329-5.038,30.726-15.108,40.189
		C686.479,506.694,672.682,511.427,655.154,511.427"/>
	<rect x="710.782" y="526.602" fill="#FFFFFF" width="89.587" height="89.59"/>
	<rect x="815.958" y="575.603" fill="#CEADEF" width="34.042" height="34.042"/>
	<rect x="768.463" y="628.557" fill="#FFF30D" width="54.443" height="54.444"/>
</g>
</svg>
