<?xml version="1.0" encoding="utf-8"?>
<!-- Generator: Adobe Illustrator 16.0.0, SVG Export Plug-In . SVG Version: 6.00 Build 0)  -->
<!DOCTYPE svg PUBLIC "-//W3C//DTD SVG 1.1//EN" "http://www.w3.org/Graphics/SVG/1.1/DTD/svg11.dtd">
<svg version="1.1" id="Layer_1" xmlns="http://www.w3.org/2000/svg" xmlns:xlink="http://www.w3.org/1999/xlink" x="0px" y="0px"
	 width="900px" height="900px" viewBox="-40 -210 900 900" enable-background="new -40 -210 900 900" xml:space="preserve">
<rect x="-40" y="-210" fill="#281938" width="900" height="900"/>
<g>
	<rect x="67.54" y="76.084" fill="#FFFFFF" width="89.589" height="89.588"/>
	<rect x="10" y="80.354" fill="#CEADEF" width="34.042" height="34.043"/>
	<rect x="35.185" y="6.999" fill="#FFF30D" width="54.444" height="54.444"/>
	<path fill="#FFFFFF" d="M469.502,158.794c17.527,13.295,28.104,31.229,31.729,53.791H438.68
		c-3.226-5.842-7.961-10.474-14.201-13.901c-6.248-3.423-13.599-5.139-22.062-5.139c-14.505,0-26.041,4.888-34.598,14.658
		c-8.566,9.772-12.846,22.814-12.846,39.133c0,18.536,4.582,32.588,13.752,42.155c9.162,9.567,22.608,14.353,40.338,14.353
		c10.073,0,18.936-2.417,26.595-7.252c7.653-4.834,13.698-11.982,18.13-21.455h-59.229v-42.305h108.485v58.926
		c-7.657,17.729-19.896,32.891-36.714,45.478c-16.824,12.595-38.029,18.887-63.612,18.887c-21.758,0-40.795-4.58-57.112-13.748
		c-16.317-9.164-28.859-22.006-37.623-38.529c-8.764-16.517-13.146-35.354-13.146-56.508c0-21.152,4.382-39.937,13.146-56.36
		c8.764-16.414,21.199-29.207,37.32-38.376c16.114-9.164,35.055-13.749,56.812-13.749
		C429.51,138.851,451.975,145.499,469.502,158.794"/>
	<polygon fill="#FFFFFF" points="267.949,188.106 267.949,140.664 165.98,140.664 165.98,174.054 130.15,174.054 130.15,354.611 
		267.949,354.611 267.949,307.168 189.683,307.168 189.683,268.488 258.882,268.488 258.882,223.461 189.683,223.461 
		189.683,188.106 	"/>
	<path fill="#FFFFFF" d="M660.963,306.693h54.691c0.865-1.388,1.738-2.77,2.544-4.21c9.065-16.212,13.599-34.698,13.599-55.45
		c0-20.747-4.482-39.182-13.445-55.301c-8.967-16.115-21.86-28.654-38.68-37.621c-16.824-8.963-36.52-13.449-59.079-13.449h-85.217
		V354.61h85.217c14.698,0,28.149-1.979,40.37-5.914V306.693z M615.154,301.427h-20.246V192.639h20.246
		c17.527,0,31.322,4.789,41.397,14.355c10.07,9.569,15.108,22.917,15.108,40.039c0,17.329-5.038,30.726-15.108,40.19
		C646.479,296.694,632.682,301.427,615.154,301.427"/>
	<rect x="670.782" y="316.602" fill="#FFFFFF" width="89.587" height="89.59"/>
	<rect x="775.958" y="365.603" fill="#CEADEF" width="34.042" height="34.042"/>
	<rect x="728.463" y="418.557" fill="#FFF30D" width="54.443" height="54.444"/>
</g>
</svg>
