<?xml version="1.0" encoding="utf-8"?>
<!-- Generator: Adobe Illustrator 26.0.1, SVG Export Plug-In . SVG Version: 6.00 Build 0)  -->
<svg version="1.1" id="eligible" xmlns="http://www.w3.org/2000/svg" xmlns:xlink="http://www.w3.org/1999/xlink" x="0px" y="0px"
	 viewBox="0 0 440 138" style="enable-background:new 0 0 440 138;" xml:space="preserve">
<style type="text/css">
	.st0{fill:#D5F4E3;}
	.st1{fill:none;stroke:#2FC872;stroke-width:8;stroke-linecap:round;stroke-linejoin:round;stroke-miterlimit:10;}
	.st2{fill:#2FC872;stroke:#2FC872;stroke-width:1.5;stroke-linecap:round;stroke-linejoin:round;stroke-miterlimit:10;}
</style>
<path class="st0" d="M429.37,12.51c-23.29,1.25-49.39-4.24-73.56-4.94C316,6.42,276.75,12.67,236.84,9.9
	c-56.11-3.89-114.85,1.09-170.99,4.11c-13.53,0.73-26.79,0.58-40.29-0.53c-1.83-0.15-12.08-0.83-13.4,0.63
	c-2.25,2.51-1.08,11.18-1.34,14.3c-1.38,16.7-0.93,34.07-1.6,50.89c-0.39,9.56-1.96,19.09-2.1,28.7
	c-0.05,3.48,0.53,17.86,0.32,21.33c-0.06,0.99,15.56,2.19,23.51,1.93c44.81-1.46,210.23-8.08,248.44-6.94
	c39.12,1.17,76.24,1.98,115.66-0.14c7.94-0.43,15.82-0.52,23.72-0.1c3.15,0.17,6.71,1.02,9.79,0.86c0.2-0.01,0.56,0.42,0.55,0.22
	c-0.44-8.14,3.35-18.46,3.6-27.16C433.59,67.54,431,42.98,429.37,12.51"/>
<path class="st1" d="M429.37,12.51c-23.29,1.25-49.39-4.24-73.56-4.94C316,6.42,276.75,12.67,236.84,9.9
	c-56.11-3.89-114.85,1.09-170.99,4.11c-13.53,0.73-26.79,0.58-40.29-0.53c-1.83-0.15-12.08-0.83-13.4,0.63
	c-2.25,2.51-1.08,11.18-1.34,14.3c-1.38,16.7-0.93,34.07-1.6,50.89c-0.39,9.56-1.96,19.09-2.1,28.7
	c-0.05,3.48,0.53,17.86,0.32,21.33c-0.06,0.99,15.56,2.19,23.51,1.93c44.81-1.46,210.23-8.08,248.44-6.94
	c39.12,1.17,76.24,1.98,115.66-0.14c7.94-0.43,15.82-0.52,23.72-0.1c3.15,0.17,6.71,1.02,9.79,0.86c0.2-0.01,0.56,0.42,0.55,0.22
	c-0.44-8.14,3.35-18.46,3.6-27.16C433.59,67.54,431,42.98,429.37,12.51"/>
<path class="st2" d="M392.54,70.04c-4.3-0.46-9.74,0.75-13.92-1.37l0,0c2.02-3.86,6.67-5.84,11.11-4.75
	C392.26,64.54,393,65.98,392.54,70.04L392.54,70.04z M404.93,75.28c-1.28-6.62-3.98-12.91-9.2-17.05
	c-5.16-4.1-11.53-2.61-17.35-0.53c-7.78,2.78-13.87,11.05-11.02,21.73c1.43,5.36,1.68,11.01,7.64,14.28
	c8.5,4.65,18.73,3.56,25.68-3.57c0.16-3.6-0.93-3.89-3.11-6.74l-1.28,0.18c-3,2.19-6.68,2.4-10.1,3.18
	c-3.33,0.76-6.32-1.87-7.96-6.42c5.09-0.7,9.95-2.54,15.17-0.4c2.45,1,5.33,0.37,7.97,0.53C403.89,80.62,405.46,77.99,404.93,75.28
	L404.93,75.28z"/>
<path class="st2" d="M354.42,33.11c-0.67,0.32-1.32,0.84-2.03,0.92c-6.27,0.77-6.49,0.98-6.66,7.38
	c-0.31,11.87,0.42,23.7,0.93,35.55c0.21,4.9,0.61,9.99-0.04,14.99c-0.32,2.49-0.45,5.03,3.35,5.11c4.4,0.1,7.24-1.51,7.59-4.87
	c1.22-11.62,2.19-23.22,2.05-34.97c-0.07-6.29-0.01-12.66,0.2-18.99c0.11-3.43-0.84-5.73-4.9-5.11"/>
<path class="st2" d="M320.73,85.37c-6.63,0.07-10.05-2.54-10.82-8.25c0,0,0-1.81,0.05-2.5c0.64-9.55,4.47-12.22,13.22-9.2
	c3.99,1.37,5.19,7.91,4.85,11.71C327.64,81.47,326.03,85.31,320.73,85.37L320.73,85.37z M335.95,77.21c0-4.6,0.6-9.17-1.68-13.57
	c-3.71-7.14-10.47-10.3-18.86-8.4c-4.56,1.03-6.52-0.4-5.78-5.12c0.77-4.85,1.48-9.62,0.72-14.5l0.01-0.5
	c-2.6-1.99-5.65-1.03-8.48-1.1c-2.5-0.07-2.6,1.46-2.21,3.88c1.18,7.27,1.54,14.73,0.48,21.98c-1.53,10.51-0.72,21.01-1.06,31.5
	c-0.04,1.17,0.11,2.35,0.19,3.7c3.11,0.05,6.16,1.77,8.72-1.01c0.78-0.84,1.5-0.01,1.99,0.14c9.49,2.77,17.13,0.26,23.24-7.53
	C335.5,83.8,335.95,80.67,335.95,77.21L335.95,77.21z"/>
<path class="st2" d="M288.35,57.63c-2.67-0.03-5.36-0.36-8.75,0.7c-0.46,12.09-2.6,24.52-0.83,36.95c1.54,1.17,2.92,0.24,4.23,0.33
	c4.48,0.31,5.87-1.67,5.71-5.96c-0.29-7.87,2.67-15.5,2.01-23.46c-0.24-2.9,0.08-5.84-1.36-8.53"/>
<path class="st2" d="M280.02,49.94c1.24,1.68,2.99,2.27,4.95,2.09c4.22-0.38,5.76-3.34,3.66-6.9c-0.68-1.14-1.38-2.27-1.84-3.04
	c-4.19,1.77-6.12,4.03-6.75,7.35"/>
<path class="st2" d="M271.38,57.74c-0.27-1.94-1.17-2.62-2.98-2.57c-1.33,0.03-2.97,0.44-3.95-0.17c-3.86-2.41-4.39,0.33-5.12,2.97
	l-0.07,0.88l-1.42-1.89c-6.99-4.92-15.64-3.44-21.55,4.05c-4.78,6.06-7.24,13.14-5.92,20.82c1.9,11.01,6.84,14.94,18.06,12.65
	c2.1-0.43,5.28,0.04,7.16-1.96l0.94,0.89c0.32,5.71-2.41,9.37-6.39,10.85c-3.83,1.43-7.92-0.52-10.81-4.49
	c-2.33,0.9-6.02,3.56-6.73,6.12c0.92,0.72,1.72,1.42,2.6,2.03c15.1,10.53,34.32,3.73,35.89-15.18
	C272.06,81.07,273.04,69.43,271.38,57.74z M256.73,78.11c-1.42,3.52-4.6,6.52-7.52,6.67c-6.17,0.31-9.27-2.95-9.27-10.21
	s7.95-9.82,11.7-8.74c2.5,0.72,4.92,3.88,5.53,6.63S256.73,78.11,256.73,78.11z"/>
<path class="st2" d="M217.28,53.92c6.45,2.52,7.7,2.67,7.35,10.77c-0.26,6-0.55,12.04-1.49,17.96c-0.62,3.96-0.22,10.75,0.3,14.9
	c-3.32,1.02-6.68-0.19-10.14,0.1c0,0-0.8-1.87-0.79-2.72c0.21-11.83,0.56-23.66,0.7-35.49C213.25,57.53,216.11,55.02,217.28,53.92z"
	/>
<path class="st2" d="M223.65,43.67c-0.62-1.69-1.16-3.69-3.27-3.69c-2.63,0-3.93,2.22-4.71,4.04c-0.71,1.68-0.64,2.93-0.15,4.47
	c0.65,2.06,2.32,2.22,3.97,2.04c1.6-0.18,2.59-1.09,3.67-2.9C223.74,46.63,223.98,45.28,223.65,43.67z"/>
<path class="st2" d="M204.2,36.6c0.01-1.43-0.03-3.14-2.43-3.09c-1.5,0.03-3-0.06-4.5-0.09c-6.48-0.15-7.86,1.43-6.67,7.85
	c1.38,7.38,0.5,22.62-0.52,30.02c-0.95,6.89-0.04,14.49-0.17,21.48c0,0.17-0.02-0.19,0,0c0.72,6.42,0.73,6.56,1.87,6.51
	c2.69-0.11,9.51-0.43,10.53-2.05c-0.53-6.71,0.9-14.12,0.67-21.69c-0.22-7.3,0.54-14.68,1.48-21.95
	C204.86,50.5,204.47,40.26,204.2,36.6z"/>
<path class="st2" d="M133.8,58.14c0.33,4.51-0.12,9.47-0.75,13.99c-1.04,7.49,1.16,14.97,0.5,22.52c-0.23,2.7,0.65,3.96,4.36,3.81
	c8.98-0.36,18.01-0.3,26.98,1.27c4.6,0.8,9.45,0.7,14.06-1.14c2.62-4.31-0.7-8.59,0.53-13.48c-11.39,0.23-21.55,5.92-32.85,2.86
	c0.11-4.69,0.2-9.36,0.32-14.04c0.07-2.75,1.78-3.18,4.07-2.92c4.15,0.47,8.32,0.86,12.47,1.29c3.62,0.38,6.3-0.29,5.63-4.88
	c-0.09-0.65-0.07-1.35,0.04-1.99c1.22-6.89,0.8-7.35-5.87-6.65c-3.33,0.35-6.68,0.55-10.02,0.79c-5.33,0.37-7.29-1.61-6.8-7.15
	c0.23-2.53,0.91-5.01,1.4-7.59c10.26-1.38,20.2,1.54,30.71,1.24c0.07-3.25,0.14-6.09,0.2-8.93c0.07-3.24-2.21-3.06-4.43-3.11
	c-7.18-0.19-14.32,0.76-21.52,0.77c-5.83,0-11.68-0.98-18.52,0.28L133.8,58.14z"/>
<path class="st2" d="M63.93,94.59c3.37-4.14,4.85-9.28,7.26-13.92c5.17-9.98,9.89-20.19,14.81-30.3c1.38-2.82,2.94-5.56,4.2-8.43
	c0.58-1.31,1.19-2.48,2.67-2.09c3.59,0.95,7.16-0.2,10.73,0.18c3.17,0.34,3.31,0.59,2.15,3.77c-4.04,11.07-9.3,21.47-16.2,31.07
	c-6.79,9.43-11.97,19.93-19.12,29.15c-1.83,2.37-3.55,4.81-5.76,6.84c-1.2,1.11-2.42,1.3-3.69-0.06
	c-8.13-8.67-16.75-16.89-23.08-27.11c-1.83-2.96-4.27-5.54-6.41-8.31c-0.71-0.92-2.14-1.48-1.77-2.99c0.43-1.73,2.25-2.01,3.36-2.03
	c4.34-0.08,8.58-1.52,13.01-0.82c3.91,7.12,9.55,13.19,13.96,20.12C61.38,91.76,62.32,93.28,63.93,94.59"/>
</svg>
