<?xml version="1.0" encoding="utf-8"?>
<!-- Generator: Adobe Illustrator 16.0.0, SVG Export Plug-In . SVG Version: 6.00 Build 0)  -->
<!DOCTYPE svg PUBLIC "-//W3C//DTD SVG 1.1//EN" "http://www.w3.org/Graphics/SVG/1.1/DTD/svg11.dtd">
<svg version="1.1" xmlns="http://www.w3.org/2000/svg" xmlns:xlink="http://www.w3.org/1999/xlink" x="0px" y="0px" width="288px"
	 height="288px" viewBox="0 0 288 288" enable-background="new 0 0 288 288" xml:space="preserve">
<g id="empower">
	<path id="outer_ring_1_" display="none" fill="#2E2230" d="M144,264.2c-66.279,0-120.2-53.921-120.2-120.2S77.721,23.8,144,23.8
		c66.278,0,120.2,53.921,120.2,120.2S210.278,264.2,144,264.2z M144,33.8C83.235,33.8,33.8,83.235,33.8,144S83.235,254.2,144,254.2
		S254.2,204.765,254.2,144S204.765,33.8,144,33.8z"/>
	<g id="bolt">
		<path fill="#2FC872" d="M118.998,236.46c-0.346,0-0.696-0.071-1.028-0.222c-1.125-0.509-1.71-1.761-1.378-2.95l21.906-78.57
			h-40.45c-0.925,0-1.774-0.511-2.208-1.328c-0.434-0.817-0.38-1.807,0.138-2.573l66.453-98.178
			c0.478-0.706,1.264-1.099,2.071-1.099c0.352,0,0.707,0.074,1.044,0.229c1.111,0.512,1.689,1.753,1.366,2.933l-19.422,70.825
			h40.464c0.917,0,1.761,0.502,2.197,1.309c0.438,0.806,0.398,1.787-0.102,2.556l-68.955,105.934
			C120.62,236.052,119.821,236.46,118.998,236.46z"/>
		<path fill="#2E2230" d="M164.5,54.04l-20.289,73.986h43.742L118.999,233.96l22.79-81.742H98.047L164.5,54.04 M164.502,49.039
			c-1.616,0-3.187,0.786-4.143,2.198l-66.453,98.178c-1.037,1.532-1.144,3.512-0.276,5.146c0.867,1.635,2.566,2.656,4.417,2.656
			h37.157l-21.021,75.399c-0.663,2.377,0.508,4.883,2.757,5.899c0.665,0.3,1.365,0.444,2.057,0.444c1.647,0,3.245-0.816,4.193-2.273
			l68.954-105.934c1.001-1.537,1.079-3.499,0.205-5.111s-2.562-2.616-4.396-2.616h-37.187l18.556-67.664
			c0.646-2.359-0.509-4.841-2.731-5.864C165.917,49.188,165.205,49.039,164.502,49.039L164.502,49.039z"/>
	</g>
</g>
<g id="connect">
</g>
<g id="amplify">
</g>
</svg>
