<?xml version="1.0" encoding="utf-8"?>
<!-- Generator: Adobe Illustrator 16.0.0, SVG Export Plug-In . SVG Version: 6.00 Build 0)  -->
<!DOCTYPE svg PUBLIC "-//W3C//DTD SVG 1.1//EN" "http://www.w3.org/Graphics/SVG/1.1/DTD/svg11.dtd">
<svg version="1.1" xmlns="http://www.w3.org/2000/svg" xmlns:xlink="http://www.w3.org/1999/xlink" x="0px" y="0px" width="220px"
	 height="220px" viewBox="0 0 220 220" enable-background="new 0 0 220 220" xml:space="preserve">
<g id="empower">
	<g>
		<path fill-rule="evenodd" clip-rule="evenodd" fill="#2FC872" d="M157.25,48.375c12.697,9.414,20.402,21.248,25.459,35.059
			c8.725,23.828,6.98,52.148-9.262,74.055c-9.623,12.976-24.084,21.416-38.256,26.408c-11.227,3.953-21.846,7.025-33.541,4.609
			c-12.382-2.559-25.97-6.408-37.316-14.821c-14.451-10.714-20.958-26.726-28.637-41.552C30.45,122,31.93,109.072,33.958,97.506
			c2.027-11.57,6.707-22.855,14.18-32.934c13.58-18.315,35.131-25.877,55.768-30.441C120.285,30.508,140.961,36.297,157.25,48.375z"
			/>
		<path fill-rule="evenodd" clip-rule="evenodd" fill="#2E2230" d="M159.408,25.32c-1.455,3.096-2.324,6.679-3.99,9.128
			c-2.291,3.315-3.619,11.469-6.018,14.234c-1.172,1.429-4.371,4.821-5.189,7.866c-0.07,0.263,0.584,1.541,0.227,1.988
			c-0.131,0.187-1.557,0.444-1.738,0.97c-2.76,8.494-7.268,17.077-11.699,24.339c-4.93-4.222-15.432-17.473-16.416-17.582
			c-2.912,6.942-2.365,15.334-3.074,21.914c-0.753,6.8-3.157,11.62-4.794,17.956c-1.902,7.511-2.039,12.719-5.517,19.431
			c-5.832-3.221-9.656-7.657-11.036-12.368c-1.177-0.47-1.434-0.626-2.234-0.521c-0.556-0.096-1.111-0.187-1.694-0.239
			c-1.254,3.837-0.345,7.263-0.532,10.84c-0.665,10.79-2.482,21.853-3.426,32.256c-0.521,5.733-3.582,11.288-2.022,16.268
			c-0.102,0.147-0.209,0.318-0.271,0.491c-2.868-3.264-8.179-6.232-9.062-10.177c-2.211-1.062-2.843-1.05-4.428-1.014
			c-1.694,6.22-0.76,14.824-0.842,21.189c-2.008,2.214-1.689,7.171-2.046,10.097c-0.961,8.092-3.236,16.226-3.301,22.41
			c5.08,2.294,15.423-12.067,18.553-17.16c0.257-0.066,0.508-0.134,0.747-0.248c0.638,1.414,0.882,3.468,1.198,4.944
			c1.433,0.672,2.202,0.879,3.211,0.993c4.119-8.306,5.92-15.938,7.521-23.341c1.188-5.633,4.252-16.993,4.525-17.487
			c2.07,2.087,5.51,8.75,6.603,8.917c4.799-9.554,7.357-17.566,10.231-26.324c2.264-6.755,10.115-17.567,9.984-22.117
			c0.164-0.306,0.332-0.648,0.5-0.976c1.609,1.165,1.428,2.143,2.209,3.004c1.676,1.712,2.545,1.859,1.975,2.189
			c1.301,2.313,6.34,10.292,6.557,12.619c1.945,0.739,2.031,0.522,3.457,0.517c5.301-11.357,8.264-23.833,10.562-34.205
			c1.547-7.068,4.668-11.324,6.242-18.457c3.383-15.376,7.092-31.065,9.604-45.773c1.035-5.667,3.486-9.265,4.525-15.021
			c0.393-2.045,0.371-5.527,0.809-7.636c0.76-3.86,4.441-7.325,4.215-10.824c0.766-1.922,0.588-2.005,0.537-3.431
			C172.615,4.328,162.736,18.277,159.408,25.32z"/>
	</g>
</g>
<g id="connect">
</g>
<g id="amplify">
</g>
</svg>
