<?xml version="1.0" encoding="utf-8"?>
<!-- Generator: Adobe Illustrator 26.0.1, SVG Export Plug-In . SVG Version: 6.00 Build 0)  -->
<svg version="1.1"
	 id="svg2" xmlns:cc="http://creativecommons.org/ns#" xmlns:dc="http://purl.org/dc/elements/1.1/" xmlns:rdf="http://www.w3.org/1999/02/22-rdf-syntax-ns#" xmlns:svg="http://www.w3.org/2000/svg"
	 xmlns="http://www.w3.org/2000/svg" xmlns:xlink="http://www.w3.org/1999/xlink" x="0px" y="0px" viewBox="0 0 200 232"
	 style="enable-background:new 0 0 200 232;" xml:space="preserve">
<style type="text/css">
	.st0{fill-rule:evenodd;clip-rule:evenodd;fill:#160919;}
</style>
<g>
	<path class="st0" d="M177.6,6H22.4C9.8,6,5.2,10.6,5.2,23.2V175c0,1.4,0.1,2.7,0.2,4c0.3,2.7,0.3,5.4,2.9,8.4
		c0.2,0.3,2.9,2.2,2.9,2.2c1.4,0.7,2.4,1.2,3.9,1.8l76.4,32c4,1.8,5.6,2.5,8.5,2.5v0c0,0,0,0,0,0c0,0,0,0,0,0v0
		c2.9,0.1,4.5-0.7,8.5-2.5l76.4-32c1.6-0.6,2.5-1.1,3.9-1.8c0,0,2.6-1.9,2.9-2.2c2.6-3,2.6-5.7,2.9-8.4c0.1-1.2,0.2-2.5,0.2-4V23.2
		C194.8,10.6,190.2,6,177.6,6z M109.7,35.2h12.8v84.4h-12.8V35.2z M104.1,149.9l0.2,0.3l0.2-0.3l0.2-0.3l0.2-0.3l0.2-0.3l0.2-0.3
		l0.2-0.3l0.2-0.3l0.2-0.3l0.2-0.3l0.2-0.3l0.2-0.3l0.2-0.3l0.2-0.3l0.2-0.3l0.2-0.3l0.2-0.3l0.2-0.3l0.2-0.3l0.2-0.3l0.2-0.3
		l0.2-0.3l0.2-0.3l0.2-0.3l0.2-0.3l0.2-0.3l0.2-0.3l0.2-0.3l0.2-0.3l0.2-0.3l0.2-0.3l0.2-0.3l0.2-0.3l0.2-0.3l0.2-0.3h0.3h0.3h0.3
		h0.3h0.3h0.3h0.3h0.3h0.3h0.3h0.3h0.3h0.3h0.3h0.3h0.3h0.3h0.3h0.3h0.3h0.3v0.4v0.4v0.3v0.4v0.3v0.3v0.4v0.4v0.3v0.4v0.3v0.4v0.3
		v0.4v0.3v0.4v0.4v0.3v0.3v0.3v0.4v0.3v0.4v0.4v0.3v0.4v0.3v0.3v0.4v0.4v0.3v0.3v0.3v0.4v0.3v0.3v0.4v0.3v0.4v0.4v0.3v0.4v0.4v0.3
		v0.3v0.3v0.4v0.4v0.3v0.4v0.4v0.3v0.3v0.4v0.3v0.4v0.3v0.3v0.4v0.3v0.4v0.4v0.3v0.4v0.4v0.3v0.3v0.3v0.4v0.3v0.3v0.4v0.4h-0.3h-0.3
		h-0.3h-0.4h-0.3h-0.3h-0.3h-0.4h-0.3h-0.4h-0.3h-0.3H113h-0.3h-0.3h-0.4h-0.4h-0.3h-0.3v-0.4v-0.4v-0.3v-0.4v-0.4v-0.3v-0.4v-0.4
		v-0.3v-0.3v-0.4v-0.4v-0.4v-0.4v-0.3V160v-0.4v-0.4V159v-0.3v-0.4v-0.3v-0.4v-0.3v-0.4v-0.4v-0.3v-0.4v-0.4v-0.4v-0.3v-0.3v-0.3
		v-0.4v-0.4V153v-0.4v-0.3V152v-0.4v-0.3v-0.4v-0.4l-0.2,0.3l-0.2,0.3l-0.2,0.3l-0.2,0.3l-0.2,0.3l-0.2,0.3l-0.2,0.3l-0.2,0.3
		l-0.2,0.3l-0.2,0.3l-0.2,0.3l-0.2,0.3l-0.2,0.3l-0.2,0.3l-0.2,0.3l-0.2,0.3l-0.2,0.3l-0.2,0.3l-0.2,0.3l-0.2,0.3l-0.2,0.3l-0.2,0.3
		l-0.2,0.3l-0.2,0.3l-0.2,0.3l-0.2,0.3l-0.2,0.3l-0.2,0.3l-0.2,0.3l-0.2,0.3l-0.2,0.3l-0.2,0.3l-0.2,0.3l-0.2,0.3l-0.2,0.3h-0.1
		l-0.2-0.3l-0.2-0.3l-0.2-0.3l-0.2-0.3l-0.2-0.3L103,159l-0.2-0.3l-0.2-0.3l-0.2-0.3l-0.2-0.3l-0.2-0.3l-0.2-0.3l-0.2-0.3l-0.2-0.3
		l-0.2-0.3l-0.2-0.3l-0.2-0.3l-0.2-0.3l-0.2-0.3l-0.2-0.3l-0.2-0.3l-0.2-0.3l-0.2-0.3l-0.2-0.3l-0.2-0.3l-0.2-0.3l-0.2-0.3l-0.2-0.3
		l-0.2-0.3l-0.2-0.3l-0.2-0.3l-0.2-0.3l-0.2-0.3l-0.2-0.3v0.3v0.4v0.4v0.4v0.4v0.3v0.4v0.4v0.4v0.4v0.3v0.3v0.4v0.3v0.4v0.4v0.3v0.3
		v0.4v0.4v0.4v0.4v0.4v0.3v0.4v0.3v0.4v0.3v0.4v0.3v0.4v0.4v0.3v0.3v0.3v0.4v0.4v0.3v0.4v0.4v0.3v0.4v0.4h-0.3h-0.3h-0.3h-0.3h-0.3
		h-0.3h-0.3h-0.3h-0.3h-0.3h-0.3h-0.3H93h-0.3h-0.3H92h-0.3h-0.3h-0.3v-0.4v-0.4v-0.3v-0.3v-0.4v-0.3v-0.3v-0.3v-0.4v-0.4v-0.3v-0.4
		v-0.4v-0.3v-0.4V160v-0.3v-0.4V159v-0.4v-0.3V158v-0.4v-0.4v-0.3v-0.4v-0.4v-0.3v-0.3v-0.3v-0.4v-0.4v-0.3v-0.4v-0.4v-0.3v-0.4
		v-0.3V152v-0.4v-0.3V151v-0.3v-0.4v-0.4v-0.3v-0.3v-0.4v-0.3v-0.4v-0.4v-0.3v-0.4v-0.3v-0.3v-0.3v-0.4v-0.4V145v-0.4v-0.3V144v-0.3
		v-0.4v-0.3v-0.4v-0.4v-0.3v-0.3v-0.4v-0.3v-0.4v-0.4h0.3h0.3H92h0.3h0.3H93h0.3h0.3H94h0.3h0.3H95h0.4h0.3H96h0.3h0.4h0.3h0.3h0.3
		h0.4l0.2,0.3l0.2,0.3l0.2,0.3l0.2,0.3l0.2,0.3l0.2,0.3l0.2,0.3l0.2,0.3l0.2,0.3l0.2,0.3l0.2,0.3l0.2,0.3l0.2,0.3l0.2,0.3l0.2,0.3
		l0.2,0.3l0.2,0.3l0.2,0.3l0.2,0.3l0.2,0.3l0.2,0.3l0.2,0.3l0.2,0.3l0.2,0.3l0.2,0.3l0.2,0.3l0.2,0.3l0.2,0.3l0.2,0.3l0.2,0.3
		l0.2,0.3l0.2,0.3L104.1,149.9z M68.2,35.2h20.1c10.4,0,15.6,5.2,15.6,15.7v22.4c0,10.5-5.2,15.7-15.6,15.7H81v30.6H68.2V35.2z
		 M33.2,35.2h28.5v11.7H46v23.9h15.1v11.7H46v25.4h16v11.7H33.2V35.2z M57.5,151.1v0.3v0.4v0.3v0.3v0.4v0.3v0.4v0.4v0.3v0.4v0.4v0.3
		v0.4v0.3v0.4v0.3v0.4v0.4v0.4v0.3v0.4v0.3v0.3v0.3v0.4v0.4v0.3v0.3v0.3v0.3v0.3v0.4l-0.2,0.2l-0.3,0.2l-0.2,0.2l-0.3,0.2l-0.3,0.2
		l-0.3,0.2l-0.3,0.2l-0.3,0.2l-0.3,0.2l-0.3,0.2l-0.3,0.2l-0.3,0.1l-0.3,0.2l-0.3,0.1l-0.3,0.1l-0.4,0.1l-0.3,0.1l-0.3,0.1l-0.3,0.1
		l-0.3,0.1l-0.3,0.1l-0.3,0.1l-0.4,0.1l-0.3,0.1l-0.3,0.1l-0.3,0.1l-0.3,0l-0.4,0l-0.3,0l-0.4,0l-0.4,0l-0.4,0h-0.4h-0.4h-0.4h-0.4
		l-0.3,0l-0.4,0l-0.3,0l-0.3,0l-0.4,0l-0.3-0.1l-0.3-0.1l-0.3-0.1l-0.3-0.1l-0.3-0.1l-0.3-0.1l-0.3-0.1l-0.3-0.1l-0.3-0.1l-0.3-0.1
		l-0.3-0.1l-0.3-0.1l-0.3-0.1l-0.3-0.2l-0.3-0.2l-0.3-0.2l-0.3-0.2l-0.3-0.2l-0.3-0.2l-0.3-0.2l-0.3-0.2l-0.2-0.2l-0.2-0.2l-0.2-0.2
		l-0.2-0.2l-0.2-0.2l-0.2-0.2l-0.2-0.2l-0.2-0.3l-0.2-0.2l-0.2-0.3l-0.2-0.3l-0.2-0.3l-0.2-0.3l-0.2-0.3l-0.2-0.3l-0.1-0.3l-0.1-0.3
		l-0.1-0.3l-0.1-0.3l-0.1-0.3l-0.1-0.3l-0.1-0.3l-0.1-0.3l-0.1-0.3l-0.1-0.3l-0.1-0.3l0-0.3l-0.1-0.4l0-0.3l0-0.4l0-0.4l0-0.3v-0.4
		V153v-0.1v-0.4l0-0.4v-0.3l0-0.4l0-0.4l0.1-0.3l0-0.4l0.1-0.3l0.1-0.3l0.1-0.4l0.1-0.3l0.1-0.3l0.1-0.3l0.1-0.4l0.1-0.3l0.1-0.3
		l0.1-0.3l0.1-0.3l0.2-0.3l0.2-0.3l0.2-0.3l0.2-0.3l0.2-0.3l0.2-0.3l0.2-0.3l0.2-0.3l0.2-0.2l0.2-0.2l0.2-0.2l0.2-0.2l0.2-0.2
		l0.2-0.2l0.3-0.2l0.2-0.2l0.3-0.2l0.3-0.2l0.3-0.2l0.3-0.2l0.3-0.2l0.3-0.2l0.3-0.2l0.3-0.2l0.3-0.1l0.3-0.1l0.3-0.2l0.3-0.1
		l0.3-0.1l0.3-0.1l0.3-0.1l0.3-0.1l0.3-0.1l0.3-0.1l0.3-0.1l0.3,0l0.3-0.1l0.3,0l0.3,0l0.3,0l0.4,0H46h0.3h0.4h0.4l0.4,0l0.4,0h0.3
		l0.3,0l0.4,0.1l0.3,0l0.3,0.1L50,140l0.3,0.1l0.3,0.1l0.3,0.1l0.3,0.1l0.3,0.1l0.3,0.1l0.3,0.1l0.3,0.1l0.3,0.1l0.3,0.1l0.3,0.2
		l0.3,0.1l0.3,0.2l0.3,0.2l0.3,0.2l0.3,0.2l0.3,0.2l0.3,0.2l0.3,0.2l0.3,0.2l0.3,0.2l0.3,0.2l-0.2,0.3l-0.2,0.2l-0.2,0.3l-0.2,0.3
		l-0.2,0.3l-0.2,0.2l-0.2,0.3l-0.2,0.3l-0.2,0.2l-0.2,0.3l-0.2,0.3l-0.2,0.3l-0.2,0.2l-0.2,0.3l-0.2,0.3l-0.2,0.3l-0.2,0.2l-0.2,0.3
		l-0.3-0.2l-0.3-0.2l-0.3-0.2l-0.3-0.2l-0.3-0.2l-0.3-0.2l-0.3-0.2l-0.3-0.2l-0.3-0.1l-0.3-0.1l-0.3-0.1l-0.3-0.1l-0.3-0.1l-0.3-0.1
		l-0.3-0.1l-0.3-0.1l-0.3,0l-0.4,0l-0.4,0h-0.4H46l-0.3,0l-0.3,0l-0.3,0.1l-0.3,0.1l-0.3,0.1l-0.3,0.1l-0.3,0.1l-0.3,0.1l-0.3,0.2
		l-0.3,0.2l-0.3,0.2l-0.2,0.2l-0.2,0.2l-0.2,0.2l-0.2,0.2l-0.2,0.2l-0.2,0.3l-0.2,0.2l-0.2,0.3l-0.2,0.3l-0.2,0.3l-0.1,0.3l-0.1,0.3
		l-0.1,0.3l-0.1,0.3l-0.1,0.3l-0.1,0.3l-0.1,0.4l0,0.3l0,0.3v0.4v0.1v0.4l0,0.3l0,0.3l0,0.4l0.1,0.3L40,155l0.1,0.3l0.1,0.3l0.1,0.3
		l0.1,0.3l0.1,0.3l0.2,0.3l0.2,0.3l0.2,0.3l0.2,0.3l0.2,0.2l0.2,0.2l0.2,0.2l0.2,0.2l0.3,0.2l0.3,0.2l0.3,0.2l0.3,0.2l0.3,0.1
		l0.3,0.1l0.3,0.1l0.3,0.1l0.3,0.1l0.4,0.1l0.3,0.1l0.3,0l0.4,0h0.4h0.4l0.4,0l0.4,0l0.3,0l0.3-0.1L49,160l0.3-0.1l0.3-0.1l0.3-0.1
		l0.3-0.1l0.3-0.1l0.2-0.1l0.3-0.2v-0.3v-0.3V158v-0.3v-0.4V157v-0.4v-0.3v-0.4h-0.3h-0.3H50h-0.3h-0.3H49h-0.3h-0.3H48h-0.3h-0.3
		H47h-0.3h-0.3H46v-0.3v-0.3v-0.4v-0.3v-0.4v-0.3v-0.3v-0.4v-0.3v-0.3v-0.3v-0.3v-0.4v-0.3v-0.3h0.3h0.3H47h0.3h0.3H48h0.4h0.3h0.3
		h0.3h0.3h0.3h0.3h0.3h0.4h0.3h0.3h0.3h0.3h0.3h0.3h0.3H54h0.3h0.3H55h0.4h0.3h0.3h0.3h0.3h0.3h0.3V151.1z M62.9,165.6h-0.4h-0.3
		h-0.3h-0.4h-0.4h-0.3h-0.3H60l0.1-0.3l0.1-0.3l0.1-0.3l0.1-0.3l0.1-0.3l0.1-0.3l0.1-0.3l0.1-0.3l0.1-0.3l0.1-0.4l0.1-0.3l0.1-0.3
		l0.1-0.3l0.1-0.3l0.1-0.3l0.1-0.3l0.1-0.3l0.1-0.3l0.1-0.3l0.1-0.3l0.1-0.3l0.1-0.4l0.1-0.3l0.1-0.3l0.1-0.3l0.1-0.3l0.1-0.3
		l0.1-0.4l0.1-0.3l0.1-0.3l0.1-0.3l0.1-0.3l0.1-0.3l0.1-0.3l0.1-0.3l0.1-0.3l0.1-0.3l0.1-0.3l0.1-0.3l0.1-0.4l0.1-0.3l0.1-0.3
		l0.1-0.3l0.1-0.3l0.1-0.3l0.1-0.3l0.1-0.4l0.1-0.3l0.1-0.3l0.1-0.3l0.1-0.3l0.1-0.3l0.1-0.4l0.1-0.3l0.1-0.3l0.1-0.3l0.1-0.3
		l0.1-0.3l0.1-0.4l0.1-0.3l0.1-0.3l0.1-0.3l0.1-0.3l0.1-0.3l0.1-0.3l0.1-0.3l0.1-0.3l0.1-0.3l0.1-0.3l0.1-0.3l0.1-0.3l0.1-0.3
		l0.1-0.3l0.1-0.3l0.1-0.3l0.1-0.3l0.1-0.4l0.1-0.3l0.1-0.3l0.1-0.3h0.3h0.3h0.3h0.3h0.4h0.3h0.3h0.3h0.4h0.3h0.3h0.3h0.3h0.3h0.3
		h0.3h0.4H77h0.3l0.1,0.3l0.1,0.3l0.1,0.3l0.1,0.4l0.1,0.3l0.1,0.3l0.1,0.3l0.1,0.3l0.1,0.3l0.1,0.3l0.1,0.3l0.1,0.3l0.1,0.3
		l0.1,0.3l0.1,0.3l0.1,0.3l0.1,0.3l0.1,0.3l0.1,0.3l0.1,0.3l0.1,0.3l0.1,0.4l0.1,0.3l0.1,0.3l0.1,0.3l0.1,0.3l0.1,0.3l0.1,0.4
		l0.1,0.3l0.1,0.3l0.1,0.3l0.1,0.3l0.1,0.3l0.1,0.4l0.1,0.3l0.1,0.3l0.1,0.3l0.1,0.3l0.1,0.3l0.1,0.3l0.1,0.4l0.1,0.3l0.1,0.3
		l0.1,0.3l0.1,0.3l0.1,0.3l0.1,0.3l0.1,0.3l0.1,0.3l0.1,0.3l0.1,0.3l0.1,0.3l0.1,0.4l0.1,0.3l0.1,0.3l0.1,0.3l0.1,0.3l0.1,0.3
		l0.1,0.4l0.1,0.3l0.1,0.3l0.1,0.3l0.1,0.3l0.1,0.3l0.1,0.3l0.1,0.3l0.1,0.3l0.1,0.3l0.1,0.3l0.1,0.3l0.1,0.4l0.1,0.3l0.1,0.3
		l0.1,0.3l0.1,0.3l0.1,0.3l0.1,0.3l0.1,0.3l0.1,0.3l0.1,0.3h-0.3h-0.3h-0.3h-0.3h-0.4h-0.3h-0.3h-0.3H85h-0.3h-0.3H84h-0.3h-0.3H83
		h-0.3h-0.3h-0.3h-0.3h-0.3h-0.3l-0.1-0.3l-0.1-0.3l-0.1-0.3l-0.1-0.3l-0.1-0.3l-0.1-0.3l-0.1-0.3l-0.1-0.3l-0.1-0.3l-0.1-0.3
		l-0.1-0.3l-0.1-0.3l-0.1-0.3l-0.1-0.3l-0.1-0.3h-0.3h-0.3H78h-0.3h-0.3H77h-0.3h-0.3h-0.3h-0.3h-0.3h-0.3h-0.4h-0.3h-0.3h-0.4h-0.3
		h-0.3h-0.3h-0.3h-0.3h-0.3h-0.3h-0.3h-0.3h-0.3h-0.3h-0.4H69l-0.1,0.3l-0.1,0.3l-0.1,0.3l-0.1,0.3l-0.1,0.3l-0.1,0.3l-0.1,0.3
		l-0.1,0.3l-0.1,0.3l-0.1,0.3l-0.1,0.3l-0.1,0.3l-0.1,0.3l-0.1,0.3l-0.1,0.3h-0.3h-0.3H66h-0.4h-0.3H65h-0.3h-0.3h-0.3h-0.3h-0.3
		H62.9z M99.4,208.2l-36-12.4h73.5L99.4,208.2z M143.1,160.2v0.3v0.4v0.3v0.4v0.3v0.3v0.3v0.3v0.3v0.3v0.3v0.3v0.3v0.3v0.3v0.4h-0.3
		h-0.3H142h-0.3h-0.3H141h-0.3h-0.3h-0.3h-0.4h-0.3h-0.3h-0.3h-0.4h-0.3h-0.3h-0.3h-0.4h-0.3h-0.3h-0.3h-0.3H135h-0.3h-0.3H134h-0.4
		h-0.3h-0.3h-0.4h-0.3h-0.3h-0.3h-0.3h-0.3h-0.3h-0.3h-0.3h-0.3h-0.3h-0.3h-0.3H128h-0.3h-0.3H127h-0.3h-0.3h-0.4h-0.3h-0.3h-0.4
		h-0.3h-0.3h-0.3h-0.3h-0.3h-0.3v-0.4v-0.4v-0.3v-0.3v-0.4v-0.3v-0.3v-0.3v-0.4v-0.4v-0.3v-0.4v-0.4v-0.3v-0.4V160v-0.3v-0.4V159
		v-0.4v-0.3V158v-0.4v-0.4v-0.3v-0.4v-0.4v-0.3v-0.3v-0.3v-0.4v-0.4v-0.3v-0.4v-0.4v-0.3v-0.4v-0.3V152v-0.4v-0.3V151v-0.3v-0.4
		v-0.4v-0.3v-0.3v-0.4v-0.3v-0.4v-0.4v-0.3v-0.4v-0.3v-0.3v-0.3v-0.4v-0.4V145v-0.4v-0.3V144v-0.3v-0.4v-0.3v-0.4v-0.4v-0.3v-0.3
		v-0.4v-0.3v-0.4v-0.4h0.3h0.3h0.3h0.3h0.3h0.3h0.4h0.3h0.3h0.3h0.3h0.3h0.3h0.3h0.3h0.3h0.3h0.3h0.3h0.3h0.3h0.3h0.3h0.3h0.3h0.3
		h0.4h0.3h0.3h0.3h0.4h0.3h0.3h0.3h0.3h0.4h0.3h0.3h0.3h0.4h0.3h0.3h0.3h0.3h0.3h0.3h0.3h0.3h0.3h0.3h0.3h0.4h0.3h0.3h0.3h0.3h0.3
		h0.3v0.4v0.3v0.3v0.4v0.3v0.3v0.4v0.4v0.3v0.4v0.3v0.3v0.3v0.3v0.4v0.3v0.4h-0.3h-0.3h-0.3h-0.3h-0.3h-0.3h-0.3h-0.3h-0.3h-0.3
		h-0.3h-0.3h-0.3h-0.3h-0.4h-0.3H137h-0.3h-0.4H136h-0.3h-0.3H135h-0.3h-0.3h-0.3h-0.4h-0.3h-0.3h-0.3h-0.4h-0.3h-0.3h-0.3h-0.3
		h-0.3h-0.3h-0.3h-0.3v0.3v0.3v0.3v0.4v0.4v0.3v0.3v0.4v0.3v0.4v0.3v0.4h0.3h0.3h0.3h0.3h0.3h0.3h0.3h0.3h0.3h0.3h0.3h0.3h0.4h0.3
		h0.3h0.3h0.4h0.3h0.3h0.3h0.3h0.3h0.3h0.3h0.3h0.3h0.3h0.3h0.3h0.3h0.3h0.3h0.3h0.3h0.3v0.3v0.3v0.3v0.3v0.3v0.3v0.4v0.3v0.4v0.3
		v0.4v0.3v0.3v0.4v0.3v0.3h-0.3h-0.3h-0.3h-0.3h-0.3h-0.3h-0.3h-0.3h-0.3h-0.3h-0.3h-0.3h-0.3h-0.3h-0.3H136h-0.3h-0.3H135h-0.3
		h-0.3h-0.3h-0.4h-0.3h-0.3h-0.3h-0.3h-0.3h-0.3h-0.3h-0.3h-0.3h-0.3h-0.3h-0.3v0.3v0.4v0.3v0.4v0.4v0.4v0.3v0.4v0.3v0.4v0.4v0.3
		h0.3h0.3h0.3h0.3h0.3h0.3h0.3h0.3h0.3h0.4h0.3h0.3h0.4h0.3h0.3h0.3h0.3h0.3h0.3h0.3h0.3h0.4h0.3h0.3h0.3h0.4h0.3h0.3h0.3h0.4h0.3
		h0.3h0.3h0.4h0.3h0.3h0.3h0.3h0.3V160.2z M129.3,104.6V50.2c0-10.5,5.2-15.7,15.6-15.7h6.2c10.4,0,15.5,5.1,15.5,15.5v17.2H154
		V50.8c0-3.4-1.6-4.9-4.8-4.9H147c-3.4,0-4.9,1.6-4.9,4.9V104c0,3.4,1.6,4.9,4.9,4.9h2.4c3.2,0,4.8-1.6,4.8-4.9V85h12.6v19.6
		c0,10.5-5.2,15.7-15.6,15.7h-6.4C134.4,120.3,129.3,115.1,129.3,104.6z M167.2,157.8L167.2,157.8v0.5l0,0.4l0,0.4l0,0.4l-0.1,0.4
		l-0.1,0.3l-0.1,0.3l-0.1,0.4l-0.1,0.3l-0.1,0.3l-0.1,0.3l-0.2,0.3l-0.2,0.3l-0.2,0.3l-0.2,0.3l-0.2,0.2l-0.2,0.2l-0.2,0.2l-0.3,0.2
		l-0.2,0.2l-0.3,0.2l-0.3,0.2l-0.3,0.2l-0.3,0.2l-0.3,0.1l-0.3,0.2l-0.4,0.1l-0.3,0.1l-0.3,0.1l-0.3,0.1l-0.3,0.1l-0.3,0.1l-0.3,0.1
		l-0.3,0.1l-0.4,0.1l-0.3,0l-0.3,0l-0.4,0l-0.4,0l-0.3,0h-0.3h-0.4h-0.4h-0.3l-0.3,0h-0.4l-0.3,0l-0.3,0l-0.4,0l-0.3-0.1l-0.3,0
		l-0.4-0.1l-0.3-0.1l-0.3-0.1l-0.3-0.1l-0.3-0.1l-0.3-0.1l-0.3-0.1l-0.3-0.1l-0.3-0.1l-0.3-0.1l-0.3-0.1l-0.3-0.1l-0.3-0.1l-0.3-0.1
		l-0.3-0.2l-0.3-0.1l-0.3-0.2l-0.3-0.2l-0.3-0.2l-0.3-0.2l-0.3-0.2l-0.3-0.2l-0.3-0.2l-0.3-0.2l-0.3-0.2l-0.2-0.2l-0.3-0.2l0.2-0.3
		l0.2-0.2l0.2-0.3l0.2-0.3l0.2-0.2l0.2-0.3l0.2-0.3l0.2-0.2l0.2-0.3l0.2-0.2l0.2-0.3l0.2-0.3l0.2-0.2l0.2-0.3l0.2-0.3l0.2-0.2
		l0.2-0.3l0.3,0.2l0.3,0.2l0.3,0.2l0.3,0.2l0.3,0.2l0.3,0.2l0.3,0.2l0.3,0.1l0.3,0.2l0.3,0.1l0.3,0.1l0.3,0.1l0.3,0.1l0.3,0.1
		l0.3,0.1l0.3,0.1l0.3,0.1l0.4,0.1l0.3,0.1l0.3,0.1l0.4,0l0.3,0.1h0.3l0.4,0h0.3h0.4l0.4,0l0.4-0.1l0.3-0.1l0.3-0.1l0.3-0.1l0.2-0.1
		l0.3-0.2l0.2-0.2l0.1-0.3l0.1-0.3l0-0.4v-0.1l0-0.4l-0.1-0.4l-0.2-0.2l-0.2-0.2l-0.3-0.2l-0.3-0.1l-0.3-0.1l-0.4-0.1l-0.4-0.2
		l-0.2-0.1l-0.3-0.1l-0.3-0.1l-0.3-0.1l-0.3-0.1l-0.4-0.1l-0.4-0.1l-0.3-0.1l-0.4-0.1l-0.3-0.1l-0.4-0.1l-0.3-0.1l-0.3-0.1l-0.3-0.1
		l-0.3-0.1l-0.3-0.1l-0.3-0.1l-0.3-0.1l-0.4-0.1l-0.3-0.1l-0.3-0.1l-0.3-0.1l-0.3-0.2l-0.3-0.2l-0.3-0.2l-0.3-0.2l-0.3-0.2l-0.3-0.2
		l-0.2-0.2l-0.2-0.2l-0.2-0.2l-0.2-0.2l-0.2-0.2l-0.2-0.2l-0.2-0.3l-0.2-0.3l-0.1-0.2l-0.1-0.3l-0.1-0.3l-0.1-0.3l-0.1-0.4l-0.1-0.3
		l0-0.3l0-0.4l0-0.4v-0.4v-0.1v-0.4l0-0.3l0-0.3l0-0.4l0.1-0.3l0.1-0.3l0.1-0.3l0.1-0.3l0.1-0.3l0.1-0.3l0.1-0.3l0.2-0.3l0.2-0.3
		l0.2-0.3l0.2-0.3l0.2-0.3l0.2-0.2l0.2-0.3l0.3-0.2l0.2-0.2l0.3-0.2l0.3-0.2l0.3-0.2l0.3-0.2l0.3-0.1l0.3-0.2l0.3-0.1l0.3-0.1
		l0.3-0.1l0.3-0.1l0.3-0.1l0.3-0.1l0.3-0.1l0.3-0.1l0.3-0.1l0.3,0l0.4,0l0.3,0l0.3,0h0.3h0.4h0.4h0.4l0.4,0l0.4,0h0.3l0.4,0l0.3,0.1
		l0.4,0l0.3,0.1l0.3,0.1l0.3,0.1l0.3,0.1l0.3,0.1l0.3,0.1l0.3,0.1l0.3,0.1l0.3,0.1l0.3,0.1l0.3,0.1l0.3,0.1l0.3,0.1l0.3,0.2l0.3,0.1
		l0.3,0.2l0.3,0.2l0.3,0.2l0.3,0.2l0.3,0.2l0.3,0.2l0.3,0.2l0.3,0.2l-0.2,0.3l-0.2,0.3l-0.2,0.3l-0.2,0.3l-0.2,0.3l-0.2,0.3
		l-0.2,0.3l-0.2,0.3l-0.2,0.3l-0.2,0.3l-0.2,0.3l-0.2,0.3l-0.2,0.3l-0.2,0.3l-0.2,0.3l-0.2,0.3l-0.2,0.3l-0.3-0.2l-0.3-0.2l-0.3-0.2
		l-0.3-0.2l-0.3-0.1l-0.3-0.2l-0.3-0.1l-0.3-0.1l-0.3-0.1l-0.3-0.1l-0.3-0.1l-0.3-0.1l-0.4-0.1l-0.3-0.1l-0.3-0.1l-0.4-0.1l-0.3-0.1
		l-0.3-0.1l-0.3,0l-0.4,0l-0.3,0h-0.3h-0.4l-0.4,0.1l-0.4,0.1l-0.3,0.1l-0.3,0.1l-0.2,0.1l-0.3,0.3l-0.2,0.3l-0.1,0.3l0,0.3v0.1
		l0,0.5l0.2,0.4l0.1,0.2l0.2,0.2l0.3,0.2l0.3,0.2l0.3,0.1l0.4,0.1l0.4,0.1l0.3,0.1l0.3,0.1l0.3,0.1l0.3,0.1l0.3,0.1l0.4,0.1l0.4,0.1
		l0.4,0.1l0.4,0.1l0.3,0.1l0.4,0.1l0.4,0.1l0.3,0.1l0.3,0.1l0.3,0.1l0.4,0.1l0.3,0.1l0.3,0.1l0.4,0.1l0.3,0.2l0.3,0.1l0.3,0.2
		l0.3,0.2l0.3,0.2l0.3,0.2l0.3,0.2l0.3,0.2l0.3,0.2l0.3,0.2l0.2,0.3l0.2,0.2l0.2,0.3l0.2,0.3l0.2,0.3l0.2,0.3l0.1,0.3l0.1,0.3
		l0.1,0.3l0.1,0.3l0.1,0.4l0.1,0.4l0,0.3l0,0.4V157.8z"/>
	<polygon class="st0" points="71.8,155.4 72.1,155.4 72.5,155.4 72.8,155.4 73.2,155.4 73.5,155.4 73.9,155.4 74.2,155.4 
		74.5,155.4 74.9,155.4 75.2,155.4 75.6,155.4 75.9,155.4 76.3,155.4 76.6,155.4 77,155.4 76.8,155.1 76.7,154.8 76.6,154.5 
		76.4,154.1 76.3,153.8 76.2,153.5 76,153.2 75.9,152.8 75.8,152.5 75.7,152.2 75.6,151.9 75.4,151.6 75.3,151.2 75.2,150.9 
		75,150.6 74.9,150.3 74.8,149.9 74.7,149.6 74.5,149.3 74.4,149 74.3,148.6 74.2,148.3 74,148 73.9,148.3 73.8,148.6 73.6,149 
		73.5,149.3 73.4,149.6 73.3,149.9 73.1,150.3 73,150.6 72.9,150.9 72.7,151.2 72.6,151.6 72.5,151.9 72.4,152.2 72.2,152.5 
		72.1,152.8 72,153.2 71.8,153.5 71.7,153.8 71.6,154.1 71.4,154.5 71.3,154.8 71.2,155.1 71.1,155.4 71.4,155.4 	"/>
	<path class="st0" d="M86.3,46.6H81v31.1h5.3c3.2,0,4.8-1.6,4.8-4.9V51.5C91.1,48.1,89.5,46.6,86.3,46.6z"/>
</g>
</svg>
