<?xml version="1.0" encoding="utf-8"?>
<!-- Generator: Adobe Illustrator 16.0.0, SVG Export Plug-In . SVG Version: 6.00 Build 0)  -->
<!DOCTYPE svg PUBLIC "-//W3C//DTD SVG 1.1//EN" "http://www.w3.org/Graphics/SVG/1.1/DTD/svg11.dtd">
<svg version="1.1" id="Layer_1" xmlns="http://www.w3.org/2000/svg" xmlns:xlink="http://www.w3.org/1999/xlink" x="0px" y="0px"
	 width="202px" height="62px" viewBox="0 0 202 62" enable-background="new 0 0 202 62" xml:space="preserve">
<g id="esl_logo">
	<path fill="#FFFFFF" d="M74.269,44.348c0,6.412,5.198,11.609,11.609,11.609h28.301V44.348H87.537v-8.312h24.895V25.732H87.537
		v-8.039h26.643V6.084H85.87c-6.407,0-11.601,5.195-11.601,11.602V44.348z"/>
	<path fill="#FFFFFF" d="M158.691,40.838L158.691,40.838c-0.004-8.344-6.77-15.105-15.113-15.105h-12.007v-8.039h24.72V6.084
		h-23.013c-8.271,0-14.976,6.705-14.976,14.977c0,8.27,6.705,14.975,14.976,14.975h12.146v8.312h-24.723v11.609h22.877
		C151.928,55.957,158.694,49.188,158.691,40.838"/>
	<path fill="#FFFFFF" d="M175.045,55.957h25.139V44.348h-23.479V6.084h-13.269v38.264C163.436,50.76,168.635,55.957,175.045,55.957"
		/>
	<path fill="#FFFFFF" d="M30.634,0.682c-16.817,0-30.45,13.633-30.45,30.451c0,16.816,13.633,30.449,30.45,30.449
		s30.45-13.633,30.45-30.449C61.084,14.314,47.451,0.682,30.634,0.682z M8.618,42.961l23.17-36.789
		c5.565,0.252,10.655,2.322,14.689,5.635L11.31,46.975C10.289,45.732,9.386,44.389,8.618,42.961z M14.889,50.533l35.147-35.146
		c3.292,4.055,5.339,9.158,5.562,14.732L18.93,53.211C17.494,52.449,16.142,51.551,14.889,50.533z M24.859,55.443l30.198-19.018
		C52.804,47.717,40.799,58.99,24.859,55.443z"/>
</g>
</svg>
