<?xml version="1.0" encoding="utf-8"?>
<!-- Generator: Adobe Illustrator 16.0.0, SVG Export Plug-In . SVG Version: 6.00 Build 0)  -->
<!DOCTYPE svg PUBLIC "-//W3C//DTD SVG 1.1//EN" "http://www.w3.org/Graphics/SVG/1.1/DTD/svg11.dtd">
<svg version="1.1" id="Layer_1" xmlns="http://www.w3.org/2000/svg" xmlns:xlink="http://www.w3.org/1999/xlink" x="0px" y="0px"
	 width="266.4px" height="216px" viewBox="0 0 266.4 216" enable-background="new 0 0 266.4 216" xml:space="preserve">
<path fill-rule="evenodd" clip-rule="evenodd" fill="#FFFFFF" d="M50.442,23.772c3.946-1.955,7.662-3.098,11.366-4.31
	c12.026-3.941,24.401-5.471,36.937-6.227c12.7-0.766,25.264,0.692,37.817,2.288c17.322,2.204,34.692,3.709,52.163,2.852
	c13.1-0.643,26.044-2.342,38.694-6.175c6.838-2.071,13.264-4.813,19.414-8.359c4.566-2.633,9.911-2.229,13.738,0.896
	c4.511,3.683,6.128,8.513,4.322,13.806c-6.827,19.985-17.006,38.089-30.797,54.111c-8.343,9.69-17.521,18.549-28.204,25.603
	c-10.199,6.736-20.959,12.57-31.764,18.304c-9.645,5.114-19.795,9.107-29.588,13.866c-12.82,6.227-24.248,14.547-34.634,24.312
	c-5.953,5.597-11.275,11.731-16.279,18.18c-1.298,1.673-1.382,3.082-0.667,4.983c3.296,8.803,6.472,17.648,9.677,26.484
	c1.539,4.247,0.779,5.825-3.51,7.389c-3.514,1.284-7.02,2.584-10.547,3.831c-2.74,0.969-4.64,0.148-5.824-2.473
	c-0.354-0.783-0.606-1.614-0.901-2.426C62.635,157.896,43.398,105.087,24.239,52.25c-0.781-2.15-1.898-3.088-4.117-3.606
	C5.221,45.172-3.18,29.827,2.641,15.605C9.525-1.208,29.348-4.57,42.04,6.172C47.327,10.647,49.767,16.487,50.442,23.772"/>
</svg>
