<?xml version="1.0" encoding="utf-8"?>
<!-- Generator: Adobe Illustrator 26.0.1, SVG Export Plug-In . SVG Version: 6.00 Build 0)  -->
<svg version="1.1" id="Layer_1" xmlns="http://www.w3.org/2000/svg" xmlns:xlink="http://www.w3.org/1999/xlink" x="0px" y="0px"
	 viewBox="0 0 440 138" style="enable-background:new 0 0 440 138;" xml:space="preserve">
<style type="text/css">
	.st0{fill:#FDE9D5;}
	.st1{fill:none;stroke:#F5902C;stroke-width:8;stroke-linecap:round;stroke-linejoin:round;stroke-miterlimit:10;}
	.st2{fill:#F5902C;}
</style>
<path class="st0" d="M6.07,17.88c-1.11,30.49-2.53,52.54-1.12,82.98c0.4,8.69,4.36,18.94,4.06,27.09c-0.01,0.2,0.35-0.24,0.54-0.23
	c3.08,0.11,6.63-0.8,9.78-1.03c7.89-0.56,15.78-0.59,23.72-0.3c39.45,1.44,75.8,2.54,114.9,0.7c38.19-1.8,202.02-0.2,246.85,0.5
	c7.96,0.12,23.55-1.34,23.47-2.33c-0.27-3.46,0.06-17.85-0.05-21.33c-0.31-9.6-0.36-16.94-0.91-26.49
	c-0.97-16.8-0.81-34.18-2.48-50.85c-0.31-3.12,0.47-11.14-1.83-13.61c-1.34-1.44-11.33-1.24-13.16-1.06
	c-13.49,1.35-26.74,1.72-40.28,1.22c-56.18-2.05-115-6.02-171.03-1.17c-39.86,3.45-79.21-2.12-118.99-0.28
	C55.38,12.79,29.38,18.73,6.07,17.88"/>
<path class="st1" d="M8.36,18.96C7.25,49.44,5.83,71.5,7.24,101.93c0.4,8.69,4.36,18.94,4.06,27.09c-0.01,0.2,0.35-0.24,0.54-0.23
	c3.08,0.11,6.63-0.8,9.78-1.03c7.89-0.56,15.78-0.59,23.72-0.3c39.45,1.44,75.8,2.54,114.9,0.7c38.19-1.8,199.02-1.01,243.85-0.32
	c7.96,0.12,23.37-2.38,23.29-3.37c-0.27-3.46-0.33-16.7-0.44-20.17c-0.31-9.6,0.65-19.19,0.1-28.75c-0.97-16.8,1.75-31.22,0.09-47.9
	c-0.31-3.12,0.47-11.14-1.83-13.61c-1.34-1.44-11.33-1.24-13.16-1.06c-13.49,1.35-26.74,1.72-40.28,1.22
	c-56.18-2.05-115-6.02-171.03-1.17c-39.86,3.45-79.21-2.12-118.99-0.28C57.67,13.87,31.67,19.81,8.36,18.96"/>
<path class="st2" d="M93.59,72.78C93.57,62.29,93.87,51.82,94,41.34c0.02-2-0.06-4-0.15-6c-0.09-2.02-1.29-2.7-3.2-2.54
	c-4.13,0.35-8.27,0.75-12.4,0.95c-1.66,0.09-2.61,0.79-2.76,2.29c-0.26,2.56-0.53,5.15-0.39,7.71c0.43,8.39,1.18,16.78,1.55,25.18
	c0.21,4.81-0.11,9.65-0.08,14.46c0.01,1.33,0.41,2.64,0.63,3.96c0.35,2.08,0.73,4.15,1.06,6.23c0.5,3.14,2.93,2.9,5.18,3.01
	c0.24,0.01,0.49,0.22,0.72,0.19c4.02-0.51,5.55-0.59,9.55-1.24c0.52-0.09,0.66-3.02,0.66-3.02c0.03-1.54,0.12-2.94,0.05-4.32
	C94.16,83.05,93.59,77.92,93.59,72.78z"/>
<path class="st2" d="M139.29,58.21c-4.97-3.11-11.14-1.46-17-1.54c0-0.24-3.69-0.85-5.39-0.39c-2.38,0.64-5.17,1.23-6.8,2.85
	c-5.92,5.83-8.79,13.09-8.23,21.5c0.3,4.35,1.88,8.32,5.57,10.71c5.7,3.69,12.03,4.38,18.6,2.49c0.48-0.14,1.42-0.17,1.49,0.01
	c0.22,0.52,0.24,1.23,0.08,1.79c-0.45,1.64-1.12,3.23-1.51,4.88c-0.6,2.58-1.85,3.97-3.71,3.84c-2.05-0.14-3.7-2.11-3.45-4.59
	c0.22-2.09-0.73-3.02-2.53-3.13c-3.75-0.23-7.51-0.34-11.26-0.3c-0.49,0-1.42,1.15-1.36,1.67c0.27,2.18,0.46,4.52,1.41,6.44
	c1.39,2.81,2.83,6.41,5.29,7.7c5.31,2.76,11.1,4.51,17.5,3.16c8.06-1.7,12.2-5.83,13.08-13.99c0.82-7.66,2.17-15.29,2.56-22.97
	c0.31-6.11,0.26-3.08-0.17-9.21C143.35,67.58,143.81,61.02,139.29,58.21z M129.42,76.22c-0.71,4.35-3.68,6.66-7.06,6.9
	c-1.21,0.09-2.93-0.63-3.69-1.56c-4.4-5.45-2.41-7.27,1.94-11.97c1.39-1.5,5.76-2.43,6.73-0.55
	C128.25,70.88,130.06,69.81,129.42,76.22z"/>
<path class="st2" d="M187.53,64.49c-0.29-2.74-0.84-7.84-5.44-8.62c-6.42-1.09-13.64-2.31-19.61,2.61
	c-1.59-2.32-3.19-3.54-5.02-3.83c-2.09-0.33-4.46,0.62-7.46,2.98c-0.22,0.17-0.32,0.45-0.27,0.72c1.66,9.62,1.14,19.43,0.63,28.91
	c-0.13,2.44-0.26,4.87-0.36,7.29c-0.01,0.3,0.16,0.58,0.43,0.71c2.18,1.04,4.24,0.77,6.06,0.53c1.06-0.14,2.07-0.27,3.05-0.16
	c0.95,0.11,1.77-0.14,2.38-0.72c0.71-0.67,1.07-1.71,1.01-2.94c-0.13-2.65,0-5.36,0.13-7.98c0.18-3.62,0.37-7.37-0.14-11.1
	c-0.61-4.51,0.58-7.11,3.63-7.96c3.56-0.99,4.83,1.28,6.59,5.08c3.46,7.45,4.97,15.62,4.76,25.74c0,0.25,0.12,0.49,0.32,0.63
	c0.13,0.09,0.28,0.13,0.43,0.13c0.09,0,0.19-0.02,0.28-0.05c1.82-0.73,3.52-0.8,5.01-0.86l0.74-0.03c2.05-0.11,3.46-0.65,4.33-1.65
	c1.12-1.3,1.12-3.19,0.97-4.87C189.25,81.21,188.43,72.94,187.53,64.49z"/>
<path class="st2" d="M273.66,56.12c-6.42-1.09-13.64-2.31-19.61,2.61c-1.59-2.32-3.19-3.54-5.02-3.83c-2.1-0.33-4.46,0.62-7.46,2.98
	c-0.22,0.17-0.32,0.45-0.27,0.72c1.66,9.63,1.14,19.43,0.63,28.92c-0.13,2.44-0.26,4.87-0.36,7.29c-0.01,0.3,0.16,0.58,0.43,0.71
	c1.21,0.58,2.37,0.75,3.49,0.75c0.9,0,1.76-0.11,2.57-0.22c1.07-0.14,2.08-0.28,3.05-0.16c0.94,0.11,1.77-0.14,2.38-0.72
	c0.71-0.67,1.07-1.71,1-2.94c-0.13-2.65,0-5.36,0.13-7.98c0.18-3.62,0.37-7.37-0.14-11.1c-0.61-4.51,0.58-7.11,3.63-7.96
	c1.6-0.45,2.17,0.45,3.13,2.2c0.82,1.5,1.87,3.35,4.16,3.31l1.25-0.02c5.58-0.07,12.52-0.15,12.46-5.88
	C279.05,59.79,277.11,56.71,273.66,56.12z"/>
<path class="st2" d="M225.85,57.08c-6.04-2.05-12.08-1.36-17.93,2.05c-0.19,0.11-0.54,0.23-0.73,0.26
	c-0.18-0.07-0.41-0.07-0.66,0.04c-1.65,0.74-12.71,11.3-11.29,18.45l0.33,1.68c0.45,2.3,0.46,2.34,0.93,3.69
	c0.21,0.6,0.52,1.47,1.01,2.97c0.43,1.32,3.1,6.58,8.27,8.23c1.6,0.52,3.06,0.72,4.46,0.72c2.42,0,4.66-0.61,7.11-1.28
	c0.87-0.24,1.78-0.49,2.74-0.72c1.03,0.16,4.02-0.26,5.34-1l0.69-0.38c1.87-1.03,3.99-2.2,5.06-3.99c4.18-6.9,5.05-14.25,2.59-21.86
	C232.3,61.4,229.56,58.34,225.85,57.08z M214.2,67.31L214.2,67.31c0.33-0.11,0.73-0.16,1.15-0.16c0.96,0,2.04,0.28,2.66,0.74
	c5.64,4.23,4.55,6.23,1.32,12.17l-0.33,0.6c-0.67,1.22-2.86,2.54-4.51,2.73c-0.49,0.05-1.15,0.03-1.51-0.38
	c-0.52-0.6-1.05-0.87-1.51-1.11c-0.97-0.5-1.89-0.98-2.61-5.79C208.49,71.83,210.49,68.54,214.2,67.31z"/>
<path class="st2" d="M312.87,58.7c-5.44-4.32-12.19-2.75-18.07-0.65c-10.51,3.76-13.73,14.23-11.49,22.63
	c0.24,0.88,0.44,1.78,0.64,2.66c1.03,4.52,2.1,9.2,7.36,12.08c3.59,1.97,7.4,2.93,11.12,2.93c5.7,0,11.2-2.26,15.46-6.63
	c0.13-0.13,0.2-0.31,0.21-0.49c0.14-3.14-0.64-4.07-2.06-5.75c-0.35-0.42-0.75-0.89-1.2-1.48c-0.16-0.22-0.44-0.32-0.7-0.29
	l-1.28,0.18c-0.12,0.02-0.24,0.06-0.34,0.14c-2.18,1.59-4.73,2.07-7.43,2.57c-0.8,0.15-1.6,0.3-2.39,0.48
	c-2.61,0.6-5.16-1.34-6.75-5.09c0.86-0.14,1.71-0.3,2.54-0.46c3.84-0.73,7.47-1.42,11.31,0.15c1.8,0.74,3.76,0.67,5.65,0.6
	c0.89-0.03,1.74-0.06,2.56-0.01c1.24,0.07,2.38-0.41,3.21-1.35c1.05-1.2,1.47-2.96,1.13-4.73C320.82,68.38,317.63,62.49,312.87,58.7
	z M308.54,70.3c-0.63-0.04-1.28-0.06-1.94-0.06c-0.65,0-1.31,0.01-1.99,0.03c-2.84,0.06-5.77,0.12-8.25-0.87
	c2.03-3.09,6.04-4.63,9.86-3.68C308.04,66.17,308.81,66.94,308.54,70.3z"/>
<path class="st2" d="M365.03,34.58c-7.22-0.28-9.4,0.4-9.93,5.43c-0.23,2.21,0.11,4.35,0.44,6.43c0.36,2.25,0.7,4.38,0.36,6.57
	c-0.08,0.53-0.12,1.07-0.17,1.6c-0.1,1.29-0.2,2.52-0.9,3.57c-0.01,0.02-0.02,0.03-0.03,0.05c-5.69-3.66-11.81-1.84-17.25-0.22
	l-0.28,0.08c-5.92,1.76-9.48,6.63-9.76,13.37c-0.03,0.81-0.1,1.63-0.16,2.44c-0.24,3.04-0.48,6.18,0.77,9.4
	c3.61,9.34,10.22,12.95,20.22,11.05c0.27-0.05,0.54-0.11,0.82-0.17c1.98-0.43,4.02-0.87,6.18,1.23c1.21,1.18,2.83,1.46,4.61,1.46
	c0.76,0,1.55-0.05,2.36-0.1c1.42-0.09,2.88-0.18,4.27-0.01c0.22,0.03,0.44-0.04,0.6-0.19s0.25-0.36,0.24-0.58
	c-0.14-3.76,0.08-7.35,0.28-10.83c0.2-3.35,0.39-6.52,0.29-9.82c-0.25-8.12,0.03-16.41,0.3-24.43c0.12-3.51,0.24-7.01,0.32-10.52
	c0-0.21,0.01-0.43,0.02-0.64C368.74,37.75,368.85,34.73,365.03,34.58z M353.28,83.08c-2.57,3.37-6.37,3.31-10.37,2.92
	c-3.56-0.34-4.14-7.41-4.11-8.82c-0.01-0.59-0.02-2.26,0.05-2.91c0.43-4.06,2.71-6.99,6.24-8.04c0.37-0.11,0.73-0.16,1.09-0.16
	c1.75,0,3.5,1.26,5.44,3.89c0.17,0.24,0.35,0.47,0.53,0.71c0.69,0.91,1.34,1.78,1.79,2.73C355.62,77.04,355.41,80.3,353.28,83.08z"
	/>
</svg>
