<?xml version="1.0" encoding="utf-8"?>
<!-- Generator: Adobe Illustrator 16.0.0, SVG Export Plug-In . SVG Version: 6.00 Build 0)  -->
<!DOCTYPE svg PUBLIC "-//W3C//DTD SVG 1.1//EN" "http://www.w3.org/Graphics/SVG/1.1/DTD/svg11.dtd">
<svg version="1.1" id="Layer_1" xmlns="http://www.w3.org/2000/svg" xmlns:xlink="http://www.w3.org/1999/xlink" x="0px" y="0px"
	 width="158px" height="106px" viewBox="-3 0 158 106" enable-background="new -3 0 158 106" xml:space="preserve">
<g id="intel_logo">
	<path fill="#FFFFFF" d="M151.146,31.404c-7.107-34.701-74.482-36.9-117.91-10.462v2.921C76.617,1.556,138.15,1.699,143.754,33.658
		c1.879,10.574-4.078,21.593-14.721,27.938v8.293C141.832,65.194,154.959,50.008,151.146,31.404 M72.206,92.142
		C42.25,94.906,11.02,90.55,6.642,67.14C4.5,55.597,9.766,43.353,16.743,35.746v-4.063C4.179,42.698-2.635,56.647,1.293,73.118
		c5.01,21.135,31.808,33.1,72.718,29.126c16.191-1.569,37.371-6.782,52.107-14.871V75.884c-13.377,7.967-35.488,14.555-53.911,16.26
		"/>
	<path fill="#FFFFFF" d="M123.693,26.357h-7.855v34.983c0,4.103,1.98,7.668,7.855,8.238V26.357z M30.147,39.133h-7.87l-0.007,22.855
		c0,4.112,1.99,7.675,7.878,8.237L30.147,39.133L30.147,39.133z M22.277,34.866h7.85v-7.45h-7.85V34.866z M77.195,69.866
		c-6.354,0-9.043-4.423-9.043-8.78v-30.35h7.781v8.389h5.865v6.295h-5.864v15.187c0,1.779,0.841,2.765,2.694,2.765h3.17v6.496
		L77.195,69.866 M97.855,45.051c-2.664,0-4.707,1.375-5.578,3.223c-0.504,1.111-0.691,1.981-0.744,3.35h11.994
		C103.377,48.273,101.859,45.051,97.855,45.051 M91.533,56.933c0,3.979,2.486,6.916,6.895,6.916c3.455,0,5.16-0.961,7.158-2.937
		l4.814,4.589c-3.088,3.049-6.324,4.897-12.025,4.897c-7.457,0-14.592-4.063-14.592-15.923c0-10.141,6.24-15.868,14.42-15.868
		c8.314,0,13.092,6.706,13.092,15.516v2.81H91.533 M51.298,45.42c2.283,0,3.237,1.125,3.237,2.959v21.535h7.789V48.33
		c0-4.37-2.328-9.19-9.173-9.19l-16.085-0.011v30.78h7.788V45.42H51.298z"/>
</g>
</svg>
