<?xml version="1.0" encoding="utf-8"?>
<!-- Generator: Adobe Illustrator 16.0.0, SVG Export Plug-In . SVG Version: 6.00 Build 0)  -->
<!DOCTYPE svg PUBLIC "-//W3C//DTD SVG 1.1//EN" "http://www.w3.org/Graphics/SVG/1.1/DTD/svg11.dtd">
<svg version="1.1" id="Layer_1" xmlns="http://www.w3.org/2000/svg" xmlns:xlink="http://www.w3.org/1999/xlink" x="0px" y="0px"
	 width="152px" height="106px" viewBox="0.75 0 152 106" enable-background="new 0.75 0 152 106" xml:space="preserve">
<g id="intel_logo">
	<path fill="#160919" d="M151.896,31.404c-7.107-34.701-74.482-36.9-117.912-10.462v2.921C77.367,1.556,138.9,1.699,144.504,33.658
		c1.879,10.574-4.078,21.593-14.721,27.938v8.293C142.582,65.193,155.709,50.008,151.896,31.404 M72.956,92.143
		C43,94.906,11.77,90.55,7.392,67.141C5.25,55.598,10.516,43.353,17.493,35.746v-4.063C4.929,42.698-1.885,56.646,2.043,73.118
		c5.01,21.135,31.808,33.1,72.718,29.126c16.191-1.569,37.371-6.782,52.107-14.871V75.884
		c-13.377,7.968-35.488,14.556-53.911,16.261"/>
	<path fill="#160919" d="M124.443,26.357h-7.855V61.34c0,4.104,1.98,7.668,7.855,8.238V26.357z M30.897,39.133h-7.87L23.02,61.988
		c0,4.111,1.99,7.675,7.878,8.236L30.897,39.133L30.897,39.133z M23.027,34.866h7.85v-7.45h-7.85V34.866z M77.945,69.866
		c-6.354,0-9.043-4.423-9.043-8.78v-30.35h7.781v8.389h5.865v6.295h-5.864v15.188c0,1.778,0.841,2.766,2.694,2.766h3.17v6.496
		L77.945,69.866 M98.605,45.051c-2.664,0-4.707,1.375-5.578,3.223c-0.504,1.111-0.691,1.981-0.744,3.35h11.994
		C104.127,48.273,102.609,45.051,98.605,45.051 M92.283,56.934c0,3.979,2.486,6.916,6.895,6.916c3.455,0,5.16-0.961,7.158-2.938
		l4.814,4.589c-3.088,3.049-6.324,4.897-12.025,4.897c-7.457,0-14.592-4.063-14.592-15.924c0-10.142,6.24-15.869,14.42-15.869
		c8.314,0,13.092,6.706,13.092,15.516v2.812H92.283 M52.048,45.42c2.283,0,3.237,1.125,3.237,2.959v21.535h7.789V48.33
		c0-4.37-2.328-9.19-9.173-9.19l-16.085-0.011v30.78h7.788V45.42H52.048z"/>
</g>
</svg>
