<?xml version="1.0" encoding="utf-8"?>
<!-- Generator: Adobe Illustrator 16.0.0, SVG Export Plug-In . SVG Version: 6.00 Build 0)  -->
<!DOCTYPE svg PUBLIC "-//W3C//DTD SVG 1.1//EN" "http://www.w3.org/Graphics/SVG/1.1/DTD/svg11.dtd">
<svg version="1.1" id="Layer_1" xmlns="http://www.w3.org/2000/svg" xmlns:xlink="http://www.w3.org/1999/xlink" x="0px" y="0px"
	 width="250px" height="100px" viewBox="75 0 250 100" enable-background="new 75 0 250 100" xml:space="preserve">
<g>
	<path fill="none" d="M137.81,42.099c-2.525-0.522-5.006-0.174-7.575-0.044c1.219,8.881-0.784,17.066-5.137,24.814
		c1.611-0.826,2.96-1.828,4.223-3.004c3.483-3.221,5.834-7.183,7.488-11.58c1.088-2.917,1.741-5.92,1.828-9.011
		C138.681,42.577,138.419,42.229,137.81,42.099z"/>
	<path fill="#010101" d="M107.727,93.078c0-0.044,0-0.044-0.043-0.044C107.684,93.034,107.684,93.078,107.727,93.078z"/>
	<path fill="#FFFFFF" d="M108.729,12.277c-0.436-0.218-3.004-2.307-5.573-2.786c-2.568-0.479-4.833,1.001-4.833,1.001
		c0.218-0.522,0.566-1.001,1.001-1.394c1.567-1.61,4.528-2.046,6.748-0.392c1.175,0.871,1.567,1.437,2.09,2.438
		c0.043,0.043-0.436-1.132-1.088-2.09c-0.436-0.609-1.132-1.132-1.263-1.175c-1.916-1.175-3.831-1.219-5.79-0.131
		c-0.653,0.349-1.524,1.132-2.09,2.003c-0.653,1.045-0.958,2.22-0.914,2.264c0.043,0,2.96-1.523,5.659-1.437
		C105.246,10.623,109.338,12.582,108.729,12.277z"/>
	<path fill="#FFFFFF" d="M98.019,16.326c1.611-1.132,3.439-1.698,5.355-1.959c0.697-0.131,3.875-0.436,4.745-0.392
		c0.131,0,0.305,0,0.436,0v-0.043c-0.043,0-0.13-0.043-0.174-0.043c-0.609-0.087-3.787-0.653-5.747-0.348
		c-1.959,0.348-3.961,1.044-5.442,2.046c-2.351,1.611-3.221,3.918-3.7,6.661c-0.087,0.696-0.131,1.567-0.043,2.351
		c0.217,1.829,0.74,3.439,0.74,3.265c0,0-0.217-2.264-0.217-3.004c0-0.696,0-1.393,0.087-2.046
		C94.449,20.07,95.711,17.893,98.019,16.326z"/>
	<path fill="#FFFFFF" d="M106.682,94.688c-0.522,0.262-1.916,0.262-2.133,0.262c-0.609,0-1.219-0.087-1.872-0.044
		c-1.044,0.044-1.523,0.436-1.61,1.307c-0.087,0.565-0.349,0.826-1.088,0.826c-0.566,0-1.132-0.086-1.742-0.086
		c-1.001-0.044-1.959-0.088-2.96-0.044c-0.609,0-0.914,0.392-1.045,0.827c-0.174,0.609,0.218,2.177,0.479,2.264
		c0,0-0.13-0.958-0.087-1.176c0.218-0.87,0.696-1.306,1.785-1.219c1.176,0.087,2.395,0.131,3.57,0.174
		c1.35,0.044,1.828-0.348,1.959-1.48c0.043-0.348,0.305-0.695,0.653-0.695s0.827,0.043,1.175,0.043c0.915,0,1.829,0.043,2.743-0.087
		c1.219-0.087,1.61-1.524,1.088-2.481C107.814,93.34,107.597,94.21,106.682,94.688z"/>
	<path fill="#FFFFFF" d="M81.824,42.49c0.697-0.218,1.48-0.261,2.177-0.305c1.437-0.087,2.873-0.043,4.31-0.043
		c0.13,0,0.218,0,0.348-0.043c-2.351-0.436-4.702-0.697-7.096-0.61c-0.043,0-0.131,0-0.174,0c-0.261,0-0.784,0.349-1.001,0.958
		c-0.174,0.522-0.043,1.306,0,1.567c0.174,1.437,0.348,2.83,0.653,4.223c1.132,5.181,3.178,9.882,6.748,13.844
		c1.567,1.741,3.265,3.396,5.311,4.614c0.349,0.219,0.697,0.349,1.088,0.479c0.522,0.13,0.871-0.175,0.871-0.696
		c0-0.262-0.087-0.523-0.174-0.784c-0.218-0.522-0.479-1.001-0.74-1.523c-1.262-2.351-2.395-4.702-3.004-7.313
		c-0.174-0.74-0.348-1.48-0.566-2.178c-1.045-3.439-1.654-10.971-1.698-10.971c-0.043,0.218-0.218,5.877,0.174,8.49
		c0.436,3.004,1.132,5.92,2.308,8.706c0.609,1.437,1.306,2.786,1.959,4.224c0.087,0.13,0.131,0.305,0.174,0.479
		c-0.218-0.043-0.349-0.131-0.479-0.218c-1.437-1.001-2.786-2.177-3.918-3.526c-4.397-5.311-7.053-11.319-7.75-18.198
		C81.345,43.187,81.432,42.621,81.824,42.49z"/>
	<path fill="#FFFFFF" d="M128.929,25.468c0,2.351,0.435,6.792,2.177,6.879c1.698,0.087,2.133-3.788,2.22-6.835
		c0.087-3.265-0.392-6.879-2.351-6.835C129.016,18.72,128.972,22.638,128.929,25.468z"/>
	<path fill="#FFFFFF" d="M84.566,21.375v-0.043C84.566,21.375,84.566,21.375,84.566,21.375z"/>
	<path fill="#FFFFFF" d="M86.221,19.199c0.74-0.043,1.785,1.132,1.785,6.269c0,4.136-0.653,5.616-1.132,6.182
		c-0.914,1.088-1.785-1.132-1.959-1.567c0.349,1.263,0.871,2.221,1.654,2.221c1.698,0.087,2.133-3.788,2.22-6.835
		c0.087-3.265-0.392-6.878-2.351-6.835c-1.045,0-1.567,1.176-1.785,2.656C84.697,21.027,85.176,19.199,86.221,19.199z"/>
	<path fill="#FFFFFF" d="M111.994,8.054c-0.479-0.044-0.827,0.174-1.045,0.522c-0.261,0.349-0.522,0.74-0.697,1.176
		c-0.696,1.523-1.088,3.134-1.437,4.745c-0.043,0.261,0.087,0.436,0.348,0.436s0.522-0.174,0.61-0.436
		c0.696-1.959,1.393-3.918,2.83-5.529c0.087-0.087,0.13-0.218,0.174-0.305c0.13-0.261,0.043-0.392-0.218-0.436
		C112.385,8.098,112.167,8.098,111.994,8.054z"/>
	<path fill="#FFFFFF" d="M141.206,38.18c-3.57,0-7.14,0-10.709,0c-0.392,0-0.61-0.13-0.74-0.479
		c-0.261-0.653-0.479-1.35-0.827-1.959c-0.261-0.435-0.653-0.74-1.263-0.74c-1.262,0.044-2.568,0-3.831,0c-1.132,0-2.264,0-3.352,0
		c0.696-0.958,1.262-1.872,2.307-3.875c1.48-2.917,2.438-14.627-2.438-16.5c-4.876-1.829-9.534,0.435-12.407,0.784
		c-2.874,0.392-4.963-0.349-4.963-0.349s2.264,0.871,3.744,1.001c1.654,0.174,3.309,0.043,4.919-0.305
		c0.915-0.218,4.005-0.914,7.009,0.914c2.96,1.829,3.439,6.878,3.309,9.229c-0.087,1.48-0.305,2.96-0.696,4.397
		c-0.305,1.132-0.784,2.264-1.393,3.265c-0.305,0.479-0.653,0.958-1.001,1.437c-6.226,0-12.495-0.043-18.72,0
		c-0.653,0-1.262,0-1.916,0c-0.305-0.305-0.609-0.609-0.914-0.958c-1.175-1.48-1.916-2.786-1.916-2.786s0.261,1.306,1.132,2.786
		c0.174,0.348,0.392,0.653,0.566,0.958c-1.654,0.044-3.309,0.087-4.963,0.131c-0.436,0-0.697,0.043-0.915,0.13
		c0.087,0.697,0.174,1.567,0.392,2.438c0.13-0.435,0.174-0.871,0.174-1.262c0-0.131,0-0.261,0-0.436c0.13,0,2.786,0.218,6.356,0.392
		c0.522,0.043,1.088,0.043,1.654,0.087c1.045,0.043,2.133,0.087,3.222,0.087c4.397,0.087,9.055-0.087,11.667-0.087
		c0.522,0,1.61,0.043,2.307,0.436c0.043,0.043,0.087,0.043,0.131,0.087c0.435,0.305,0.696,0.696,0.871,0.958
		c0.087,0.174,0.174,0.305,0.174,0.305c1.132,3.309,1.393,5.529,1.829,9.534c0.436,4.005-1.219,12.799-3.744,19.634
		c-2.394,6.53-4.789,8.402-5.398,9.316c-0.61,0.958-0.436,2.395-0.479,3.309c-0.305,7.881,0.13,13.018,0.087,13.148
		c0.043,1.697,0.392,2.264,2.308,2.22c1.132,0,2.743,0.087,3.613,0.087c0.087,0,0.566,0.131,0.609,0.436
		c0.131,0.566-0.218,1.437,0.871,1.48c1.088,0,4.441-0.131,5.529,0.087c0.13,0.044,0.522,0.174,0.609,0.565
		c0.13,0.523-0.043,1.394,0,1.873c0.784,0,0.914,0,1.828,0c0.174-0.915,0.261-1.873,0-2.787c-0.261-0.871-0.871-1.262-1.741-1.306
		c-1.567-0.044-3.134-0.131-4.702-0.218c-0.609-0.043-0.609-0.043-0.566-0.652c0-1.133-0.349-1.568-1.48-1.785
		c-0.043,0-0.13,0-0.174-0.044c-1.306-0.044-2.656-0.131-3.962-0.175c-0.348,0-0.435-0.13-0.435-0.435
		c-0.305-3.222-0.261-11.755,0.13-12.8c0.087-0.565,0.436-1.001,0.914-1.306c2.264-1.48,4.484-3.004,6.792-4.44
		c2.481-1.523,5.05-2.917,7.532-4.484c1.35-0.871,2.612-1.872,3.788-2.961c3.831-3.395,6.792-7.357,8.359-12.276
		c1.567-4.876,2.046-9.882,2.264-14.933C142.599,38.572,142.12,38.18,141.206,38.18z M138.681,43.23
		c-0.087,3.091-0.784,6.095-1.829,9.012c-1.654,4.396-4.005,8.358-7.488,11.58c-1.262,1.176-2.612,2.177-4.223,3.004
		c4.31-7.749,6.312-15.934,5.137-24.815c2.568-0.13,5.093-0.479,7.575,0.043C138.419,42.229,138.681,42.577,138.681,43.23z"/>
	<path fill="#FFFFFF" d="M105.42,77.666c0.653,0.523,1.262,1.045,1.61,1.873c0,0.043,0-1.307-1.132-2.656s-3.961-3.178-6.226-4.44
		c-3.309-1.829-6.617-3.657-9.751-5.834c-3.657-2.568-6.487-5.747-8.272-9.882c-2.307-5.442-3.178-11.146-3.178-17.022
		c0-0.087,0-0.174,0.043-0.261c0.261,0,0.479,0,0.74,0c2.525,0.13,10.23,0,11.058-0.043c-0.13-0.392-0.305-0.871-0.435-1.35
		c-0.174,0.043-0.522,0.13-0.74,0.13c-1.916,0-3.831-0.087-5.747-0.13c-1.654-0.044-3.353-0.174-5.007-0.261
		c-1.001-0.043-1.219,0.043-1.567,0.914c0,1.088,0,2.177,0,3.265c0.043,0.261,0.087,0.566,0.087,0.827
		c0.174,3.178,0.653,6.356,1.437,9.447c1.698,6.704,5.181,12.146,11.058,15.977c2.873,1.916,5.877,3.614,8.881,5.312
		C99.063,74.01,103.983,76.578,105.42,77.666z"/>
	<path fill="#FFFFFF" d="M111.471,44.145v-0.392c0-1.001-0.827-1.829-1.829-1.829h-4.44c-0.871,0-1.567,0.609-1.785,1.393
		c-4.005,0.087-6.965,0-8.968-1.045c-2.177-1.132-3.265-3.57-3.483-8.098c0-0.13,0-0.435-0.043-0.696l0,0
		c0.871-0.392,1.524-1.263,1.524-2.264c0.348-3.831,0.348-7.663,0-11.494c0-0.479-0.131-0.914-0.392-1.306
		c-0.653-3.918-0.044-7.619,3.221-10.797c2.743-2.395,6.966-4.397,13.496-4.44c6.53,0.043,10.753,2.046,13.54,4.484
		c3.265,3.222,3.918,6.922,3.178,10.927c-0.479,0.827-0.392,5.747-0.261,5.747c0.043,0-0.043-6.878,3.091-6.617h0.043
		c-2.395,0.436-2.308,11.842-0.61,15.15h-0.392c-2.395-0.087-2.133-4.833-2.133-4.833c-0.392,1.872,0.131,4.049,0.305,4.354
		c0.087,0.174,0.218,0.348,0.349,0.522c0.261,0.305,0.653,0.522,0.958,0.653c1.829,0.609,3.483-0.043,3.962-0.914l-0.131,0.13
		c-0.174,0.131-0.348,0.174-0.609,0.218c-0.609-0.13-1.567-1.262-1.785-7.401c-0.261-8.707,2.525-7.183,2.525-7.183l0,0l0,0
		c-0.349-0.784-1.306-1.176-3.222-1.088h-0.043c-0.087-3.831-1.611-7.184-1.611-7.184l0,0C123.835,5.485,119.264,0,108.772,0
		C98.236,0,93.709,5.485,91.706,10.144l0,0c0,0-1.523,3.353-1.611,7.184c-0.043,0-0.087,0-0.13,0h-1.001
		c-0.827,0-1.611,0.261-2.046,0.914c0.348-0.261,1.001-0.436,1.001-0.436c2.525-0.479,3.222,1.872,3.047,8.098
		c0,5.834-1.044,7.096-2.612,7.357l0,0c-0.697,0-1.698-0.653-1.698-0.653c0.435,0.653,1.48,1.132,2.307,1.132h0.697l0,0
		c0,0.261,0.043,0.479,0.043,0.566c0.261,4.963,1.523,7.706,4.136,9.099c1.916,1.001,4.397,1.219,7.662,1.219
		c0.827,0,1.654,0,2.569-0.043c1.001-0.044,0.958-1.219-0.044-1.219c-0.217,0-0.392,0-0.609,0c0.174-0.174,0.436-0.305,0.697-0.305
		c0.74,0,0.958,0.653,0.958,0.914c0,0.522-0.435,0.915-0.958,0.915c-0.305,0-0.566-0.131-0.74-0.349
		c0.174,0.827,0.914,1.437,1.785,1.437h4.44C110.644,46.017,111.471,45.189,111.471,44.145z"/>
	<g>
		<path fill="#FFFFFF" d="M191.358,57.074h-4.745l-17.937-27.47v27.47h-4.746V21.419h4.746L186.7,49.021V21.419h4.658V57.074
			L191.358,57.074z"/>
		<path fill="#FFFFFF" d="M222.007,47.714h-14.933l-3.353,9.317h-4.832l13.627-35.656h4.135l13.627,35.656h-4.832L222.007,47.714z
			 M208.468,43.883h12.102l-6.094-16.674L208.468,43.883z"/>
		<path fill="#FFFFFF" d="M248.128,41.184c-4.049-1.175-6.966-2.568-8.795-4.266c-1.828-1.698-2.742-3.788-2.742-6.27
			c0-2.83,1.132-5.137,3.352-6.965c2.265-1.829,5.182-2.743,8.751-2.743c2.438,0,4.614,0.479,6.53,1.437
			c1.916,0.958,3.396,2.264,4.441,3.918c1.044,1.655,1.566,3.483,1.566,5.442h-4.658c0-2.177-0.696-3.875-2.046-5.094
			c-1.394-1.219-3.309-1.872-5.79-1.872c-2.308,0-4.137,0.522-5.441,1.523c-1.307,1.001-1.96,2.438-1.96,4.267
			c0,1.437,0.61,2.699,1.829,3.701c1.219,1.001,3.352,1.916,6.312,2.743c2.96,0.827,5.268,1.741,6.965,2.743
			c1.654,1.001,2.918,2.177,3.744,3.526c0.828,1.35,1.219,2.917,1.219,4.745c0,2.874-1.131,5.224-3.395,6.922
			c-2.265,1.741-5.269,2.611-9.057,2.611c-2.438,0-4.744-0.479-6.878-1.393c-2.134-0.957-3.744-2.221-4.919-3.875
			c-1.133-1.654-1.742-3.482-1.742-5.572h4.746c0,2.177,0.783,3.875,2.395,5.094c1.61,1.263,3.699,1.872,6.398,1.872
			c2.482,0,4.398-0.522,5.703-1.524c1.307-1,2.004-2.394,2.004-4.135c0-1.741-0.61-3.091-1.829-4.049
			C253.569,43.056,251.349,42.099,248.128,41.184z"/>
		<path fill="#FFFFFF" d="M290.183,40.575h-15.455v12.625h17.937v3.832h-22.638V21.419h22.42v3.831h-17.719v11.493h15.455V40.575z"
			/>
		<path fill="#FFFFFF" d="M320.788,41.315h-14.977v15.759h-4.701V21.419h22.072v3.831h-17.371v12.233h14.977V41.315z"/>
	</g>
	<g>
		<path fill="#FFFFFF" d="M170.113,68.133h-1.045l-4.092-5.965v5.965h-1.132v-7.75h1.088l4.136,6.008v-6.008h1.088v7.75H170.113z"/>
		<path fill="#FFFFFF" d="M178.297,64.52c0,0.739-0.13,1.436-0.392,2.002s-0.653,1.002-1.132,1.307
			c-0.479,0.305-1.088,0.435-1.741,0.435s-1.219-0.13-1.698-0.435s-0.871-0.74-1.176-1.264c-0.261-0.565-0.435-1.175-0.435-1.915
			v-0.565c0-0.74,0.13-1.394,0.392-1.959c0.261-0.566,0.653-1.002,1.176-1.307c0.479-0.305,1.088-0.436,1.698-0.436
			c0.653,0,1.219,0.131,1.741,0.436c0.479,0.305,0.871,0.74,1.132,1.307c0.261,0.565,0.392,1.219,0.392,2.002v0.393H178.297z
			 M177.252,63.996c0-0.914-0.174-1.61-0.566-2.133c-0.392-0.479-0.914-0.74-1.611-0.74c-0.696,0-1.219,0.262-1.611,0.74
			c-0.392,0.479-0.609,1.176-0.609,2.047v0.565c0,0.87,0.218,1.567,0.609,2.089c0.392,0.523,0.915,0.784,1.611,0.784
			c0.697,0,1.219-0.261,1.611-0.74c0.392-0.479,0.566-1.175,0.609-2.046v-0.566H177.252z"/>
		<path fill="#FFFFFF" d="M182.912,64.998h-1.916v3.135h-1.088v-7.75h2.699c0.914,0,1.611,0.218,2.133,0.609
			c0.479,0.393,0.74,0.958,0.74,1.742c0,0.479-0.13,0.914-0.392,1.262c-0.261,0.349-0.653,0.609-1.132,0.784l1.916,3.265v0.044
			h-1.132L182.912,64.998z M180.997,64.171h1.654c0.522,0,0.958-0.131,1.263-0.392c0.305-0.262,0.479-0.609,0.479-1.045
			c0-0.479-0.13-0.828-0.435-1.089s-0.74-0.392-1.306-0.392h-1.654V64.171z"/>
		<path fill="#FFFFFF" d="M192.185,61.211h-2.612v6.922h-1.088v-6.922h-2.612v-0.828h6.312V61.211z"/>
		<path fill="#FFFFFF" d="M199.629,68.133h-1.088v-3.57h-4.092v3.57h-1.088v-7.75h1.088v3.309h4.092v-3.309h1.088V68.133z"/>
		<path fill="#FFFFFF" d="M208.902,66.086h-3.396l-0.783,2.047h-1.089l3.135-7.75h0.958l3.135,7.75h-1.089L208.902,66.086z
			 M205.812,65.259h2.786l-1.394-3.613L205.812,65.259z"/>
		<path fill="#FFFFFF" d="M213.256,60.383l2.655,6.312l2.656-6.312h1.393v7.75h-1.088v-3.004l0.087-3.266l-2.655,6.27h-0.827
			l-2.655-6.27l0.086,3.222v3.004h-1.088V60.34h1.437V60.383z"/>
		<path fill="#FFFFFF" d="M226.491,64.562h-3.527v2.742h4.093v0.828h-5.181v-7.75h5.137v0.828h-4.049v2.48h3.527V64.562z"/>
		<path fill="#FFFFFF" d="M231.366,64.998h-1.915v3.135h-1.089v-7.75h2.699c0.914,0,1.611,0.218,2.134,0.609
			c0.479,0.393,0.739,0.958,0.739,1.742c0,0.479-0.13,0.914-0.391,1.262c-0.262,0.349-0.654,0.609-1.133,0.784l1.916,3.265v0.044
			h-1.132L231.366,64.998z M229.451,64.171h1.654c0.522,0,0.958-0.131,1.263-0.392c0.305-0.262,0.479-0.609,0.479-1.045
			c0-0.479-0.131-0.828-0.436-1.089s-0.74-0.392-1.306-0.392h-1.654V64.171z"/>
		<path fill="#FFFFFF" d="M236.591,68.133h-1.088v-7.75h1.088V68.133z"/>
		<path fill="#FFFFFF" d="M244.558,65.65c-0.087,0.828-0.436,1.438-0.957,1.916c-0.523,0.436-1.264,0.652-2.134,0.652
			c-0.958,0-1.741-0.348-2.308-1c-0.566-0.654-0.871-1.524-0.871-2.613v-0.74c0-0.739,0.131-1.35,0.393-1.915
			s0.652-0.958,1.132-1.263s1.089-0.436,1.741-0.436c0.871,0,1.567,0.219,2.09,0.697s0.827,1.088,0.914,1.916h-1.045
			c-0.087-0.61-0.305-1.045-0.609-1.35c-0.305-0.262-0.74-0.436-1.307-0.436c-0.695,0-1.219,0.261-1.61,0.74
			c-0.392,0.479-0.565,1.175-0.565,2.045v0.74c0,0.828,0.174,1.524,0.565,2.003c0.349,0.479,0.871,0.74,1.567,0.74
			c0.609,0,1.045-0.13,1.393-0.392c0.305-0.262,0.523-0.697,0.654-1.35h0.957V65.65z"/>
		<path fill="#FFFFFF" d="M250.522,66.086h-3.396l-0.783,2.047h-1.088l3.134-7.75h0.958l3.135,7.75h-1.089L250.522,66.086z
			 M247.431,65.259h2.787l-1.394-3.613L247.431,65.259z"/>
		<path fill="#FFFFFF" d="M258.75,64.693c-0.914-0.262-1.61-0.566-2.003-0.914c-0.392-0.349-0.609-0.828-0.609-1.35
			c0-0.609,0.262-1.133,0.784-1.524s1.175-0.609,2.003-0.609c0.565,0,1.045,0.087,1.479,0.305c0.436,0.218,0.784,0.479,1.001,0.871
			c0.262,0.349,0.349,0.739,0.349,1.175h-1.089c0-0.479-0.174-0.826-0.479-1.088s-0.74-0.392-1.306-0.392
			c-0.522,0-0.958,0.13-1.22,0.349c-0.261,0.217-0.435,0.521-0.435,0.914c0,0.305,0.13,0.565,0.435,0.783
			c0.262,0.218,0.74,0.436,1.438,0.609c0.696,0.174,1.219,0.393,1.61,0.609c0.392,0.218,0.653,0.479,0.871,0.783
			c0.174,0.306,0.261,0.654,0.261,1.045c0,0.609-0.261,1.133-0.783,1.524s-1.219,0.565-2.047,0.565
			c-0.565,0-1.088-0.087-1.566-0.305c-0.479-0.217-0.871-0.479-1.133-0.826c-0.261-0.35-0.391-0.74-0.391-1.22h1.088
			c0,0.479,0.174,0.827,0.566,1.089c0.348,0.261,0.87,0.392,1.479,0.392c0.565,0,1.001-0.131,1.306-0.349
			c0.305-0.217,0.436-0.522,0.436-0.914s-0.131-0.652-0.436-0.871C260.013,65.085,259.49,64.867,258.75,64.693z"/>
		<path fill="#FFFFFF" d="M269.155,65.65c-0.088,0.828-0.436,1.438-0.958,1.916c-0.522,0.436-1.263,0.652-2.134,0.652
			c-0.957,0-1.74-0.348-2.307-1c-0.566-0.654-0.871-1.524-0.871-2.613v-0.74c0-0.739,0.131-1.35,0.393-1.915
			c0.261-0.565,0.652-0.958,1.131-1.263c0.479-0.305,1.089-0.436,1.742-0.436c0.871,0,1.566,0.219,2.09,0.697
			c0.521,0.479,0.826,1.088,0.914,1.916h-1.089c-0.087-0.61-0.305-1.045-0.609-1.35c-0.305-0.262-0.74-0.436-1.306-0.436
			c-0.697,0-1.219,0.261-1.611,0.74c-0.392,0.479-0.566,1.175-0.566,2.045v0.74c0,0.828,0.175,1.524,0.566,2.003
			c0.349,0.479,0.871,0.74,1.567,0.74c0.609,0,1.045-0.13,1.394-0.392c0.305-0.262,0.521-0.697,0.652-1.35h1.002V65.65z"/>
		<path fill="#FFFFFF" d="M276.904,68.133h-1.089v-3.57h-4.092v3.57h-1.088v-7.75h1.088v3.309h4.092v-3.309h1.089V68.133z"/>
		<path fill="#FFFFFF" d="M285.089,64.52c0,0.739-0.131,1.436-0.392,2.002s-0.653,1.002-1.132,1.307s-1.089,0.435-1.742,0.435
			c-0.652,0-1.219-0.13-1.697-0.435s-0.871-0.74-1.176-1.264c-0.262-0.565-0.436-1.175-0.436-1.915v-0.565
			c0-0.74,0.131-1.394,0.393-1.959c0.261-0.566,0.652-1.002,1.176-1.307c0.479-0.305,1.088-0.436,1.697-0.436
			c0.652,0,1.219,0.131,1.741,0.436c0.479,0.305,0.87,0.74,1.132,1.307c0.262,0.565,0.393,1.219,0.393,2.002v0.393H285.089z
			 M284.001,63.996c0-0.914-0.175-1.61-0.566-2.133c-0.393-0.479-0.914-0.74-1.611-0.74c-0.696,0-1.219,0.262-1.61,0.74
			s-0.609,1.176-0.609,2.047v0.565c0,0.87,0.218,1.567,0.609,2.089c0.392,0.523,0.958,0.784,1.61,0.784
			c0.697,0,1.219-0.261,1.611-0.74c0.392-0.479,0.566-1.175,0.609-2.046v-0.566H284.001z"/>
		<path fill="#FFFFFF" d="M287.745,67.305h3.874v0.828h-4.963v-7.75h1.089V67.305z"/>
		<path fill="#FFFFFF" d="M297.452,66.086h-3.395l-0.784,2.047h-1.089l3.135-7.75h0.958l3.135,7.75h-1.089L297.452,66.086z
			 M294.362,65.259h2.785l-1.393-3.613L294.362,65.259z"/>
		<path fill="#FFFFFF" d="M302.851,64.693c-0.914-0.262-1.61-0.566-2.002-0.914c-0.436-0.349-0.609-0.828-0.609-1.35
			c0-0.609,0.261-1.133,0.783-1.524s1.176-0.609,2.003-0.609c0.565,0,1.045,0.087,1.479,0.305c0.436,0.218,0.784,0.479,1.002,0.871
			c0.262,0.349,0.348,0.739,0.348,1.175h-1.088c0-0.479-0.174-0.826-0.479-1.088s-0.74-0.392-1.307-0.392
			c-0.521,0-0.957,0.13-1.219,0.349c-0.305,0.217-0.436,0.521-0.436,0.914c0,0.305,0.131,0.565,0.436,0.783
			c0.262,0.218,0.74,0.436,1.437,0.609s1.22,0.393,1.61,0.609c0.393,0.218,0.654,0.479,0.871,0.783
			c0.174,0.306,0.262,0.654,0.262,1.045c0,0.609-0.262,1.133-0.783,1.524c-0.523,0.392-1.22,0.565-2.047,0.565
			c-0.566,0-1.088-0.087-1.567-0.305c-0.479-0.217-0.87-0.479-1.132-0.826c-0.262-0.35-0.392-0.74-0.392-1.22h1.089
			c0,0.479,0.174,0.827,0.565,1.089c0.349,0.261,0.87,0.392,1.479,0.392c0.566,0,1.002-0.131,1.307-0.349
			c0.305-0.217,0.436-0.522,0.436-0.914s-0.131-0.652-0.436-0.871C304.07,65.085,303.591,64.867,302.851,64.693z"/>
		<path fill="#FFFFFF" d="M312.864,61.211h-2.612v6.922h-1.089v-6.922h-2.611v-0.828h6.312V61.211z"/>
		<path fill="#FFFFFF" d="M315.216,68.133h-1.089v-7.75h1.089V68.133z"/>
		<path fill="#FFFFFF" d="M323.183,65.65c-0.088,0.828-0.436,1.438-0.959,1.916c-0.521,0.436-1.262,0.652-2.133,0.652
			c-0.957,0-1.741-0.348-2.307-1c-0.566-0.654-0.871-1.524-0.871-2.613v-0.74c0-0.739,0.131-1.35,0.392-1.915
			s0.653-0.958,1.132-1.263s1.088-0.436,1.742-0.436c0.87,0,1.566,0.219,2.089,0.697s0.827,1.088,0.915,1.916h-1.089
			c-0.087-0.61-0.305-1.045-0.61-1.35c-0.305-0.262-0.739-0.436-1.305-0.436c-0.697,0-1.22,0.261-1.611,0.74
			c-0.393,0.479-0.566,1.175-0.566,2.045v0.74c0,0.828,0.174,1.524,0.566,2.003c0.348,0.479,0.871,0.74,1.566,0.74
			c0.61,0,1.045-0.13,1.395-0.392c0.305-0.262,0.521-0.697,0.652-1.35h1.002V65.65z"/>
		<path fill="#FFFFFF" d="M168.502,75.402h-3.526v2.743h4.092v0.827h-5.181v-7.75h5.137v0.828h-4.049v2.481h3.526V75.402z"/>
		<path fill="#FFFFFF" d="M172.812,75.533c-0.914-0.262-1.611-0.566-2.002-0.914c-0.436-0.348-0.61-0.827-0.61-1.35
			c0-0.609,0.261-1.132,0.784-1.523c0.522-0.393,1.175-0.609,2.003-0.609c0.566,0,1.044,0.086,1.48,0.305
			c0.436,0.217,0.784,0.479,1.001,0.87c0.261,0.349,0.348,0.74,0.348,1.176h-1.088c0-0.479-0.174-0.827-0.479-1.089
			c-0.305-0.261-0.74-0.392-1.306-0.392c-0.522,0-0.958,0.131-1.219,0.349c-0.305,0.217-0.436,0.522-0.436,0.914
			c0,0.305,0.131,0.566,0.436,0.783c0.261,0.219,0.74,0.436,1.437,0.609c0.697,0.175,1.219,0.393,1.611,0.609
			c0.392,0.219,0.653,0.479,0.871,0.784c0.174,0.305,0.261,0.653,0.261,1.045c0,0.609-0.261,1.132-0.784,1.524
			c-0.522,0.391-1.219,0.565-2.046,0.565c-0.566,0-1.088-0.087-1.567-0.305s-0.871-0.479-1.132-0.827
			c-0.261-0.349-0.392-0.74-0.392-1.219h1.088c0,0.479,0.174,0.826,0.566,1.088c0.348,0.262,0.871,0.392,1.48,0.392
			c0.566,0,1.001-0.13,1.306-0.349c0.305-0.217,0.435-0.521,0.435-0.914c0-0.392-0.13-0.652-0.435-0.87
			C174.075,75.926,173.552,75.751,172.812,75.533z"/>
		<path fill="#FFFFFF" d="M178.297,75.969v3.047h-1.088v-7.748h3.004c0.871,0,1.611,0.217,2.09,0.652
			c0.522,0.436,0.74,1.002,0.74,1.697c0,0.74-0.261,1.35-0.74,1.742c-0.479,0.392-1.219,0.609-2.133,0.609H178.297z M178.297,75.142
			h1.916c0.566,0,1.001-0.131,1.306-0.392c0.305-0.262,0.479-0.609,0.479-1.133c0-0.479-0.174-0.826-0.479-1.088
			s-0.74-0.436-1.263-0.436h-2.002v3.048H178.297z"/>
		<path fill="#FFFFFF" d="M190.705,75.359c0,0.74-0.131,1.437-0.392,2.002c-0.261,0.566-0.653,1.002-1.132,1.307
			s-1.088,0.436-1.741,0.436c-0.653,0-1.219-0.131-1.698-0.436c-0.479-0.305-0.871-0.74-1.175-1.263
			c-0.261-0.565-0.436-1.175-0.436-1.915v-0.609c0-0.74,0.131-1.394,0.392-1.959c0.261-0.566,0.653-1.002,1.175-1.307
			c0.479-0.305,1.088-0.436,1.698-0.436c0.653,0,1.219,0.131,1.742,0.436c0.479,0.305,0.871,0.74,1.132,1.307
			c0.261,0.565,0.392,1.219,0.392,2.002v0.436H190.705z M189.66,74.881c0-0.915-0.174-1.611-0.566-2.134
			c-0.392-0.479-0.915-0.74-1.611-0.74c-0.697,0-1.219,0.261-1.611,0.74c-0.392,0.479-0.609,1.175-0.609,2.046v0.566
			c0,0.871,0.217,1.566,0.609,2.09c0.392,0.521,0.914,0.783,1.611,0.783c0.696,0,1.219-0.262,1.611-0.74
			c0.392-0.479,0.566-1.176,0.609-2.046v-0.565H189.66z"/>
		<path fill="#FFFFFF" d="M195.319,75.838h-1.916v3.135h-1.088v-7.75h2.699c0.915,0,1.611,0.219,2.133,0.61
			c0.479,0.392,0.74,0.958,0.74,1.741c0,0.479-0.131,0.914-0.392,1.263c-0.261,0.349-0.653,0.609-1.132,0.783l1.916,3.266v0.044
			h-1.132L195.319,75.838z M193.404,75.011h1.655c0.522,0,0.958-0.13,1.262-0.392s0.479-0.609,0.479-1.045
			c0-0.479-0.131-0.827-0.436-1.088c-0.305-0.262-0.74-0.393-1.306-0.393h-1.655V75.011z"/>
		<path fill="#FFFFFF" d="M204.593,72.094h-2.612v6.922h-1.088v-6.922h-2.613v-0.826h6.313V72.094z"/>
		<path fill="#FFFFFF" d="M208.075,75.533c-0.914-0.262-1.611-0.566-2.002-0.914c-0.436-0.348-0.609-0.827-0.609-1.35
			c0-0.609,0.261-1.132,0.783-1.523c0.522-0.393,1.176-0.609,2.002-0.609c0.566,0,1.045,0.086,1.48,0.305
			c0.436,0.217,0.783,0.479,1.002,0.87c0.261,0.349,0.348,0.74,0.348,1.176h-1.088c0-0.479-0.174-0.827-0.479-1.089
			c-0.306-0.261-0.74-0.392-1.307-0.392c-0.522,0-0.958,0.131-1.219,0.349c-0.305,0.217-0.436,0.522-0.436,0.914
			c0,0.305,0.131,0.566,0.436,0.783c0.261,0.219,0.74,0.436,1.437,0.609c0.696,0.175,1.219,0.393,1.61,0.609
			c0.393,0.219,0.653,0.479,0.871,0.784c0.174,0.305,0.262,0.653,0.262,1.045c0,0.609-0.262,1.132-0.784,1.524
			c-0.522,0.391-1.22,0.565-2.046,0.565c-0.566,0-1.089-0.087-1.568-0.305c-0.479-0.218-0.87-0.479-1.131-0.827
			c-0.262-0.349-0.393-0.74-0.393-1.219h1.089c0,0.479,0.175,0.826,0.565,1.088c0.349,0.262,0.871,0.392,1.48,0.392
			c0.566,0,1.002-0.13,1.307-0.349c0.305-0.217,0.436-0.521,0.436-0.914c0-0.392-0.131-0.652-0.436-0.87
			C209.338,75.926,208.815,75.751,208.075,75.533z"/>
		<path fill="#FFFFFF" d="M219.829,75.576h-3.438v3.439h-1.089v-7.748h5.051v0.826h-3.962v2.656h3.438V75.576z"/>
		<path fill="#FFFFFF" d="M226.272,75.402h-3.525v2.743h4.092v0.827h-5.181v-7.75h5.138v0.828h-4.049v2.481h3.525V75.402z"/>
		<path fill="#FFFFFF" d="M228.188,78.973v-7.75h2.308c0.696,0,1.35,0.131,1.872,0.436c0.565,0.305,0.957,0.74,1.262,1.264
			c0.305,0.565,0.436,1.175,0.436,1.871v0.479c0,0.74-0.131,1.35-0.436,1.916s-0.74,0.958-1.262,1.263
			c-0.566,0.305-1.176,0.436-1.916,0.436h-2.264V78.973z M229.276,72.094v6.052h1.133c0.826,0,1.48-0.261,1.915-0.74
			c0.479-0.479,0.696-1.175,0.696-2.09v-0.435c0-0.871-0.217-1.568-0.652-2.047s-1.045-0.74-1.872-0.74H229.276z"/>
		<path fill="#FFFFFF" d="M240.335,75.402h-3.526v2.743h4.093v0.827h-5.182v-7.75h5.138v0.828h-4.049v2.481h3.526V75.402z"/>
		<path fill="#FFFFFF" d="M245.211,75.838h-1.915v3.135h-1.089v-7.75h2.698c0.915,0,1.611,0.219,2.134,0.61
			c0.479,0.392,0.74,0.958,0.74,1.741c0,0.479-0.13,0.914-0.392,1.263s-0.653,0.609-1.133,0.783l1.916,3.266v0.044h-1.176
			L245.211,75.838z M243.296,75.011h1.654c0.521,0,0.957-0.13,1.262-0.392s0.479-0.609,0.479-1.045c0-0.479-0.13-0.827-0.436-1.088
			c-0.305-0.262-0.739-0.393-1.305-0.393h-1.654V75.011z"/>
		<path fill="#FFFFFF" d="M253.787,76.97h-3.396l-0.783,2.046h-1.089l3.134-7.748h0.959l3.134,7.748h-1.089L253.787,76.97z
			 M250.696,76.143h2.786l-1.394-3.613L250.696,76.143z"/>
		<path fill="#FFFFFF" d="M261.667,72.094h-2.612v6.922h-1.089v-6.922h-2.611v-0.826h6.312V72.094z"/>
		<path fill="#FFFFFF" d="M264.062,78.973h-1.088v-7.75h1.088V78.973z"/>
		<path fill="#FFFFFF" d="M272.29,75.359c0,0.74-0.131,1.437-0.393,2.002c-0.261,0.566-0.652,1.002-1.132,1.307
			c-0.479,0.305-1.089,0.436-1.741,0.436s-1.219-0.131-1.697-0.436c-0.479-0.305-0.871-0.74-1.176-1.263
			c-0.262-0.565-0.436-1.175-0.436-1.915v-0.609c0-0.74,0.131-1.394,0.392-1.959c0.261-0.566,0.653-1.002,1.176-1.307
			c0.479-0.305,1.089-0.436,1.698-0.436c0.652,0,1.219,0.131,1.74,0.436c0.479,0.305,0.871,0.74,1.133,1.307
			c0.261,0.565,0.392,1.219,0.392,2.002v0.436H272.29z M271.201,74.881c0-0.915-0.175-1.611-0.565-2.134
			c-0.393-0.479-0.914-0.74-1.611-0.74s-1.219,0.261-1.611,0.74c-0.391,0.479-0.609,1.175-0.609,2.046v0.566
			c0,0.871,0.219,1.566,0.609,2.09c0.393,0.521,0.914,0.783,1.611,0.783s1.219-0.262,1.611-0.74
			c0.391-0.479,0.565-1.176,0.609-2.046v-0.565H271.201z"/>
		<path fill="#FFFFFF" d="M280.169,78.973h-1.088l-4.092-5.965v5.965H273.9v-7.75h1.089l4.135,6.008v-6.008h1.089v7.75H280.169z"/>
	</g>
</g>
</svg>
