<?xml version="1.0" encoding="utf-8"?>
<!-- Generator: Adobe Illustrator 16.0.0, SVG Export Plug-In . SVG Version: 6.00 Build 0)  -->
<!DOCTYPE svg PUBLIC "-//W3C//DTD SVG 1.1//EN" "http://www.w3.org/Graphics/SVG/1.1/DTD/svg11.dtd">
<svg version="1.1" id="Layer_1" xmlns="http://www.w3.org/2000/svg" xmlns:xlink="http://www.w3.org/1999/xlink" x="0px" y="0px"
	 width="742px" height="120px" viewBox="29 32 742 120" enable-background="new 29 32 742 120" xml:space="preserve">
<g>
	<path id="circle" fill="#F89F64" d="M669.364,74.277v-0.22c0-12.912-9.472-23.675-22.816-23.675c-13.344,0-22.6,10.547-22.6,23.464
		v0.21c0,12.913,9.47,23.678,22.814,23.678S669.364,87.191,669.364,74.277z"/>
	<g id="letters">
		<path fill="#FFFFFF" d="M30,72.272h15.282l35.3,46.383V72.272h16.357v75.337H82.842L46.359,99.715v47.895H30V72.272z"/>
		<path fill="#FFFFFF" d="M115.035,72.272h56.823v14.744H131.5v15.282h35.515v14.746H131.5v15.816h40.896v14.748h-57.361V72.272
			L115.035,72.272z"/>
		<path fill="#FFFFFF" d="M204.694,87.555h-22.923V72.272h62.42v15.282h-22.923v60.055h-16.574V87.555z"/>
		<path fill="#FFFFFF" d="M273.045,71.734h15.282l32.286,75.875h-17.327l-6.888-16.899h-31.855l-6.888,16.899H240.76L273.045,71.734
			z M290.48,116.072l-10.009-24.428l-10.008,24.428H290.48z"/>
		<path fill="#FFFFFF" d="M359.376,136.627l9.793-11.729c6.78,5.598,13.883,9.146,22.492,9.146c6.78,0,10.869-2.688,10.869-7.099
			v-0.221c0-4.193-2.583-6.348-15.174-9.574c-15.174-3.875-24.968-8.075-24.968-23.032v-0.214c0-13.668,10.978-22.708,26.367-22.708
			c10.978,0,20.341,3.444,27.981,9.578l-8.609,12.483c-6.672-4.627-13.237-7.426-19.587-7.426c-6.349,0-9.686,2.906-9.686,6.564
			v0.216c0,4.95,3.229,6.563,16.25,9.901c15.282,3.979,23.892,9.471,23.892,22.601v0.215c0,14.961-11.408,23.351-27.659,23.351
			C379.932,148.68,368.417,144.7,359.376,136.627z"/>
		<path fill="#FFFFFF" d="M433.431,72.272h15.282l35.299,46.383V72.272h16.359v75.337h-14.097l-36.485-47.895v47.895h-16.358V72.272
			z"/>
		<path fill="#FFFFFF" d="M515.127,110.157v-0.222c0-21.413,16.899-38.955,40.146-38.955c23.245,0,39.924,17.327,39.924,38.744
			v0.211c0,21.42-16.895,38.963-40.14,38.963C531.811,148.898,515.127,131.57,515.127,110.157z M577.871,110.157v-0.222
			c0-12.91-9.47-23.674-22.814-23.674c-13.344,0-22.6,10.547-22.6,23.463v0.211c0,12.916,9.47,23.676,22.814,23.676
			C568.615,133.611,577.871,123.072,577.871,110.157z"/>
		<path fill="#FFFFFF" d="M606.619,74.277v-0.22c0-21.414,16.898-38.956,40.145-38.956c23.245,0,39.926,17.326,39.926,38.746v0.21
			c0,21.418-16.895,38.962-40.142,38.962C623.302,113.02,606.619,95.691,606.619,74.277z M669.364,74.277v-0.22
			c0-12.912-9.472-23.675-22.816-23.675c-13.344,0-22.6,10.547-22.6,23.464v0.21c0,12.913,9.47,23.678,22.814,23.678
			S669.364,87.191,669.364,74.277z"/>
		<path fill="#FFFFFF" d="M701.454,72.272h16.567v32.932l30.564-32.932h20.021l-30.675,31.962L770,147.609h-19.902l-23.354-32.075
			l-8.72,9.039v23.036h-16.568L701.454,72.272L701.454,72.272z"/>
	</g>
</g>
</svg>
