<?xml version="1.0" encoding="utf-8"?>
<!-- Generator: Adobe Illustrator 16.0.0, SVG Export Plug-In . SVG Version: 6.00 Build 0)  -->
<!DOCTYPE svg PUBLIC "-//W3C//DTD SVG 1.1//EN" "http://www.w3.org/Graphics/SVG/1.1/DTD/svg11.dtd">
<svg version="1.1" id="Layer_1" xmlns="http://www.w3.org/2000/svg" xmlns:xlink="http://www.w3.org/1999/xlink" x="0px" y="0px"
	 width="134px" height="100px" viewBox="0 0 134 100" enable-background="new 0 0 134 100" xml:space="preserve">
<g>
	<path fill="#160919" d="M100.385,5.89c-3.029-2.425-6.494-4.113-10.262-5.022c-2.164-0.52-4.33-0.736-6.539-0.823
		C81.939,0,80.293,0,78.648,0c-7.75,0-15.545,0-23.296,0c-1.646,0-3.291,0-4.936,0.043c-2.208,0.087-4.374,0.303-6.539,0.823
		c-3.767,0.909-7.231,2.598-10.262,5.022c-6.106,4.894-9.656,12.298-9.656,20.092c0,7.838,3.55,15.199,9.656,20.092
		c3.03,2.425,6.495,4.113,10.262,5.024c2.166,0.52,4.331,0.734,6.539,0.821c1.646,0.043,3.291,0.043,4.936,0.043
		c7.751,0,15.546,0,23.296,0c1.646,0,3.291,0,4.936-0.043c2.209-0.087,4.375-0.304,6.539-0.821c3.768-0.911,7.23-2.6,10.262-5.024
		c6.105-4.893,9.656-12.298,9.656-20.092C110.041,18.144,106.49,10.782,100.385,5.89z M89.041,32.953
		c-1.17,0.779-2.426,1.256-3.811,1.473c-1.387,0.216-2.729,0.173-4.113,0.173c-9.396,0-18.836,0-28.233,0
		c-1.386,0-2.728,0.043-4.114-0.173c-1.386-0.217-2.641-0.693-3.811-1.473c-2.295-1.603-3.68-4.2-3.68-6.972
		c0-2.814,1.385-5.413,3.68-6.972c1.169-0.779,2.425-1.256,3.811-1.472c1.387-0.217,2.729-0.174,4.114-0.174
		c9.396,0,18.836,0,28.233,0c1.385,0,2.727-0.043,4.113,0.174c1.385,0.216,2.641,0.692,3.811,1.472c2.295,1.603,3.68,4.2,3.68,6.972
		C92.721,28.795,91.336,31.395,89.041,32.953z"/>
	<g>
		<path fill="#160919" d="M12.294,76.968c-3.016-0.011-5.964,1.114-8.111,3.279c-2.148,2.169-3.248,5.129-3.258,8.139
			c-0.01,3.012,1.067,5.979,3.202,8.162c2.132,2.18,5.073,3.325,8.089,3.335c3.016,0.013,5.964-1.114,8.11-3.278
			c2.149-2.168,3.248-5.129,3.258-8.14c0.011-3.011-1.067-5.979-3.202-8.161C18.25,78.123,15.31,76.978,12.294,76.968z
			 M18.337,89.769c-0.08,0.422-0.198,0.836-0.355,1.232c-0.149,0.379-0.336,0.743-0.559,1.085c-0.213,0.328-0.459,0.636-0.733,0.912
			c-0.273,0.276-0.577,0.524-0.902,0.737c-0.335,0.223-0.694,0.408-1.067,0.559c-0.389,0.156-0.792,0.273-1.204,0.352
			c-0.423,0.08-0.854,0.119-1.283,0.117c-0.431-0.001-0.86-0.043-1.283-0.126c-0.411-0.081-0.814-0.2-1.202-0.358
			c-0.372-0.152-0.729-0.342-1.062-0.564c-0.323-0.217-0.625-0.467-0.896-0.745c-0.273-0.278-0.518-0.588-0.729-0.918
			c-0.219-0.343-0.402-0.709-0.55-1.089c-0.154-0.398-0.271-0.812-0.348-1.234c-0.079-0.437-0.118-0.879-0.116-1.322
			c0.001-0.442,0.043-0.885,0.125-1.32c0.08-0.421,0.198-0.835,0.356-1.232c0.149-0.379,0.336-0.744,0.558-1.084
			c0.213-0.328,0.459-0.636,0.734-0.914c0.273-0.275,0.577-0.522,0.902-0.737c0.335-0.222,0.693-0.408,1.066-0.558
			c0.389-0.156,0.793-0.273,1.205-0.353c0.423-0.08,0.853-0.119,1.283-0.117c0.43,0.002,0.86,0.044,1.282,0.127
			c0.411,0.08,0.814,0.2,1.202,0.358c0.372,0.152,0.729,0.341,1.062,0.564c0.323,0.217,0.625,0.467,0.896,0.744
			c0.273,0.28,0.518,0.59,0.729,0.918c0.22,0.344,0.403,0.709,0.55,1.09c0.155,0.397,0.271,0.812,0.348,1.234
			c0.08,0.436,0.118,0.879,0.117,1.322S18.42,89.333,18.337,89.769z"/>
		<path fill="#160919" d="M104.76,87.784c-0.004,0.604-0.006,1.227-0.047,1.828c-0.023,0.39-0.066,0.783-0.139,1.166
			c-0.137,0.722-0.373,1.414-0.771,2.039c-0.969,1.517-2.668,2.262-4.396,2.283c-1.756,0.021-3.426-0.699-4.365-2.269
			c-0.381-0.636-0.604-1.334-0.742-2.054c-0.186-0.965-0.23-1.976-0.254-2.951c-0.016-0.637-0.021-1.271-0.021-1.909
			c-0.008-1.084-0.006-2.209-0.008-3.293c0-1.722,0-3.492,0-5.207c-1.736,0-3.475,0-5.211,0c0,1.715-0.002,7.115,0.008,8.897
			c0.006,0.854,0.014,1.727,0.039,2.58c0.02,0.623,0.049,1.256,0.104,1.877c0.133,1.477,0.404,2.918,1.076,4.271
			c1.379,2.773,4.059,4.382,7.045,4.734c1.465,0.174,2.969,0.043,4.385-0.371c1.357-0.399,2.799-1.113,3.811-2.157
			c0.049,0.702,0.098,1.427,0.146,2.112c1.52,0,3.178,0,4.549,0c0-7.2,0-14.744,0-21.945c-1.715,0-3.463,0-5.201,0
			C104.768,78.791,104.77,86.383,104.76,87.784z"/>
		<path fill="#160919" d="M132.74,90.771c-0.758-2.119-2.609-3.418-4.555-4.182c-1.1-0.431-2.23-0.697-3.377-0.951
			c-0.504-0.111-1.006-0.22-1.504-0.352c-0.43-0.113-0.85-0.241-1.258-0.418c-0.434-0.189-0.879-0.447-1.188-0.83
			c-0.26-0.322-0.396-0.71-0.348-1.131c0.059-0.496,0.355-0.901,0.729-1.2c0.262-0.211,0.545-0.36,0.855-0.479
			c0.404-0.156,0.812-0.244,1.238-0.293c0.852-0.099,1.719-0.029,2.551,0.145c1.26,0.264,2.43,0.766,3.521,1.432
			c0.869-1.189,1.738-2.381,2.605-3.57c-1.74-1.256-3.719-2.064-5.842-2.385c-1.184-0.179-2.393-0.201-3.582-0.044
			c-0.928,0.123-1.807,0.343-2.674,0.704c-1.145,0.479-2.154,1.172-2.947,2.146c-0.566,0.699-0.984,1.504-1.225,2.373
			c-0.295,1.074-0.303,2.209,0.035,3.281c0.311,0.984,0.887,1.821,1.66,2.494c1.625,1.41,3.895,1.924,5.848,2.346
			c0.684,0.146,1.367,0.289,2.041,0.481c0.547,0.156,1.115,0.356,1.609,0.652c0.389,0.231,0.744,0.532,0.98,0.931
			c0.201,0.337,0.299,0.719,0.26,1.112c-0.035,0.366-0.184,0.702-0.406,0.989c-0.266,0.34-0.619,0.598-1,0.785
			c-0.502,0.246-1.055,0.381-1.604,0.449c-0.764,0.096-1.562,0.075-2.322-0.018c-0.848-0.104-1.654-0.301-2.457-0.598
			c-1.223-0.455-2.293-1.095-3.322-1.888c-0.928,1.238-1.854,2.476-2.779,3.714c1.654,1.374,3.523,2.381,5.598,2.969
			c1.148,0.326,2.293,0.508,3.484,0.554c0.957,0.034,1.895-0.021,2.84-0.187c1.207-0.21,2.395-0.594,3.455-1.229
			c0.777-0.467,1.453-1.051,2.008-1.771c0.713-0.927,1.18-2.027,1.342-3.187C133.148,92.659,133.068,91.688,132.74,90.771z"/>
		<path fill="#160919" d="M40.451,94.567c-1.215,0.271-2.51,0.236-3.701-0.151c-1.207-0.396-2.234-1.129-2.969-2.172
			c-0.726-1.026-1.104-2.267-1.173-3.507c-0.067-1.229,0.171-2.522,0.749-3.623c0.607-1.161,1.512-1.967,2.708-2.48
			c0.509-0.22,1.026-0.367,1.572-0.459c0.703-0.119,1.389-0.133,2.096-0.047c1.266,0.152,2.419,0.611,3.482,1.292
			c1.047-1.33,2.095-2.659,3.144-3.989c-1.813-1.428-3.859-2.256-6.153-2.5c-2.22-0.236-4.537,0.105-6.568,1.069
			c-2.07,0.981-3.71,2.545-4.791,4.567c-1.06,1.982-1.509,4.279-1.401,6.506c0.106,2.234,0.776,4.46,2.077,6.312
			c1.314,1.879,3.16,3.211,5.315,3.948c2.118,0.726,4.46,0.847,6.646,0.385c2.21-0.469,4.247-1.528,5.82-3.18
			c-1.19-1.229-2.382-2.458-3.572-3.688C42.809,93.713,41.676,94.295,40.451,94.567z"/>
		<rect x="77.734" y="68.64" fill="#160919" width="5.486" height="30.727"/>
		<path fill="#160919" d="M66.474,87.784c-0.004,0.604-0.007,1.227-0.046,1.828c-0.024,0.39-0.067,0.783-0.14,1.166
			c-0.136,0.722-0.372,1.414-0.771,2.039c-0.968,1.517-2.667,2.262-4.395,2.283c-1.756,0.021-3.426-0.699-4.366-2.269
			c-0.381-0.636-0.604-1.334-0.742-2.054c-0.186-0.965-0.229-1.976-0.254-2.951c-0.016-0.637-0.02-1.271-0.021-1.909
			c-0.006-1.084-0.005-2.209-0.006-3.293c0-1.722,0-3.492,0-5.207c-1.737,0-3.475,0-5.212,0c0,1.715-0.003,7.115,0.009,8.897
			c0.005,0.854,0.012,1.727,0.039,2.58c0.02,0.623,0.049,1.256,0.104,1.877c0.131,1.477,0.404,2.918,1.077,4.271
			c1.379,2.773,4.058,4.382,7.043,4.734c1.466,0.174,2.97,0.043,4.385-0.371c1.359-0.399,2.801-1.113,3.811-2.157
			c0.049,0.702,0.098,1.427,0.146,2.112c1.52,0,3.059,0,4.43,0c0-7.2,0-14.744,0-21.945c-1.715,0-3.344,0-5.081,0
			C66.482,78.791,66.484,86.383,66.474,87.784z"/>
	</g>
</g>
</svg>
