<?xml version="1.0" encoding="utf-8"?>
<!-- Generator: Adobe Illustrator 16.0.0, SVG Export Plug-In . SVG Version: 6.00 Build 0)  -->
<!DOCTYPE svg PUBLIC "-//W3C//DTD SVG 1.1//EN" "http://www.w3.org/Graphics/SVG/1.1/DTD/svg11.dtd">
<svg version="1.1" id="Layer_1" xmlns="http://www.w3.org/2000/svg" xmlns:xlink="http://www.w3.org/1999/xlink" x="0px" y="0px"
	 width="200px" height="200px" viewBox="0 0 200 200" enable-background="new 0 0 200 200" xml:space="preserve">
<g>
	<path fill="#160919" d="M69.119,132.672c-6.599,6.125-8.714,13.865-8.267,22.588c0.151,2.992-0.022,5.998,0.041,8.994
		c0.304,14.416,9.644,24.031,24.432,25.178c10.238,0.791,19.516-1.365,26.799-9.072c9.645,8.107,11.812,8.809,28.498,9.822
		c-1.883,0.814-3.725,1.752-5.657,2.424c-26.532,9.221-52.728,8.688-78.03-3.914c-32.649-16.26-51.076-43.037-54.988-79.121
		c-3.492-32.193,7.551-59.537,30.799-81.91C48.933,12.08,68.493,3.285,90.759,1.494c40.746-3.279,72.23,13.078,94.229,47.182
		c8.076,12.521,12.87,26.613,13.646,41.77c-0.346-0.562-0.746-1.096-1.024-1.686c-9.042-19.1-33.774-19.994-46.173-10.965
		c-3.418,2.486-6.424,5.539-9.516,8.24c0-6.402,0.351-13.502-0.07-20.553c-0.928-15.553-13.133-22.664-25.592-21.756
		c-6.975,0.508-13.531,2.963-18.355,9.889c0-1.828,0-2.627,0-3.428c0.006-5.998,0.52-5.66-5.66-5.668c-0.5,0-1-0.01-1.498,0.002
		c-4.43,0.102-4.779,0.395-4.799,4.891c-0.041,9.986,0,19.975-0.027,29.959c-0.003,1.172-0.229,2.346-0.396,3.984
		c-8.676-11.16-15.603-14.602-29.142-13.781c-10.289,0.621-18.708,5.191-22.874,14.98c-4.377,10.287-3.729,21.133-0.695,31.65
		c3.137,10.891,17.352,19.045,28.457,17.074C63.837,132.822,66.498,132.861,69.119,132.672z"/>
	<path fill="#160919" d="M193.886,125.143c-5.336,7.871-13.109,10.67-22.135,10.299c-5.352-0.221-10.67-1.252-16.004-1.92
		c2.154,3.211,4.312,6.42,7.117,10.604c-4.33,0-7.27,0.125-10.188-0.07c-0.993-0.066-2.346-0.691-2.829-1.488
		c-3.174-5.227-8.293-6.311-13.726-6.658c-9.557-0.605-17.328,5.262-18.388,14.459c-0.603,5.227-0.571,10.656,0.108,15.871
		c0.959,7.328,5.787,11.885,12.847,13.564c7.042,1.676,13.515,0.525,18.458-5.486c0.861-1.047,2.135-2.285,3.335-2.424
		c3.007-0.348,6.08-0.115,9.099-0.115c0,0.906,0.049,1.086-0.008,1.223c-0.693,1.68-1.403,3.352-2.108,5.027
		c-0.128,0.371-0.256,0.744-0.383,1.117c0.304-0.189,0.606-0.377,0.912-0.564c18.815-13.928,30.825-32.336,36.257-55.074
		C195.448,124.041,194.388,124.402,193.886,125.143z"/>
	<path fill="#160919" d="M80.183,126.941c1-1.652,2.199-3.223,2.963-4.979c1.694-3.898,3.814-7.779,4.528-11.881
		c0.558-3.201,1.685-3.904,4.412-3.613c0.658,0.07,1.342-0.07,1.995,0.023c3.202,0.459,3.915-1.104,3.875-4.035
		c-0.141-10.32-0.057-20.643-0.053-30.965c0.002-10.527,5.416-16.93,15.918-17.896c10.36-0.955,16.437,2.717,16.957,14.99
		c0.475,11.135,0.082,22.309,0.111,33.463c0.014,4.346,0.062,4.416,4.402,4.414c5.773-0.002,5.154-0.26,5.731,5.275
		c0.416,3.99,2.163,7.859,3.481,11.727c0.521,1.527,1.486,2.902,2.252,4.348c-4.283-0.48-8.557-1.219-12.852-1.387
		c-7.525-0.291-13.979,2.543-19.514,7.58c-1.01,0.916-1.816,2.6-3.582,0.809c-8.478-8.611-18.996-9.436-30.144-7.785
		C80.517,127.051,80.347,126.973,80.183,126.941z"/>
	<path fill="#160919" d="M72.634,158.137c0-2.988-0.221-5.994,0.045-8.959c0.615-6.908,5.041-11.654,11.893-12.705
		c2.584-0.396,5.301-0.506,7.89-0.188c8.112,1,12.828,6.012,13.237,14.164c0.26,5.133,0.312,10.309-0.035,15.434
		c-0.602,8.977-7.514,14.748-16.951,14.57c-9.299-0.176-15.606-5.934-16.145-14.848c-0.15-2.48-0.023-4.979-0.023-7.469
		C72.574,158.137,72.604,158.137,72.634,158.137z"/>
	<path fill="#160919" d="M42.89,100.717c0-2.162,0.244-4.357-0.045-6.48c-0.984-7.26,7.504-15.752,14.758-14.801
		c2.771,0.365,5.746-0.082,8.346,0.74c6.285,1.988,9.816,7.254,9.939,14c0.082,4.488-0.115,8.984,0.045,13.471
		c0.345,9.615-7.836,16.002-17.086,15.949c-8.701-0.051-16.653-6.922-15.982-15.895C43.037,105.383,42.89,103.045,42.89,100.717z"/>
	<path fill="#160919" d="M169.815,97.465c-4.156,0.002-8.312,0.027-12.469-0.006c-4.607-0.035-6.162-2.125-3.631-6.105
		c1.944-3.062,4.908-5.965,8.1-7.652c7.92-4.193,20.039-0.758,23.775,5.975c0.688,1.238,1.039,2.717,1.295,4.129
		c0.514,2.812-0.791,3.82-3.605,3.711C178.798,97.338,174.304,97.465,169.815,97.465z"/>
	<path fill="#160919" d="M197.535,117.713c-1.989-0.061-3.985-0.047-5.968-0.211c-3.045-0.248-5.184,0.553-7.035,3.395
		c-3.077,4.723-12.904,7.004-19.627,5.057c-9.467-2.74-11.129-6.633-12.863-15.074c-0.742-3.613,0.043-4.375,3.812-4.383
		c14.275-0.027,28.557,0.008,42.832,0.02C198.302,110.248,197.919,113.98,197.535,117.713z"/>
</g>
</svg>
