<?xml version="1.0" encoding="utf-8"?>
<!-- Generator: Adobe Illustrator 26.0.1, SVG Export Plug-In . SVG Version: 6.00 Build 0)  -->
<svg version="1.1" id="Layer_1" xmlns="http://www.w3.org/2000/svg" xmlns:xlink="http://www.w3.org/1999/xlink" x="0px" y="0px"
	 viewBox="0 0 576 512" style="enable-background:new 0 0 576 512;" xml:space="preserve">
<style type="text/css">
	.st0{fill:#3887F9;}
</style>
<path class="st0" d="M0,96h576c0-35.3-28.7-64-64-64H64C28.7,32,0,60.7,0,96z M0,128v288c0,35.3,28.7,64,64,64h448
	c35.3,0,64-28.7,64-64V128H0z M64,405.3c0-29.5,23.9-53.3,53.3-53.3h117.4c29.5,0,53.3,23.9,53.3,53.3c0,5.9-4.8,10.7-10.7,10.7
	H74.7C68.8,416,64,411.2,64,405.3z M176,192c35.3,0,64,28.7,64,64s-28.7,64-64,64s-64-28.7-64-64S140.7,192,176,192z M352,208
	c0-8.8,7.2-16,16-16h128c8.8,0,16,7.2,16,16s-7.2,16-16,16H368C359.2,224,352,216.8,352,208z M352,272c0-8.8,7.2-16,16-16h128
	c8.8,0,16,7.2,16,16s-7.2,16-16,16H368C359.2,288,352,280.8,352,272z M352,336c0-8.8,7.2-16,16-16h128c8.8,0,16,7.2,16,16
	s-7.2,16-16,16H368C359.2,352,352,344.8,352,336z"/>
</svg>
