<?xml version="1.0" encoding="utf-8"?>
<!-- Generator: Adobe Illustrator 16.0.0, SVG Export Plug-In . SVG Version: 6.00 Build 0)  -->
<!DOCTYPE svg PUBLIC "-//W3C//DTD SVG 1.1//EN" "http://www.w3.org/Graphics/SVG/1.1/DTD/svg11.dtd">
<svg version="1.1" id="Layer_1" xmlns="http://www.w3.org/2000/svg" xmlns:xlink="http://www.w3.org/1999/xlink" x="0px" y="0px"
	 width="340px" height="340px" viewBox="0 0 340 340" enable-background="new 0 0 340 340" xml:space="preserve">
<g>
	<path fill-rule="evenodd" clip-rule="evenodd" fill="#FFFFFF" d="M306.769,129.91c1.812-1.544,3.626-3.087,5.706-4.857
		c2.672,3.944-0.297,5.894-2.1,7.835c-2.272,2.447-5.559,2.668-7.469,0.08c-3.236-4.384-7.341-3.8-11.902-4.227
		c-3.685-0.345-7.176-3.316-10.595-5.383c-0.536-0.324-0.234-2.035-0.32-3.104c1.03,0.113,2.222-0.063,3.056,0.402
		c1.582,0.883,2.823,2.469,4.462,3.126c1.309,0.525,2.996,0.108,4.517,0.109c-0.329-1.506-0.313-3.224-1.074-4.466
		c-0.93-1.519-2.705-2.501-3.745-3.976c-0.768-1.088-0.943-2.594-1.383-3.913c1.168-0.304,2.396-0.469,3.489-0.943
		c1.959-0.852,3.813-1.939,5.756-2.833c1.318-0.607,2.711-1.052,4.07-1.568c-0.187,1.514-0.084,3.148-0.649,4.504
		c-0.479,1.149-2.043,1.838-2.555,2.985c-0.508,1.137-0.301,2.592-0.407,3.907c1.197-0.389,2.639-0.484,3.531-1.234
		c1.241-1.043,1.882-2.816,3.146-3.812c0.827-0.653,2.302-0.486,3.487-0.687c-0.022,1.048,0.333,2.32-0.133,3.104
		c-1.756,2.947-3.78,5.735-5.124,9.533c1.231-0.604,2.581-1.048,3.663-1.852c1.325-0.984,2.301-2.466,3.673-3.353
		c0.792-0.513,2.067-0.277,3.125-0.379c-0.026,1.061,0.343,2.379-0.151,3.132c-1.562,2.378-3.447,4.544-5.207,6.792
		C306.013,129.192,306.391,129.55,306.769,129.91z"/>
	<path fill-rule="evenodd" clip-rule="evenodd" fill="#FFFFFF" d="M28.772,126.376c1.928,1.007,3.855,2.013,5.783,3.02
		c0.287-0.231,0.574-0.463,0.86-0.694c-2.001-2.994-4.002-5.988-6.004-8.982c0.458-0.524,0.916-1.05,1.373-1.575
		c3.232,2.068,6.464,4.137,9.696,6.205c0.367-0.455,0.734-0.911,1.101-1.366c-1.708-2.153-3.652-4.167-5.024-6.516
		c-0.706-1.208-0.394-3.011-0.542-4.545c1.28,0.667,2.846,1.067,3.772,2.062c1.437,1.544,2.438,3.493,3.975,5.797
		c3.3-4.796,0.842-6.595-0.697-8.805c-0.872-1.253-1.048-2.99-1.538-4.509c1.676,0.468,3.71,0.493,4.949,1.499
		c2.297,1.862,3.801,5.191,8.058,1.33c0.106,0.498,0.212,0.996,0.318,1.494c-0.269,1.26-0.258,2.682-0.873,3.742
		c-0.903,1.558-2.538,2.715-3.33,4.307c-0.768,1.543-0.863,3.421-1.254,5.151c1.756-0.287,3.58-0.369,5.253-0.912
		c2.285-0.74,4.457-1.831,6.677-2.771c-1.513,2.228-2.592,5.09-4.661,6.504c-2.115,1.445-5.293,2.238-7.841,1.936
		c-3.854-0.459-6.458,0.176-9.145,3.22c-1.429,1.619-5.216,2.925-6.882,2.138c-2.302-1.089-3.606-4.285-5.338-6.579
		C27.896,127.143,28.334,126.759,28.772,126.376z"/>
	<path fill-rule="evenodd" clip-rule="evenodd" fill="#FFFFFF" d="M151.811,108.917c5.536,0.245,11.901-1.573,14.927,5.771
		c0.931,2.26,6.975,1.667,8.114-0.731c1.967-4.142,5.365-5.217,9.407-5.174c8.631,0.092,17.272,0.077,25.888,0.522
		c9.109,0.471,11.316,3.074,11.33,12.156c0,0.166-0.022,0.334-0.014,0.499c0.872,16.392-3.174,20.992-22.137,21.115
		c-5.384,0.035-10.893-1.254-16.141-2.683c-7.531-2.051-9.821-5.676-9.602-13.567c0.06-2.149,0.888-4.493-2.684-4.569
		c-3.387-0.071-3.524,1.89-3.571,4.544c-0.172,9.78-3.926,13.814-15.222,15.508c-5.385,0.807-10.968,0.96-16.407,0.598
		c-11.935-0.797-16.807-6.638-16.231-18.612c0.024-0.496,0.157-0.986,0.2-1.483c1.03-12.062,2.731-13.655,15.206-13.875
		C140.519,108.834,146.166,108.917,151.811,108.917z"/>
	<path fill-rule="evenodd" clip-rule="evenodd" fill="#FFFFFF" d="M170.712,154.603c4.91,0.34,11.022,0.75,17.133,1.189
		c3.492,0.251,5.605,1.806,5.435,5.661c-0.882,19.857-17.078,28.929-33.642,21.629c-7.516-3.312-12.106-16.712-11.844-23.875
		c0.036-0.973,2.062-2.522,3.316-2.688C157.193,155.71,163.328,155.283,170.712,154.603z"/>
	<path fill-rule="evenodd" clip-rule="evenodd" fill="#FFFFFF" d="M205.049,94.956c0.579,1.747,2.029,3.858,1.493,5.14
		c-0.55,1.317-2.959,2.302-4.695,2.595c-5.197,0.876-10.452,1.6-15.708,1.835c-1.929,0.087-3.926-1.358-5.892-2.104
		c1.25-1.848,2.274-5.059,3.788-5.308c6.964-1.149,14.064-1.472,21.114-2.091C205.147,95.021,205.049,94.956,205.049,94.956z"/>
	<path fill-rule="evenodd" clip-rule="evenodd" fill="#FFFFFF" d="M136.238,95.003c6.112,0.573,12.272,0.864,18.305,1.9
		c1.692,0.291,3.008,2.771,4.496,4.248c-1.795,1.064-3.589,3.024-5.387,3.027c-5.45,0.01-10.92-0.585-16.347-1.238
		c-4.378-0.527-4.682-3.471-0.961-8.021C136.347,94.919,136.238,95.003,136.238,95.003z"/>
	<path fill-rule="evenodd" clip-rule="evenodd" fill="#FFFFFF" d="M165.769,144.439c1.325-1.191,2.87-3.518,3.925-3.312
		c1.631,0.315,2.927,2.36,4.364,3.672c-0.237,0.428-0.475,0.855-0.713,1.283c-2.263,0-4.526,0-6.789,0
		C166.293,145.534,166.031,144.987,165.769,144.439z"/>
	<g>
		<path fill="#FFFFFF" d="M75.322,303.826c-2.549-0.804-5.227-1.203-8.438-1.881c1.232,4.98,4.732,5.066,7.844,5.52
			c0.735,0.107,1.614-0.77,2.427-1.194C76.554,305.425,76.111,304.075,75.322,303.826z"/>
		<path fill="#FFFFFF" d="M95.954,295.921c-6.155-3.155-12.285-1.959-18.255,0.626c-0.863,0.374-1.832,1.757-1.787,2.621
			c0.046,0.861,1.177,2.158,2.061,2.39c2.708,0.707,5.525,0.994,9.036,1.563c2.459-0.401,5.615-0.681,8.612-1.522
			c1.163-0.326,2.438-1.798,2.754-2.988C98.549,297.954,97.012,296.464,95.954,295.921z"/>
		<path fill="#FFFFFF" d="M75.585,311.506c-5.706-1.346-10.761-2.538-17.065-4.024C63.011,314.073,70.399,315.723,75.585,311.506z"
			/>
		<path fill="#FFFFFF" d="M334.249,317.109c-15.873-9.723-31.702-19.519-47.597-29.206c-3.516-2.144-5.074-4.727-3.866-8.961
			c0.903-3.165,1.212-6.506,1.694-9.781c1.11-7.533,1.918-15.12,3.3-22.601c2.316-12.547,5.261-24.979,7.432-37.548
			c2.566-14.862,4.658-29.808,6.826-44.736c1.11-7.642,1.939-15.324,2.95-23.434c-5.722,0.944-11.15-0.14-14.516,6.137
			c-3.096,5.773-7.281,11.087-11.632,16.035c-9.162,10.422-18.729,20.491-28.167,30.669c-4.899,5.282-9.88,10.49-15.005,15.925
			c-1.145-1.487-1.603-2.18-2.156-2.785c-3.097-3.384-3.634-6.061-0.096-10.196c3.657-4.275,5.515-10.069,8.326-15.105
			c1.039-1.861,2.246-3.881,3.911-5.097c5.229-3.817,10.901-7.836,10.434-14.826c-0.56-8.342,2.063-13.564,8.473-19.25
			c5.385-4.776,7.617-13.106,11.237-19.868c0.074-0.139,0.07-0.325,0.081-0.49c0.271-4.195,0.539-8.391,0.822-12.82
			c-0.99-0.064-2.466-0.118-3.933-0.265c-1.6-0.159-3.19-0.403-5.087-0.65c0.316-1.108,0.368-1.779,0.676-2.296
			c5.998-10.065,4.854-19.272-3.05-27.866c-0.713-0.775-0.792-2.791-0.335-3.884c5.484-13.129,0.807-24.58-12.688-28.048
			c-5.995-1.541-7.595-4.552-7.897-9.798c-1.039-18.048-18.522-22.746-32.104-18.296c-2.963,0.971-4.639,0.51-6.307-1.89
			c-4.486-6.455-10.541-10.371-18.567-9.189c-4.48,0.66-8.701,2.941-13.143,4.09c-1.926,0.498-4.878,0.842-6.057-0.21
			c-8.155-7.272-28.208-5.447-33.89,6.021c-0.533,1.076-3.096,1.458-4.753,1.559c-1.19,0.071-2.402-1.035-3.671-1.323
			c-16.198-3.685-28.536,5.398-29.635,21.979c-0.236,3.56-0.63,5.541-5.086,6.161c-6.005,0.837-11.047,4.287-14.414,9.7
			c-4.633,7.449-3.88,14.799,0.606,22.072c-10.327,8.164-9.285,18.425-5.409,29.307c-3.767,0.535-6.932,0.985-8.92,1.268
			c0.751,4.433,1.423,8.341,2.07,12.252c0.188,1.135,0.031,2.411,0.501,3.399c2.311,4.859,4.444,9.856,7.307,14.383
			c2.082,3.292,4.741,6.685,7.98,8.658c3.762,2.293,4.326,4.762,3.77,8.631c-1.304,9.068,3.061,17.275,11,21.712
			c1.208,0.676,2.853,1.794,3.024,2.904c1.188,7.676,6.022,13.165,10.57,18.912c0.842,1.064,1.417,3.17,0.934,4.28
			c-1.021,2.346-2.825,4.352-4.448,6.7c-10.414-10.766-20.844-20.91-30.51-31.737c-8.124-9.1-15.577-18.831-22.914-28.592
			c-5.449-7.252-7.059-8.378-14.645-6.337c2.436,15.297,4.913,30.667,7.324,46.049c4.657,29.7,9.212,59.416,13.985,89.098
			c0.648,4.029-0.089,6.759-3.884,8.542c-2.673,1.257-5.316,2.621-7.826,4.174c-12.954,8.016-25.882,16.073-38.773,24.189
			c-5.043,3.175-9.252,6.642-7.804,13.875c0.731,3.65,2.25,4.881,5.535,4.739c1.151-0.05,2.291-0.508,3.436-0.51
			c23.795-0.045,47.591-0.069,71.386-0.059c19.069,0.009,38.139,0.082,57.208,0.102c13.437,0.014,26.873-0.062,40.309-0.014
			c23.512,0.087,47.023,0.32,70.535,0.334c15.085,0.009,30.17-0.318,45.256-0.397c13.139-0.068,26.279,0.071,39.417-0.076
			c1.744-0.02,4.362-0.688,5.049-1.913C341.012,327.024,338.154,319.501,334.249,317.109z M231.092,218.771
			c0.352,0.12,0.908,0.241,0.908,0.361c0,20.216,0,40.431,0,60.618c-2,0.312-3.059,0.549-4.201,0.643
			c-7.711,0.635-8.515,0.322-8.54-7.256c-0.046-13.536,0.524-27.079,1.122-40.605c0.072-1.649,1.856-3.309,3.076-4.8
			C225.949,224.687,228.52,221.752,231.092,218.771z M110.314,220.113c6.579,5.346,11.028,10.202,10.999,18.242
			c-0.046,12.754,0.369,25.513,0.715,38.266c0.088,3.255-1.864,4.403-4.334,3.951c-2.46-0.45-6.524,1.199-6.617-3.836
			c-0.167-8.953-0.607-17.901-0.732-26.854C110.211,240.448,110.314,231.011,110.314,220.113z M116.005,311.183
			c-6.218,2.551-13.012,4.28-19.701,4.978c-13.413,1.397-26.928,1.473-40.044-2.478c-2.997-0.902-5.656-2.927-8.47-4.435
			c-0.048-0.686-0.096-1.371-0.144-2.057c5.797-2.984,11.594-5.968,17.706-9.113c-5.551-5.895-9.867,1.121-16.232,1.44
			c4.249-5.49,8.621-8.46,13.893-10.437c15.133-5.675,30.851-3.804,46.42-3.559c1.908,0.03,3.792,1.591,5.688,2.468
			c-0.004-0.01-0.007-0.019-0.011-0.028c4.724,1.496,8.736,3.904,8.96,9.422C124.322,303.561,121.544,308.912,116.005,311.183z
			 M190.334,197.411c-18.797,4.492-37.296,3.228-54.851-5.593c-12.893-6.478-18.791-17.822-20.921-31.396
			c-0.613-3.906-2.263-4.666-5.622-4.188c-6.052,0.862-11.803,0.56-15.202-5.617c-2.875-5.224-1.85-16.715,2.227-20.842
			c4.113-4.163,9.432-4.44,14.895-2.987c0.934,0.249,1.874,0.475,3.501,0.886c0.678-6.509,1.389-12.69,1.95-18.886
			c0.745-8.213,0.942-8.294,8.728-10.08c3.833-0.88,7.501-2.482,11.242-3.765c2.732-3.947,5.164-6.077,10.742-2.965
			c5.083,2.835,11.561,3.104,17.306,0.12c3.532-1.834,6.564-1.993,10.226,0.22c5.785,3.494,11.945,1.832,17.725-0.487
			c7.023-2.818,7.972-2.743,12.827,3.143c5.07,1.477,10.236,2.705,15.153,4.582c1.62,0.618,3.448,2.801,3.713,4.497
			c1.198,7.685,1.872,15.45,2.68,22.698c4.401,0,8.775-0.203,13.121,0.061c3.884,0.235,6.438,2.675,7.567,6.305
			c1.854,5.955,2.771,12.019-0.445,17.812c-2.21,3.981-5.698,5.763-10.384,5.233c-7.979-0.902-8.807-0.188-10.703,7.891
			c-0.331,1.409-0.824,2.95-1.724,4.029c-6.132,7.355-12.802,14.301-18.473,21.989C201.599,195.509,195.654,196.141,190.334,197.411
			z M290.347,312.79c-10.5,2.093-21.309,3.051-32.026,3.485c-7.243,0.293-14.611-0.816-21.811-1.986
			c-2.573-0.419-6.763-2.843-6.777-4.384c-0.024-2.629,2.562-5.354,4.266-7.894c0.651-0.971,1.895-1.543,3.061-2.445
			c-2.851-2.936-5.201-1.917-7.337-0.108c-0.974,0.825-1.538,2.13-2.296,3.213c-1.615,2.306-3.499,5.803-6.41,3.94
			c-2.114-1.353-3.679-5.188-3.672-7.912c0.018-6.678,6.732-13.15,13.93-13.289c15.391-0.299,30.827-1.259,46.049,2.6
			c6.977,1.768,12.414,5.473,16.855,10.813C298.969,304.586,297.55,311.354,290.347,312.79z"/>
		<path fill="#FFFFFF" d="M107.535,289.06c2.639,1.251,5.277,2.503,7.917,3.754c0.323-0.446,0.646-0.892,0.969-1.338
			c-0.43-1.153-0.861-2.306-1.291-3.459c-2.309-0.283-4.618-0.566-6.927-0.851C107.98,287.797,107.758,288.428,107.535,289.06z"/>
		<path fill="#FFFFFF" d="M97.941,291.918c3.512,1.459,6.476,2.689,9.44,3.921C106.067,290.216,102.746,289.081,97.941,291.918z"/>
		<path fill="#FFFFFF" d="M115.186,288.023c-0.021-0.01-0.043-0.022-0.065-0.032c0.003,0.009,0.006,0.017,0.009,0.025
			C115.148,288.019,115.167,288.021,115.186,288.023z"/>
		<path fill="#FFFFFF" d="M136.347,94.919c-0.022,0.007-0.043,0.016-0.065,0.023c-0.014,0.021-0.028,0.04-0.043,0.061
			L136.347,94.919z"/>
		<path fill="#FFFFFF" d="M249.646,290.381c-0.022,0.592-0.044,1.184-0.066,1.776c5.995,0.297,11.989,0.594,17.984,0.891
			C261.87,288.506,255.813,288.752,249.646,290.381z"/>
		<path fill="#FFFFFF" d="M261.204,310.906c-9.221-0.954-17.825-1.845-27.205-2.814
			C238.861,314.646,254.888,316.334,261.204,310.906z"/>
		<path fill="#FFFFFF" d="M240.948,304.621c4.339,3.89,9.819,4.241,14.61,0.743C250.955,304.139,246.354,302.884,240.948,304.621z"
			/>
		<path fill="#FFFFFF" d="M205.147,95.021c-0.015-0.018-0.026-0.032-0.041-0.049c-0.02-0.006-0.038-0.011-0.058-0.017
			L205.147,95.021z"/>
		<path fill="#FFFFFF" d="M262.867,295.909c-5.868-0.195-11.806-0.311-17.611,0.414c-3.115,0.389-2.922,3.239-0.362,4.462
			c2.732,1.306,5.919,1.659,7.744,2.13c4.152-0.443,7.01-0.495,9.726-1.144c1.363-0.326,2.469-1.736,3.69-2.656
			C264.993,297.995,263.964,295.945,262.867,295.909z"/>
	</g>
</g>
</svg>
