<?xml version="1.0" encoding="utf-8"?>
<!-- Generator: Adobe Illustrator 16.0.0, SVG Export Plug-In . SVG Version: 6.00 Build 0)  -->
<!DOCTYPE svg PUBLIC "-//W3C//DTD SVG 1.1//EN" "http://www.w3.org/Graphics/SVG/1.1/DTD/svg11.dtd">
<svg version="1.1" id="Layer_1" xmlns="http://www.w3.org/2000/svg" xmlns:xlink="http://www.w3.org/1999/xlink" x="0px" y="0px"
	 width="480px" height="138px" viewBox="0 0 480 138" enable-background="new 0 0 480 138" xml:space="preserve">
<g>
	<path fill="#FFFFFF" d="M0.092,0.581c0,45.757,0,91.158,0,136.838c160.343,0,320.049,0,479.816,0c0-45.9,0-91.414,0-136.838
		C319.742,0.581,160.034,0.581,0.092,0.581z M137.373,89.853c-1.729,12.341-3.621,24.66-5.181,37.021
		c-0.394,3.125-1.438,4.248-4.624,4.242c-38.974-0.068-77.949-0.059-116.923,0.049c-3.428,0.008-4.194-1.392-4.188-4.475
		C6.541,88.382,6.575,50.074,6.491,11.765C6.483,8.227,7.72,7.207,11.118,7.211c44.304,0.06,88.607,0.01,132.91,0.012
		c1.454,0,2.908,0.258,4.816,0.438C144.953,35.555,141.175,62.706,137.373,89.853z M439.761,111.704
		c-6.812,0-13.271,0.114-19.715-0.127c-0.941-0.037-2.208-1.636-2.633-2.771c-0.627-1.677-0.768-3.576-0.884-5.396
		c-0.562-8.691-0.596-7.55-9.084-7.631c-5.498-0.055-11.026-0.293-16.484,0.189c-2.006,0.177-5.104,1.826-5.562,3.422
		c-3.048,10.598-9.643,13.654-20.354,12.604c-11.294-1.108-11.47-0.268-12.72-11.617c-0.356-3.241-1.479-4.758-4.933-4.686
		c-6.995,0.149-14.008-0.195-20.989,0.137c-1.701,0.08-4.429,1.701-4.793,3.104c-3.022,11.614-10.756,14.594-21.623,12.8
		c-2.557-0.422-5.24-0.062-8.276-0.062c0.356-1.758,0.598-2.938,0.942-4.633c-17.652,9.864-34.767,7.004-52.233-0.229
		c-0.097,3.794-1.813,5.006-5.254,4.73c-4.305-0.346-8.666-0.203-12.991-0.006c-3.217,0.147-4.713-0.677-5.026-4.306
		c-0.646-7.448-2.021-14.83-2.879-22.265c-0.354-3.055-1.865-3.852-4.66-3.711c-2.688,0.134-5.203-0.363-5.759,3.634
		c-1.075,7.731-2.528,15.42-4.115,23.065c-0.286,1.375-1.915,3.455-3.015,3.515c-6.278,0.339-12.584,0.163-19.576,0.163
		c1.494-8.605,2.818-16.564,4.264-24.502c3.575-19.627,7.173-39.252,10.891-58.854c0.246-1.296,1.593-3.423,2.41-3.415
		c11.632,0.115,23.368-0.326,34.856,1.125c10.712,1.355,15.978,8.568,16.483,19.428c0.55,11.793-1.083,22.954-9.981,31.863
		c-0.785,0.787-1.226,2.46-1.037,3.591c1.268,7.65,2.747,15.268,5.351,23.285c3.008-5.582,6.016-11.162,8.279-15.365
		c7.169,1.832,13.576,3.763,20.113,5.021c3.336,0.642,6.973-0.267,8.275-4.049c1.432-4.151-0.357-7.409-3.893-9.864
		c-2.873-1.995-5.659-4.117-8.438-6.242c-10.274-7.854-14.032-18.322-10.771-29.909c2.992-10.629,11.867-17.697,24.496-18.846
		c10.369-0.942,20.557,0.001,30.477,5.134c-3.129,5.95-6.119,11.641-8.994,17.109c-4.992-1.15-9.432-2.536-13.974-3.112
		c-3.905-0.494-7.755,0.253-9.378,4.787c-1.6,4.471,1.262,6.8,4.318,9.03c1.213,0.884,2.396,1.815,3.676,2.591
		c11.125,6.746,16.938,16.207,15.242,29.56c-0.084,0.655-0.021,1.332,0.004,1.998c0.006,0.15,0.141,0.297,0.496,1
		c0.805-1.185,1.551-2.086,2.088-3.1c10.782-20.289,21.615-40.551,32.228-60.93c1.706-3.277,3.677-4.599,7.348-4.354
		c4.646,0.312,9.353,0.368,13.988-0.009c4.192-0.342,5.324,1.586,5.942,5.279c2.521,15.083,5.3,30.123,8.023,45.171
		c0.249,1.376,0.787,2.699,1.505,5.092c5.298-9.88,10.091-18.784,14.849-27.706c4.311-8.081,8.689-16.127,12.805-24.306
		c1.312-2.608,2.896-3.622,5.796-3.521c5.493,0.19,11.011-0.187,16.489,0.146c1.449,0.088,3.807,1.719,4.035,2.957
		c4.978,26.98,9.715,54.007,14.476,81.027C439.993,109.378,439.838,110.061,439.761,111.704z"/>
	<path fill="#FFFFFF" d="M208.016,60.697c0.802-4.799,1.472-8.842,2.155-12.882c0.589-3.479,3.357-2.418,5.51-2.625
		c3.452-0.332,6.307,0.45,7.499,4.168c1.729,5.388-1.618,10.694-7.267,11.299C213.635,60.899,211.309,60.697,208.016,60.697z"/>
	<path fill="#FFFFFF" d="M333.182,75.532c4.172-8.424,7.699-15.545,11.227-22.665c0.488,0.099,0.978,0.196,1.466,0.296
		c0.765,6.626,1.614,13.242,2.178,19.885c0.063,0.759-1.442,2.31-2.302,2.371C342.012,75.682,338.244,75.532,333.182,75.532z"/>
	<path fill="#FFFFFF" d="M397.239,75.204c3.933-7.943,7.468-15.084,11.003-22.227c0.472,0.052,0.942,0.104,1.416,0.156
		c0.554,4.814,1.244,9.618,1.63,14.445c0.64,8.022,0.557,8.045-7.721,7.969C401.815,75.532,400.063,75.362,397.239,75.204z"/>
	<path fill="#FFFFFF" d="M85.696,50.883c-0.782,9.896-1.509,19.799-2.38,29.688c-0.25,2.847,1.096,6.681-4.152,6.829
		c-6.141,0.174-7.627-0.564-8.716-6.211c-1.322-6.85-2.377-13.752-3.584-20.625c-0.156-0.887-0.532-1.734-1.58-2.443
		c0,9.41,0,18.821,0,28.097c-8.087,2.747-10.763,1.375-12.591-6.118c-1.405-5.762-2.82-11.521-5.332-17.182
		c0.366,7.773,0.732,15.55,1.093,23.191c-7.627,2.721-10.085,1.407-11.626-5.773c-1.742-8.121-3.331-16.282-5.382-24.324
		c-0.818-3.208-0.228-4.894,2.76-6.286c13.868-6.464,27.598-13.229,41.555-19.491c2.808-1.26,6.511-1.502,9.591-0.978
		c7.024,1.194,13.89,3.293,20.879,4.734c2.761,0.568,3.46,1.792,3.2,4.431c-1.469,14.893-2.693,29.811-4.384,44.677
		c-0.18,1.582-2.831,2.897-4.379,4.289c-0.183,0.165-0.647,0.036-0.979,0.014c-10.603-0.729-10.3,2.759-10.933-10.286
		c-0.426-8.775-1.412-17.523-2.148-26.284C86.302,50.847,85.999,50.865,85.696,50.883z"/>
	<path fill="#FFFFFF" d="M69.223,92.214c11.591,0.582,22.898,1.148,34.71,1.742c-0.505,5.414-0.941,10.084-1.465,15.703
		c-10.04-2.695-19.306-4.981-28.435-7.725C69.838,100.676,69.565,96.692,69.223,92.214z"/>
</g>
</svg>
