<?xml version="1.0" encoding="utf-8"?>
<!-- Generator: Adobe Illustrator 26.0.1, SVG Export Plug-In . SVG Version: 6.00 Build 0)  -->
<svg version="1.1" id="Layer_1" xmlns="http://www.w3.org/2000/svg" xmlns:xlink="http://www.w3.org/1999/xlink" x="0px" y="0px"
	 viewBox="0 0 540 540" style="enable-background:new 0 0 540 540;" xml:space="preserve">
<style type="text/css">
	.st0{fill:#160919;}
</style>
<g>
	<path class="st0" d="M231.9,445.6c47.6,0,91.8-16.2,127.7-42.6l118.7,118.7L522,478L403.3,359.9c26.3-35.8,42.6-79.5,42.6-127.7
		c0-118.2-95.8-213.9-213.4-213.9C114.9,18.3,18,114.6,18,232.2S114.3,445.6,231.9,445.6L231.9,445.6z M231.9,79.9
		c84,0,151.8,67.8,151.8,151.8S315.9,384,231.9,384S79.6,316.2,79.6,232.2S148.5,79.9,231.9,79.9L231.9,79.9z"/>
</g>
</svg>
