<?xml version="1.0" encoding="utf-8"?>
<!-- Generator: Adobe Illustrator 26.0.1, SVG Export Plug-In . SVG Version: 6.00 Build 0)  -->
<svg version="1.1" id="Layer_1" xmlns="http://www.w3.org/2000/svg" xmlns:xlink="http://www.w3.org/1999/xlink" x="0px" y="0px"
	 viewBox="0 0 164 164" style="enable-background:new 0 0 164 164;" xml:space="preserve">
<style type="text/css">
	.st0{fill:#160919;}
</style>
<g>
	<path class="st0" d="M81.9,1.9C39.9,1.9,5.3,34.3,2,75.7l42.9,17.8c3.6-2.5,8-4,12.7-4c0.4,0,0.9,0,1.3,0l19-27.7
		c0-0.2,0-0.2,0-0.4c0-16.7,13.6-30.3,30.3-30.3s30.3,13.6,30.3,30.3s-13.6,30.3-30.3,30.3c-0.2,0-0.5,0-0.7,0l-27,19.4
		c0,0.4,0,0.7,0,1.1c0,12.5-10.1,22.6-22.6,22.6c-11.1,0-20.1-7.8-22.3-18.3L4.7,103.7c9.4,33.7,40.4,58.3,77.2,58.3
		c44.2,0,80.1-35.9,80.1-80.1C162.2,37.8,126.3,1.9,81.9,1.9"/>
	<path class="st0" d="M52.4,123.5l-9.8-4c1.8,3.6,4.7,6.7,8.7,8.3c8.7,3.6,18.7-0.5,22.3-9.2c1.8-4.2,1.8-8.9,0-13
		c-1.8-4.2-5.1-7.4-9.2-9.2c-4.2-1.8-8.7-1.6-12.5-0.2l10.1,4.2c6.3,2.7,9.4,10,6.7,16.3C66,123.1,58.7,126.2,52.4,123.5"/>
	<path class="st0" d="M128.5,61.3c0-11.1-9.1-20.1-20.1-20.1s-20.1,9.1-20.1,20.1s9.1,20.1,20.1,20.1
		C119.4,81.5,128.5,72.4,128.5,61.3 M93.3,61.3c0-8.3,6.7-15.2,15.2-15.2s15.2,6.7,15.2,15.2s-6.7,15.2-15.2,15.2
		S93.3,69.7,93.3,61.3"/>
</g>
</svg>
