<?xml version="1.0" encoding="utf-8"?>
<!-- Generator: Adobe Illustrator 16.0.0, SVG Export Plug-In . SVG Version: 6.00 Build 0)  -->
<!DOCTYPE svg PUBLIC "-//W3C//DTD SVG 1.1//EN" "http://www.w3.org/Graphics/SVG/1.1/DTD/svg11.dtd">
<svg version="1.1" id="Layer_1" xmlns="http://www.w3.org/2000/svg" xmlns:xlink="http://www.w3.org/1999/xlink" x="0px" y="0px"
	 width="900px" height="1120px" viewBox="0 -110 900 1120" enable-background="new 0 -110 900 1120" xml:space="preserve">
<g>
	<g>
		<path fill="#FFFFFF" d="M448.835,756.596C204.08,754.797,24.93,560.586,24.478,335.252
			C24.002,98.625,211.707-89.046,447.166-89.366c246.036-0.335,426.314,200.402,425.011,425.832
			C870.841,567.383,680.802,756.707,448.835,756.596z M119.083,142.699c0.389,0.257,0.778,0.514,1.168,0.771
			c0.955-0.621,1.931-1.213,2.862-1.868c40.136-28.217,83.25-50.904,128.814-68.943c49.48-19.591,100.304-33.934,153.634-38.013
			c3.28-0.25,4.242-2.251,5.636-4.696c6.239-10.959,11.713-22.58,19.423-32.427c14.018-17.902,33.621-21.864,54.145-12.026
			c7.139,3.422,13.954,7.894,20.141,12.854c18.658,14.966,33.147,33.669,45.984,53.669c2.35,3.658,5.09,5.595,9.256,6.672
			c32.018,8.279,62.138,21.021,89.775,39.29c43.883,29.005,78.052,66.655,98.54,115.372c13.027,30.976,20.282,63.712,23.886,97.207
			c3.639,33.817,1.946,67.229-7.312,100.044c-8.996,31.879-23.735,60.597-49.271,82.478
			c-32.135,27.537-69.741,38.875-111.756,34.873c-42.71-4.07-76.933-23.445-101.831-58.602
			c-6.283-8.871-11.422-18.453-13.218-29.376c-0.258-1.573,1.07-3.407,1.664-5.12c1.291,1.056,3.021,1.854,3.81,3.206
			c30.739,52.705,85.711,77.25,145.25,63.392c36.741-8.551,60.619-31.391,68.934-68.958c3.883-17.546,2.484-35.104-0.695-52.614
			c-5.799-31.929-15.275-62.559-33.822-89.557c-46.054-67.042-132.934-102.602-220.333-74.165
			c-104.662,34.053-153.047,139.092-117.586,236.778c14.85,40.906,41.196,73.9,74.868,100.672
			c79.918,63.535,171.022,89.287,272.516,78.061c1.99-0.221,4.186-1.25,5.714-2.562c8.837-7.605,17.886-15.021,26.168-23.205
			c72.135-71.281,111.663-157.449,116.127-258.923c2.45-55.694-7.752-109.473-29.356-160.943
			C732.7,20.428,554.357-76.19,373.374-39.555C265.858-17.792,183.513,41.442,124.195,133.271
			C122.261,136.266,120.777,139.55,119.083,142.699z M614.866,676.416c-0.08-0.439-0.159-0.881-0.239-1.32
			c-1.694-0.113-3.391-0.34-5.084-0.324c-46.827,0.375-91.587-9.48-134.275-28.301c-68.625-30.254-124.336-75.848-162.491-141.098
			c-27.661-47.303-40.854-98.147-29.541-152.835c16.51-79.809,62.574-136.79,137.373-169.216
			c42.396-18.38,87.104-19.688,131.873-10.208c67.15,14.219,117.366,51.575,149.5,112.615c13.1,24.886,19.492,51.855,24.971,79.16
			c0.992,4.949,2.867,10.013,5.535,14.27c4.501,7.183,12.39,6.403,15.18-1.533c1.832-5.21,2.634-11.02,2.694-16.575
			c0.408-37.312-5.978-73.578-18.426-108.684c-19.435-54.802-52.143-99.349-102.239-130.136
			c-30.92-19.002-64.719-30.097-100.29-36.18c-3.12-0.534-4.728-1.89-6.441-4.488c-9.065-13.742-17.876-27.724-27.98-40.681
			c-5.291-6.783-12.514-12.495-19.845-17.141c-8.722-5.526-17.134-2.954-21.878,6.257c-3.374,6.552-5.653,13.845-7.305,21.062
			c-1.907,8.341-2.588,16.962-3.841,25.74c-2.002,0-3.835-0.125-5.646,0.02c-21.56,1.721-43.235,2.588-64.646,5.435
			c-35.288,4.691-69.002,15.724-102.081,28.567c-48.358,18.776-94.185,42.193-134.425,75.436
			c-24.388,20.147-45.379,43.16-58.705,72.311c-1.359,2.973-2.359,6.262-2.749,9.498c-1.591,13.211-3.245,26.432-4.213,39.696
			c-2.929,40.116-0.48,79.819,9.606,118.93c46.105,178.768,211.552,298.649,395.374,286.499
			c47.173-3.117,92.188-14.561,135.146-34.221C611.5,678.18,613.17,677.27,614.866,676.416z"/>
		<path fill="#FFFFFF" d="M548.483,126.666c6.936-6.901,15.572-7.87,24.228-6.339c6.262,1.107,12.227,4.014,18.249,6.314
			c4.698,1.795,4.525,5.766,3.49,9.627c-1.111,4.148-4.486,6.539-8.342,5.187c-6.016-2.109-11.982-4.844-17.291-8.343
			C562.551,128.981,556.555,125.155,548.483,126.666z"/>
	</g>
	<g>
		<path fill-rule="evenodd" clip-rule="evenodd" fill="#FFFFFF" d="M51.266,868.501c9.25,0,18.499,0,28.317,0
			c0,1.976,0,3.698,0,5.421c0.002,16.628-0.055,33.257,0.023,49.885c0.049,10.793,4.563,17.607,12.7,19.584
			c13.339,3.236,23.078-4.355,23.219-18.434c0.17-16.945,0.043-33.894,0.043-50.842c0-1.727,0-3.453,0-5.475
			c9.4,0,18.408,0,27.698,0c0.105,0.875,0.277,1.631,0.275,2.385c-0.035,18.707,0.162,37.416-0.201,56.115
			c-0.473,24.479-14.438,39.318-38.928,41.244c-6.918,0.547-14.111,0.293-20.918-0.984c-17.939-3.367-28.506-14.965-31.25-32.977
			c-0.184-1.203-0.646-2.359-0.978-3.539C51.266,910.09,51.266,889.297,51.266,868.501z"/>
		<path fill-rule="evenodd" clip-rule="evenodd" fill="#FFFFFF" d="M251.047,946.537c-13.194,19.641-36.846,27.33-60.125,19.945
			c-20.933-6.639-34.892-26.404-34.562-48.934c0.351-23.924,14.887-43.072,37.404-49.278c22.151-6.103,45.563,1.616,56.435,18.96
			c-6.586,5.127-13.221,10.291-20.264,15.771c-6.704-7.705-14.637-12.918-25.357-11.204c-5.733,0.913-10.455,3.778-14.049,8.413
			c-8.688,11.199-7.375,28.762,2.853,38.035c10.177,9.229,23.4,7.105,37.29-6.213C237.355,936.791,244.098,941.59,251.047,946.537z"
			/>
		<path fill-rule="evenodd" clip-rule="evenodd" fill="#FFFFFF" d="M365.892,966.963c0-32.773,0-65.322,0-98.248
			c23.611,0,47.145,0,70.939,0c0,3.182,0,6.28,0,9.932c-19.973,0-39.726,0-59.758,0c0,11.33,0,22.109,0,33.426
			c17.783,0,35.302,0,53.135,0c0,3.613,0,6.699,0,10.257c-17.658,0-35.173,0-53.053,0c0,11.552,0,22.647,0,34.229
			c19.849,0,39.75,0,60.034,0c0,3.711,0,6.936,0,10.404C413.368,966.963,389.786,966.963,365.892,966.963z"/>
		<path fill-rule="evenodd" clip-rule="evenodd" fill="#FFFFFF" d="M530.934,989.367c-4.205,0-7.502,0-11.052,0
			c0-31.652,0-63.074,0-94.807c3.39,0,6.667,0,10.716,0c0,3.948,0,7.938,0,13.244c2.703-2.91,4.28-4.838,6.089-6.525
			c14.086-13.154,36.284-11.301,48.405,3.996c13.466,16.991,10.357,44.254-6.471,56.75c-13.32,9.896-31.664,8.561-43.341-3.154
			c-1.214-1.219-2.401-2.461-4.347-4.445C530.934,966.447,530.934,977.639,530.934,989.367z M582.011,930.604
			c-0.043-16.269-10.938-28.154-25.685-28.02c-14.578,0.133-26.024,12.509-25.978,28.086c0.047,15.672,11.95,28.209,26.634,28.045
			C571.643,958.551,582.054,946.861,582.011,930.604z"/>
		<path fill-rule="evenodd" clip-rule="evenodd" fill="#FFFFFF" d="M293.294,868.648c0,32.803,0,65.455,0,98.326
			c-9.031,0-17.748,0-26.833,0c0-32.777,0-65.396,0-98.326C275.352,868.648,284.199,868.648,293.294,868.648z"/>
		<path fill-rule="evenodd" clip-rule="evenodd" fill="#FFFFFF" d="M642.34,892.496c21.342-0.059,38.119,16.436,38.357,37.711
			c0.238,21.229-16.75,38.439-38.104,38.592c-21.323,0.148-38.014-16.277-38.311-37.707
			C603.986,909.842,621.036,892.551,642.34,892.496z M642.465,958.719c15.242,0.027,26.653-11.826,26.724-27.764
			c0.07-15.817-11.755-28.516-26.728-28.697c-14.879-0.18-26.556,12.048-26.696,27.961
			C615.624,946.131,627.391,958.691,642.465,958.719z"/>
		<path fill-rule="evenodd" clip-rule="evenodd" fill="#FFFFFF" d="M502.551,900.799c-1.805,3.006-3.335,5.554-4.577,7.621
			c-6.347-2.093-12.071-4.795-18.065-5.68c-4.272-0.629-9.389,0.215-13.263,2.139c-6.518,3.234-6.428,11.477,0,14.898
			c5.015,2.671,10.661,4.143,15.996,6.223c3.999,1.559,8.193,2.816,11.884,4.939c11.724,6.746,13.207,22.641,2.546,31.012
			c-3.944,3.098-9.267,5.379-14.227,6.066c-12.88,1.775-24.51-2.16-35.165-10.287c1.888-2.688,3.595-5.115,4.548-6.467
			c8.356,2.67,16.089,5.275,23.919,7.545c1.891,0.547,4.133,0.18,6.167-0.102c6.279-0.875,10.567-4.852,11.173-10.146
			c0.492-4.307-2.245-8.201-8.217-10.484c-7.736-2.961-15.867-4.973-23.428-8.295c-15.516-6.825-12.446-26.238-1.608-32.686
			c1.226-0.73,2.476-1.492,3.812-1.986C477.811,890.012,490.202,893.789,502.551,900.799z"/>
		<path fill-rule="evenodd" clip-rule="evenodd" fill="#FFFFFF" d="M849.76,901.16c-1.679,2.736-3.167,5.163-4.459,7.271
			c-6.155-2.04-11.864-4.676-17.84-5.656c-4.14-0.68-9.084-0.021-12.906,1.713c-7.034,3.191-7.096,11.764-0.34,15.496
			c4.006,2.21,8.561,3.43,12.879,5.066c4.468,1.695,9.096,3.043,13.396,5.094c6.451,3.076,10.626,7.951,10.771,15.621
			c0.152,8.023-2.812,14.363-9.709,18.533c-7.818,4.727-16.323,4.969-25.032,3.27c-7.795-1.52-14.879-4.574-21.452-9.885
			c1.77-2.539,3.457-4.963,5.491-7.881c1.543,1,2.925,1.961,4.362,2.824c7.416,4.455,15.309,7.35,24.088,6.088
			c2.726-0.395,5.639-1.512,7.834-3.148c5.779-4.311,5.498-11.992-0.734-15.551c-4.093-2.334-8.818-3.588-13.285-5.248
			c-4.625-1.719-9.428-3.035-13.907-5.068c-14.703-6.679-12.579-26.266-1.379-32.344c4.604-2.5,10.119-3.914,15.372-4.518
			C830.999,891.913,842.543,895.955,849.76,901.16z"/>
		<path fill-rule="evenodd" clip-rule="evenodd" fill="#FFFFFF" d="M786.183,894.023c0,3.727,0,6.531,0,9.725
			c-7.537,0-14.828,0-22.775,0c0,2.718,0,5.049,0,7.381c0,11.183-0.008,22.365,0,33.547c0.008,10.551,4.921,14.816,15.387,13.234
			c2.343-0.352,4.616-1.113,6.932-1.688c1.305,10.053,1.472,10.057-8.299,11.783c-15.66,2.768-25.04-5.43-25.06-21.219
			c-0.016-14.047-0.004-28.096-0.004-42.742c-3.367,0-6.46,0-9.885,0c0-3.383,0-6.18,0-9.613c2.925,0,6.01,0,9.768,0
			c0-7.678,0-14.768,0-22.043c3.982,0,7.287,0,10.989,0c0,7.121,0,14.096,0,21.635C771.015,894.023,778.419,894.023,786.183,894.023
			z"/>
		<path fill-rule="evenodd" clip-rule="evenodd" fill="#FFFFFF" d="M706.784,967.025c-3.851,0-7.01,0-10.61,0
			c0-24.123,0-48.148,0-72.473c3.319,0,6.611,0,10.458,0c0,5.211,0,10.531,0,15.666c4.245-4.33,7.764-9.287,12.505-12.361
			c4.741-3.078,10.7-4.275,16.992-6.616c0,5.317,0,9.05,0,12.993c-0.191,0.096-0.598,0.471-1.012,0.477
			c-16.328,0.219-27.767,12.311-28.282,31.182C706.554,946.096,706.784,956.316,706.784,967.025z"/>
	</g>
</g>
</svg>
