<?xml version="1.0" encoding="utf-8"?>
<!-- Generator: Adobe Illustrator 26.0.1, SVG Export Plug-In . SVG Version: 6.00 Build 0)  -->
<svg version="1.1" id="Layer_1" xmlns="http://www.w3.org/2000/svg" xmlns:xlink="http://www.w3.org/1999/xlink" x="0px" y="0px"
	 viewBox="0 0 440 138" style="enable-background:new 0 0 440 138;" xml:space="preserve">
<style type="text/css">
	.st0{fill:#FCE8ED;}
	.st1{fill:none;stroke:#DD1444;stroke-width:8;stroke-linecap:round;stroke-linejoin:round;stroke-miterlimit:10;}
	.st2{fill:#DD1444;stroke:#DD1444;stroke-width:1.5;stroke-linecap:round;stroke-linejoin:round;stroke-miterlimit:10;}
	
		.st3{fill-rule:evenodd;clip-rule:evenodd;fill:#DD1444;stroke:#DD1444;stroke-width:1.5;stroke-linecap:round;stroke-linejoin:round;stroke-miterlimit:10;}
</style>
<path class="st0" d="M431.1,122.3c1.1-30.5,2.5-52.5,1.1-83c-0.4-8.7-4.4-18.9-4.1-27.1c0-0.2-0.4,0.2-0.5,0.2
	c-3.1-0.1-6.6,0.8-9.8,1c-7.9,0.6-15.8,0.6-23.7,0.3c-39.5-1.4-75.8-2.5-114.9-0.7c-38.2,1.8-203.7-2-248.5-2.7
	c-8-0.1-23.5,1.3-23.5,2.3c0.3,3.5-0.1,17.9,0.1,21.3c0.3,9.6,2,19.1,2.6,28.7c1,16.8,0.8,34.2,2.5,50.8c0.3,3.1-0.5,11.1,1.8,13.6
	c1.3,1.4,11.3,1.2,13.2,1.1c13.5-1.3,26.7-1.7,40.3-1.2c56.2,2.1,115,6,171,1.2c39.9-3.4,79.2,2.1,119,0.3
	C381.8,127.4,407.8,121.5,431.1,122.3"/>
<path class="st1" d="M431.1,122.3c1.1-30.5,2.5-52.5,1.1-83c-0.4-8.7-4.4-18.9-4.1-27.1c0-0.2-0.4,0.2-0.5,0.2
	c-3.1-0.1-6.6,0.8-9.8,1c-7.9,0.6-15.8,0.6-23.7,0.3c-39.5-1.4-75.8-2.5-114.9-0.7C241,14.9,90.8,15.4,38.9,10.4
	C31.3,9,9.4,12.9,9.5,13.8C9.8,17.3,9.8,30.5,9.9,34c0.3,9.6-0.6,19.2-0.1,28.8c1,16.8,0.8,34.2,2.5,50.8c0.3,3.1-0.5,11.1,1.8,13.6
	c1.3,1.4,11.3,1.2,13.2,1.1c13.5-1.3,26.7-1.7,40.3-1.2c56.2,2.1,115,6,171,1.2c39.9-3.4,79.2,2.1,119,0.3
	C381.8,127.4,407.8,121.5,431.1,122.3"/>
<path class="st2" d="M255,64.7c5.9-5.8,13.1-4.6,20.1-3.4c3.8,0.6,4.8,4.6,4.8,8c0.1,5.4-7.3,5-13,5.1c-4,0.1-3.2-6.7-7.5-5.5
	c-4.2,1.2-4.7,5.1-4.2,8.8c0.9,6.4-0.3,12.7,0,19c0.1,1.8-0.8,3.1-2.6,2.9c-2.9-0.3-5.7,1.2-8.9-0.3c0.5-12,1.8-24.2-0.3-36.4
	c5.2-4.1,8.3-3.9,11.5,0.8"/>
<path class="st2" d="M194.3,92.7c0-4.6,0-4.6-0.1-9.2c-0.1-4.7,0-9.4-0.8-14.1c-1.1-6.6-4.4-9.2-10.6-9.8c-0.4,0-0.7-0.1-1.1-0.2
	c-3.9-1-7.6-1.1-11.2,1.3c-0.4-3.2-0.8-10.9-1.2-14c-0.1-1.2-0.1-2.3-0.1-3.5c-0.1-1.5,0.3-3.7-1.6-3.9c-3.7-0.3-0.9,0-4.6,0.2
	c-0.4,0-7.1-0.4-6.7,1.1c-0.1,0.3-0.3,0.7,0.1,0.7c0,0,0,0.5,0,0.5c-0.6,1.6-0.2,4.2-0.1,5.2c0.6,8,1.4,16.1,1.7,24.1
	c0.3,8.3,0.1,16.6,0.4,24.8c0,1,1.3,2.7,2.1,2.7c3,0.2,6,0.1,9-0.2c0.8-0.1,2-1.5,2.1-2.4c0.7-5.8-0.3-7.1,0.4-12.9
	c0.3-2.7,0.9-5.6,1.7-8.1c0.1-0.5,1-2.8,3.8-2.1c2.7,1.3,4.3,4.7,4.3,7.9c0,4.7-0.2,4.8-0.3,9.4c-0.1,2.6-0.3,5.1-0.2,7.7
	c0,0.6,1.2,1.8,1.8,1.7c3.3-0.4,6.6-1,9.8-1.8c0.6-0.1,1.2-1.1,1.3-1.8C194.5,95.1,194.4,93.9,194.3,92.7"/>
<path class="st3" d="M323.4,91.5c-3.4-6.3-1.6-8.4-3.6-15.2c-1.6-5.4-0.7-2.8-3-8c-0.6-1.3-3.7-5.9-8.5-7c-5.3-1.2-8.8,0.9-13.9,2.7
	c-0.1-0.2-3.5,0.4-4.8,1.3c-1.9,1.3-4.1,2.7-5.1,4.6c-3.4,6.9-3.6,14.2-0.5,21.4c1.6,3.7,4.2,6.7,8.2,7.6c6.1,1.4,11.9,0.1,17-3.6
	c0.4-0.3,1.2-0.6,1.3-0.4c0.4,0.4,0.4,1,0.6,1.5c0.8,1.8-0.1,4.4,2.2,4.5C316.5,100.9,326.8,97.8,323.4,91.5z M302.9,89
	c-1.3,0.6-3.4,0.4-4.5-0.3c-6.8-4.2-5.3-6.9-2.5-13.6c0.9-2.1,5.2-4.8,7-3.2c1.7,1.6,3.2-0.2,5,6.9C308.8,83.9,306.5,87.5,302.9,89z
	"/>
<path class="st2" d="M224.4,87.4c-2.8,3.7-7,3.6-11,3.2c-4.5-0.4-4.8-8.9-4.8-9.6c0,0,0-2.2,0.1-3c0.5-4.3,2.9-7.5,6.8-8.7
	c3-0.9,5.5,1.5,7.4,4c0.9,1.2,1.8,2.3,2.4,3.6C226.9,80.6,226.9,84.2,224.4,87.4L224.4,87.4z M237.9,79.2c-0.4-11.6,0.4-23.3,0.6-35
	c0.1-2.2,0.5-4.9-2.9-5c-7.5-0.3-8.7,0.5-9.1,4.8c-0.5,4.4,1.5,8.6,0.8,13c-0.3,1.9-0.1,3.8-1.2,5.5l0,1c-5.8-4.5-12-2.5-17.9-0.8
	c-6,1.8-9,6.6-9.2,12.7c-0.2,3.8-1,7.6,0.6,11.6c3.5,9.1,9.8,12.4,19.4,10.6c2.2-0.4,4.9-1.4,7.7,1.2c2.3,2.3,6.8,0.6,10.8,1.1
	C237,92.6,238.1,86,237.9,79.2L237.9,79.2z"/>
<path class="st2" d="M104.3,99.9c-0.8-12.8,1.4-24.2,2.3-36.9c0.1-1.3,0.7-2.3,1.6-2.4c2.4-0.3,4.8,0.3,6.9,1.6
	c1.9,1.1,0.9,3,0.9,4.5c-0.1,9.7-1.7,19.3-0.6,29c0.2,1.9-0.5,3-2.6,3.5C110.3,99.8,106.8,100.1,104.3,99.9z"/>
<path class="st2" d="M110.5,45.6c-2.8,0.5-4.8,1.7-5.2,4.9c-0.3,2.7,2,3.7,3.5,4.4c1.6,0.7,3.9,1.7,5.6-1.1c1.4-2.3,1.4-3.9-0.5-5.6
	c-0.9-0.8-1.9-1.4-2.9-2.1"/>
<path class="st2" d="M150.6,50.2c-6.3,0.3-6.9,0.6-9.4,1.2c0.3-3.5,0.9-7.2,1.4-10.5c0.3-2.5,0.4-5-3.4-5.1
	c-4.4-0.1-7.2,1.5-7.6,4.9c-0.4,3.9-0.8,7.8-1.1,11.8c-2-0.3-4.1-0.8-6.3-1c-2-0.2-5.3-1.7-5.1,2.8c0.3,5.1,1.8,8.3,4.4,8.5
	c2,0.1,4.1,0.3,6.2,0.4c-0.2,4.1-0.3,8.3-0.2,12.5c0.1,6.3,0,12.7-0.2,19c-0.1,3.4,0.8,5.7,4.9,5.1l2.7,0.1
	c6.3-0.8,4.5-3.9,4.7-10.3c0.2-9.7,0-17.4-0.4-26.3c2.7-0.3,5.1-0.8,6.7-1.8C152.6,58.5,155.7,50,150.6,50.2z"/>
<path class="st2" d="M385.8,65.4c5.9-5.8,13.1-4.6,20.1-3.4c3.8,0.6,4.5,4.6,4.8,8c0.9,8.2,1.7,16.4,2.4,24.6
	c0.3,3.2-0.2,5.5-4.6,5.7c-1.7,0.1-3.7,0-6,0.9c0.2-9.2-1-17.8-4.8-26.1c-1.7-3.6-3.2-6.7-7.5-5.5c-4.2,1.2-4.7,5.1-4.2,8.8
	c0.9,6.4-0.3,12.7,0,19c0.1,1.8-0.8,3.1-2.5,2.9c-2.9-0.3-5.7,1.2-8.9-0.3c0.5-12,1.8-24.2-0.3-36.4c5.2-4.1,8.3-3.9,11.5,0.8"/>
<path class="st2" d="M101.7,41c-2.7-1.1-5.4-2.4-8.1-3.7c-1.2-0.6-2.2-0.2-3,1.7c-0.7,1.9-1.4,3.8-2,5.7C85.5,54.9,82.4,65,79.1,75
	c-0.8,2.4-1.7,4.7-2.6,7.1c-2.9-4.3-7.3-11.5-7.3-11.5c0-0.4-1.3-2.2-1.7-2.6c-1.3-1.8-0.9-4.8-3-5.4c-0.8-0.2-3.7,2-4.2,3
	c-2.6,4.9-5.3,9.4-7.8,14c-2.4-5.7-4.8-11.4-7.1-17.2c-1.8-4.5-3.2-9.2-4.9-13.7c-0.5-1.3-1.2-2.4-1.8-3.6c-1-1.9-1.9-3.8-2.8-5.7
	c-1.4-2.9-3-2-4.5-1.6c-0.2,0-0.4-0.1-0.5,0c-2.5,1.5-5,2.9-7.5,4.5c-0.3,0.2-0.2,1.3-0.3,2c0.5,0.1,1.1,0.3,1.6,0.4
	c0.3,0,0.5-0.2,0.8-0.3c0.5,1.5,0.9,2.8,1.5,4.1c1.9,4.8,4.1,9.5,5.8,14.4c3.6,10,7,20,10.5,29.9c0.7,1.9,1.4,3.8,2.2,5.7
	c0.8,1.9,1.8,2.2,3,1.6c2.6-1.3,5.2-2.7,7.9-3.9c1.1-0.5,1.5-1.4,1.1-2.8c-0.2-0.6-1.7-4.5-1.5-5.1c1.7-5.3,5.6-7.2,7.5-10.2
	c3,5.1,6.6,12.4,7.8,15.6c-0.1,0.3-1.3,2-0.9,2.2c2.5,1.5,5.1,2.9,7.6,4.2c0.1,0.1,0.4-0.1,0.5,0c1.6,0.4,3.1,1.2,4.4-1.7
	c0.9-1.9,1.8-3.8,2.7-5.7c0.6-1.2,1.2-2.4,1.7-3.7c1.5-4.6,2.8-9.3,4.5-13.9c2.9-8,6.1-15.8,9-23.8c0.9-2.4,1.5-5,2.2-7.5
	C103.2,42.3,102.8,41.5,101.7,41z"/>
<path class="st2" d="M369.7,62.6c-1.8-0.7-3.5-1.5-5.2-2.3c-0.8-0.4-2.9-0.5-3.4,0.7c-0.5,1.2-0.9,2.4-1.3,3.7
	c-2.1,6.5-3.5,11.8-5.6,18.3c-0.3,1-1,2.3-2.1,5.2c-1.9-2.8-2.5-5.5-2.5-5.5c0-0.2-0.9-1.4-1.1-1.7c-0.8-1.1-1.6-2-2.9-2.4
	c-0.5-0.2-2.4,0.5-2.7,1.2c-1.7,3.1-2.5,3-4.2,6c-1.5-3.7-3-6.2-4.5-9.9c-1.1-2.9-2.1-5.9-3.2-8.8c-0.3-0.8-0.8-1.6-1.1-2.3
	c-0.6-1.2-1.2-2.4-1.8-3.6c-0.9-1.8-2.7-0.7-3.7-0.5c-0.1,0-0.3-0.1-0.4,0c-1.6,0.9-3.2,1.8-4.8,2.9c-0.2,0.1-0.1,0.8-0.2,1.3
	c0.4,0.1,0.7,0.2,1,0.3c0.2,0,0.3-0.1,0.5-0.2c0.3,0.9,0.6,1.8,0.9,2.7c1.2,3.1,2.6,6.2,3.8,9.3c2.3,6.4,4.5,12.8,6.8,19.3
	c0.4,1.2,0.9,2.4,1.4,3.6c0.5,1.2,1.1,1.4,1.9,1.1c1.7-0.9,3.4-1.7,5.1-2.5c0.7-0.3,1-0.9,0.7-1.8c-0.1-0.4-0.5,0.7-0.4,0.4
	c1.1-3.4,3-7,4.1-8.9c1.9,3.3,2.6,5.2,4.1,8.4c0,0,0.2,1.6,0.5,1.8c1.6,1,5.1,2.7,5.2,2.7c1,0.2,2,0.8,2.9-1.1
	c0.6-1.2,1.1-2.5,1.7-3.7c0.4-0.8,0.8-1.5,1.1-2.4c1-3,1.8-6,2.9-8.9c1.9-5.1,3.9-10.2,5.8-15.3c0.6-1.6,1-3.2,1.4-4.8
	C370.7,63.4,370.4,62.9,369.7,62.6z"/>
</svg>
