<?xml version="1.0" encoding="utf-8"?>
<!-- Generator: Adobe Illustrator 26.0.1, SVG Export Plug-In . SVG Version: 6.00 Build 0)  -->
<svg version="1.1" id="Layer_1" xmlns="http://www.w3.org/2000/svg" xmlns:xlink="http://www.w3.org/1999/xlink" x="0px" y="0px"
	 viewBox="0 0 440 138" style="enable-background:new 0 0 440 138;" xml:space="preserve">
<style type="text/css">
	.st0{fill:#FCE8ED;}
	.st1{fill:none;stroke:#DD1444;stroke-width:8;stroke-linecap:round;stroke-linejoin:round;stroke-miterlimit:10;}
	.st2{fill:#DD1444;stroke:#DD1444;stroke-width:1.5;stroke-linecap:round;stroke-linejoin:round;stroke-miterlimit:10;}
	
		.st3{fill-rule:evenodd;clip-rule:evenodd;fill:#DD1444;stroke:#DD1444;stroke-width:1.5;stroke-linecap:round;stroke-linejoin:round;stroke-miterlimit:10;}
</style>
<path class="st0" d="M431.07,122.31c1.11-30.49,2.53-52.54,1.12-82.98c-0.4-8.69-4.36-18.94-4.06-27.09
	c0.01-0.2-0.35,0.24-0.54,0.23c-3.08-0.11-6.63,0.8-9.78,1.03c-7.89,0.56-15.78,0.59-23.72,0.3c-39.45-1.44-75.8-2.54-114.9-0.7
	C241,14.9,75.5,11.12,30.67,10.43c-7.96-0.12-23.55,1.34-23.47,2.33c0.27,3.46-0.06,17.85,0.05,21.33
	c0.31,9.6,2.04,19.11,2.59,28.67c0.97,16.8,0.81,34.18,2.48,50.85c0.31,3.12-0.47,11.14,1.83,13.61c1.34,1.44,11.33,1.24,13.16,1.06
	c13.49-1.35,26.74-1.72,40.28-1.22c56.18,2.05,115,6.02,171.03,1.17c39.86-3.45,79.21,2.12,118.99,0.28
	C381.76,127.4,407.76,121.46,431.07,122.31"/>
<path class="st1" d="M431.07,122.31c1.11-30.49,2.53-52.54,1.12-82.98c-0.4-8.69-4.36-18.94-4.06-27.09
	c0.01-0.2-0.35,0.24-0.54,0.23c-3.08-0.11-6.63,0.8-9.78,1.03c-7.89,0.56-15.78,0.59-23.72,0.3c-39.45-1.44-75.8-2.54-114.9-0.7
	C241,14.9,77.61,11.16,32.78,10.47c-7.96-0.12-23.37,2.38-23.29,3.37c0.27,3.46,0.33,16.7,0.44,20.17c0.31,9.6-0.65,19.19-0.1,28.75
	c0.97,16.8,0.81,34.18,2.48,50.85c0.31,3.12-0.47,11.14,1.83,13.61c1.34,1.44,11.33,1.24,13.16,1.06
	c13.49-1.35,26.74-1.72,40.28-1.22c56.18,2.05,115,6.02,171.03,1.17c39.86-3.45,79.21,2.12,118.99,0.28
	C381.76,127.4,407.76,121.46,431.07,122.31"/>
<path class="st2" d="M255.04,64.72c5.88-5.78,13.13-4.57,20.06-3.4c3.8,0.64,4.78,4.56,4.82,7.96c0.06,5.37-7.34,5.04-12.97,5.14
	c-3.95,0.07-3.2-6.68-7.47-5.49c-4.22,1.18-4.67,5.13-4.17,8.78c0.86,6.36-0.32,12.68,0,19.01c0.09,1.77-0.84,3.07-2.55,2.87
	c-2.85-0.33-5.7,1.22-8.88-0.3c0.47-12,1.82-24.21-0.28-36.36c5.16-4.07,8.33-3.86,11.46,0.78"/>
<path class="st2" d="M194.33,92.73c-0.03-4.58,0-4.62-0.14-9.2c-0.15-4.7-0.04-9.45-0.82-14.05c-1.11-6.56-4.36-9.2-10.65-9.8
	c-0.36-0.04-0.73-0.07-1.09-0.16c-3.85-1.03-7.6-1.12-11.22,1.35c-0.4-3.2-0.84-10.87-1.2-14.01c-0.12-1.15-0.07-2.33-0.15-3.5
	c-0.11-1.5,0.29-3.71-1.59-3.87c-3.72-0.31-0.85,0.02-4.58,0.15c-0.42,0.01-7.14-0.4-6.66,1.14c-0.1,0.28-0.31,0.65,0.15,0.7
	c0.02,0,0.02,0.51,0.04,0.51c-0.57,1.62-0.2,4.19-0.13,5.18c0.62,8.04,1.37,16.06,1.69,24.11c0.33,8.27,0.13,16.57,0.37,24.85
	c0.03,0.98,1.33,2.67,2.15,2.74c2.99,0.25,6.04,0.13,9.03-0.23c0.8-0.1,1.99-1.48,2.11-2.4c0.7-5.77-0.3-7.09,0.42-12.86
	c0.33-2.65,0.87-5.58,1.7-8.12c0.14-0.49,1.02-2.77,3.82-2.12c2.71,1.35,4.29,4.71,4.28,7.88c-0.02,4.65-0.2,4.78-0.32,9.44
	c-0.07,2.55-0.29,5.11-0.16,7.66c0.03,0.62,1.23,1.75,1.76,1.68c3.31-0.42,6.57-1.04,9.81-1.78c0.55-0.13,1.19-1.11,1.32-1.79
	C194.49,95.1,194.35,93.9,194.33,92.73"/>
<path class="st3" d="M323.42,91.47c-3.36-6.32-1.58-8.37-3.63-15.22c-1.63-5.44-0.73-2.77-3.02-8c-0.58-1.33-3.66-5.93-8.48-6.98
	c-5.31-1.17-8.77,0.91-13.92,2.66c-0.07-0.21-3.49,0.4-4.84,1.34c-1.88,1.3-4.15,2.68-5.07,4.61c-3.36,6.94-3.62,14.19-0.51,21.38
	c1.61,3.71,4.24,6.7,8.21,7.64c6.13,1.45,11.89,0.09,17.05-3.6c0.38-0.27,1.19-0.59,1.31-0.45c0.35,0.39,0.41,1.04,0.63,1.54
	c0.76,1.76-0.07,4.41,2.23,4.48C316.54,100.94,326.77,97.76,323.42,91.47z M302.93,89.03c-1.26,0.56-3.37,0.45-4.54-0.27
	c-6.79-4.15-5.34-6.87-2.48-13.55c0.92-2.14,5.24-4.8,6.99-3.15c1.69,1.61,3.23-0.21,4.97,6.89
	C308.76,83.89,306.45,87.48,302.93,89.03z"/>
<path class="st2" d="M224.45,87.41c-2.81,3.69-7.03,3.6-11.04,3.22c-4.54-0.43-4.81-8.88-4.79-9.55c0,0-0.04-2.16,0.05-3
	c0.46-4.31,2.88-7.52,6.77-8.68c3.03-0.9,5.52,1.51,7.35,4c0.85,1.15,1.8,2.28,2.39,3.57C226.85,80.55,226.91,84.18,224.45,87.41
	L224.45,87.41z M237.85,79.23c-0.37-11.64,0.36-23.32,0.61-34.99c0.05-2.25,0.51-4.9-2.88-5.04c-7.46-0.29-8.7,0.52-9.15,4.76
	c-0.46,4.41,1.48,8.61,0.8,13.03c-0.29,1.86-0.06,3.79-1.18,5.47l-0.02,1c-5.78-4.5-12.04-2.54-17.95-0.79
	c-5.96,1.77-8.97,6.61-9.22,12.68c-0.16,3.81-0.96,7.63,0.56,11.55c3.5,9.05,9.77,12.41,19.38,10.58c2.22-0.42,4.89-1.44,7.67,1.25
	c2.34,2.27,6.76,0.63,10.82,1.14C237,92.55,238.06,85.99,237.85,79.23L237.85,79.23z"/>
<path class="st2" d="M104.29,99.91c-0.79-12.75,1.36-24.23,2.3-36.87c0.1-1.31,0.65-2.27,1.62-2.39c2.44-0.29,4.81,0.35,6.95,1.6
	c1.95,1.13,0.87,3.01,0.86,4.51c-0.06,9.67-1.67,19.3-0.62,28.99c0.2,1.86-0.53,3.03-2.55,3.48
	C110.35,99.79,106.85,100.14,104.29,99.91z"/>
<path class="st2" d="M110.54,45.63c-2.81,0.47-4.82,1.67-5.15,4.88c-0.28,2.73,1.98,3.73,3.51,4.4c1.58,0.7,3.89,1.7,5.57-1.13
	c1.38-2.32,1.36-3.9-0.51-5.56c-0.89-0.79-1.95-1.4-2.94-2.08"/>
<path class="st2" d="M150.64,50.22c-6.28,0.32-6.86,0.59-9.39,1.18c0.32-3.54,0.93-7.23,1.36-10.51c0.32-2.49,0.45-5.03-3.35-5.11
	c-4.4-0.1-7.24,1.51-7.59,4.87c-0.41,3.93-0.79,7.85-1.11,11.78c-2.04-0.29-4.07-0.79-6.32-1.02c-1.97-0.2-5.3-1.66-5.05,2.78
	c0.29,5.14,1.79,8.34,4.44,8.52c2.04,0.13,4.14,0.28,6.23,0.4c-0.19,4.15-0.29,8.32-0.24,12.5c0.07,6.29,0.01,12.66-0.2,18.99
	c-0.11,3.43,0.84,5.73,4.9,5.11l2.71,0.07c6.27-0.77,4.54-3.94,4.71-10.35c0.25-9.65-0.01-17.39-0.39-26.31
	c2.74-0.26,5.08-0.79,6.71-1.79C152.62,58.55,155.67,49.97,150.64,50.22z"/>
<path class="st2" d="M385.75,65.45c5.88-5.78,13.13-4.57,20.06-3.4c3.8,0.64,4.46,4.57,4.82,7.96c0.87,8.18,1.69,16.37,2.44,24.56
	c0.3,3.25-0.2,5.47-4.58,5.7c-1.67,0.09-3.73,0.04-5.99,0.94c0.19-9.25-1.01-17.85-4.83-26.07c-1.67-3.58-3.2-6.68-7.47-5.49
	c-4.22,1.18-4.67,5.13-4.17,8.78c0.86,6.36-0.32,12.68,0,19.01c0.09,1.77-0.84,3.07-2.55,2.87c-2.85-0.33-5.7,1.22-8.88-0.3
	c0.47-12,1.82-24.21-0.28-36.36c5.16-4.07,8.33-3.86,11.46,0.78"/>
<path class="st2" d="M101.74,41c-2.72-1.11-5.38-2.4-8.05-3.66c-1.24-0.58-2.25-0.19-2.96,1.72c-0.69,1.9-1.38,3.8-1.99,5.72
	c-3.22,10.08-6.33,20.18-9.65,30.23c-0.79,2.38-1.66,4.73-2.56,7.07c-2.9-4.27-7.34-11.53-7.35-11.54c0.01-0.38-1.34-2.19-1.66-2.63
	c-1.29-1.76-0.92-4.8-3-5.43c-0.83-0.25-3.65,2.02-4.19,3.04c-2.58,4.87-5.3,9.4-7.85,14.01c-2.37-5.72-4.79-11.42-7.08-17.17
	c-1.79-4.51-3.24-9.18-4.92-13.74c-0.46-1.26-1.18-2.41-1.78-3.61c-0.95-1.89-1.91-3.76-2.84-5.66c-1.41-2.86-2.95-2.04-4.48-1.6
	c-0.16,0.04-0.41-0.09-0.55,0c-2.5,1.45-5.03,2.87-7.48,4.46c-0.32,0.21-0.21,1.28-0.29,1.97c0.55,0.14,1.09,0.34,1.63,0.41
	c0.27,0.04,0.51-0.19,0.78-0.32c0.51,1.47,0.93,2.82,1.45,4.12c1.94,4.81,4.08,9.55,5.85,14.43c3.61,9.95,7.01,19.96,10.53,29.94
	c0.67,1.9,1.41,3.78,2.16,5.66c0.76,1.9,1.79,2.25,3,1.64c2.63-1.33,5.25-2.7,7.94-3.89c1.08-0.48,1.47-1.38,1.06-2.84
	c-0.16-0.56-1.72-4.54-1.55-5.07c1.68-5.33,5.64-7.18,7.46-10.19c2.98,5.08,6.62,12.4,7.84,15.62c-0.09,0.28-1.27,2.02-0.95,2.22
	c2.49,1.51,5.06,2.86,7.6,4.23c0.14,0.09,0.38-0.06,0.54-0.02c1.55,0.39,3.11,1.17,4.44-1.73c0.87-1.92,1.78-3.82,2.68-5.74
	c0.57-1.22,1.25-2.39,1.68-3.66c1.54-4.61,2.85-9.32,4.51-13.88c2.9-7.97,6.05-15.84,8.99-23.8c0.9-2.43,1.54-4.97,2.17-7.48
	C103.25,42.34,102.84,41.46,101.74,41z"/>
<path class="st2" d="M369.71,62.57c-1.75-0.71-3.46-1.55-5.18-2.35c-0.8-0.37-2.94-0.53-3.39,0.71c-0.45,1.22-0.89,2.44-1.28,3.68
	c-2.07,6.48-3.49,11.85-5.63,18.32c-0.33,0.99-0.97,2.32-2.06,5.17c-1.86-2.75-2.51-5.49-2.52-5.5c0.01-0.25-0.86-1.41-1.07-1.69
	c-0.83-1.13-1.57-2.02-2.9-2.42c-0.53-0.16-2.36,0.49-2.71,1.15c-1.66,3.13-2.55,3-4.2,5.97c-1.53-3.68-3.03-6.16-4.51-9.87
	c-1.15-2.9-2.09-5.91-3.16-8.84c-0.3-0.81-0.76-1.55-1.15-2.32c-0.61-1.22-1.23-2.42-1.83-3.64c-0.91-1.84-2.69-0.73-3.68-0.45
	c-0.11,0.03-0.26-0.06-0.35,0c-1.61,0.93-3.24,1.85-4.81,2.87c-0.2,0.13-0.13,0.83-0.19,1.27c0.35,0.09,0.7,0.22,1.05,0.26
	c0.17,0.03,0.33-0.12,0.51-0.21c0.33,0.95,0.6,1.81,0.93,2.65c1.25,3.1,2.63,6.15,3.76,9.28c2.32,6.4,4.51,12.84,6.77,19.26
	c0.43,1.22,0.91,2.43,1.39,3.64c0.49,1.22,1.15,1.45,1.93,1.05c1.7-0.86,3.38-1.74,5.11-2.5c0.69-0.31,0.95-0.89,0.68-1.82
	c-0.1-0.36-0.53,0.72-0.42,0.38c1.08-3.43,2.95-6.98,4.12-8.92c1.92,3.27,2.6,5.24,4.09,8.45c0,0,0.24,1.62,0.45,1.75
	c1.6,0.97,5.14,2.69,5.24,2.71c1,0.25,2,0.75,2.85-1.12c0.56-1.24,1.15-2.46,1.72-3.69c0.37-0.78,0.81-1.54,1.08-2.36
	c0.99-2.97,1.84-6,2.9-8.93c1.87-5.13,3.89-10.19,5.78-15.31c0.58-1.56,0.99-3.2,1.4-4.81C370.68,63.42,370.41,62.86,369.71,62.57z"
	/>
</svg>
